<?xml version="1.0" encoding="utf-8"?>
<!-- Generator: Adobe Illustrator 18.1.1, SVG Export Plug-In . SVG Version: 6.00 Build 0)  -->
<svg version="1.1" xmlns="http://www.w3.org/2000/svg" xmlns:xlink="http://www.w3.org/1999/xlink" x="0px" y="0px"
	 viewBox="0 0 286 514.7" enable-background="new 0 0 286 514.7" xml:space="preserve">
<symbol  id="New_Symbol_1" viewBox="-23.9 -26.7 48 50.7">
	<path fill="#FFFFFF" stroke="#B14A5D" stroke-width="3" stroke-miterlimit="10" d="M10.6,22.5h-21c-6.6,0-12-5.4-12-12v-21
		c0-6.6,5.4-12,12-12h8c0-0.1,0-0.1,0-0.2c0-1.4,1.1-2.5,2.5-2.5c1.4,0,2.5,1.1,2.5,2.5c0,0.1,0,0.1,0,0.2h8c6.6,0,12,5.4,12,12v21
		C22.6,17.1,17.2,22.5,10.6,22.5z"/>
	<path fill="none" stroke="#B14A5D" stroke-width="5" stroke-miterlimit="10" d="M11.7-1.6v-6.1c0-3.2-2.6-5.8-5.8-5.8H-5.7
		c-3.2,0-5.8,2.6-5.8,5.8v6.2"/>
	<path fill="#B14A5D" d="M-5,6.3c0,1.5,0,2.8,0,4.1c0,1.5,0,3,0,4.5c0,1.2,0.5,1.6,1.7,1.6c2.3,0,4.6,0,6.8,0c1.3,0,1.7-0.4,1.7-1.7
		c0-2.5,0-5,0-7.5c0-0.3,0-0.6,0-1c0.4,0,0.6,0,0.9,0c1.6,0,3.1,0.1,4.7,0c0.4,0,1.1-0.4,1.2-0.7c0.1-0.4,0-1.1-0.3-1.5
		C8.3,0.4,4.7-3.1,1.2-6.6c-0.7-0.7-1.3-0.7-2,0C-4.4-3.1-8,0.5-11.5,4.1c-0.3,0.3-0.4,1-0.3,1.4c0.2,0.4,0.8,0.7,1.2,0.8
		c1.5,0.1,3,0,4.5,0C-5.7,6.3-5.4,6.3-5,6.3z"/>
</symbol>
<symbol  id="New_Symbol_2" viewBox="-23.9 -23.2 48 50.6">
	<path fill="#FFFFFF" stroke="#7EA885" stroke-width="3" stroke-miterlimit="10" d="M10.6,23.3h-8c0,0,0,0.1,0,0.1
		c0,1.4-1.1,2.5-2.5,2.5c-1.4,0-2.5-1.1-2.5-2.5c0,0,0-0.1,0-0.1h-8c-6.6,0-12-5.4-12-12v-21c0-6.6,5.4-12,12-12h21
		c6.6,0,12,5.4,12,12v21C22.6,17.9,17.2,23.3,10.6,23.3z"/>
	<path fill="none" stroke="#7EA885" stroke-width="5" stroke-miterlimit="10" d="M-11.3,1.7v6.1c0,3.1,2.6,5.7,5.7,5.7H5.9
		c3.1,0,5.7-2.6,5.7-5.7V1.7"/>
	<path fill="#7EA885" d="M-4.9-3.3c0,1.4,0,2.8,0,4.1c0,1.5,0,2.9,0,4.4c0,1.2,0.5,1.6,1.6,1.6c2.3,0,4.5,0,6.8,0
		c1.2,0,1.6-0.4,1.6-1.7c0-2.5,0-4.9,0-7.4c0-0.3,0-0.6,0-1c0.4,0,0.6,0,0.9,0c1.5,0,3.1,0,4.6,0c0.4,0,1.1-0.4,1.2-0.7
		c0.1-0.4,0-1.1-0.3-1.4C8.2-9,4.7-12.5,1.2-16c-0.7-0.7-1.3-0.7-2,0c-3.5,3.5-7.1,7-10.5,10.6c-0.3,0.3-0.4,1-0.3,1.4
		c0.2,0.4,0.8,0.7,1.2,0.8c1.5,0.1,3,0,4.5,0C-5.7-3.3-5.4-3.3-4.9-3.3z"/>
</symbol>
<g id="Layer_2">
	<path fill="none" stroke="#A1A1AA" stroke-width="2" stroke-miterlimit="10" stroke-dasharray="10,2" d="M162,50.7
		c25.8,29.5,45,36.9,58,36c8-0.5,19.2-2.7,25,3c6.7,6.7-0.4,17.8-1,19.7c-7.2,23.5-35,36.4-58,39.3c-10.8,1.4-10.3-0.7-23.3,0
		c-9.9,0.5-13.6-2.7-23.9,0.1c-24.5,6.7-53.8,24.5-57.1,41.3c-2,10,7.2,25.3,2,29.7c-5.1,4.3-14.7-7.4-25-5.7
		C41,216.9,29.3,239.5,26,256.7c-2.1,10.7-1.1,19.9,0,26"/>
	<path fill="none" stroke="#A1A1AA" stroke-width="2" stroke-miterlimit="10" stroke-dasharray="10,2" d="M80.7,236
		c0,25.3,0,50.7,0,76c0,7.8,0,15.6,0,23.3c0,17.3,0,34.7,0,52"/>
	<path fill="none" stroke="#A1A1AA" stroke-width="2" stroke-miterlimit="10" stroke-dasharray="10,2" d="M103.8,212.8
		c0,0,12,10.6,10.3,25.2c-1.7,14.6-17.3,23.4-22.7,32c-12.1,19.3-10.8,42-10.8,42"/>
	<path fill="none" stroke="#A1A1AA" stroke-width="2" stroke-miterlimit="10" stroke-dasharray="10,2" d="M80.7,236
		c0,0,23,17.5,41,2.8s40.7,9.6,40.7,9.6"/>
	<path fill="none" stroke="#A1A1AA" stroke-width="2" stroke-miterlimit="10" stroke-dasharray="10,2" d="M103.8,212.8
		c0,0,34-3.2,46.6,5.9c15.6,11.3,12,29.7,12,29.7"/>
	<path fill="none" stroke="#A1A1AA" stroke-width="2" stroke-miterlimit="10" stroke-dasharray="10,2" d="M80.7,358
		c7.6,7.3,18.1,14.9,29.3,13.3c14.7-2,19.9-18.1,31.3-17.3c11.4,0.7,14.7,17.2,15,24.7c0.4,10.7,6.1,23.6,6.1,23.6l0.3,63.1"/>
	<path fill="none" stroke="#A1A1AA" stroke-width="2" stroke-miterlimit="10" stroke-dasharray="10,2" d="M184.9,270.9
		c0,0,44.8-5.6,53.4,5c8.7,10.6,5.2,36.6,5.2,36.6"/>
	<path fill="none" stroke="#A1A1AA" stroke-width="2" stroke-miterlimit="10" stroke-dasharray="10,2" d="M221,335
		c0,0-32-3.3-41.1,7c-9.1,10.3-11.2,37.8-11.2,37.8"/>
	<path fill="none" stroke="#A1A1AA" stroke-width="2" stroke-miterlimit="10" stroke-dasharray="10,2" d="M243.3,357.9
		c0,0-7.2,24.4-39.3,3.5c-20.6-13.4-35.3,18.4-35.3,18.4"/>
	
		<line fill="none" stroke="#A1A1AA" stroke-width="2" stroke-miterlimit="10" stroke-dasharray="10,2" x1="243.3" y1="357.9" x2="243.5" y2="399.5"/>
	<path fill="none" stroke="#A1A1AA" stroke-width="2" stroke-miterlimit="10" stroke-dasharray="10,2" d="M103.8,212.8
		c0,0,47.7-13.8,70.6-14.5c22.9-0.7,58.7-0.4,81,17.7s27.3,61.7,25.9,86.3c-1.8,32.2-15.2,33.1-15.2,33.1"/>
	<path fill="none" stroke="#A1A1AA" stroke-width="2" stroke-miterlimit="10" stroke-dasharray="10,2" d="M80.7,236
		c0,0,3,15.2,14.3,22.7c5.6,3.7,19.9-0.4,23.7,2.7c9.9,8-1.4,28.6,9.7,39.7c4.6,4.6,18.7,4.2,18.7,4.2s40.7,2.1,47.7-1.9
		c4.3-2.4,6.6-16.9,12.2-20.9c5.5-4.1,24.3-4.6,30,4.1s6.5,26.1,6.5,26.1"/>
</g>
<g id="Layer_3" display="none">
	
		<text transform="matrix(1 0 0 1 38.5374 245.2729)" display="inline" fill="#59565F" font-family="'Montserrat-Regular'" font-size="8">Picard Markduplicate</text>
	
		<text transform="matrix(1 0 0 1 38.1269 368.2802)" display="inline" fill="#59565F" font-family="'Montserrat-Regular'" font-size="8">GATK Base Recalibrator</text>
	
		<text transform="matrix(1 0 0 1 35.1269 444.4868)" display="inline" fill="#59565F" font-family="'Montserrat-Regular'" font-size="8">BQSR Output</text>
	
		<text transform="matrix(1 0 0 1 114.1269 436.9864)" display="inline" fill="#59565F" font-family="'Montserrat-Regular'" font-size="8">GATK Unified Genotyper</text>
	
		<text transform="matrix(1 0 0 1 196.6269 368.2802)" display="inline" fill="#59565F" font-family="'Montserrat-Regular'" font-size="8">GATK IndelRealigner</text>
	
		<text transform="matrix(1 0 0 1 116.1271 302.2802)" display="inline" fill="#59565F" font-family="'Montserrat-Regular'" font-size="8">GATK Realign Target Creator</text>
	
		<text transform="matrix(1 0 0 1 -19.4626 317.4956)" display="inline" fill="#59565F" font-family="'Montserrat-Regular'" font-size="8">MarkDuplicate Metrics</text>
</g>
<g id="Layer_1">
	<g id="New_Symbol_1_">
		<g id="Settings_2_">
			<path fill="#FFFFFF" stroke="#59565F" stroke-width="3" stroke-miterlimit="10" d="M254,64.4h-21c-6.6,0-12,5.4-12,12v8
				c0,0,0,0,0,0c-1.4,0-2.5,1.1-2.5,2.5c0,1.4,1.1,2.5,2.5,2.5c0,0,0,0,0,0v8c0,6.6,5.4,12,12,12h8c0,1.4,1.1,2.5,2.5,2.5
				s2.5-1.1,2.5-2.5h8c6.6,0,12-5.4,12-12v-21C266,69.8,260.6,64.4,254,64.4z"/>
			<g>
				<path fill="#59565F" d="M260.9,85c-0.1-0.5-0.6-0.9-1.1-0.9c-1.6,0-3-0.9-3.6-2.4c-0.6-1.5-0.2-3.2,1-4.3
					c0.4-0.3,0.4-0.9,0.1-1.3c-0.8-1-1.8-2-2.8-2.8c-0.4-0.3-1-0.3-1.3,0.1c-1,1.2-2.9,1.6-4.4,1c-1.5-0.6-2.5-2.2-2.4-3.8
					c0-0.5-0.3-1-0.9-1c-1.3-0.2-2.6-0.2-3.9,0c-0.5,0.1-0.9,0.5-0.9,1c0.1,1.6-0.9,3.1-2.4,3.7c-1.4,0.6-3.3,0.2-4.3-1
					c-0.3-0.4-0.9-0.4-1.3-0.1c-1,0.8-2,1.8-2.8,2.8c-0.3,0.4-0.3,1,0.1,1.3c1.2,1.1,1.6,2.9,1,4.4c-0.6,1.4-2.1,2.4-3.8,2.4
					c-0.6,0-1,0.4-1,0.9c-0.2,1.3-0.2,2.7,0,4c0.1,0.5,0.6,0.9,1.1,0.9c1.5,0,3,0.9,3.6,2.4c0.6,1.5,0.2,3.2-1,4.3
					c-0.4,0.3-0.4,0.9-0.1,1.3c0.8,1,1.7,2,2.8,2.8c0.4,0.3,1,0.3,1.3-0.1c1-1.2,2.9-1.6,4.4-1c1.5,0.6,2.5,2.2,2.4,3.8
					c0,0.5,0.3,1,0.9,1c0.7,0.1,1.3,0.1,2,0.1c0.6,0,1.3,0,1.9-0.1c0.5-0.1,0.9-0.5,0.9-1c-0.1-1.6,0.9-3.1,2.4-3.7
					c1.4-0.6,3.3-0.2,4.3,1c0.3,0.4,0.9,0.4,1.3,0.1c1-0.8,2-1.8,2.8-2.8c0.3-0.4,0.3-1-0.1-1.3c-1.2-1.1-1.6-2.9-1-4.4
					c0.6-1.4,2-2.4,3.6-2.4l0.2,0c0.5,0,1-0.3,1-0.9C261,87.6,261,86.3,260.9,85z M243.5,92.8c-3.2,0-5.8-2.6-5.8-5.8
					c0-3.2,2.6-5.8,5.8-5.8c3.2,0,5.8,2.6,5.8,5.8C249.4,90.2,246.7,92.8,243.5,92.8z"/>
			</g>
		</g>
	</g>
	<g id="New_Symbol">
		<g id="Settings_1_">
			<path fill="#FFFFFF" stroke="#59565F" stroke-width="3" stroke-miterlimit="10" d="M103.8,210.3v-8c0-6.6-5.4-12-12-12h-8.1
				c0-0.1,0-0.3,0-0.4c0-1.4-1.1-2.5-2.5-2.5c-1.4,0-2.5,1.1-2.5,2.5c0,0.1,0,0.3,0,0.4h-8.1c-6.6,0-12,5.4-12,12v8
				c-1.4,0-2.5,1.1-2.5,2.5c0,1.4,1.1,2.5,2.5,2.5v8c0,6.6,5.4,12,12,12h8.1c0.2,1.2,1.2,2.1,2.4,2.1c1.2,0,2.3-0.9,2.4-2.1h8.1
				c6.6,0,12-5.4,12-12v-8c1.4,0,2.5-1.1,2.5-2.5C106.3,211.4,105.2,210.3,103.8,210.3z"/>
			<g>
				<path fill="#59565F" d="M98.7,210.8c-0.1-0.5-0.6-0.9-1.1-0.9c-1.6,0-3-0.9-3.6-2.4c-0.6-1.5-0.2-3.2,1-4.3
					c0.4-0.3,0.4-0.9,0.1-1.3c-0.8-1-1.8-2-2.8-2.8c-0.4-0.3-1-0.3-1.3,0.1c-1,1.2-2.9,1.6-4.4,1c-1.5-0.6-2.5-2.2-2.4-3.8
					c0-0.5-0.3-1-0.9-1c-1.3-0.2-2.6-0.2-3.9,0c-0.5,0.1-0.9,0.5-0.9,1c0.1,1.6-0.9,3.1-2.4,3.7c-1.4,0.6-3.3,0.2-4.3-1
					c-0.3-0.4-0.9-0.4-1.3-0.1c-1,0.8-2,1.8-2.8,2.8c-0.3,0.4-0.3,1,0.1,1.3c1.2,1.1,1.6,2.9,1,4.4c-0.6,1.4-2.1,2.4-3.8,2.4
					c-0.6,0-1,0.4-1,0.9c-0.2,1.3-0.2,2.7,0,4c0.1,0.5,0.6,0.9,1.1,0.9c1.5,0,3,0.9,3.6,2.4c0.6,1.5,0.2,3.2-1,4.3
					c-0.4,0.3-0.4,0.9-0.1,1.3c0.8,1,1.7,2,2.8,2.8c0.4,0.3,1,0.3,1.3-0.1c1-1.2,2.9-1.6,4.4-1c1.5,0.6,2.5,2.2,2.4,3.8
					c0,0.5,0.3,1,0.9,1c0.7,0.1,1.3,0.1,2,0.1c0.6,0,1.3,0,1.9-0.1c0.5-0.1,0.9-0.5,0.9-1c-0.1-1.6,0.9-3.1,2.4-3.7
					c1.4-0.6,3.3-0.2,4.3,1c0.3,0.4,0.9,0.4,1.3,0.1c1-0.8,2-1.8,2.8-2.8c0.3-0.4,0.3-1-0.1-1.3c-1.2-1.1-1.6-2.9-1-4.4
					c0.6-1.4,2-2.4,3.6-2.4l0.2,0c0.5,0,1-0.3,1-0.9C98.8,213.5,98.8,212.2,98.7,210.8z M81.3,218.6c-3.2,0-5.8-2.6-5.8-5.8
					c0-3.2,2.6-5.8,5.8-5.8c3.2,0,5.8,2.6,5.8,5.8C87.2,216,84.5,218.6,81.3,218.6z"/>
			</g>
		</g>
	</g>
	<g id="New_Symbol_2_">
		<g id="Settings_3_">
			<path fill="#FFFFFF" stroke="#59565F" stroke-width="3" stroke-miterlimit="10" d="M185.2,145.8c-0.1,0-0.2,0-0.3,0v-8
				c0-6.6-5.4-12-12-12h-21c-6.6,0-12,5.4-12,12v8c-1.2,0.1-2.2,1.2-2.2,2.5s1,2.3,2.2,2.5v8c0,6.6,5.4,12,12,12h21
				c6.6,0,12-5.4,12-12v-8c0.1,0,0.2,0,0.3,0c1.4,0,2.5-1.1,2.5-2.5C187.7,146.9,186.5,145.8,185.2,145.8z"/>
			<g>
				<path fill="#59565F" d="M179.8,146.3c-0.1-0.5-0.6-0.9-1.1-0.9c-1.6,0-3-0.9-3.6-2.4c-0.6-1.5-0.2-3.2,1-4.3
					c0.4-0.3,0.4-0.9,0.1-1.3c-0.8-1-1.8-2-2.8-2.8c-0.4-0.3-1-0.3-1.3,0.1c-1,1.2-2.9,1.6-4.4,1c-1.5-0.6-2.5-2.2-2.4-3.8
					c0-0.5-0.3-1-0.9-1c-1.3-0.2-2.6-0.2-3.9,0c-0.5,0.1-0.9,0.5-0.9,1c0.1,1.6-0.9,3.1-2.4,3.7c-1.4,0.6-3.3,0.2-4.3-1
					c-0.3-0.4-0.9-0.4-1.3-0.1c-1,0.8-2,1.8-2.8,2.8c-0.3,0.4-0.3,1,0.1,1.3c1.2,1.1,1.6,2.9,1,4.4c-0.6,1.4-2.1,2.4-3.8,2.4
					c-0.6,0-1,0.4-1,0.9c-0.2,1.3-0.2,2.7,0,4c0.1,0.5,0.6,0.9,1.1,0.9c1.5,0,3,0.9,3.6,2.4c0.6,1.5,0.2,3.2-1,4.3
					c-0.4,0.3-0.4,0.9-0.1,1.3c0.8,1,1.7,2,2.8,2.8c0.4,0.3,1,0.3,1.3-0.1c1-1.2,2.9-1.6,4.4-1c1.5,0.6,2.5,2.2,2.4,3.8
					c0,0.5,0.3,1,0.9,1c0.7,0.1,1.3,0.1,2,0.1c0.6,0,1.3,0,1.9-0.1c0.5-0.1,0.9-0.5,0.9-1c-0.1-1.6,0.9-3.1,2.4-3.7
					c1.4-0.6,3.3-0.2,4.3,1c0.3,0.4,0.9,0.4,1.3,0.1c1-0.8,2-1.8,2.8-2.8c0.3-0.4,0.3-1-0.1-1.3c-1.2-1.1-1.6-2.9-1-4.4
					c0.6-1.4,2-2.4,3.6-2.4l0.2,0c0.5,0,1-0.3,1-0.9C179.9,149,179.9,147.6,179.8,146.3z M162.4,154.1c-3.2,0-5.8-2.6-5.8-5.8
					c0-3.2,2.6-5.8,5.8-5.8c3.2,0,5.8,2.6,5.8,5.8C168.3,151.5,165.6,154.1,162.4,154.1z"/>
			</g>
		</g>
	</g>
	<g id="New_Symbol_6_">
		<g id="Settings_8_">
			<path fill="#FFFFFF" stroke="#59565F" stroke-width="3" stroke-miterlimit="10" d="M172.9,379.8h-2.1c-0.3-1.1-1.2-1.9-2.4-1.9
				s-2.1,0.8-2.4,1.9h-7.2c-0.3-1.1-1.2-1.9-2.4-1.9s-2.1,0.8-2.4,1.9h-2.1c-6.6,0-12,5.4-12,12v21c0,6.6,5.4,12,12,12h8
				c0.2,1.2,1.2,2.1,2.5,2.1c1.2,0,2.3-0.9,2.5-2.1h8c6.6,0,12-5.4,12-12v-21C184.9,385.2,179.5,379.8,172.9,379.8z"/>
			<g>
				<path fill="#59565F" d="M179.8,400.3c-0.1-0.5-0.6-0.9-1.1-0.9c-1.6,0-3-0.9-3.6-2.4c-0.6-1.5-0.2-3.2,1-4.3
					c0.4-0.3,0.4-0.9,0.1-1.3c-0.8-1-1.8-2-2.8-2.8c-0.4-0.3-1-0.3-1.3,0.1c-1,1.2-2.9,1.6-4.4,1c-1.5-0.6-2.5-2.2-2.4-3.8
					c0-0.5-0.3-1-0.9-1c-1.3-0.2-2.6-0.2-3.9,0c-0.5,0.1-0.9,0.5-0.9,1c0.1,1.6-0.9,3.1-2.4,3.7c-1.4,0.6-3.3,0.2-4.3-1
					c-0.3-0.4-0.9-0.4-1.3-0.1c-1,0.8-2,1.8-2.8,2.8c-0.3,0.4-0.3,1,0.1,1.3c1.2,1.1,1.6,2.9,1,4.4c-0.6,1.4-2.1,2.4-3.8,2.4
					c-0.6,0-1,0.4-1,0.9c-0.2,1.3-0.2,2.7,0,4c0.1,0.5,0.6,0.9,1.1,0.9c1.5,0,3,0.9,3.6,2.4c0.6,1.5,0.2,3.2-1,4.3
					c-0.4,0.3-0.4,0.9-0.1,1.3c0.8,1,1.7,2,2.8,2.8c0.4,0.3,1,0.3,1.3-0.1c1-1.2,2.9-1.6,4.4-1c1.5,0.6,2.5,2.2,2.4,3.8
					c0,0.5,0.3,1,0.9,1c0.7,0.1,1.3,0.1,2,0.1c0.6,0,1.3,0,1.9-0.1c0.5-0.1,0.9-0.5,0.9-1c-0.1-1.6,0.9-3.1,2.4-3.7
					c1.4-0.6,3.3-0.2,4.3,1c0.3,0.4,0.9,0.4,1.3,0.1c1-0.8,2-1.8,2.8-2.8c0.3-0.4,0.3-1-0.1-1.3c-1.2-1.1-1.6-2.9-1-4.4
					c0.6-1.4,2-2.4,3.6-2.4l0.2,0c0.5,0,1-0.3,1-0.9C179.9,403,179.9,401.6,179.8,400.3z M162.4,408.1c-3.2,0-5.8-2.6-5.8-5.8
					c0-3.2,2.6-5.8,5.8-5.8c3.2,0,5.8,2.6,5.8,5.8C168.3,405.5,165.6,408.1,162.4,408.1z"/>
			</g>
		</g>
	</g>
	<g id="New_Symbol_5_">
		<g id="Settings_7_">
			<path fill="#FFFFFF" stroke="#59565F" stroke-width="3" stroke-miterlimit="10" d="M91.8,312.5h-8c0,0,0-0.1,0-0.1
				c0-1.4-1.1-2.5-2.5-2.5c-1.4,0-2.5,1.1-2.5,2.5c0,0,0,0.1,0,0.1h-8c-6.6,0-12,5.4-12,12v21c0,6.6,5.4,12,12,12h8
				c0.1,1.3,1.1,2.4,2.5,2.4c1.3,0,2.4-1.1,2.5-2.4h8c6.6,0,12-5.4,12-12v-21C103.8,317.9,98.4,312.5,91.8,312.5z"/>
			<g>
				<path fill="#59565F" d="M98.7,333.1c-0.1-0.5-0.6-0.9-1.1-0.9c-1.6,0-3-0.9-3.6-2.4c-0.6-1.5-0.2-3.2,1-4.3
					c0.4-0.3,0.4-0.9,0.1-1.3c-0.8-1-1.8-2-2.8-2.8c-0.4-0.3-1-0.3-1.3,0.1c-1,1.2-2.9,1.6-4.4,1c-1.5-0.6-2.5-2.2-2.4-3.8
					c0-0.5-0.3-1-0.9-1c-1.3-0.2-2.6-0.2-3.9,0c-0.5,0.1-0.9,0.5-0.9,1c0.1,1.6-0.9,3.1-2.4,3.7c-1.4,0.6-3.3,0.2-4.3-1
					c-0.3-0.4-0.9-0.4-1.3-0.1c-1,0.8-2,1.8-2.8,2.8c-0.3,0.4-0.3,1,0.1,1.3c1.2,1.1,1.6,2.9,1,4.4c-0.6,1.4-2.1,2.4-3.8,2.4
					c-0.6,0-1,0.4-1,0.9c-0.2,1.3-0.2,2.7,0,4c0.1,0.5,0.6,0.9,1.1,0.9c1.5,0,3,0.9,3.6,2.4c0.6,1.5,0.2,3.2-1,4.3
					c-0.4,0.3-0.4,0.9-0.1,1.3c0.8,1,1.7,2,2.8,2.8c0.4,0.3,1,0.3,1.3-0.1c1-1.2,2.9-1.6,4.4-1c1.5,0.6,2.5,2.2,2.4,3.8
					c0,0.5,0.3,1,0.9,1c0.7,0.1,1.3,0.1,2,0.1c0.6,0,1.3,0,1.9-0.1c0.5-0.1,0.9-0.5,0.9-1c-0.1-1.6,0.9-3.1,2.4-3.7
					c1.4-0.6,3.3-0.2,4.3,1c0.3,0.4,0.9,0.4,1.3,0.1c1-0.8,2-1.8,2.8-2.8c0.3-0.4,0.3-1-0.1-1.3c-1.2-1.1-1.6-2.9-1-4.4
					c0.6-1.4,2-2.4,3.6-2.4l0.2,0c0.5,0,1-0.3,1-0.9C98.8,335.7,98.8,334.4,98.7,333.1z M81.3,340.9c-3.2,0-5.8-2.6-5.8-5.8
					c0-3.2,2.6-5.8,5.8-5.8c3.2,0,5.8,2.6,5.8,5.8C87.2,338.3,84.5,340.9,81.3,340.9z"/>
			</g>
		</g>
	</g>
	<g id="New_Symbol_3_">
		<g id="Settings_5_">
			<path fill="#FFFFFF" stroke="#59565F" stroke-width="3" stroke-miterlimit="10" d="M268.5,334.9c0-1.4-1.1-2.5-2.5-2.5v-7.5
				c0-6.6-5.4-12-12-12h-8.1c0-0.2,0-0.3,0-0.5c0-1.4-1.1-2.5-2.5-2.5c-1.4,0-2.5,1.1-2.5,2.5c0,0.2,0,0.3,0,0.5H233
				c-6.6,0-12,5.4-12,12v7.5c0,0,0,0,0,0c-1.4,0-2.5,1.1-2.5,2.5s1.1,2.5,2.5,2.5c0,0,0,0,0,0v8.5c0,6.6,5.4,12,12,12h8.1
				c0.2,1.1,1.2,2,2.4,2c1.2,0,2.2-0.9,2.4-2h8.1c6.6,0,12-5.4,12-12v-8.5C267.4,337.4,268.5,336.3,268.5,334.9z"/>
			<g>
				<path fill="#59565F" d="M260.9,333.4c-0.1-0.5-0.6-0.9-1.1-0.9c-1.6,0-3-0.9-3.6-2.4c-0.6-1.5-0.2-3.2,1-4.3
					c0.4-0.3,0.4-0.9,0.1-1.3c-0.8-1-1.8-2-2.8-2.8c-0.4-0.3-1-0.3-1.3,0.1c-1,1.2-2.9,1.6-4.4,1c-1.5-0.6-2.5-2.2-2.4-3.8
					c0-0.5-0.3-1-0.9-1c-1.3-0.2-2.6-0.2-3.9,0c-0.5,0.1-0.9,0.5-0.9,1c0.1,1.6-0.9,3.1-2.4,3.7c-1.4,0.6-3.3,0.2-4.3-1
					c-0.3-0.4-0.9-0.4-1.3-0.1c-1,0.8-2,1.8-2.8,2.8c-0.3,0.4-0.3,1,0.1,1.3c1.2,1.1,1.6,2.9,1,4.4c-0.6,1.4-2.1,2.4-3.8,2.4
					c-0.6,0-1,0.4-1,0.9c-0.2,1.3-0.2,2.7,0,4c0.1,0.5,0.6,0.9,1.1,0.9c1.5,0,3,0.9,3.6,2.4c0.6,1.5,0.2,3.2-1,4.3
					c-0.4,0.3-0.4,0.9-0.1,1.3c0.8,1,1.7,2,2.8,2.8c0.4,0.3,1,0.3,1.3-0.1c1-1.2,2.9-1.6,4.4-1c1.5,0.6,2.5,2.2,2.4,3.8
					c0,0.5,0.3,1,0.9,1c0.7,0.1,1.3,0.1,2,0.1c0.6,0,1.3,0,1.9-0.1c0.5-0.1,0.9-0.5,0.9-1c-0.1-1.6,0.9-3.1,2.4-3.7
					c1.4-0.6,3.3-0.2,4.3,1c0.3,0.4,0.9,0.4,1.3,0.1c1-0.8,2-1.8,2.8-2.8c0.3-0.4,0.3-1-0.1-1.3c-1.2-1.1-1.6-2.9-1-4.4
					c0.6-1.4,2-2.4,3.6-2.4l0.2,0c0.5,0,1-0.3,1-0.9C261,336.1,261,334.8,260.9,333.4z M243.5,341.2c-3.2,0-5.8-2.6-5.8-5.8
					c0-3.2,2.6-5.8,5.8-5.8c3.2,0,5.8,2.6,5.8,5.8C249.4,338.6,246.7,341.2,243.5,341.2z"/>
			</g>
		</g>
	</g>
	<g id="New_Symbol_4_">
		<g id="Settings_6_">
			<path fill="#FFFFFF" stroke="#59565F" stroke-width="3" stroke-miterlimit="10" d="M184.9,268.4
				C184.9,268.4,184.9,268.4,184.9,268.4l0-8c0-6.6-5.4-12-12-12h-8c0-1.4-1.1-2.5-2.5-2.5c-1.4,0-2.5,1.1-2.5,2.5h-8
				c-6.6,0-12,5.4-12,12v21c0,6.6,5.4,12,12,12h21c6.6,0,12-5.4,12-12v-8c0,0,0,0,0,0c1.4,0,2.5-1.1,2.5-2.5
				C187.4,269.5,186.3,268.4,184.9,268.4z"/>
			<g>
				<path fill="#59565F" d="M179.8,268.9c-0.1-0.5-0.6-0.9-1.1-0.9c-1.6,0-3-0.9-3.6-2.4c-0.6-1.5-0.2-3.2,1-4.3
					c0.4-0.3,0.4-0.9,0.1-1.3c-0.8-1-1.8-2-2.8-2.8c-0.4-0.3-1-0.3-1.3,0.1c-1,1.2-2.9,1.6-4.4,1c-1.5-0.6-2.5-2.2-2.4-3.8
					c0-0.5-0.3-1-0.9-1c-1.3-0.2-2.6-0.2-3.9,0c-0.5,0.1-0.9,0.5-0.9,1c0.1,1.6-0.9,3.1-2.4,3.7c-1.4,0.6-3.3,0.2-4.3-1
					c-0.3-0.4-0.9-0.4-1.3-0.1c-1,0.8-2,1.8-2.8,2.8c-0.3,0.4-0.3,1,0.1,1.3c1.2,1.1,1.6,2.9,1,4.4c-0.6,1.4-2.1,2.4-3.8,2.4
					c-0.6,0-1,0.4-1,0.9c-0.2,1.3-0.2,2.7,0,4c0.1,0.5,0.6,0.9,1.1,0.9c1.5,0,3,0.9,3.6,2.4c0.6,1.5,0.2,3.2-1,4.3
					c-0.4,0.3-0.4,0.9-0.1,1.3c0.8,1,1.7,2,2.8,2.8c0.4,0.3,1,0.3,1.3-0.1c1-1.2,2.9-1.6,4.4-1c1.5,0.6,2.5,2.2,2.4,3.8
					c0,0.5,0.3,1,0.9,1c0.7,0.1,1.3,0.1,2,0.1c0.6,0,1.3,0,1.9-0.1c0.5-0.1,0.9-0.5,0.9-1c-0.1-1.6,0.9-3.1,2.4-3.7
					c1.4-0.6,3.3-0.2,4.3,1c0.3,0.4,0.9,0.4,1.3,0.1c1-0.8,2-1.8,2.8-2.8c0.3-0.4,0.3-1-0.1-1.3c-1.2-1.1-1.6-2.9-1-4.4
					c0.6-1.4,2-2.4,3.6-2.4l0.2,0c0.5,0,1-0.3,1-0.9C179.9,271.6,179.9,270.3,179.8,268.9z M162.4,276.8c-3.2,0-5.8-2.6-5.8-5.8
					c0-3.2,2.6-5.8,5.8-5.8c3.2,0,5.8,2.6,5.8,5.8C168.3,274.1,165.6,276.8,162.4,276.8z"/>
			</g>
		</g>
	</g>
	
		<use xlink:href="#New_Symbol_2"  width="48" height="50.6" id="XMLID_2_" x="-23.9" y="-23.2" transform="matrix(1 0 0 -1 243.3586 422.763)" overflow="visible"/>
	
		<use xlink:href="#New_Symbol_2"  width="48" height="50.6" id="XMLID_4_" x="-23.9" y="-23.2" transform="matrix(1 0 0 -1 162.2505 489.2387)" overflow="visible"/>
	
		<use xlink:href="#New_Symbol_2"  width="48" height="50.6" id="XMLID_5_" x="-23.9" y="-23.2" transform="matrix(1 0 0 -1 81.1425 410.9861)" overflow="visible"/>
	
		<use xlink:href="#New_Symbol_2"  width="48" height="50.6" id="XMLID_6_" x="-23.9" y="-23.2" transform="matrix(1 0 0 -1 26.5379 280.5558)" overflow="visible"/>
	
		<use xlink:href="#New_Symbol_1"  width="48" height="50.7" id="XMLID_3_" x="-23.9" y="-26.7" transform="matrix(1 0 0 -1 162.2509 26.6804)" overflow="visible"/>
</g>
</svg>
