<?xml version="1.0" encoding="UTF-8" standalone="no"?>
<!-- Generator: Adobe Illustrator 18.1.1, SVG Export Plug-In . SVG Version: 6.00 Build 0)  -->
<svg xmlns="http://www.w3.org/2000/svg" xml:space="preserve" version="1.1" y="0px" x="0px" xmlns:xlink="http://www.w3.org/1999/xlink" viewBox="0 0 308.7 304.5" enable-background="new 0 0 308.7 304.5">
<symbol id="A" viewBox="-3.7 -3.5 7.4 6.9">
		<path d="m-1.7-1.9l-0.7-1.6h-1.2l3.1 6.9h1.2l3.1-6.9h-1.4l-0.7 1.6h-3.4zm3 1.1l-1.3 2.8-1.3-2.9h2.6z" fill="#59565F"/>
</symbol>
<symbol id="C" viewBox="-3.1 -3.1 6.4 7.2">
		<path d="m0.5-1.9c0.4 0 0.8 0.1 1 0.2 0.3 0.1 0.6 0.4 0.9 0.6l0.8-0.8c-0.8-0.7-1.6-1.2-2.7-1.2-1 0-1.9 0.3-2.6 1s-1 1.5-1 2.6c0 1 0.4 1.9 1.1 2.6s1.6 1 2.7 1 2-0.4 2.7-1.2l-0.9-0.8c-0.3 0.3-0.6 0.6-0.9 0.7s-0.6 0.2-1 0.2c-0.7 0-1.3-0.2-1.8-0.7s-0.7-1-0.7-1.7 0.2-1.3 0.7-1.8 1-0.7 1.7-0.7z" fill="#59565F"/>
</symbol>
<symbol id="G" viewBox="-3.2 -3.1 6.4 7.2">
		<path d="m2 0.4h1.2v-2.4c-0.7-0.7-1.6-1.1-2.8-1.1-1 0-1.9 0.3-2.6 1s-1 1.5-1 2.6c0 1 0.4 1.9 1.1 2.6s1.6 1 2.6 1 1.8-0.3 2.5-0.9l-0.8-0.8c-0.2 0.2-0.5 0.4-0.8 0.4-0.3 0.1-0.6 0.2-0.9 0.2-0.7 0-1.3-0.2-1.8-0.7s-0.7-1-0.7-1.8 0.2-1.3 0.7-1.8 1-0.7 1.7-0.7 1.2 0.2 1.6 0.5v1.9z" fill="#59565F"/>
</symbol>
<symbol id="New_Symbol_6" viewBox="-3.2 -3 5.4 6.9">
		<path d="m0.1 2.9v-5.9h-1.2v5.9h-2.1v1.1h5.4v-1.1h-2.1z" fill="#59565F"/>
</symbol>
<g id="Layer_12">
</g>
<g id="Layer_1">
	<circle cy="150.9" cx="158.2" r="111" fill="#0098CB"/>
	<g stroke="#59565F" stroke-width="2" stroke-miterlimit="10">
		<path d="m208.2 107.9c-0.6-3.4-4.2-5-7-5h-86c-2.8 0-4.7 2.1-6 5 0 0-11 33-11 34.3v75.5c0 2.8 2.2 5 5 5h110c2.8 0 5-2.2 5-5v-75.5c0-1.2-10-34.3-10-34.3z" fill="#7CC7E3"/>
		<line y2="142.3" x1="98.2" x2="218.2" y1="142.3" fill="none"/>
		<line y2="169.9" x1="98.2" x2="218.2" y1="169.9" fill="none"/>
		<line y2="197.5" x1="98.2" x2="218.2" y1="197.5" fill="none"/>
		<path d="m206.3 161.6h-55.9c-2 0-3.6-1.6-3.6-3.6v-2.9c0-2 1.6-3.6 3.6-3.6h55.9c2 0 3.6 1.6 3.6 3.6v2.9c-0.1 2-1.7 3.6-3.6 3.6z" fill="none"/>
		<path d="m206.3 189.1h-55.9c-2 0-3.6-1.6-3.6-3.6v-2.9c0-2 1.6-3.6 3.6-3.6h55.9c2 0 3.6 1.6 3.6 3.6v2.9c-0.1 2-1.7 3.6-3.6 3.6z" fill="none"/>
		<path d="m206.3 215.6h-55.9c-2 0-3.6-1.6-3.6-3.6v-2.9c0-2 1.6-3.6 3.6-3.6h55.9c2 0 3.6 1.6 3.6 3.6v2.9c-0.1 2-1.7 3.6-3.6 3.6z" fill="none"/>
		<circle r="5.7" cy="156.5" cx="118.6" fill="none"/>
		<circle r="5.7" cy="184" cx="118.6" fill="none"/>
		<circle r="5.7" cy="210.5" cx="118.6" fill="none"/>
	</g>
			<use xlink:href="#New_Symbol_6" transform="matrix(1 0 0 -1 161.63 39.128)" height="6.9" width="5.4" y="-3" x="-3.2" overflow="visible"/>
			<use xlink:href="#New_Symbol_6" transform="matrix(1 0 0 -1 159.07 49.532)" height="6.9" width="5.4" y="-3" x="-3.2" overflow="visible"/>
			<use xlink:href="#New_Symbol_6" transform="matrix(1 0 0 -1 170.47 76.868)" height="6.9" width="5.4" y="-3" x="-3.2" overflow="visible"/>
			<use xlink:href="#New_Symbol_6" transform="matrix(1 0 0 -1 216.69 61.927)" height="6.9" width="5.4" y="-3" x="-3.2" overflow="visible"/>
			<use xlink:href="#New_Symbol_6" transform="matrix(1 0 0 -1 262.35 57.257)" height="6.9" width="5.4" y="-3" x="-3.2" overflow="visible"/>
			<use xlink:href="#New_Symbol_6" transform="matrix(1 0 0 -1 277.63 77.172)" height="6.9" width="5.4" y="-3" x="-3.2" overflow="visible"/>
			<use xlink:href="#New_Symbol_6" transform="matrix(1 0 0 -1 272.45 111.19)" height="6.9" width="5.4" y="-3" x="-3.2" overflow="visible"/>
			<use xlink:href="#New_Symbol_6" transform="matrix(1 0 0 -1 255.62 131.85)" height="6.9" width="5.4" y="-3" x="-3.2" overflow="visible"/>
			<use xlink:href="#New_Symbol_6" transform="matrix(1 0 0 -1 251.39 154.81)" height="6.9" width="5.4" y="-3" x="-3.2" overflow="visible"/>
			<use xlink:href="#New_Symbol_6" transform="matrix(1 0 0 -1 289.45 172.73)" height="6.9" width="5.4" y="-3" x="-3.2" overflow="visible"/>
			<use xlink:href="#New_Symbol_6" transform="matrix(1 0 0 -1 297.28 211.24)" height="6.9" width="5.4" y="-3" x="-3.2" overflow="visible"/>
			<use xlink:href="#New_Symbol_6" transform="matrix(1 0 0 -1 270.08 237.95)" height="6.9" width="5.4" y="-3" x="-3.2" overflow="visible"/>
			<use xlink:href="#New_Symbol_6" transform="matrix(1 0 0 -1 233.48 251.95)" height="6.9" width="5.4" y="-3" x="-3.2" overflow="visible"/>
			<use xlink:href="#New_Symbol_6" transform="matrix(1 0 0 -1 217.4 261.96)" height="6.9" width="5.4" y="-3" x="-3.2" overflow="visible"/>
			<use xlink:href="#New_Symbol_6" transform="matrix(1 0 0 -1 215.68 282.36)" height="6.9" width="5.4" y="-3" x="-3.2" overflow="visible"/>
			<use xlink:href="#New_Symbol_6" transform="matrix(1 0 0 -1 200.37 292.24)" height="6.9" width="5.4" y="-3" x="-3.2" overflow="visible"/>
			<use xlink:href="#New_Symbol_6" transform="matrix(1 0 0 -1 145.58 278.78)" height="6.9" width="5.4" y="-3" x="-3.2" overflow="visible"/>
			<use xlink:href="#New_Symbol_6" transform="matrix(.9668 -.2556 -.2556 -.9668 101.96 241.84)" height="6.9" width="5.4" y="-3" x="-3.2" overflow="visible"/>
			<use xlink:href="#New_Symbol_6" transform="matrix(.9907 -.1361 -.1361 -.9907 80.17 229.99)" height="6.9" width="5.4" y="-3" x="-3.2" overflow="visible"/>
			<use xlink:href="#New_Symbol_6" transform="matrix(.9993 -.038686 -.038686 -.9993 65.528 244.03)" height="6.9" width="5.4" y="-3" x="-3.2" overflow="visible"/>
			<use xlink:href="#New_Symbol_6" transform="matrix(1 .0065136 .0065136 -1 55.273 245.76)" height="6.9" width="5.4" y="-3" x="-3.2" overflow="visible"/>
			<use xlink:href="#New_Symbol_6" transform="matrix(.9943 .1071 .1071 -.9943 32.239 228.43)" height="6.9" width="5.4" y="-3" x="-3.2" overflow="visible"/>
			<use xlink:href="#New_Symbol_6" transform="matrix(.9653 .2611 .2611 -.9653 26.611 193.29)" height="6.9" width="5.4" y="-3" x="-3.2" overflow="visible"/>
			<use xlink:href="#New_Symbol_6" transform="matrix(.9831 .1828 .1828 -.9831 46.74 138.88)" height="6.9" width="5.4" y="-3" x="-3.2" overflow="visible"/>
			<use xlink:href="#New_Symbol_6" transform="matrix(1 .0092748 .0092748 -1 64.968 118.5)" height="6.9" width="5.4" y="-3" x="-3.2" overflow="visible"/>
			<use xlink:href="#New_Symbol_6" transform="matrix(.9927 .121 .121 -.9927 46.569 93.54)" height="6.9" width="5.4" y="-3" x="-3.2" overflow="visible"/>
			<use xlink:href="#New_Symbol_6" transform="matrix(1 0 0 -1 30.303 63.442)" height="6.9" width="5.4" y="-3" x="-3.2" overflow="visible"/>
			<use xlink:href="#New_Symbol_6" transform="matrix(1 0 0 -1 62.6 52.1)" height="6.9" width="5.4" y="-3" x="-3.2" overflow="visible"/>
			<use xlink:href="#A" transform="matrix(.9996 -.028770 -.028770 -.9996 99.653 63.945)" height="6.9" width="7.4" y="-3.5" x="-3.7" overflow="visible"/>
			<use xlink:href="#A" transform="matrix(.9991 -.042598 -.042598 -.9991 108.04 71.611)" height="6.9" width="7.4" y="-3.5" x="-3.7" overflow="visible"/>
			<use xlink:href="#A" transform="matrix(1 -.0059058 -.0059058 -1 147.92 88.168)" height="6.9" width="7.4" y="-3.5" x="-3.7" overflow="visible"/>
			<use xlink:href="#A" transform="matrix(1 -.0092566 -.0092566 -1 177.41 66.44)" height="6.9" width="7.4" y="-3.5" x="-3.7" overflow="visible"/>
			<use xlink:href="#A" transform="matrix(.9973 .073707 .073707 -.9973 209.29 45.61)" height="6.9" width="7.4" y="-3.5" x="-3.7" overflow="visible"/>
			<use xlink:href="#A" transform="matrix(.9801 .1985 .1985 -.9801 235.37 47.166)" height="6.9" width="7.4" y="-3.5" x="-3.7" overflow="visible"/>
			<use xlink:href="#A" transform="matrix(.9658 .2591 .2591 -.9658 241.47 70.168)" height="6.9" width="7.4" y="-3.5" x="-3.7" overflow="visible"/>
			<use xlink:href="#A" transform="matrix(.9921 .1255 .1255 -.9921 295.44 97.389)" height="6.9" width="7.4" y="-3.5" x="-3.7" overflow="visible"/>
			<use xlink:href="#A" transform="matrix(.9899 .1418 .1418 -.9899 288.98 106.1)" height="6.9" width="7.4" y="-3.5" x="-3.7" overflow="visible"/>
			<use xlink:href="#A" transform="matrix(.9711 .2388 .2388 -.9711 262.25 96.597)" height="6.9" width="7.4" y="-3.5" x="-3.7" overflow="visible"/>
			<use xlink:href="#A" transform="matrix(.9747 .2234 .2234 -.9747 255.45 106.12)" height="6.9" width="7.4" y="-3.5" x="-3.7" overflow="visible"/>
			<use xlink:href="#A" transform="matrix(1 0 0 -1 300.14 130.33)" height="6.9" width="7.4" y="-3.5" x="-3.7" overflow="visible"/>
			<use xlink:href="#A" transform="matrix(1 0 0 -1 288.55 151.97)" height="6.9" width="7.4" y="-3.5" x="-3.7" overflow="visible"/>
			<use xlink:href="#A" transform="matrix(1 0 0 -1 282.33 165.06)" height="6.9" width="7.4" y="-3.5" x="-3.7" overflow="visible"/>
			<use xlink:href="#A" transform="matrix(.9774 -.2113 -.2113 -.9774 248.69 219.21)" height="6.9" width="7.4" y="-3.5" x="-3.7" overflow="visible"/>
			<use xlink:href="#A" transform="matrix(.9589 -.2836 -.2836 -.9589 286.14 239.07)" height="6.9" width="7.4" y="-3.5" x="-3.7" overflow="visible"/>
			<use xlink:href="#A" transform="matrix(.9289 -.3704 -.3704 -.9289 266.31 260.9)" height="6.9" width="7.4" y="-3.5" x="-3.7" overflow="visible"/>
			<use xlink:href="#A" transform="matrix(.9415 -.3369 -.3369 -.9415 162.63 257.04)" height="6.9" width="7.4" y="-3.5" x="-3.7" overflow="visible"/>
			<use xlink:href="#A" transform="matrix(.979 -.2036 -.2036 -.979 126.46 279.79)" height="6.9" width="7.4" y="-3.5" x="-3.7" overflow="visible"/>
			<use xlink:href="#A" transform="matrix(.9974 -.072383 -.072383 -.9974 103.72 284.92)" height="6.9" width="7.4" y="-3.5" x="-3.7" overflow="visible"/>
			<use xlink:href="#A" transform="matrix(.9977 -.068086 -.068086 -.9977 34.974 253.28)" height="6.9" width="7.4" y="-3.5" x="-3.7" overflow="visible"/>
			<use xlink:href="#A" transform="matrix(.9976 -.069761 -.069761 -.9976 24.128 246.81)" height="6.9" width="7.4" y="-3.5" x="-3.7" overflow="visible"/>
			<use xlink:href="#A" transform="matrix(1 -.0049055 -.0049055 -1 3.894 221.98)" height="6.9" width="7.4" y="-3.5" x="-3.7" overflow="visible"/>
			<use xlink:href="#A" transform="matrix(.9998 -.018976 -.018976 -.9998 9.168 184.03)" height="6.9" width="7.4" y="-3.5" x="-3.7" overflow="visible"/>
			<use xlink:href="#A" transform="matrix(.9991 -.041281 -.041281 -.9991 24.845 154.01)" height="6.9" width="7.4" y="-3.5" x="-3.7" overflow="visible"/>
			<use xlink:href="#A" transform="matrix(.9999 .010771 .010771 -.9999 28.956 126.21)" height="6.9" width="7.4" y="-3.5" x="-3.7" overflow="visible"/>
			<use xlink:href="#C" transform="matrix(1 0 0 -1 83.157 25.435)" height="7.2" width="6.4" y="-3.1" x="-3.1" overflow="visible"/>
			<use xlink:href="#C" transform="matrix(1 0 0 -1 95.858 29.722)" height="7.2" width="6.4" y="-3.1" x="-3.1" overflow="visible"/>
			<use xlink:href="#C" transform="matrix(1 0 0 -1 184.66 19.08)" height="7.2" width="6.4" y="-3.1" x="-3.1" overflow="visible"/>
			<use xlink:href="#C" transform="matrix(1 0 0 -1 201.67 6.013)" height="7.2" width="6.4" y="-3.1" x="-3.1" overflow="visible"/>
			<use xlink:href="#C" transform="matrix(1 0 0 -1 261.2 200.02)" height="7.2" width="6.4" y="-3.1" x="-3.1" overflow="visible"/>
			<use xlink:href="#C" transform="matrix(1 0 0 -1 249.21 197.3)" height="7.2" width="6.4" y="-3.1" x="-3.1" overflow="visible"/>
			<use xlink:href="#C" transform="matrix(1 0 0 -1 239.45 225.34)" height="7.2" width="6.4" y="-3.1" x="-3.1" overflow="visible"/>
			<use xlink:href="#C" transform="matrix(1 0 0 -1 293.4 254.86)" height="7.2" width="6.4" y="-3.1" x="-3.1" overflow="visible"/>
			<use xlink:href="#C" transform="matrix(1 0 0 -1 67.155 170.92)" height="7.2" width="6.4" y="-3.1" x="-3.1" overflow="visible"/>
			<use xlink:href="#C" transform="matrix(1 0 0 -1 76.922 171.36)" height="7.2" width="6.4" y="-3.1" x="-3.1" overflow="visible"/>
			<use xlink:href="#C" transform="matrix(1 0 0 -1 43.024 163.74)" height="7.2" width="6.4" y="-3.1" x="-3.1" overflow="visible"/>
			<use xlink:href="#C" transform="matrix(1 0 0 -1 46.336 195.76)" height="7.2" width="6.4" y="-3.1" x="-3.1" overflow="visible"/>
			<use xlink:href="#C" transform="matrix(1 0 0 -1 64.125 214.59)" height="7.2" width="6.4" y="-3.1" x="-3.1" overflow="visible"/>
			<use xlink:href="#G" transform="matrix(.9537 .3008 .3008 -.9537 66.562 82.097)" height="7.2" width="6.4" y="-3.1" x="-3.2" overflow="visible"/>
			<use xlink:href="#G" transform="matrix(.9033 .429 .429 -.9033 40.744 82.458)" height="7.2" width="6.4" y="-3.1" x="-3.2" overflow="visible"/>
			<use xlink:href="#G" transform="matrix(.9243 .3818 .3818 -.9243 44.755 68.576)" height="7.2" width="6.4" y="-3.1" x="-3.2" overflow="visible"/>
			<use xlink:href="#G" transform="matrix(.9873 .1591 .1591 -.9873 91.629 79.501)" height="7.2" width="6.4" y="-3.1" x="-3.2" overflow="visible"/>
			<use xlink:href="#G" transform="matrix(.9901 .1404 .1404 -.9901 97.649 106.41)" height="7.2" width="6.4" y="-3.1" x="-3.2" overflow="visible"/>
			<use xlink:href="#G" transform="matrix(.9998 -.018986 -.018986 -.9998 113.21 51.948)" height="7.2" width="6.4" y="-3.1" x="-3.2" overflow="visible"/>
			<use xlink:href="#G" transform="matrix(.9631 -.2691 -.2691 -.9631 131.86 258.17)" height="7.2" width="6.4" y="-3.1" x="-3.2" overflow="visible"/>
			<use xlink:href="#G" transform="matrix(.8954 -.4452 -.4452 -.8954 115.9 258.02)" height="7.2" width="6.4" y="-3.1" x="-3.2" overflow="visible"/>
			<use xlink:href="#G" transform="matrix(.7507 -.6606 -.6606 -.7507 93.52 261.9)" height="7.2" width="6.4" y="-3.1" x="-3.2" overflow="visible"/>
			<use xlink:href="#G" transform="matrix(.7698 -.6383 -.6383 -.7698 88.804 273.71)" height="7.2" width="6.4" y="-3.1" x="-3.2" overflow="visible"/>
			<use xlink:href="#G" transform="matrix(.9981 -.061340 -.061340 -.9981 145.12 295.32)" height="7.2" width="6.4" y="-3.1" x="-3.2" overflow="visible"/>
			<use xlink:href="#G" transform="matrix(1 0 0 -1 185.7 296)" height="7.2" width="6.4" y="-3.1" x="-3.2" overflow="visible"/>
			<use xlink:href="#G" transform="matrix(.9999 -.012432 -.012432 -.9999 187.92 258.4)" height="7.2" width="6.4" y="-3.1" x="-3.2" overflow="visible"/>
			<use xlink:href="#G" transform="matrix(.9996 -.026612 -.026612 -.9996 180.7 268.66)" height="7.2" width="6.4" y="-3.1" x="-3.2" overflow="visible"/>
			<use xlink:href="#G" transform="matrix(.9996 .027234 .027234 -.9996 214.24 86.238)" height="7.2" width="6.4" y="-3.1" x="-3.2" overflow="visible"/>
			<use xlink:href="#G" transform="matrix(.9998 -.021865 -.021865 -.9998 219.79 75.654)" height="7.2" width="6.4" y="-3.1" x="-3.2" overflow="visible"/>
			<use xlink:href="#G" transform="matrix(.9788 .2048 .2048 -.9788 229.84 103.57)" height="7.2" width="6.4" y="-3.1" x="-3.2" overflow="visible"/>
			<use xlink:href="#G" transform="matrix(.833 .5533 .5533 -.833 282.23 93.304)" height="7.2" width="6.4" y="-3.1" x="-3.2" overflow="visible"/>
			<use xlink:href="#G" transform="matrix(.8506 .5258 .5258 -.8506 301.8 74.817)" height="7.2" width="6.4" y="-3.1" x="-3.2" overflow="visible"/>
			<use xlink:href="#G" transform="matrix(.9854 -.1705 -.1705 -.9854 232.06 22.604)" height="7.2" width="6.4" y="-3.1" x="-3.2" overflow="visible"/>
			<use xlink:href="#G" transform="matrix(.9995 -.032992 -.032992 -.9995 260.34 18.038)" height="7.2" width="6.4" y="-3.1" x="-3.2" overflow="visible"/>
			<use xlink:href="#G" transform="matrix(.9731 -.2302 -.2302 -.9731 133.93 34.953)" height="7.2" width="6.4" y="-3.1" x="-3.2" overflow="visible"/>
			<use xlink:href="#G" transform="matrix(.9738 -.2276 -.2276 -.9738 127.18 25.992)" height="7.2" width="6.4" y="-3.1" x="-3.2" overflow="visible"/>
			<use xlink:href="#G" transform="matrix(.9764 -.2159 -.2159 -.9764 137.26 55.992)" height="7.2" width="6.4" y="-3.1" x="-3.2" overflow="visible"/>
	<g fill="#59565F">
		<path d="m114.8 128h-4.6l3.1-9.2h3.8c0.7 0 1.2 0.1 1.7 0.2 0.4 0.1 0.7 0.3 0.9 0.6 0.3 0.4 0.4 1 0.2 1.5-0.2 0.7-0.6 1.2-1.2 1.6l-0.4 0.2c-0.1 0-0.2 0.1-0.4 0.2 0.6 0.1 1 0.4 1.3 0.8s0.3 0.9 0.2 1.5c-0.2 0.7-0.6 1.2-1.2 1.8-0.8 0.5-1.9 0.8-3.4 0.8zm-1-5.5h2.2c1.2 0 2-0.4 2.2-1.1 0.1-0.4 0.1-0.7-0.2-0.9-0.2-0.2-0.7-0.3-1.3-0.3h-2.1l-0.8 2.3zm-1.3 4h2.7c0.6 0 1.2-0.1 1.6-0.3s0.7-0.5 0.8-1c0.2-0.8-0.4-1.2-1.8-1.2h-2.5l-0.8 2.5z"/>
		<path d="m122.8 125.8l-1.6 2.2h-1.9l6.8-9.2h1.8l2.5 9.2h-1.9l-0.6-2.2h-5.1zm4.7-1.4l-1-3.7-2.7 3.7h3.7z"/>
		<path d="m131.9 128l1.7-9.2h1.7l-1.3 7.6h4.7l-0.2 1.5h-6.6z"/>
		<path d="m144.4 120c-0.5 0-0.9 0.1-1.2 0.3s-0.5 0.4-0.6 0.8c0 0.4 0.1 0.6 0.4 0.8s0.9 0.4 2 0.6c1 0.2 1.8 0.5 2.3 1 0.5 0.4 0.7 1 0.7 1.8-0.1 0.8-0.5 1.5-1.2 2s-1.7 0.8-2.8 0.8c-1.6 0-3-0.5-4.2-1.6l1.3-1.2c0.9 0.8 2 1.2 3.1 1.2 0.6 0 1-0.1 1.4-0.3s0.5-0.5 0.6-0.9c0-0.4-0.1-0.6-0.4-0.8s-0.8-0.4-1.5-0.5c-0.7-0.2-1.3-0.3-1.7-0.4s-0.7-0.3-1-0.5c-0.5-0.4-0.8-1-0.7-1.9 0.1-0.8 0.5-1.4 1.2-1.9 0.7-0.4 1.6-0.6 2.5-0.6 0.6 0 1.2 0.1 1.8 0.3s1.1 0.4 1.5 0.8l-1 1.1c-0.3-0.2-0.7-0.4-1.1-0.6-0.5-0.2-1-0.3-1.4-0.3z"/>
		<path d="m151.3 125.8l-1.2 2.2h-1.9l5-9.2h1.8l4.4 9.2h-1.9l-1-2.2h-5.2zm4.5-1.4l-1.7-3.7-2 3.7h3.7z"/>
		<path d="m165.7 117.5h1.4l-5.8 12.2h-1.5l5.9-12.2z"/>
		<path d="m175.8 118.9l0.2 1.4h-5.3l0.2 2.4h4.8l0.2 1.4h-4.9l0.2 2.5h5.7l0.2 1.5h-7.5l-0.7-9.2h6.9z"/>
		<path d="m179.4 128l-1.3-9.2h1.7l1.2 7.6h4.7l0.3 1.5h-6.6z"/>
		<path d="m189.3 120c-0.5 0-0.9 0.1-1.1 0.3-0.3 0.2-0.4 0.4-0.3 0.8s0.3 0.6 0.6 0.8c0.4 0.2 1.1 0.4 2.2 0.6s1.9 0.5 2.6 1c0.6 0.4 1.1 1 1.3 1.8s0 1.5-0.5 2c-0.6 0.5-1.4 0.8-2.5 0.8-1.6 0-3.2-0.5-4.7-1.6l0.9-1.2c1.2 0.8 2.4 1.2 3.5 1.2 0.6 0 1-0.1 1.3-0.3s0.4-0.5 0.3-0.9-0.3-0.6-0.7-0.8-0.9-0.4-1.7-0.5c-0.8-0.2-1.4-0.3-1.8-0.4s-0.8-0.3-1.1-0.5c-0.7-0.4-1.1-1-1.3-1.9-0.2-0.8 0-1.4 0.6-1.9 0.6-0.4 1.3-0.6 2.3-0.6 0.6 0 1.3 0.1 1.9 0.3 0.7 0.2 1.3 0.4 1.8 0.8l-0.6 1.1c-0.4-0.2-0.8-0.4-1.3-0.6-0.7-0.2-1.2-0.3-1.7-0.3z"/>
		<path d="m198.1 125.8l-0.4 2.2h-1.9l2-9.2h1.8l7.4 9.2h-1.9l-1.7-2.2h-5.3zm4.1-1.4l-3-3.7-0.8 3.7h3.8z"/>
	</g>
</g>
</svg>
