<?xml version="1.0" encoding="utf-8"?>
<!-- Generator: Adobe Illustrator 18.1.1, SVG Export Plug-In . SVG Version: 6.00 Build 0)  -->
<svg version="1.1" xmlns="http://www.w3.org/2000/svg" xmlns:xlink="http://www.w3.org/1999/xlink" x="0px" y="0px"
	 viewBox="0 0 222 222" enable-background="new 0 0 222 222" xml:space="preserve">
<g id="Layer_2">
</g>
<g id="dna" display="none">
</g>
<g id="Layer_12">
	<g id="New_Symbol_3">
	</g>
</g>
<g id="Layer_3" display="none">
</g>
<g id="Layer_1">
	<circle fill="#0098CB" cx="111" cy="111" r="111"/>
	<g id="New_Symbol_1_">
	</g>
	<g id="New_Symbol">
	</g>
	<g id="New_Symbol_2_">
	</g>
	<g id="New_Symbol_6_">
	</g>
	<g id="New_Symbol_5_">
	</g>
	<g id="New_Symbol_3_">
	</g>
	<g id="New_Symbol_4_">
	</g>
	<g>
		<path fill="#FFFFFF" d="M38.7,68.6L38,70.2h-1.2l2.9-6.6H41l2.9,6.6h-1.2L42,68.6H38.7z M41.6,67.6l-1.2-2.7l-1.2,2.7H41.6z"/>
		<path fill="#FFFFFF" d="M52.5,68.6l-0.7,1.5h-1.2l2.9-6.6h1.2l2.9,6.6h-1.2l-0.7-1.5H52.5z M55.3,67.6l-1.2-2.7l-1.2,2.7H55.3z"/>
		<path fill="#FFFFFF" d="M66.2,68.6l-0.7,1.5h-1.2l2.9-6.6h1.2l2.9,6.6h-1.2l-0.7-1.5H66.2z M69.1,67.6l-1.2-2.7l-1.2,2.7H69.1z"/>
		<path fill="#FFFFFF" d="M81.4,69.1c0.4,0,0.7-0.1,1-0.2c0.3-0.1,0.6-0.3,0.9-0.6l0.7,0.7c-0.7,0.8-1.6,1.2-2.6,1.2
			c-1,0-1.8-0.3-2.5-1c-0.7-0.6-1-1.5-1-2.4c0-1,0.3-1.8,1-2.5c0.7-0.7,1.5-1,2.5-1s1.9,0.4,2.6,1.1l-0.7,0.8
			c-0.3-0.3-0.6-0.5-0.9-0.6c-0.3-0.1-0.6-0.2-1-0.2c-0.7,0-1.2,0.2-1.7,0.6s-0.7,1-0.7,1.7c0,0.7,0.2,1.2,0.7,1.7
			C80.2,68.9,80.7,69.1,81.4,69.1z"/>
		<path fill="#FFFFFF" d="M96,66.9h1.1v2.3c-0.6,0.7-1.5,1-2.7,1c-1,0-1.8-0.3-2.5-1c-0.7-0.6-1-1.5-1-2.4c0-1,0.3-1.8,1-2.5
			c0.7-0.7,1.5-1,2.4-1c1,0,1.7,0.3,2.4,0.8l-0.6,0.9c-0.3-0.2-0.5-0.4-0.8-0.5c-0.3-0.1-0.6-0.1-0.9-0.1c-0.7,0-1.2,0.2-1.7,0.6
			s-0.7,1-0.7,1.7c0,0.7,0.2,1.3,0.7,1.7c0.4,0.4,1,0.6,1.6,0.6c0.6,0,1.2-0.1,1.6-0.4V66.9z"/>
		<path fill="#FFFFFF" d="M107.2,64.6v5.6h-1.1v-5.6h-2v-1h5.1v1H107.2z"/>
		<path fill="#FFFFFF" d="M119.4,64.6v5.6h-1.1v-5.6h-2v-1h5.1v1H119.4z"/>
		<path fill="#FFFFFF" d="M131.6,64.6v5.6h-1.1v-5.6h-2v-1h5.1v1H131.6z"/>
		<path fill="#FFFFFF" d="M143.8,64.6v5.6h-1.1v-5.6h-2v-1h5.1v1H143.8z"/>
		<path fill="#FFFFFF" d="M156,69.1c0.4,0,0.7-0.1,1-0.2c0.3-0.1,0.6-0.3,0.9-0.6l0.7,0.7c-0.7,0.8-1.6,1.2-2.6,1.2
			c-1,0-1.8-0.3-2.5-1c-0.7-0.6-1-1.5-1-2.4c0-1,0.3-1.8,1-2.5c0.7-0.7,1.5-1,2.5-1s1.9,0.4,2.6,1.1l-0.7,0.8
			c-0.3-0.3-0.6-0.5-0.9-0.6c-0.3-0.1-0.6-0.2-1-0.2c-0.7,0-1.2,0.2-1.7,0.6s-0.7,1-0.7,1.7c0,0.7,0.2,1.2,0.7,1.7
			C154.9,68.9,155.4,69.1,156,69.1z"/>
		<path fill="#FFFFFF" d="M168.9,64.6v5.6h-1.1v-5.6h-2v-1h5.1v1H168.9z"/>
		<path fill="#FFFFFF" d="M181.2,69.1c0.4,0,0.7-0.1,1-0.2c0.3-0.1,0.6-0.3,0.9-0.6l0.7,0.7c-0.7,0.8-1.6,1.2-2.6,1.2
			c-1,0-1.8-0.3-2.5-1c-0.7-0.6-1-1.5-1-2.4c0-1,0.3-1.8,1-2.5c0.7-0.7,1.5-1,2.5-1s1.9,0.4,2.6,1.1l-0.7,0.8
			c-0.3-0.3-0.6-0.5-0.9-0.6c-0.3-0.1-0.6-0.2-1-0.2c-0.7,0-1.2,0.2-1.7,0.6s-0.7,1-0.7,1.7c0,0.7,0.2,1.2,0.7,1.7
			C180,68.9,180.5,69.1,181.2,69.1z"/>
	</g>
	<g>
		<path fill="#FFFFFF" d="M38.7,115l-0.7,1.5h-1.2l2.9-6.6H41l2.9,6.6h-1.2L42,115H38.7z M41.6,113.9l-1.2-2.7l-1.2,2.7H41.6z"/>
		<path fill="#FFFFFF" d="M52.5,115l-0.7,1.5h-1.2l2.9-6.6h1.2l2.9,6.6h-1.2l-0.7-1.5H52.5z M55.3,113.9l-1.2-2.7l-1.2,2.7H55.3z"/>
		<path fill="#FFFFFF" d="M66.2,115l-0.7,1.5h-1.2l2.9-6.6h1.2l2.9,6.6h-1.2l-0.7-1.5H66.2z M69.1,113.9l-1.2-2.7l-1.2,2.7H69.1z"/>
		<path fill="#FFFFFF" d="M81.4,115.5c0.4,0,0.7-0.1,1-0.2c0.3-0.1,0.6-0.3,0.9-0.6l0.7,0.7c-0.7,0.8-1.6,1.2-2.6,1.2
			c-1,0-1.8-0.3-2.5-1c-0.7-0.6-1-1.5-1-2.4c0-1,0.3-1.8,1-2.5c0.7-0.7,1.5-1,2.5-1s1.9,0.4,2.6,1.1l-0.7,0.8
			c-0.3-0.3-0.6-0.5-0.9-0.6c-0.3-0.1-0.6-0.2-1-0.2c-0.7,0-1.2,0.2-1.7,0.6s-0.7,1-0.7,1.7c0,0.7,0.2,1.2,0.7,1.7
			C80.2,115.2,80.7,115.5,81.4,115.5z"/>
		<path fill="#FFFFFF" d="M96,113.2h1.1v2.3c-0.6,0.7-1.5,1-2.7,1c-1,0-1.8-0.3-2.5-1c-0.7-0.6-1-1.5-1-2.4c0-1,0.3-1.8,1-2.5
			c0.7-0.7,1.5-1,2.4-1c1,0,1.7,0.3,2.4,0.8l-0.6,0.9c-0.3-0.2-0.5-0.4-0.8-0.5c-0.3-0.1-0.6-0.1-0.9-0.1c-0.7,0-1.2,0.2-1.7,0.6
			s-0.7,1-0.7,1.7c0,0.7,0.2,1.3,0.7,1.7c0.4,0.4,1,0.6,1.6,0.6c0.6,0,1.2-0.1,1.6-0.4V113.2z"/>
		<path fill="#FFFFFF" d="M107.2,110.9v5.6h-1.1v-5.6h-2v-1h5.1v1H107.2z"/>
		<path fill="#FFFFFF" d="M119.4,110.9v5.6h-1.1v-5.6h-2v-1h5.1v1H119.4z"/>
		<path fill="#FFFFFF" d="M133.2,110.9v5.6h-1.1v-5.6h-2v-1h5.1v1H133.2z"/>
		<path fill="#FFFFFF" d="M145.4,110.9v5.6h-1.1v-5.6h-2v-1h5.1v1H145.4z"/>
		<path fill="#FFFFFF" d="M157.6,115.5c0.4,0,0.7-0.1,1-0.2c0.3-0.1,0.6-0.3,0.9-0.6l0.7,0.7c-0.7,0.8-1.6,1.2-2.6,1.2
			c-1,0-1.8-0.3-2.5-1c-0.7-0.6-1-1.5-1-2.4c0-1,0.3-1.8,1-2.5c0.7-0.7,1.5-1,2.5-1s1.9,0.4,2.6,1.1l-0.7,0.8
			c-0.3-0.3-0.6-0.5-0.9-0.6c-0.3-0.1-0.6-0.2-1-0.2c-0.7,0-1.2,0.2-1.7,0.6s-0.7,1-0.7,1.7c0,0.7,0.2,1.2,0.7,1.7
			C156.5,115.2,157,115.5,157.6,115.5z"/>
		<path fill="#FFFFFF" d="M170.5,110.9v5.6h-1.1v-5.6h-2v-1h5.1v1H170.5z"/>
		<path fill="#FFFFFF" d="M182.8,115.5c0.4,0,0.7-0.1,1-0.2c0.3-0.1,0.6-0.3,0.9-0.6l0.7,0.7c-0.7,0.8-1.6,1.2-2.6,1.2
			c-1,0-1.8-0.3-2.5-1c-0.7-0.6-1-1.5-1-2.4c0-1,0.3-1.8,1-2.5c0.7-0.7,1.5-1,2.5-1s1.9,0.4,2.6,1.1l-0.7,0.8
			c-0.3-0.3-0.6-0.5-0.9-0.6c-0.3-0.1-0.6-0.2-1-0.2c-0.7,0-1.2,0.2-1.7,0.6s-0.7,1-0.7,1.7c0,0.7,0.2,1.2,0.7,1.7
			C181.6,115.2,182.1,115.5,182.8,115.5z"/>
	</g>
	<g>
		<path fill="#FFFFFF" d="M38.7,129.1l-0.7,1.5h-1.2l2.9-6.6H41l2.9,6.6h-1.2l-0.7-1.5H38.7z M41.6,128.1l-1.2-2.7l-1.2,2.7H41.6z"
			/>
		<path fill="#FFFFFF" d="M52.5,129.1l-0.7,1.5h-1.2l2.9-6.6h1.2l2.9,6.6h-1.2l-0.7-1.5H52.5z M55.3,128.1l-1.2-2.7l-1.2,2.7H55.3z"
			/>
		<path fill="#FFFFFF" d="M66.2,129.1l-0.7,1.5h-1.2l2.9-6.6h1.2l2.9,6.6h-1.2l-0.7-1.5H66.2z M69.1,128.1l-1.2-2.7l-1.2,2.7H69.1z"
			/>
		<path fill="#FFFFFF" d="M81.4,129.6c0.4,0,0.7-0.1,1-0.2c0.3-0.1,0.6-0.3,0.9-0.6l0.7,0.7c-0.7,0.8-1.6,1.2-2.6,1.2
			c-1,0-1.8-0.3-2.5-1c-0.7-0.6-1-1.5-1-2.4c0-1,0.3-1.8,1-2.5c0.7-0.7,1.5-1,2.5-1s1.9,0.4,2.6,1.1l-0.7,0.8
			c-0.3-0.3-0.6-0.5-0.9-0.6c-0.3-0.1-0.6-0.2-1-0.2c-0.7,0-1.2,0.2-1.7,0.6s-0.7,1-0.7,1.7c0,0.7,0.2,1.2,0.7,1.7
			C80.2,129.4,80.7,129.6,81.4,129.6z"/>
		<path fill="#FFFFFF" d="M96,127.4h1.1v2.3c-0.6,0.7-1.5,1-2.7,1c-1,0-1.8-0.3-2.5-1c-0.7-0.6-1-1.5-1-2.4c0-1,0.3-1.8,1-2.5
			c0.7-0.7,1.5-1,2.4-1c1,0,1.7,0.3,2.4,0.8l-0.6,0.9c-0.3-0.2-0.5-0.4-0.8-0.5c-0.3-0.1-0.6-0.1-0.9-0.1c-0.7,0-1.2,0.2-1.7,0.6
			s-0.7,1-0.7,1.7c0,0.7,0.2,1.3,0.7,1.7c0.4,0.4,1,0.6,1.6,0.6c0.6,0,1.2-0.1,1.6-0.4V127.4z"/>
		<path fill="#FFFFFF" d="M107.2,125v5.6h-1.1V125h-2v-1h5.1v1H107.2z"/>
		<path fill="#59565F" d="M119.5,129.6c0.4,0,0.7-0.1,1-0.2c0.3-0.1,0.6-0.3,0.9-0.6l0.7,0.7c-0.7,0.8-1.6,1.2-2.6,1.2
			c-1,0-1.8-0.3-2.5-1c-0.7-0.6-1-1.5-1-2.4c0-1,0.3-1.8,1-2.5c0.7-0.7,1.5-1,2.5-1s1.9,0.4,2.6,1.1l-0.7,0.8
			c-0.3-0.3-0.6-0.5-0.9-0.6c-0.3-0.1-0.6-0.2-1-0.2c-0.7,0-1.2,0.2-1.7,0.6s-0.7,1-0.7,1.7c0,0.7,0.2,1.2,0.7,1.7
			C118.3,129.4,118.9,129.6,119.5,129.6z"/>
		<path fill="#FFFFFF" d="M133.5,125v5.6h-1.1V125h-2v-1h5.1v1H133.5z"/>
		<path fill="#FFFFFF" d="M145.7,125v5.6h-1.1V125h-2v-1h5.1v1H145.7z"/>
		<path fill="#FFFFFF" d="M158,129.6c0.4,0,0.7-0.1,1-0.2c0.3-0.1,0.6-0.3,0.9-0.6l0.7,0.7c-0.7,0.8-1.6,1.2-2.6,1.2
			c-1,0-1.8-0.3-2.5-1c-0.7-0.6-1-1.5-1-2.4c0-1,0.3-1.8,1-2.5c0.7-0.7,1.5-1,2.5-1s1.9,0.4,2.6,1.1l-0.7,0.8
			c-0.3-0.3-0.6-0.5-0.9-0.6c-0.3-0.1-0.6-0.2-1-0.2c-0.7,0-1.2,0.2-1.7,0.6s-0.7,1-0.7,1.7c0,0.7,0.2,1.2,0.7,1.7
			C156.8,129.4,157.3,129.6,158,129.6z"/>
		<path fill="#FFFFFF" d="M170.8,125v5.6h-1.1V125h-2v-1h5.1v1H170.8z"/>
		<path fill="#FFFFFF" d="M183.1,129.6c0.4,0,0.7-0.1,1-0.2c0.3-0.1,0.6-0.3,0.9-0.6l0.7,0.7c-0.7,0.8-1.6,1.2-2.6,1.2
			c-1,0-1.8-0.3-2.5-1c-0.7-0.6-1-1.5-1-2.4c0-1,0.3-1.8,1-2.5c0.7-0.7,1.5-1,2.5-1s1.9,0.4,2.6,1.1l-0.7,0.8
			c-0.3-0.3-0.6-0.5-0.9-0.6c-0.3-0.1-0.6-0.2-1-0.2c-0.7,0-1.2,0.2-1.7,0.6s-0.7,1-0.7,1.7c0,0.7,0.2,1.2,0.7,1.7
			C181.9,129.4,182.5,129.6,183.1,129.6z"/>
	</g>
	<rect x="28.4" y="45.6" fill="#3F7F96" width="13.2" height="6.7"/>
	<rect x="28.4" y="45.6" fill="#3F7F96" width="13.2" height="6.7"/>
	<rect x="41.3" y="45.6" fill="#A4B1B5" width="13.2" height="6.7"/>
	<rect x="111.8" y="45.6" fill="#A4B1B5" width="13.2" height="6.7"/>
	<rect x="134.3" y="45.6" fill="#A4B1B5" width="6.6" height="6.7"/>
	<rect x="53.4" y="45.6" fill="#0D6D99" width="13.2" height="6.7"/>
	<rect x="101.5" y="45.6" fill="#0D6D99" width="4.2" height="6.7"/>
	<rect x="179.7" y="45.6" fill="#0D6D99" width="8.4" height="6.7"/>
	<rect x="174.3" y="45.6" fill="#0D6D99" width="2.1" height="6.7"/>
	<rect x="65.4" y="45.6" fill="#3F7F96" width="13.2" height="6.7"/>
	<rect x="147.9" y="45.6" fill="#3F7F96" width="16.4" height="6.7"/>
	<rect x="72.9" y="45.6" fill="#A4B1B5" width="13.2" height="6.7"/>
	<line fill="none" stroke="#0D6D99" stroke-miterlimit="10" x1="191.9" y1="52.3" x2="28.4" y2="52.3"/>
	<line fill="none" stroke="#0D6D99" stroke-miterlimit="10" x1="28.4" y1="45.6" x2="191.9" y2="45.6"/>
	<line fill="#7CC7E3" stroke="#59565F" stroke-width="2" stroke-miterlimit="10" x1="112.7" y1="59.7" x2="112.7" y2="182.4"/>
	<line fill="#7CC7E3" stroke="#59565F" stroke-width="2" stroke-miterlimit="10" x1="126.8" y1="59.7" x2="126.8" y2="182.4"/>
	<line fill="#7CC7E3" stroke="#59565F" stroke-width="2" stroke-miterlimit="10" x1="119.1" y1="39.6" x2="119.1" y2="57.1"/>
	<g>
		<path fill="#FFFFFF" d="M38.7,142.8l-0.7,1.5h-1.2l2.9-6.6H41l2.9,6.6h-1.2l-0.7-1.5H38.7z M41.6,141.8l-1.2-2.7l-1.2,2.7H41.6z"
			/>
		<path fill="#59565F" d="M55.4,141.1h1.1v2.3c-0.6,0.7-1.5,1-2.7,1c-1,0-1.8-0.3-2.5-1c-0.7-0.6-1-1.5-1-2.4c0-1,0.3-1.8,1-2.5
			c0.7-0.7,1.5-1,2.4-1c1,0,1.7,0.3,2.4,0.8l-0.6,0.9c-0.3-0.2-0.5-0.4-0.8-0.5c-0.3-0.1-0.6-0.1-0.9-0.1c-0.7,0-1.2,0.2-1.7,0.6
			s-0.7,1-0.7,1.7c0,0.7,0.2,1.3,0.7,1.7c0.4,0.4,1,0.6,1.6,0.6c0.6,0,1.2-0.1,1.6-0.4V141.1z"/>
		<path fill="#59565F" d="M68.6,143.3c0.4,0,0.7-0.1,1-0.2c0.3-0.1,0.6-0.3,0.9-0.6l0.7,0.7c-0.7,0.8-1.6,1.2-2.6,1.2
			c-1,0-1.8-0.3-2.5-1c-0.7-0.6-1-1.5-1-2.4c0-1,0.3-1.8,1-2.5c0.7-0.7,1.5-1,2.5-1s1.9,0.4,2.6,1.1l-0.7,0.8
			c-0.3-0.3-0.6-0.5-0.9-0.6c-0.3-0.1-0.6-0.2-1-0.2c-0.7,0-1.2,0.2-1.7,0.6s-0.7,1-0.7,1.7c0,0.7,0.2,1.2,0.7,1.7
			C67.4,143.1,68,143.3,68.6,143.3z"/>
		<path fill="#FFFFFF" d="M81.6,143.3c0.4,0,0.7-0.1,1-0.2c0.3-0.1,0.6-0.3,0.9-0.6l0.7,0.7c-0.7,0.8-1.6,1.2-2.6,1.2
			c-1,0-1.8-0.3-2.5-1c-0.7-0.6-1-1.5-1-2.4c0-1,0.3-1.8,1-2.5c0.7-0.7,1.5-1,2.5-1s1.9,0.4,2.6,1.1l-0.7,0.8
			c-0.3-0.3-0.6-0.5-0.9-0.6c-0.3-0.1-0.6-0.2-1-0.2c-0.7,0-1.2,0.2-1.7,0.6s-0.7,1-0.7,1.7c0,0.7,0.2,1.2,0.7,1.7
			C80.5,143.1,81,143.3,81.6,143.3z"/>
		<path fill="#FFFFFF" d="M96.2,141.1h1.1v2.3c-0.6,0.7-1.5,1-2.7,1c-1,0-1.8-0.3-2.5-1c-0.7-0.6-1-1.5-1-2.4c0-1,0.3-1.8,1-2.5
			c0.7-0.7,1.5-1,2.4-1c1,0,1.7,0.3,2.4,0.8l-0.6,0.9c-0.3-0.2-0.5-0.4-0.8-0.5c-0.3-0.1-0.6-0.1-0.9-0.1c-0.7,0-1.2,0.2-1.7,0.6
			s-0.7,1-0.7,1.7c0,0.7,0.2,1.3,0.7,1.7c0.4,0.4,1,0.6,1.6,0.6c0.6,0,1.2-0.1,1.6-0.4V141.1z"/>
		<path fill="#FFFFFF" d="M107.5,138.7v5.6h-1.1v-5.6h-2v-1h5.1v1H107.5z"/>
		<path fill="#59565F" d="M119.7,143.3c0.4,0,0.7-0.1,1-0.2c0.3-0.1,0.6-0.3,0.9-0.6l0.7,0.7c-0.7,0.8-1.6,1.2-2.6,1.2
			c-1,0-1.8-0.3-2.5-1c-0.7-0.6-1-1.5-1-2.4c0-1,0.3-1.8,1-2.5c0.7-0.7,1.5-1,2.5-1s1.9,0.4,2.6,1.1l-0.7,0.8
			c-0.3-0.3-0.6-0.5-0.9-0.6c-0.3-0.1-0.6-0.2-1-0.2c-0.7,0-1.2,0.2-1.7,0.6s-0.7,1-0.7,1.7c0,0.7,0.2,1.2,0.7,1.7
			C118.6,143.1,119.1,143.3,119.7,143.3z"/>
		<path fill="#FFFFFF" d="M133.8,138.7v5.6h-1.1v-5.6h-2v-1h5.1v1H133.8z"/>
		<path fill="#FFFFFF" d="M145.9,138.7v5.6h-1.1v-5.6h-2v-1h5.1v1H145.9z"/>
		<path fill="#FFFFFF" d="M158.2,143.3c0.4,0,0.7-0.1,1-0.2c0.3-0.1,0.6-0.3,0.9-0.6l0.7,0.7c-0.7,0.8-1.6,1.2-2.6,1.2
			c-1,0-1.8-0.3-2.5-1c-0.7-0.6-1-1.5-1-2.4c0-1,0.3-1.8,1-2.5c0.7-0.7,1.5-1,2.5-1s1.9,0.4,2.6,1.1l-0.7,0.8
			c-0.3-0.3-0.6-0.5-0.9-0.6c-0.3-0.1-0.6-0.2-1-0.2c-0.7,0-1.2,0.2-1.7,0.6s-0.7,1-0.7,1.7c0,0.7,0.2,1.2,0.7,1.7
			C157,143.1,157.6,143.3,158.2,143.3z"/>
		<path fill="#59565F" d="M171.2,143.3c0.4,0,0.7-0.1,1-0.2c0.3-0.1,0.6-0.3,0.9-0.6l0.7,0.7c-0.7,0.8-1.6,1.2-2.6,1.2
			c-1,0-1.8-0.3-2.5-1c-0.7-0.6-1-1.5-1-2.4c0-1,0.3-1.8,1-2.5c0.7-0.7,1.5-1,2.5-1s1.9,0.4,2.6,1.1l-0.7,0.8
			c-0.3-0.3-0.6-0.5-0.9-0.6c-0.3-0.1-0.6-0.2-1-0.2c-0.7,0-1.2,0.2-1.7,0.6s-0.7,1-0.7,1.7c0,0.7,0.2,1.2,0.7,1.7
			C170.1,143.1,170.6,143.3,171.2,143.3z"/>
		<path fill="#FFFFFF" d="M184.4,143.3c0.4,0,0.7-0.1,1-0.2c0.3-0.1,0.6-0.3,0.9-0.6l0.7,0.7c-0.7,0.8-1.6,1.2-2.6,1.2
			c-1,0-1.8-0.3-2.5-1c-0.7-0.6-1-1.5-1-2.4c0-1,0.3-1.8,1-2.5c0.7-0.7,1.5-1,2.5-1s1.9,0.4,2.6,1.1l-0.7,0.8
			c-0.3-0.3-0.6-0.5-0.9-0.6c-0.3-0.1-0.6-0.2-1-0.2c-0.7,0-1.2,0.2-1.7,0.6s-0.7,1-0.7,1.7c0,0.7,0.2,1.2,0.7,1.7
			C183.2,143.1,183.7,143.3,184.4,143.3z"/>
	</g>
	<g>
		<path fill="#FFFFFF" d="M38.7,157l-0.7,1.5h-1.2l2.9-6.6H41l2.9,6.6h-1.2L42,157H38.7z M41.6,156l-1.2-2.7l-1.2,2.7H41.6z"/>
		<path fill="#59565F" d="M53.8,157.5c0.4,0,0.7-0.1,1-0.2c0.3-0.1,0.6-0.3,0.9-0.6l0.7,0.7c-0.7,0.8-1.6,1.2-2.6,1.2
			c-1,0-1.8-0.3-2.5-1c-0.7-0.6-1-1.5-1-2.4c0-1,0.3-1.8,1-2.5c0.7-0.7,1.5-1,2.5-1s1.9,0.4,2.6,1.1l-0.7,0.8
			c-0.3-0.3-0.6-0.5-0.9-0.6c-0.3-0.1-0.6-0.2-1-0.2c-0.7,0-1.2,0.2-1.7,0.6s-0.7,1-0.7,1.7c0,0.7,0.2,1.2,0.7,1.7
			C52.7,157.3,53.2,157.5,53.8,157.5z"/>
		<path fill="#FFFFFF" d="M66.3,157l-0.7,1.5h-1.2l2.9-6.6h1.2l2.9,6.6h-1.2l-0.7-1.5H66.3z M69.2,156l-1.2-2.7l-1.2,2.7H69.2z"/>
		<path fill="#FFFFFF" d="M81.4,157.5c0.4,0,0.7-0.1,1-0.2c0.3-0.1,0.6-0.3,0.9-0.6l0.7,0.7c-0.7,0.8-1.6,1.2-2.6,1.2
			c-1,0-1.8-0.3-2.5-1c-0.7-0.6-1-1.5-1-2.4c0-1,0.3-1.8,1-2.5c0.7-0.7,1.5-1,2.5-1s1.9,0.4,2.6,1.1l-0.7,0.8
			c-0.3-0.3-0.6-0.5-0.9-0.6c-0.3-0.1-0.6-0.2-1-0.2c-0.7,0-1.2,0.2-1.7,0.6s-0.7,1-0.7,1.7c0,0.7,0.2,1.2,0.7,1.7
			C80.3,157.3,80.8,157.5,81.4,157.5z"/>
		<path fill="#FFFFFF" d="M96,155.3h1.1v2.3c-0.6,0.7-1.5,1-2.7,1c-1,0-1.8-0.3-2.5-1c-0.7-0.6-1-1.5-1-2.4c0-1,0.3-1.8,1-2.5
			c0.7-0.7,1.5-1,2.4-1c1,0,1.7,0.3,2.4,0.8l-0.6,0.9c-0.3-0.2-0.5-0.4-0.8-0.5c-0.3-0.1-0.6-0.1-0.9-0.1c-0.7,0-1.2,0.2-1.7,0.6
			s-0.7,1-0.7,1.7c0,0.7,0.2,1.3,0.7,1.7c0.4,0.4,1,0.6,1.6,0.6c0.6,0,1.2-0.1,1.6-0.4V155.3z"/>
		<path fill="#FFFFFF" d="M107.3,152.9v5.6h-1.1v-5.6h-2v-1h5.1v1H107.3z"/>
		<path fill="#59565F" d="M119.5,157.5c0.4,0,0.7-0.1,1-0.2c0.3-0.1,0.6-0.3,0.9-0.6l0.7,0.7c-0.7,0.8-1.6,1.2-2.6,1.2
			c-1,0-1.8-0.3-2.5-1c-0.7-0.6-1-1.5-1-2.4c0-1,0.3-1.8,1-2.5c0.7-0.7,1.5-1,2.5-1s1.9,0.4,2.6,1.1l-0.7,0.8
			c-0.3-0.3-0.6-0.5-0.9-0.6c-0.3-0.1-0.6-0.2-1-0.2c-0.7,0-1.2,0.2-1.7,0.6s-0.7,1-0.7,1.7c0,0.7,0.2,1.2,0.7,1.7
			C118.4,157.3,118.9,157.5,119.5,157.5z"/>
		<path fill="#FFFFFF" d="M133.6,152.9v5.6h-1.1v-5.6h-2v-1h5.1v1H133.6z"/>
		<path fill="#FFFFFF" d="M145.8,152.9v5.6h-1.1v-5.6h-2v-1h5.1v1H145.8z"/>
		<path fill="#FFFFFF" d="M158,157.5c0.4,0,0.7-0.1,1-0.2c0.3-0.1,0.6-0.3,0.9-0.6l0.7,0.7c-0.7,0.8-1.6,1.2-2.6,1.2
			c-1,0-1.8-0.3-2.5-1c-0.7-0.6-1-1.5-1-2.4c0-1,0.3-1.8,1-2.5c0.7-0.7,1.5-1,2.5-1s1.9,0.4,2.6,1.1l-0.7,0.8
			c-0.3-0.3-0.6-0.5-0.9-0.6c-0.3-0.1-0.6-0.2-1-0.2c-0.7,0-1.2,0.2-1.7,0.6s-0.7,1-0.7,1.7c0,0.7,0.2,1.2,0.7,1.7
			C156.8,157.3,157.4,157.5,158,157.5z"/>
		<path fill="#59565F" d="M171,157.5c0.4,0,0.7-0.1,1-0.2c0.3-0.1,0.6-0.3,0.9-0.6l0.7,0.7c-0.7,0.8-1.6,1.2-2.6,1.2
			c-1,0-1.8-0.3-2.5-1c-0.7-0.6-1-1.5-1-2.4c0-1,0.3-1.8,1-2.5c0.7-0.7,1.5-1,2.5-1s1.9,0.4,2.6,1.1l-0.7,0.8
			c-0.3-0.3-0.6-0.5-0.9-0.6c-0.3-0.1-0.6-0.2-1-0.2c-0.7,0-1.2,0.2-1.7,0.6s-0.7,1-0.7,1.7c0,0.7,0.2,1.2,0.7,1.7
			C169.9,157.3,170.4,157.5,171,157.5z"/>
		<path fill="#FFFFFF" d="M184.2,157.5c0.4,0,0.7-0.1,1-0.2c0.3-0.1,0.6-0.3,0.9-0.6l0.7,0.7c-0.7,0.8-1.6,1.2-2.6,1.2
			c-1,0-1.8-0.3-2.5-1c-0.7-0.6-1-1.5-1-2.4c0-1,0.3-1.8,1-2.5c0.7-0.7,1.5-1,2.5-1s1.9,0.4,2.6,1.1l-0.7,0.8
			c-0.3-0.3-0.6-0.5-0.9-0.6c-0.3-0.1-0.6-0.2-1-0.2c-0.7,0-1.2,0.2-1.7,0.6s-0.7,1-0.7,1.7c0,0.7,0.2,1.2,0.7,1.7
			C183,157.3,183.5,157.5,184.2,157.5z"/>
	</g>
	<g>
		<path fill="#FFFFFF" d="M38.7,170.9l-0.7,1.5h-1.2l2.9-6.6H41l2.9,6.6h-1.2l-0.7-1.5H38.7z M41.6,169.9l-1.2-2.7l-1.2,2.7H41.6z"
			/>
		<path fill="#FFFFFF" d="M52.5,170.9l-0.7,1.5h-1.2l2.9-6.6h1.2l2.9,6.6h-1.2l-0.7-1.5H52.5z M55.3,169.9l-1.2-2.7l-1.2,2.7H55.3z"
			/>
		<path fill="#FFFFFF" d="M66.2,170.9l-0.7,1.5h-1.2l2.9-6.6h1.2l2.9,6.6h-1.2l-0.7-1.5H66.2z M69.1,169.9l-1.2-2.7l-1.2,2.7H69.1z"
			/>
		<path fill="#FFFFFF" d="M81.4,171.4c0.4,0,0.7-0.1,1-0.2c0.3-0.1,0.6-0.3,0.9-0.6l0.7,0.7c-0.7,0.8-1.6,1.2-2.6,1.2
			c-1,0-1.8-0.3-2.5-1c-0.7-0.6-1-1.5-1-2.4c0-1,0.3-1.8,1-2.5c0.7-0.7,1.5-1,2.5-1s1.9,0.4,2.6,1.1l-0.7,0.8
			c-0.3-0.3-0.6-0.5-0.9-0.6c-0.3-0.1-0.6-0.2-1-0.2c-0.7,0-1.2,0.2-1.7,0.6s-0.7,1-0.7,1.7c0,0.7,0.2,1.2,0.7,1.7
			C80.2,171.2,80.7,171.4,81.4,171.4z"/>
		<path fill="#FFFFFF" d="M96,169.2h1.1v2.3c-0.6,0.7-1.5,1-2.7,1c-1,0-1.8-0.3-2.5-1c-0.7-0.6-1-1.5-1-2.4c0-1,0.3-1.8,1-2.5
			c0.7-0.7,1.5-1,2.4-1c1,0,1.7,0.3,2.4,0.8l-0.6,0.9c-0.3-0.2-0.5-0.4-0.8-0.5c-0.3-0.1-0.6-0.1-0.9-0.1c-0.7,0-1.2,0.2-1.7,0.6
			s-0.7,1-0.7,1.7c0,0.7,0.2,1.3,0.7,1.7c0.4,0.4,1,0.6,1.6,0.6c0.6,0,1.2-0.1,1.6-0.4V169.2z"/>
		<path fill="#FFFFFF" d="M107.2,166.8v5.6h-1.1v-5.6h-2v-1h5.1v1H107.2z"/>
		<path fill="#FFFFFF" d="M119.4,166.8v5.6h-1.1v-5.6h-2v-1h5.1v1H119.4z"/>
		<path fill="#FFFFFF" d="M133.6,166.8v5.6h-1.1v-5.6h-2v-1h5.1v1H133.6z"/>
		<path fill="#59565F" d="M143.4,170.9l-0.7,1.5h-1.2l2.9-6.6h1.2l2.9,6.6h-1.2l-0.7-1.5H143.4z M146.2,169.9l-1.2-2.7l-1.2,2.7
			H146.2z"/>
		<path fill="#FFFFFF" d="M158.5,171.4c0.4,0,0.7-0.1,1-0.2c0.3-0.1,0.6-0.3,0.9-0.6l0.7,0.7c-0.7,0.8-1.6,1.2-2.6,1.2
			c-1,0-1.8-0.3-2.5-1c-0.7-0.6-1-1.5-1-2.4c0-1,0.3-1.8,1-2.5c0.7-0.7,1.5-1,2.5-1s1.9,0.4,2.6,1.1l-0.7,0.8
			c-0.3-0.3-0.6-0.5-0.9-0.6c-0.3-0.1-0.6-0.2-1-0.2c-0.7,0-1.2,0.2-1.7,0.6s-0.7,1-0.7,1.7c0,0.7,0.2,1.2,0.7,1.7
			C157.3,171.2,157.9,171.4,158.5,171.4z"/>
		<path fill="#FFFFFF" d="M171.4,166.8v5.6h-1.1v-5.6h-2v-1h5.1v1H171.4z"/>
		<path fill="#FFFFFF" d="M183.6,171.4c0.4,0,0.7-0.1,1-0.2c0.3-0.1,0.6-0.3,0.9-0.6l0.7,0.7c-0.7,0.8-1.6,1.2-2.6,1.2
			c-1,0-1.8-0.3-2.5-1c-0.7-0.6-1-1.5-1-2.4c0-1,0.3-1.8,1-2.5c0.7-0.7,1.5-1,2.5-1s1.9,0.4,2.6,1.1l-0.7,0.8
			c-0.3-0.3-0.6-0.5-0.9-0.6c-0.3-0.1-0.6-0.2-1-0.2c-0.7,0-1.2,0.2-1.7,0.6s-0.7,1-0.7,1.7c0,0.7,0.2,1.2,0.7,1.7
			C182.5,171.2,183,171.4,183.6,171.4z"/>
	</g>
</g>
</svg>
