<?xml version="1.0" encoding="utf-8"?>
<!-- Generator: Adobe Illustrator 18.1.1, SVG Export Plug-In . SVG Version: 6.00 Build 0)  -->
<svg version="1.1" id="Capa_1" xmlns="http://www.w3.org/2000/svg" xmlns:xlink="http://www.w3.org/1999/xlink" x="0px" y="0px"
	 viewBox="0 90 612 612" enable-background="new 0 90 612 612" xml:space="preserve">
<g>
	<path fill="#FFFFFF" d="M423.7,508v79.2c0,24.3-19.8,44.1-44.1,44.1H114.8c-24.3,0-44.1-19.8-44.1-44.1V322.4
		c0-24.3,19.8-44.1,44.1-44.1h80.7l70.6-70.6H114.8C51.4,207.7,0,259.1,0,322.4v264.8C0,650.6,51.4,702,114.8,702h264.8
		c63.4,0,114.8-51.4,114.8-114.8V437.4L423.7,508z"/>
	<g>
		<path fill="#FFFFFF" d="M531.5,90H290c-44.4,0-41.3,12-17.9,35.4l75.8,75.8L218,331.1c-27,26.9-26.9,70.6,0,97.5l56.7,56.8
			c26.9,26.9,70.5,26.9,97.4,0l129.9-129.9l74.4,74.4c25.9,25.9,35.5,26.6,35.5-17.8l0-241.5C612,89.6,612.6,90,531.5,90z"/>
	</g>
</g>
</svg>
