<?xml version="1.0" encoding="UTF-8" standalone="no"?>
<!-- Generator: Adobe Illustrator 18.1.1, SVG Export Plug-In . SVG Version: 6.00 Build 0)  -->
<svg xmlns="http://www.w3.org/2000/svg" xml:space="preserve" version="1.1" y="0px" x="0px" xmlns:xlink="http://www.w3.org/1999/xlink" viewBox="0 0 1819.1 1001.1" enable-background="new 0 0 1819.1 1001.1">
<g id="Layer_12">
</g>
<g id="Layer_1">
	<g stroke="#fff" stroke-width="4" stroke-miterlimit="10" fill="#566585">
		<path d="m845.1 244.6c-1.8-10-12.5-14.7-20.6-14.7h-272.6c-8.1 0-13.9 6.2-17.6 14.7 0 0-32.3 96.9-32.3 100.9v380.1c0 8.1 6.6 14.7 14.7 14.7h343.2c8.1 0 14.7-6.6 14.7-14.7v-380.1c-0.1-3.7-29.5-100.9-29.5-100.9z"/>
		<line y2="345.5" x1="501.9" x2="874.5" y1="345.5"/>
		<line y2="426.6" x1="501.9" x2="874.5" y1="426.6"/>
		<line y2="507.8" x1="501.9" x2="874.5" y1="507.8"/>
		<line y2="586" x1="501.9" x2="874.5" y1="586"/>
		<line y2="664.2" x1="501.9" x2="874.5" y1="664.2"/>
		<circle r="16.8" cy="387.4" cx="562"/>
		<circle r="16.8" cy="468.1" cx="562"/>
		<circle r="16.8" cy="546" cx="562"/>
		<circle r="16.8" cy="623.2" cx="562"/>
		<circle r="16.8" cy="703.1" cx="562"/>
	</g>
	<g fill="#fff">
		<path d="m614 398.8h-0.5c-3.1 0-5.7-1-7.9-3.1-2.1-2.1-3.2-4.7-3.2-7.7s1.1-5.7 3.2-7.7c2.1-2.1 4.7-3.1 7.9-3.1s5.7 1 7.9 3.1c2.1 2.1 3.2 4.7 3.2 7.7 0 2.3-0.6 4.4-1.9 6.2s-2.9 3.1-5 3.9c0.7 0.9 1.5 1.4 2.6 1.4 0.8 0 1.5-0.2 2.2-0.6s1.3-0.9 1.7-1.6l2 2.8c-1.7 1.8-3.7 2.8-6 2.8-1.3 0-2.5-0.4-3.7-1.1s-2-1.8-2.5-3zm4.9-16.3c-1.4-1.5-3.2-2.2-5.3-2.2s-3.8 0.7-5.3 2.2c-1.4 1.5-2.1 3.3-2.1 5.4s0.7 3.9 2.1 5.4c1.4 1.5 3.2 2.2 5.3 2.2s3.8-0.7 5.3-2.2c1.4-1.5 2.1-3.3 2.1-5.4s-0.7-3.9-2.1-5.4z"/>
		<path d="m639.8 391.3v-8.6h3.4v16h-3.4v-2.9c-0.5 1-1.3 1.8-2.2 2.3-1 0.6-2 0.8-3.1 0.8-1.8 0-3.3-0.6-4.4-1.7s-1.7-2.7-1.7-4.8v-9.8h3.4v8.8c0 2.9 1.2 4.4 3.7 4.4 1.2 0 2.2-0.4 3-1.2 0.9-0.7 1.3-1.9 1.3-3.3z"/>
		<path d="m660.8 398.6h-3.1v-2.1c-1.3 1.6-3.1 2.4-5.3 2.4-1.7 0-3-0.5-4.1-1.4s-1.6-2.2-1.6-3.8c0-1.6 0.6-2.7 1.7-3.5 1.2-0.8 2.7-1.2 4.7-1.2h4.4v-0.6c0-2.1-1.2-3.2-3.5-3.2-1.5 0-3 0.5-4.6 1.6l-1.5-2.1c1.9-1.5 4.1-2.3 6.6-2.3 1.9 0 3.4 0.5 4.6 1.4 1.2 1 1.8 2.4 1.8 4.5v10.3zm-3.4-6v-1.4h-3.8c-2.4 0-3.6 0.8-3.6 2.3 0 0.8 0.3 1.4 0.9 1.8s1.4 0.6 2.5 0.6 2-0.3 2.8-0.9 1.2-1.3 1.2-2.4z"/>
		<path d="m668.6 398.6h-3.4v-22.3h3.4v22.3z"/>
		<path d="m673.4 379.4c-0.4-0.4-0.6-0.9-0.6-1.5s0.2-1.1 0.6-1.5c0.4-0.4 0.9-0.6 1.5-0.6s1.1 0.2 1.5 0.6 0.6 0.9 0.6 1.5-0.2 1.1-0.6 1.5c-0.4 0.4-0.9 0.6-1.5 0.6-0.6 0.1-1.1-0.2-1.5-0.6zm3.2 19.2h-3.4v-16h3.4v16z"/>
		<path d="m685 385.3v8.1c0 0.8 0.2 1.4 0.6 1.8 0.4 0.5 1 0.7 1.7 0.7s1.4-0.3 2.1-1.1l1.4 2.4c-1.2 1.1-2.5 1.6-3.9 1.6s-2.7-0.5-3.7-1.5-1.5-2.3-1.5-4v-8h-2v-2.7h2v-5h3.4v5h4.2v2.7h-4.3z"/>
		<path d="m695.7 405c-1.5 0-2.8-0.5-4-1.6l1.5-2.7c0.7 0.7 1.4 1 2.2 1s1.4-0.3 1.8-0.8c0.5-0.5 0.7-1.1 0.7-1.8 0-0.3-2.2-5.8-6.5-16.4h3.6l4.8 11.8 4.8-11.8h3.6l-7.7 19c-0.5 1-1.1 1.9-2 2.5-0.8 0.5-1.8 0.8-2.8 0.8z"/>
		<path d="m729.2 395.4c1.2 0 2.3-0.2 3.2-0.6s1.8-1.1 2.8-2l2.3 2.3c-2.2 2.5-4.9 3.7-8.1 3.7s-5.8-1-7.9-3.1c-2.1-2-3.1-4.6-3.1-7.7s1.1-5.7 3.2-7.8c2.1-2.1 4.8-3.1 8.1-3.1s6 1.2 8.2 3.6l-2.3 2.5c-1-1-1.9-1.6-2.8-2s-1.9-0.6-3.1-0.6c-2.1 0-3.9 0.7-5.3 2.1s-2.2 3.1-2.2 5.3c0 2.1 0.7 3.9 2.1 5.3 1.2 1.4 2.9 2.1 4.9 2.1z"/>
		<path d="m754 396.4c-1.6 1.6-3.6 2.4-6 2.4s-4.4-0.8-6-2.4c-1.6-1.6-2.4-3.5-2.4-5.8s0.8-4.2 2.4-5.8 3.6-2.4 6-2.4 4.4 0.8 6 2.4c1.6 1.6 2.4 3.5 2.4 5.8s-0.8 4.2-2.4 5.8zm-9.7-2c1 1 2.2 1.5 3.6 1.5s2.7-0.5 3.6-1.5c1-1 1.4-2.2 1.4-3.8 0-1.5-0.5-2.8-1.4-3.8-1-1-2.2-1.5-3.6-1.5s-2.7 0.5-3.6 1.5c-1 1-1.4 2.2-1.4 3.8 0 1.5 0.5 2.8 1.4 3.8z"/>
		<path d="m763.3 389.9v8.6h-3.3v-16h3.4v2.9c0.5-1 1.3-1.8 2.2-2.3s2-0.8 3.1-0.8c1.8 0 3.3 0.6 4.4 1.7s1.7 2.7 1.7 4.8v9.8h-3.4v-8.8c0-2.9-1.2-4.4-3.7-4.4-1.2 0-2.2 0.4-3 1.2-0.9 0.7-1.4 1.9-1.4 3.3z"/>
		<path d="m782.8 385.3v8.1c0 0.8 0.2 1.4 0.6 1.8 0.4 0.5 1 0.7 1.7 0.7s1.4-0.3 2.1-1.1l1.4 2.4c-1.2 1.1-2.5 1.6-3.9 1.6s-2.7-0.5-3.7-1.5-1.5-2.3-1.5-4v-8h-2v-2.7h2v-5h3.4v5h4.2v2.7h-4.3z"/>
		<path d="m799.5 385.8c-1.7 0-2.9 0.5-3.8 1.6s-1.3 2.5-1.3 4.4v6.8h-3.4v-16h3.4v3.2c0.5-1 1.3-1.8 2.2-2.5 0.9-0.6 1.9-1 3-1v3.4c0 0.1 0 0.1-0.1 0.1z"/>
		<path d="m815.9 396.4c-1.6 1.6-3.6 2.4-6 2.4s-4.4-0.8-6-2.4c-1.6-1.6-2.4-3.5-2.4-5.8s0.8-4.2 2.4-5.8 3.6-2.4 6-2.4 4.4 0.8 6 2.4c1.6 1.6 2.4 3.5 2.4 5.8s-0.8 4.2-2.4 5.8zm-9.7-2c1 1 2.2 1.5 3.6 1.5s2.7-0.5 3.6-1.5c1-1 1.4-2.2 1.4-3.8 0-1.5-0.5-2.8-1.4-3.8-1-1-2.2-1.5-3.6-1.5s-2.7 0.5-3.6 1.5c-1 1-1.4 2.2-1.4 3.8 0 1.5 0.5 2.8 1.4 3.8z"/>
		<path d="m825.2 398.6h-3.4v-22.3h3.4v22.3z"/>
	</g>
	<g fill="#fff">
		<path d="m606.9 472.8l-2.1 4.8h-3.8l9.2-21h3.8l9.2 21h-3.8l-2.1-4.8h-10.4zm9-3.3l-3.8-8.6-3.8 8.6h7.6z"/>
		<path d="m629.1 477.6h-3.4v-22.3h3.4v22.3z"/>
		<path d="m633.9 458.4c-0.4-0.4-0.6-0.9-0.6-1.5s0.2-1.1 0.6-1.5c0.4-0.4 0.9-0.6 1.5-0.6s1.1 0.2 1.5 0.6 0.6 0.9 0.6 1.5-0.2 1.1-0.6 1.5c-0.4 0.4-0.9 0.6-1.5 0.6-0.5 0.1-1-0.2-1.5-0.6zm3.2 19.2h-3.4v-16h3.4v16z"/>
		<path d="m656.4 461.6v13.9c0 2.8-0.8 4.9-2.3 6.4-1.5 1.4-3.5 2.1-5.9 2.1s-4.6-0.8-6.5-2.3l1.6-2.6c1.6 1.2 3.1 1.8 4.7 1.8s2.9-0.4 3.8-1.2 1.4-2.1 1.4-3.9v-2c-0.5 0.9-1.2 1.7-2.1 2.3s-2 0.8-3.1 0.8c-2.1 0-3.9-0.7-5.2-2.2-1.4-1.5-2-3.3-2-5.5s0.7-4 2-5.5c1.4-1.5 3.1-2.2 5.2-2.2s3.8 0.9 5.2 2.6v-2.4h3.2zm-12.5 7.4c0 1.3 0.4 2.4 1.2 3.4s1.9 1.4 3.3 1.4 2.5-0.5 3.3-1.4c0.9-0.9 1.3-2.1 1.3-3.4s-0.4-2.5-1.3-3.5c-0.9-1-2-1.4-3.3-1.4-1.4 0-2.4 0.5-3.3 1.5-0.8 0.9-1.2 2.1-1.2 3.4z"/>
		<path d="m664.3 468.9v8.6h-3.4v-16h3.4v2.9c0.5-1 1.3-1.8 2.2-2.3s2-0.8 3.1-0.8c1.8 0 3.3 0.6 4.4 1.7s1.7 2.7 1.7 4.8v9.8h-3.4v-8.8c0-2.9-1.2-4.4-3.7-4.4-1.2 0-2.2 0.4-3 1.2-0.9 0.7-1.3 1.9-1.3 3.3z"/>
		<path d="m683.5 468.9v8.6h-3.4v-16h3.4v2.9c0.5-1 1.2-1.8 2.2-2.3s2-0.8 3.1-0.8c2.5 0 4.2 1 5.1 3.1 1.6-2.1 3.6-3.1 5.9-3.1 1.8 0 3.3 0.6 4.4 1.7s1.7 2.7 1.7 4.8v9.8h-3.4v-8.8c0-2.9-1.2-4.4-3.7-4.4-1.1 0-2.1 0.4-3 1.1s-1.3 1.8-1.3 3.2v8.9h-3.4v-8.8c0-1.5-0.3-2.6-0.8-3.3s-1.4-1.1-2.6-1.1-2.2 0.4-3 1.2c-0.8 0.7-1.2 1.9-1.2 3.3z"/>
		<path d="m725.3 471.1h-12.5c0.1 1.2 0.6 2.1 1.6 2.8s2.1 1.1 3.4 1.1c2 0 3.5-0.6 4.6-1.9l1.9 2.1c-1.7 1.8-4 2.7-6.7 2.7-2.2 0-4.1-0.7-5.7-2.2s-2.4-3.5-2.4-6 0.8-4.5 2.4-6 3.5-2.2 5.7-2.2 4 0.7 5.5 2c1.5 1.3 2.3 3.1 2.3 5.4v2.2zm-12.6-2.7h9.2c0-1.3-0.4-2.4-1.3-3.1s-1.9-1.1-3.1-1.1-2.3 0.4-3.3 1.1-1.5 1.8-1.5 3.1z"/>
		<path d="m732.2 468.9v8.6h-3.4v-16h3.4v2.9c0.5-1 1.3-1.8 2.2-2.3s2-0.8 3.1-0.8c1.8 0 3.3 0.6 4.4 1.7s1.7 2.7 1.7 4.8v9.8h-3.4v-8.8c0-2.9-1.2-4.4-3.7-4.4-1.2 0-2.2 0.4-3 1.2-0.8 0.7-1.3 1.9-1.3 3.3z"/>
		<path d="m751.7 464.3v8.1c0 0.8 0.2 1.4 0.6 1.8 0.4 0.5 1 0.7 1.7 0.7s1.4-0.3 2.1-1.1l1.4 2.4c-1.2 1.1-2.5 1.6-3.9 1.6s-2.7-0.5-3.7-1.5-1.5-2.3-1.5-4v-8h-2v-2.7h2v-5h3.4v5h4.2v2.7h-4.3z"/>
	</g>
	<g fill="#fff">
		<path d="m620.6 548.6c0 3.5-1.5 5.6-4.5 6.5l5.5 7.6h-4.5l-5-7.1h-4.7v7.1h-3.5v-21h7.8c3.2 0 5.5 0.5 6.9 1.6s2 3 2 5.3zm-4.7 3c0.7-0.6 1.1-1.6 1.1-3s-0.4-2.3-1.1-2.8-2.1-0.8-4-0.8h-4.5v7.5h4.4c2.1 0 3.4-0.3 4.1-0.9z"/>
		<path d="m639.6 556.3h-12.6c0.1 1.2 0.6 2.1 1.6 2.8s2.1 1.1 3.4 1.1c2 0 3.5-0.6 4.6-1.9l1.9 2.1c-1.7 1.8-4 2.7-6.7 2.7-2.2 0-4.1-0.7-5.7-2.2s-2.4-3.5-2.4-6 0.8-4.5 2.4-6 3.5-2.2 5.7-2.2 4 0.7 5.5 2c1.5 1.3 2.3 3.1 2.3 5.4v2.2zm-12.6-2.6h9.2c0-1.3-0.4-2.4-1.3-3.1s-1.9-1.1-3.1-1.1-2.3 0.4-3.3 1.1-1.5 1.8-1.5 3.1z"/>
		<path d="m650.3 563.1c-2.2 0-4.1-0.8-5.7-2.3s-2.4-3.5-2.4-5.9 0.8-4.4 2.5-6c1.7-1.5 3.7-2.3 6.1-2.3s4.4 0.8 6.1 2.5l-2 2.4c-1.4-1.2-2.8-1.8-4.2-1.8s-2.6 0.5-3.6 1.4-1.5 2.1-1.5 3.6 0.5 2.7 1.5 3.7c1 1 2.3 1.5 3.8 1.5s2.9-0.7 4.2-2l2 2.2c-2 2-4.2 3-6.8 3z"/>
		<path d="m673.4 562.8h-3.1v-2.1c-1.3 1.6-3.1 2.4-5.3 2.4-1.7 0-3-0.5-4.1-1.4s-1.6-2.2-1.6-3.8c0-1.6 0.6-2.7 1.7-3.5 1.2-0.8 2.7-1.2 4.7-1.2h4.4v-0.6c0-2.1-1.2-3.2-3.5-3.2-1.5 0-3 0.5-4.6 1.6l-1.5-2.1c1.9-1.5 4.1-2.3 6.6-2.3 1.9 0 3.4 0.5 4.6 1.4 1.2 1 1.8 2.4 1.8 4.5v10.3zm-3.3-5.9v-1.4h-3.8c-2.4 0-3.6 0.8-3.6 2.3 0 0.8 0.3 1.4 0.9 1.8s1.4 0.6 2.5 0.6 2-0.3 2.8-0.9 1.2-1.4 1.2-2.4z"/>
		<path d="m681.2 562.8h-3.4v-22.3h3.4v22.3z"/>
		<path d="m686 543.7c-0.4-0.4-0.6-0.9-0.6-1.5s0.2-1.1 0.6-1.5c0.4-0.4 0.9-0.6 1.5-0.6s1.1 0.2 1.5 0.6 0.6 0.9 0.6 1.5-0.2 1.1-0.6 1.5c-0.4 0.4-0.9 0.6-1.5 0.6-0.5 0-1-0.2-1.5-0.6zm3.2 19.1h-3.4v-16h3.4v16z"/>
		<path d="m702.3 546.6c2.1 0 4 0.7 5.5 2.2s2.3 3.5 2.3 5.9c0 2.5-0.8 4.5-2.3 6s-3.3 2.3-5.3 2.3-3.8-0.9-5.4-2.6v2.4h-3.4v-22.3h3.4v9.1c1.4-2 3.1-3 5.2-3zm-5.2 8.3c0 1.5 0.5 2.8 1.4 3.7 0.9 1 2 1.5 3.4 1.5s2.5-0.5 3.5-1.4 1.5-2.2 1.5-3.7c0-1.5-0.5-2.8-1.4-3.8-1-1-2.1-1.5-3.5-1.5s-2.5 0.5-3.4 1.5c-1 0.9-1.5 2.1-1.5 3.7z"/>
		<path d="m722.1 550c-1.7 0-2.9 0.5-3.8 1.6s-1.3 2.5-1.3 4.4v6.8h-3.4v-16h3.4v3.2c0.5-1 1.3-1.8 2.2-2.5 0.9-0.6 1.9-1 3-1v3.4c0 0.1 0 0.1-0.1 0.1z"/>
		<path d="m738.2 562.8h-3.1v-2.1c-1.3 1.6-3.1 2.4-5.3 2.4-1.7 0-3-0.5-4.1-1.4s-1.6-2.2-1.6-3.8c0-1.6 0.6-2.7 1.7-3.5 1.2-0.8 2.7-1.2 4.7-1.2h4.4v-0.6c0-2.1-1.2-3.2-3.5-3.2-1.5 0-3 0.5-4.6 1.6l-1.5-2.1c1.9-1.5 4.1-2.3 6.6-2.3 1.9 0 3.4 0.5 4.6 1.4 1.2 1 1.8 2.4 1.8 4.5v10.3zm-3.4-5.9v-1.4h-3.8c-2.4 0-3.6 0.8-3.6 2.3 0 0.8 0.3 1.4 0.9 1.8s1.4 0.6 2.5 0.6 2-0.3 2.8-0.9 1.2-1.4 1.2-2.4z"/>
		<path d="m746.4 549.5v8.1c0 0.8 0.2 1.4 0.6 1.8 0.4 0.5 1 0.7 1.7 0.7s1.4-0.3 2.1-1.1l1.4 2.4c-1.2 1.1-2.5 1.6-3.9 1.6s-2.7-0.5-3.7-1.5-1.5-2.3-1.5-4v-8h-2v-2.7h2v-5h3.4v5h4.2v2.7h-4.3z"/>
		<path d="m754.9 543.7c-0.4-0.4-0.6-0.9-0.6-1.5s0.2-1.1 0.6-1.5c0.4-0.4 0.9-0.6 1.5-0.6s1.1 0.2 1.5 0.6 0.6 0.9 0.6 1.5-0.2 1.1-0.6 1.5c-0.4 0.4-0.9 0.6-1.5 0.6s-1.1-0.2-1.5-0.6zm3.1 19.1h-3.4v-16h3.4v16z"/>
		<path d="m775.9 560.7c-1.6 1.6-3.6 2.4-6 2.4s-4.4-0.8-6-2.4c-1.6-1.6-2.4-3.5-2.4-5.8s0.8-4.2 2.4-5.8 3.6-2.4 6-2.4 4.4 0.8 6 2.4c1.6 1.6 2.4 3.5 2.4 5.8 0 2.2-0.8 4.2-2.4 5.8zm-9.6-2.1c1 1 2.2 1.5 3.6 1.5s2.7-0.5 3.6-1.5c1-1 1.4-2.2 1.4-3.8 0-1.5-0.5-2.8-1.4-3.8-1-1-2.2-1.5-3.6-1.5s-2.7 0.5-3.6 1.5c-1 1-1.4 2.2-1.4 3.8s0.4 2.8 1.4 3.8z"/>
		<path d="m785.3 554.2v8.6h-3.4v-16h3.4v2.9c0.5-1 1.3-1.8 2.2-2.3s2-0.8 3.1-0.8c1.8 0 3.3 0.6 4.4 1.7s1.7 2.7 1.7 4.8v9.8h-3.4v-8.9c0-2.9-1.2-4.4-3.7-4.4-1.2 0-2.2 0.4-3 1.2-0.9 0.8-1.3 1.9-1.3 3.4z"/>
	</g>
	<g fill="#fff">
		<path d="m619.8 618c2 1.8 3 4.4 3 7.6 0 3.3-1 5.8-2.9 7.7-2 1.9-5 2.9-9 2.9h-7v-21h7.2c3.8 0 6.7 0.9 8.7 2.8zm-0.6 7.7c0-4.8-2.8-7.2-8.3-7.2h-3.5v14.4h3.9c2.5 0 4.5-0.6 5.8-1.8 1.5-1.3 2.1-3.1 2.1-5.4z"/>
		<path d="m641.7 629.7h-12.5c0.1 1.2 0.6 2.1 1.6 2.8s2.1 1.1 3.4 1.1c2 0 3.5-0.6 4.6-1.9l1.9 2.1c-1.7 1.8-4 2.7-6.7 2.7-2.2 0-4.1-0.7-5.7-2.2s-2.4-3.5-2.4-6 0.8-4.5 2.4-6 3.5-2.2 5.7-2.2 4 0.7 5.5 2c1.5 1.3 2.3 3.1 2.3 5.4v2.2zm-12.5-2.7h9.2c0-1.3-0.4-2.4-1.3-3.1s-1.9-1.1-3.1-1.1-2.3 0.4-3.3 1.1-1.5 1.9-1.5 3.1z"/>
		<path d="m645.4 628.8v-3.2h10v3.2h-10z"/>
		<path d="m661.3 634.2c-1.5-1.5-2.3-3.5-2.3-6s0.8-4.5 2.3-5.9c1.5-1.5 3.4-2.2 5.5-2.2s3.8 0.9 5.2 2.7v-8.8h3.4v22.3h-3.4v-2.4c-1.2 1.8-3.1 2.6-5.4 2.6-2-0.1-3.8-0.8-5.3-2.3zm1.2-5.9c0 1.5 0.5 2.8 1.5 3.7s2.1 1.4 3.5 1.4 2.4-0.5 3.4-1.5c0.9-1 1.4-2.2 1.4-3.7s-0.5-2.8-1.4-3.8c-0.9-1-2.1-1.5-3.4-1.5s-2.5 0.5-3.5 1.5c-1.1 1.1-1.5 2.3-1.5 3.9z"/>
		<path d="m691.2 628.9v-8.6h3.4v16h-3.4v-2.9c-0.5 1-1.3 1.8-2.2 2.3-1 0.6-2 0.8-3.1 0.8-1.8 0-3.3-0.6-4.4-1.7s-1.7-2.7-1.7-4.8v-9.8h3.4v8.8c0 2.9 1.2 4.4 3.7 4.4 1.2 0 2.2-0.4 3-1.2 0.9-0.7 1.3-1.9 1.3-3.3z"/>
		<path d="m707.7 620c2.1 0 4 0.7 5.5 2.2s2.3 3.5 2.3 5.9c0 2.5-0.8 4.5-2.3 6s-3.3 2.3-5.3 2.3-3.8-0.9-5.4-2.6v8.2h-3.4v-21.8h3.4v2.8c1.3-2 3.1-3 5.2-3zm-5.2 8.2c0 1.5 0.5 2.8 1.4 3.7 0.9 1 2 1.5 3.4 1.5s2.5-0.5 3.5-1.4 1.5-2.2 1.5-3.7c0-1.5-0.5-2.8-1.4-3.8-1-1-2.1-1.5-3.5-1.5s-2.5 0.5-3.4 1.5c-1.1 0.9-1.5 2.2-1.5 3.7z"/>
		<path d="m722.5 636.2h-3.4v-22.3h3.4v22.3z"/>
		<path d="m727.3 617c-0.4-0.4-0.6-0.9-0.6-1.5s0.2-1.1 0.6-1.5c0.4-0.4 0.9-0.6 1.5-0.6s1.1 0.2 1.5 0.6 0.6 0.9 0.6 1.5-0.2 1.1-0.6 1.5c-0.4 0.4-0.9 0.6-1.5 0.6-0.6 0.1-1.1-0.1-1.5-0.6zm3.2 19.2h-3.4v-16h3.4v16z"/>
		<path d="m742.1 636.4c-2.2 0-4.1-0.8-5.7-2.3s-2.4-3.5-2.4-5.9 0.8-4.4 2.5-6c1.7-1.5 3.7-2.3 6.1-2.3s4.4 0.8 6.1 2.5l-2 2.4c-1.4-1.2-2.8-1.8-4.2-1.8s-2.6 0.5-3.6 1.4-1.5 2.1-1.5 3.6 0.5 2.7 1.5 3.7c1 1 2.3 1.5 3.8 1.5s2.9-0.7 4.2-2l2 2.2c-2 2.1-4.3 3-6.8 3z"/>
		<path d="m765.2 636.2h-3.1v-2.1c-1.3 1.6-3.1 2.4-5.3 2.4-1.7 0-3-0.5-4.1-1.4s-1.6-2.2-1.6-3.8c0-1.6 0.6-2.7 1.7-3.5 1.2-0.8 2.7-1.2 4.7-1.2h4.4v-0.6c0-2.1-1.2-3.2-3.5-3.2-1.5 0-3 0.5-4.6 1.6l-1.5-2.1c1.9-1.5 4.1-2.3 6.6-2.3 1.9 0 3.4 0.5 4.6 1.4 1.2 1 1.8 2.4 1.8 4.5v10.3zm-3.4-6v-1.4h-3.8c-2.4 0-3.6 0.8-3.6 2.3 0 0.8 0.3 1.4 0.9 1.8s1.4 0.6 2.5 0.6 2-0.3 2.8-0.9 1.2-1.3 1.2-2.4z"/>
		<path d="m773.4 622.9v8.1c0 0.8 0.2 1.4 0.6 1.8 0.4 0.5 1 0.7 1.7 0.7s1.4-0.3 2.1-1.1l1.4 2.4c-1.2 1.1-2.5 1.6-3.9 1.6s-2.7-0.5-3.7-1.5-1.5-2.3-1.5-4v-8h-2v-2.7h2v-5h3.4v5h4.2v2.7h-4.3z"/>
		<path d="m781.9 617c-0.4-0.4-0.6-0.9-0.6-1.5s0.2-1.1 0.6-1.5c0.4-0.4 0.9-0.6 1.5-0.6s1.1 0.2 1.5 0.6 0.6 0.9 0.6 1.5-0.2 1.1-0.6 1.5c-0.4 0.4-0.9 0.6-1.5 0.6-0.6 0.1-1.1-0.1-1.5-0.6zm3.2 19.2h-3.4v-16h3.4v16z"/>
		<path d="m803 634c-1.6 1.6-3.6 2.4-6 2.4s-4.4-0.8-6-2.4c-1.6-1.6-2.4-3.5-2.4-5.8s0.8-4.2 2.4-5.8 3.6-2.4 6-2.4 4.4 0.8 6 2.4c1.6 1.6 2.4 3.5 2.4 5.8s-0.8 4.3-2.4 5.8zm-9.7-2c1 1 2.2 1.5 3.6 1.5s2.7-0.5 3.6-1.5c1-1 1.4-2.2 1.4-3.8 0-1.5-0.5-2.8-1.4-3.8-1-1-2.2-1.5-3.6-1.5s-2.7 0.5-3.6 1.5c-1 1-1.4 2.2-1.4 3.8 0 1.5 0.5 2.8 1.4 3.8z"/>
		<path d="m812.3 627.5v8.6h-3.3v-16h3.4v2.9c0.5-1 1.3-1.8 2.2-2.3s2-0.8 3.1-0.8c1.8 0 3.3 0.6 4.4 1.7s1.7 2.7 1.7 4.8v9.8h-3.4v-8.8c0-2.9-1.2-4.4-3.7-4.4-1.2 0-2.2 0.4-3 1.2-0.9 0.7-1.4 1.9-1.4 3.3z"/>
	</g>
	<g fill="#fff">
		<path d="m620.6 701c0 3.5-1.5 5.6-4.5 6.5l5.5 7.6h-4.5l-5-7.1h-4.7v7.1h-3.5v-21h7.8c3.2 0 5.5 0.5 6.9 1.6s2 2.9 2 5.3zm-4.7 3c0.7-0.6 1.1-1.6 1.1-3s-0.4-2.3-1.1-2.8-2.1-0.8-4-0.8h-4.5v7.5h4.4c2.1 0 3.4-0.3 4.1-0.9z"/>
		<path d="m639.6 708.7h-12.6c0.1 1.2 0.6 2.1 1.6 2.8s2.1 1.1 3.4 1.1c2 0 3.5-0.6 4.6-1.9l1.9 2.1c-1.7 1.8-4 2.7-6.7 2.7-2.2 0-4.1-0.7-5.7-2.2s-2.4-3.5-2.4-6 0.8-4.5 2.4-6 3.5-2.2 5.7-2.2 4 0.7 5.5 2c1.5 1.3 2.3 3.1 2.3 5.4v2.2zm-12.6-2.7h9.2c0-1.3-0.4-2.4-1.3-3.1s-1.9-1.1-3.1-1.1-2.3 0.4-3.3 1.1-1.5 1.8-1.5 3.1z"/>
		<path d="m656.1 715.2h-3.1v-2.1c-1.3 1.6-3.1 2.4-5.3 2.4-1.7 0-3-0.5-4.1-1.4s-1.6-2.2-1.6-3.8c0-1.6 0.6-2.7 1.7-3.5 1.2-0.8 2.7-1.2 4.7-1.2h4.4v-0.6c0-2.1-1.2-3.2-3.5-3.2-1.5 0-3 0.5-4.6 1.6l-1.5-2.1c1.9-1.5 4.1-2.3 6.6-2.3 1.9 0 3.4 0.5 4.6 1.4 1.2 1 1.8 2.4 1.8 4.5v10.3zm-3.3-6v-1.4h-3.8c-2.4 0-3.6 0.8-3.6 2.3 0 0.8 0.3 1.4 0.9 1.8s1.4 0.6 2.5 0.6 2-0.3 2.8-0.9 1.2-1.3 1.2-2.4z"/>
		<path d="m663.9 715.2h-3.4v-22.3h3.4v22.3z"/>
		<path d="m668.7 696c-0.4-0.4-0.6-0.9-0.6-1.5s0.2-1.1 0.6-1.5c0.4-0.4 0.9-0.6 1.5-0.6s1.1 0.2 1.5 0.6 0.6 0.9 0.6 1.5-0.2 1.1-0.6 1.5c-0.4 0.4-0.9 0.6-1.5 0.6-0.5 0.1-1-0.2-1.5-0.6zm3.2 19.2h-3.4v-16h3.4v16z"/>
		<path d="m691.2 699.2v13.9c0 2.8-0.8 4.9-2.3 6.4-1.5 1.4-3.5 2.1-5.9 2.1s-4.6-0.8-6.5-2.3l1.6-2.6c1.6 1.2 3.1 1.8 4.7 1.8s2.9-0.4 3.8-1.2 1.4-2.1 1.4-3.9v-2c-0.5 0.9-1.2 1.7-2.1 2.3s-2 0.8-3.1 0.8c-2.1 0-3.9-0.7-5.2-2.2-1.4-1.5-2-3.3-2-5.5s0.7-4 2-5.5c1.4-1.5 3.1-2.2 5.2-2.2s3.8 0.9 5.2 2.6v-2.4h3.2zm-12.5 7.4c0 1.3 0.4 2.4 1.2 3.4s1.9 1.4 3.3 1.4 2.5-0.5 3.3-1.4c0.9-0.9 1.3-2.1 1.3-3.4s-0.4-2.5-1.3-3.5c-0.9-1-2-1.4-3.3-1.4-1.4 0-2.4 0.5-3.3 1.5-0.8 0.9-1.2 2.1-1.2 3.4z"/>
		<path d="m699.1 706.5v8.6h-3.4v-16h3.4v2.9c0.5-1 1.3-1.8 2.2-2.3s2-0.8 3.1-0.8c1.8 0 3.3 0.6 4.4 1.7s1.7 2.7 1.7 4.8v9.8h-3.4v-8.8c0-2.9-1.2-4.4-3.7-4.4-1.2 0-2.2 0.4-3 1.2-0.9 0.7-1.3 1.9-1.3 3.3z"/>
		<path d="m718.3 706.5v8.6h-3.4v-16h3.4v2.9c0.5-1 1.2-1.8 2.2-2.3s2-0.8 3.1-0.8c2.5 0 4.2 1 5.1 3.1 1.6-2.1 3.6-3.1 5.9-3.1 1.8 0 3.3 0.6 4.4 1.7s1.7 2.7 1.7 4.8v9.8h-3.4v-8.8c0-2.9-1.2-4.4-3.7-4.4-1.1 0-2.1 0.4-3 1.1s-1.3 1.8-1.3 3.2v8.9h-3.3v-8.8c0-1.5-0.3-2.6-0.8-3.3s-1.4-1.1-2.6-1.1-2.2 0.4-3 1.2c-0.9 0.7-1.3 1.9-1.3 3.3z"/>
		<path d="m760.1 708.7h-12.5c0.1 1.2 0.6 2.1 1.6 2.8s2.1 1.1 3.4 1.1c2 0 3.5-0.6 4.6-1.9l1.9 2.1c-1.7 1.8-4 2.7-6.7 2.7-2.2 0-4.1-0.7-5.7-2.2s-2.4-3.5-2.4-6 0.8-4.5 2.4-6 3.5-2.2 5.7-2.2 4 0.7 5.5 2c1.5 1.3 2.3 3.1 2.3 5.4v2.2zm-12.6-2.7h9.2c0-1.3-0.4-2.4-1.3-3.1s-1.9-1.1-3.1-1.1-2.3 0.4-3.3 1.1-1.5 1.8-1.5 3.1z"/>
		<path d="m767 706.5v8.6h-3.4v-16h3.4v2.9c0.5-1 1.3-1.8 2.2-2.3s2-0.8 3.1-0.8c1.8 0 3.3 0.6 4.4 1.7s1.7 2.7 1.7 4.8v9.8h-3.4v-8.8c0-2.9-1.2-4.4-3.7-4.4-1.2 0-2.2 0.4-3 1.2-0.8 0.7-1.3 1.9-1.3 3.3z"/>
		<path d="m786.5 701.9v8.1c0 0.8 0.2 1.4 0.6 1.8 0.4 0.5 1 0.7 1.7 0.7s1.4-0.3 2.1-1.1l1.4 2.4c-1.2 1.1-2.5 1.6-3.9 1.6s-2.7-0.5-3.7-1.5-1.5-2.3-1.5-4v-8h-2v-2.7h2v-5h3.4v5h4.2v2.7h-4.3z"/>
	</g>
	<path stroke="#566585" stroke-width="4" stroke-miterlimit="10" d="m1803.8 608.1h-352.4c-5.5 0-10-4.5-10-10v-49c0-5.5 4.5-10 10-10h352.4c5.5 0 10 4.5 10 10v49c0 5.5-4.5 10-10 10z" fill="#fff"/>
	<g id="New_Symbol_2_">
		<g id="Settings_13_">
			<path stroke="#566585" stroke-width="4" stroke-miterlimit="10" d="m1224.3 849.5c-0.3 0-0.5 0.1-0.8 0.1v-23.8c0-19.6-16-35.6-35.6-35.6h-62.2c-19.6 0-35.6 16-35.6 35.6v23.8c-3.7 0.4-6.6 3.5-6.6 7.3s2.9 6.9 6.6 7.3v23.8c0 19.6 16 35.6 35.6 35.6h62.2c19.6 0 35.6-16 35.6-35.6v-23.8c0.3 0 0.5 0.1 0.8 0.1 4.1 0 7.4-3.3 7.4-7.4s-3.3-7.4-7.4-7.4z" fill="#fff"/>
				<path stroke="#fff" stroke-width="4" stroke-miterlimit="10" d="m1208.4 851.2c-0.2-1.5-1.9-2.6-3.3-2.6-4.8 0-9-2.8-10.7-7.1-1.8-4.4-0.6-9.6 2.9-12.8 1.1-1 1.3-2.7 0.3-3.9-2.4-3.1-5.2-5.9-8.2-8.3-1.2-0.9-2.9-0.8-3.9 0.3-3.1 3.4-8.6 4.7-12.9 2.9-4.5-1.9-7.3-6.4-7-11.3 0.1-1.5-1-2.9-2.5-3-3.9-0.4-7.8-0.5-11.7 0-1.5 0.2-2.6 1.5-2.6 3 0.2 4.8-2.7 9.3-7.1 11.1-4.2 1.7-9.8 0.5-12.8-2.9-1-1.1-2.7-1.3-3.9-0.3-3.1 2.4-5.9 5.2-8.4 8.3-1 1.2-0.8 2.9 0.3 3.9 3.6 3.3 4.8 8.5 2.9 12.9-1.8 4.3-6.2 7-11.3 7-1.6-0.1-2.8 1.1-3 2.5-0.5 3.9-0.5 7.9 0 11.8 0.2 1.5 1.9 2.6 3.4 2.6 4.5-0.1 8.9 2.7 10.7 7.1s0.6 9.6-2.9 12.8c-1.1 1-1.3 2.7-0.3 3.9 2.4 3.1 5.2 5.9 8.2 8.3 1.2 1 2.9 0.8 3.9-0.3 3.1-3.4 8.7-4.7 12.9-2.9 4.5 1.9 7.3 6.4 7 11.3-0.1 1.5 1 2.9 2.5 3 2 0.2 4 0.3 6 0.3 1.9 0 3.8-0.1 5.7-0.3 1.5-0.2 2.6-1.5 2.6-3-0.2-4.8 2.7-9.3 7.1-11.1 4.3-1.7 9.8-0.5 12.8 2.9 1 1.1 2.7 1.2 3.9 0.3 3.1-2.4 5.9-5.2 8.4-8.3 1-1.2 0.8-2.9-0.3-3.9-3.6-3.3-4.8-8.5-2.9-12.9 1.8-4.2 6-7 10.6-7h0.6c1.5 0.1 2.9-1 3-2.5 0.4-3.9 0.4-7.9 0-11.8zm-51.5 23.1c-9.5 0-17.3-7.8-17.3-17.3s7.8-17.3 17.3-17.3 17.3 7.8 17.3 17.3c0 9.6-7.8 17.3-17.3 17.3z" fill="#566585"/>
		</g>
			<g fill="#566585">
				<path d="m1124.8 956.2l-2.1 4.8h-3.8l9.2-21h3.8l9.2 21h-3.8l-2.1-4.8h-10.4zm9.1-3.3l-3.8-8.6-3.8 8.6h7.6z"/>
				<path d="m1152.3 944.8c2.1 0 4 0.7 5.5 2.2s2.3 3.5 2.3 5.9c0 2.5-0.8 4.5-2.3 6s-3.3 2.3-5.3 2.3-3.8-0.9-5.4-2.6v8.2h-3.4v-21.8h3.4v2.8c1.3-2 3-3 5.2-3zm-5.3 8.2c0 1.5 0.5 2.8 1.4 3.7 0.9 1 2 1.5 3.4 1.5s2.5-0.5 3.5-1.4 1.5-2.2 1.5-3.7c0-1.5-0.5-2.8-1.4-3.8-1-1-2.1-1.5-3.5-1.5s-2.5 0.5-3.4 1.5c-1 1-1.5 2.2-1.5 3.7z"/>
				<path d="m1172.3 944.8c2.1 0 4 0.7 5.5 2.2s2.3 3.5 2.3 5.9c0 2.5-0.8 4.5-2.3 6s-3.3 2.3-5.3 2.3-3.8-0.9-5.4-2.6v8.2h-3.4v-21.8h3.4v2.8c1.3-2 3-3 5.2-3zm-5.3 8.2c0 1.5 0.5 2.8 1.4 3.7 0.9 1 2 1.5 3.4 1.5s2.5-0.5 3.5-1.4 1.5-2.2 1.5-3.7c0-1.5-0.5-2.8-1.4-3.8-1-1-2.1-1.5-3.5-1.5s-2.5 0.5-3.4 1.5c-1 1-1.5 2.2-1.5 3.7z"/>
				<path d="m1195 956.2c0 1.5-0.6 2.7-1.7 3.6s-2.5 1.4-4.2 1.4c-1.2 0-2.4-0.2-3.6-0.6-1.3-0.4-2.4-1-3.3-1.8l1.6-2.6c1.9 1.4 3.7 2.1 5.4 2.1 0.8 0 1.4-0.2 1.8-0.5s0.7-0.8 0.7-1.3c0-0.8-1.1-1.5-3.2-2.2-0.2-0.1-0.3-0.1-0.4-0.1-3.3-0.9-5-2.4-5-4.5 0-1.5 0.6-2.7 1.7-3.6 1.2-0.9 2.6-1.3 4.5-1.3s3.6 0.5 5.2 1.6l-1.3 2.5c-1.3-0.9-2.7-1.3-4.2-1.3-0.8 0-1.5 0.1-2 0.4s-0.8 0.7-0.8 1.3c0 0.5 0.3 0.9 0.8 1.1 0.4 0.2 0.9 0.4 1.5 0.5s1.2 0.3 1.7 0.5c0.5 0.2 1 0.3 1.5 0.5s1 0.5 1.5 0.8c1.2 0.9 1.8 2 1.8 3.5z"/>
			</g>
			<g fill="#566585">
				<path d="m1111.5 257.7h-4l-8.4-21h4l6.5 15.7 6.5-15.7h4l-8.6 21z"/>
				<path d="m1134.1 257.7h-3.1v-2.1c-1.3 1.6-3.1 2.4-5.3 2.4-1.7 0-3-0.5-4.1-1.4s-1.6-2.2-1.6-3.8 0.6-2.7 1.7-3.5c1.2-0.8 2.7-1.2 4.7-1.2h4.4v-0.6c0-2.1-1.2-3.2-3.5-3.2-1.5 0-3 0.5-4.6 1.6l-1.5-2.1c1.9-1.5 4.1-2.3 6.6-2.3 1.9 0 3.4 0.5 4.6 1.4 1.2 1 1.8 2.4 1.8 4.5v10.3zm-3.3-5.9v-1.4h-3.8c-2.4 0-3.6 0.8-3.6 2.3 0 0.8 0.3 1.4 0.9 1.8s1.4 0.6 2.5 0.6 2-0.3 2.8-0.9 1.2-1.4 1.2-2.4z"/>
				<path d="m1147 244.9c-1.7 0-2.9 0.5-3.8 1.6s-1.3 2.5-1.3 4.4v6.8h-3.4v-16h3.4v3.2c0.5-1 1.3-1.8 2.2-2.5 0.9-0.6 1.9-1 3-1v3.4c0 0.1-0.1 0.1-0.1 0.1z"/>
				<path d="m1150.2 238.6c-0.4-0.4-0.6-0.9-0.6-1.5s0.2-1.1 0.6-1.5c0.4-0.4 0.9-0.6 1.5-0.6s1.1 0.2 1.5 0.6 0.6 0.9 0.6 1.5-0.2 1.1-0.6 1.5c-0.4 0.4-0.9 0.6-1.5 0.6-0.5 0-1-0.2-1.5-0.6zm3.2 19.1h-3.4v-16h3.4v16z"/>
				<path d="m1170.9 257.7h-3.1v-2.1c-1.3 1.6-3.1 2.4-5.3 2.4-1.7 0-3-0.5-4.1-1.4s-1.6-2.2-1.6-3.8 0.6-2.7 1.7-3.5c1.2-0.8 2.7-1.2 4.7-1.2h4.4v-0.6c0-2.1-1.2-3.2-3.5-3.2-1.5 0-3 0.5-4.6 1.6l-1.5-2.1c1.9-1.5 4.1-2.3 6.6-2.3 1.9 0 3.4 0.5 4.6 1.4 1.2 1 1.8 2.4 1.8 4.5v10.3zm-3.3-5.9v-1.4h-3.8c-2.4 0-3.6 0.8-3.6 2.3 0 0.8 0.3 1.4 0.9 1.8s1.4 0.6 2.5 0.6 2-0.3 2.8-0.9 1.2-1.4 1.2-2.4z"/>
				<path d="m1178.8 249.1v8.6h-3.4v-16h3.4v2.9c0.5-1 1.3-1.8 2.2-2.3s2-0.8 3.1-0.8c1.8 0 3.3 0.6 4.4 1.7s1.7 2.7 1.7 4.8v9.8h-3.4v-8.8c0-2.9-1.2-4.4-3.7-4.4-1.2 0-2.2 0.4-3 1.2-0.9 0.7-1.3 1.8-1.3 3.3z"/>
				<path d="m1198.3 244.4v8.1c0 0.8 0.2 1.4 0.6 1.8 0.4 0.5 1 0.7 1.7 0.7s1.4-0.3 2.1-1.1l1.4 2.4c-1.2 1.1-2.5 1.6-3.9 1.6s-2.7-0.5-3.7-1.5c-1-1-1.5-2.3-1.5-4v-8h-2v-2.7h2v-5h3.4v5h4.2v2.7h-4.3z"/>
				<path d="m1099.9 279.5c2 1.8 3 4.4 3 7.6 0 3.3-1 5.8-2.9 7.7-2 1.9-5 2.9-9 2.9h-7v-21h7.2c3.8 0.1 6.7 1 8.7 2.8zm-0.5 7.7c0-4.8-2.8-7.2-8.3-7.2h-3.5v14.4h3.9c2.5 0 4.5-0.6 5.8-1.8 1.4-1.2 2.1-3 2.1-5.4z"/>
				<path d="m1119.7 297.7h-3.1v-2.1c-1.3 1.6-3.1 2.4-5.3 2.4-1.7 0-3-0.5-4.1-1.4s-1.6-2.2-1.6-3.8c0-1.6 0.6-2.7 1.7-3.5 1.2-0.8 2.7-1.2 4.7-1.2h4.4v-0.6c0-2.1-1.2-3.2-3.5-3.2-1.5 0-3 0.5-4.6 1.6l-1.5-2.1c1.9-1.5 4.1-2.3 6.6-2.3 1.9 0 3.4 0.5 4.6 1.4 1.2 1 1.8 2.4 1.8 4.5v10.3zm-3.3-5.9v-1.4h-3.8c-2.4 0-3.6 0.8-3.6 2.3 0 0.8 0.3 1.4 0.9 1.8s1.4 0.6 2.5 0.6 2-0.3 2.8-0.9 1.2-1.4 1.2-2.4z"/>
				<path d="m1127.9 284.5v8.1c0 0.8 0.2 1.4 0.6 1.8 0.4 0.5 1 0.7 1.7 0.7s1.4-0.3 2.1-1.1l1.4 2.4c-1.2 1.1-2.5 1.6-3.9 1.6s-2.7-0.5-3.7-1.5-1.5-2.3-1.5-4v-8h-2v-2.7h2v-5h3.4v5h4.2v2.7h-4.3z"/>
				<path d="m1149.3 297.7h-3.1v-2.1c-1.3 1.6-3.1 2.4-5.3 2.4-1.7 0-3-0.5-4.1-1.4s-1.6-2.2-1.6-3.8c0-1.6 0.6-2.7 1.7-3.5 1.2-0.8 2.7-1.2 4.7-1.2h4.4v-0.6c0-2.1-1.2-3.2-3.5-3.2-1.5 0-3 0.5-4.6 1.6l-1.5-2.1c1.9-1.5 4.1-2.3 6.6-2.3 1.9 0 3.4 0.5 4.6 1.4 1.2 1 1.8 2.4 1.8 4.5v10.3zm-3.3-5.9v-1.4h-3.8c-2.4 0-3.6 0.8-3.6 2.3 0 0.8 0.3 1.4 0.9 1.8s1.4 0.6 2.5 0.6 2-0.3 2.8-0.9 1.2-1.4 1.2-2.4z"/>
				<path d="m1162.4 281.5c2.1 0 4 0.7 5.5 2.2s2.3 3.5 2.3 5.9c0 2.5-0.8 4.5-2.3 6s-3.3 2.3-5.3 2.3-3.8-0.9-5.4-2.6v2.4h-3.4v-22.3h3.4v9.1c1.3-2 3-3 5.2-3zm-5.3 8.3c0 1.5 0.5 2.8 1.4 3.7 0.9 1 2 1.5 3.4 1.5s2.5-0.5 3.5-1.4 1.5-2.2 1.5-3.7c0-1.5-0.5-2.8-1.4-3.8-1-1-2.1-1.5-3.5-1.5s-2.5 0.5-3.4 1.5c-1 0.9-1.5 2.2-1.5 3.7z"/>
				<path d="m1186.7 297.7h-3.1v-2.1c-1.3 1.6-3.1 2.4-5.3 2.4-1.7 0-3-0.5-4.1-1.4s-1.6-2.2-1.6-3.8c0-1.6 0.6-2.7 1.7-3.5 1.2-0.8 2.7-1.2 4.7-1.2h4.4v-0.6c0-2.1-1.2-3.2-3.5-3.2-1.5 0-3 0.5-4.6 1.6l-1.5-2.1c1.9-1.5 4.1-2.3 6.6-2.3 1.9 0 3.4 0.5 4.6 1.4 1.2 1 1.8 2.4 1.8 4.5v10.3zm-3.3-5.9v-1.4h-3.8c-2.4 0-3.6 0.8-3.6 2.3 0 0.8 0.3 1.4 0.9 1.8s1.4 0.6 2.5 0.6 2-0.3 2.8-0.9 1.2-1.4 1.2-2.4z"/>
				<path d="m1202.5 293c0 1.5-0.6 2.7-1.7 3.6s-2.5 1.4-4.2 1.4c-1.2 0-2.4-0.2-3.6-0.6-1.3-0.4-2.4-1-3.3-1.8l1.6-2.6c1.9 1.4 3.7 2.1 5.4 2.1 0.8 0 1.4-0.2 1.8-0.5s0.7-0.8 0.7-1.3c0-0.8-1.1-1.5-3.2-2.2-0.2-0.1-0.3-0.1-0.4-0.1-3.3-0.9-5-2.4-5-4.5 0-1.5 0.6-2.7 1.7-3.6 1.2-0.9 2.6-1.3 4.5-1.3s3.6 0.5 5.2 1.6l-1.3 2.5c-1.3-0.9-2.7-1.3-4.2-1.3-0.8 0-1.5 0.1-2 0.4s-0.8 0.7-0.8 1.3c0 0.5 0.3 0.9 0.8 1.1 0.4 0.2 0.9 0.4 1.5 0.5s1.2 0.3 1.7 0.5c0.5 0.2 1 0.3 1.5 0.5s1 0.5 1.5 0.8c1.3 0.8 1.8 2 1.8 3.5z"/>
				<path d="m1220.9 291.2h-12.5c0.1 1.2 0.6 2.1 1.6 2.8s2.1 1.1 3.4 1.1c2 0 3.5-0.6 4.6-1.9l1.9 2.1c-1.7 1.8-4 2.7-6.7 2.7-2.2 0-4.1-0.7-5.7-2.2s-2.4-3.5-2.4-6 0.8-4.5 2.4-6 3.5-2.2 5.7-2.2 4 0.7 5.5 2c1.5 1.3 2.3 3.1 2.3 5.4v2.2zm-12.5-2.6h9.2c0-1.3-0.4-2.4-1.3-3.1s-1.9-1.1-3.1-1.1-2.3 0.4-3.3 1.1-1.5 1.8-1.5 3.1z"/>
			</g>
			<g id="Layer_2_1_">
					<path d="m639.6 193.1c-0.8 0.5-1.5 0.9-2.3 1.3-0.1 0.1-0.2 0.1-0.4 0.2-0.1 0-0.3 0.1-0.4 0.2-3.4 1.7-7 2.9-10.7 3.7h-0.1c-0.9 0.2-1.8 0.3-2.6 0.4-1.6 0.2-3.2 0.3-4.9 0.4-19 0.5-35.5-11.3-41.9-28.2-0.1-0.3-0.2-0.5-0.3-0.8-1.5-4.3-2.4-8.9-2.6-13.7-0.1-4.8 0.6-9.5 1.9-13.8 0-0.1 0.1-0.2 0.1-0.3 0.1-0.3 0.2-0.5 0.2-0.8 0-0.1 0.1-0.2 0.1-0.4 4.7-13.5 15.8-24.1 29.8-28 0.2-0.1 0.4-0.1 0.6-0.2h0.1c3.1-0.8 6.2-1.2 9.5-1.3l0.1 4.5c0 1.4 0.9 1.8 2 0.8l9.3-8.3c1-0.9 1-2.4-0.1-3.2l-9.8-7.6c-1.1-0.9-2-0.4-1.9 1l0.1 4.5c-13.8 0.4-26.6 6.1-36.1 16.1-0.9 1-1.8 2-2.7 3l-0.1 0.1c-7.5 9.2-11.5 20.5-11.6 32.5v0.3 1.2c0 0.7 0 1.3 0.1 2v0.2c0.7 10.9 4.7 21 11.5 29.4 0 0 0 0.1 0.1 0.1 0.7 0.8 1.4 1.6 2.1 2.4l0.1 0.1c0.7 0.8 1.5 1.5 2.2 2.3 7.9 7.5 17.8 12.3 28.4 13.8h0.1 0.1c2.8 0.4 5.7 0.6 8.6 0.5 7.7-0.2 15-2 21.9-5.4 0.1-0.1 0.3-0.2 0.4-0.2 0.2-0.1 0.3-0.1 0.5-0.2 0.9-0.5 1.9-1 2.8-1.5 2-1.2 2.6-3.8 1.4-5.7-1-2-3.6-2.6-5.6-1.4z" fill="#566585"/>
					<path d="m652.8 130.4c0.8 1.2 2.2 1.8 3.5 1.8 0.8 0 1.6-0.3 2.3-0.8 1.9-1.3 2.3-3.9 1-5.8-0.6-0.9-1.3-1.7-1.9-2.5-1.4-1.8-4.1-2.1-5.9-0.6-1.8 1.4-2.1 4.1-0.6 5.9 0.6 0.5 1.1 1.2 1.6 2z" fill="#566585"/>
					<path d="m658.4 141.2c0.3 0.8 0.6 1.7 0.8 2.5 0.5 1.9 2.3 3.1 4.1 3.1 0.3 0 0.7-0.1 1-0.2 2.2-0.6 3.5-2.9 2.9-5.2-0.3-1-0.6-2-0.9-3-0.8-2.2-3.1-3.3-5.3-2.6-2.2 0.8-3.3 3.2-2.6 5.4z" fill="#566585"/>
					<path d="m656.8 182.8c-1.8-1.5-4.4-1.2-5.9 0.6-0.6 0.7-1.2 1.4-1.8 2-1.6 1.7-1.5 4.3 0.2 5.9 0.8 0.8 1.9 1.1 3 1.1s2.2-0.5 3-1.3c0.7-0.8 1.4-1.6 2.1-2.4 1.4-1.8 1.1-4.4-0.6-5.9z" fill="#566585"/>
					<path d="m665.1 151.7c-2.3 0-4.2 1.9-4.2 4.2 0 0.9 0 1.8-0.1 2.7-0.2 2.3 1.6 4.3 3.9 4.5h0.4c2.1-0.1 3.9-1.7 4.1-3.9 0.1-1.1 0.1-2.1 0.1-3.2-0.1-2.4-1.9-4.3-4.2-4.3z" fill="#566585"/>
					<path d="m663.6 168c-2.2-0.8-4.6 0.3-5.4 2.5-0.3 0.8-0.6 1.7-1 2.5-0.9 2.1 0.1 4.6 2.2 5.5 0.6 0.3 1.2 0.4 1.8 0.3 1.6 0 3.1-1 3.7-2.5 0.4-1 0.8-2 1.2-2.9 0.8-2.2-0.3-4.6-2.5-5.4z" fill="#566585"/>
					<path d="m648.2 118.9c1.3-1.9 0.9-4.5-1-5.8-0.9-0.6-1.8-1.2-2.7-1.7-2-1.2-4.5-0.6-5.8 1.4-1.2 2-0.6 4.5 1.4 5.8 0.8 0.5 1.5 1 2.2 1.5 0.8 0.5 1.6 0.8 2.5 0.8 1.3-0.3 2.6-0.9 3.4-2z" fill="#566585"/>
						<path d="m614.6 148.8l-0.2-6.7 8.2-0.2 0.2 6.7 4.3-0.1 0.2 7.4-4.3 0.1 0.2 9.1-8.2 0.2-0.2-9.1-15.4 0.4-0.2-6.5 13.1-22.9 9.3-0.2-12.4 22 5.4-0.2z" fill="#566585"/>
						<g fill="#566585">
							<path d="m603.8 180.5l0.2 7.2-3.7 0.1-0.4-18.4 3.7-0.1 0.2 6.6c1.1-1.2 2.3-1.8 3.7-1.8s2.6 0.4 3.6 1.4 1.5 2.3 1.5 3.9l0.2 8.1-3.7 0.1-0.2-7.3c0-2.1-0.8-3.1-2.3-3-0.7 0-1.4 0.3-1.9 0.9-0.7 0.4-0.9 1.2-0.9 2.3z"/>
							<path d="m623.3 177.1c-1.1 0-1.9 0.4-2.5 1.2-0.5 0.8-0.8 1.8-0.7 3.1l0.1 5.8-3.7 0.1-0.3-13.4 3.7-0.1v1.8c0.5-0.6 1.1-1 1.8-1.4s1.4-0.6 2.2-0.7l0.1 3.5-0.7 0.1z"/>
							<path d="m637 182.7c0 1.3-0.4 2.4-1.4 3.2-0.9 0.8-2.2 1.2-3.7 1.3-1 0-2-0.1-3.1-0.5-1.1-0.3-2.1-0.8-2.9-1.5l1.6-2.4c1.4 1 2.9 1.5 4.5 1.5 0.5 0 0.9-0.1 1.1-0.3s0.4-0.5 0.4-0.8c0-0.3-0.2-0.6-0.6-0.9s-1-0.5-1.7-0.7-1.3-0.4-1.7-0.6-0.8-0.4-1.3-0.7c-1-0.6-1.6-1.5-1.6-2.8 0-1.2 0.4-2.3 1.4-3.1s2.2-1.2 3.8-1.3c1.6 0 3.2 0.5 4.8 1.5l-1.3 2.5c-1.2-0.8-2.3-1.1-3.5-1.1s-1.7 0.4-1.7 1c0 0.3 0.2 0.6 0.6 0.8s1 0.4 1.8 0.7c0.9 0.2 1.5 0.4 1.8 0.6 0.4 0.1 0.8 0.3 1.3 0.6 0.9 0.7 1.4 1.7 1.4 3z"/>
						</g>
			</g>
			<g fill="#566585">
				<path d="m695.5 147.3v1.3h4.2v2.7h-4.2v13.3h-3.4v-13.3h-2v-2.7h2v-1.2c0-1.7 0.5-3 1.5-4s2.2-1.5 3.7-1.5 2.7 0.5 3.9 1.6l-1.4 2.4c-0.7-0.7-1.4-1.1-2.1-1.1s-1.3 0.2-1.7 0.7c-0.3 0.4-0.5 1-0.5 1.8z"/>
				<path d="m715.7 162.4c-1.6 1.6-3.6 2.4-6 2.4s-4.4-0.8-6-2.4c-1.6-1.6-2.4-3.5-2.4-5.8s0.8-4.2 2.4-5.8 3.6-2.4 6-2.4 4.4 0.8 6 2.4c1.6 1.6 2.4 3.5 2.4 5.8s-0.8 4.3-2.4 5.8zm-9.7-2c1 1 2.2 1.5 3.6 1.5s2.7-0.5 3.6-1.5c1-1 1.4-2.2 1.4-3.8 0-1.5-0.5-2.8-1.4-3.8-1-1-2.2-1.5-3.6-1.5s-2.7 0.5-3.6 1.5c-1 1-1.4 2.2-1.4 3.8 0 1.5 0.5 2.8 1.4 3.8z"/>
				<path d="m730 151.8c-1.7 0-2.9 0.5-3.8 1.6s-1.3 2.5-1.3 4.4v6.8h-3.4v-16h3.4v3.2c0.5-1 1.3-1.8 2.2-2.5 0.9-0.6 1.9-1 3-1v3.4c0.1 0.1 0 0.1-0.1 0.1z"/>
				<path d="m748.8 158.7l4.7-15.1h3.2l4.7 15.1 5.3-15.1h3.8l-7.3 21h-3.5l-4.4-14.4h-0.3l-4.4 14.4h-3.5l-7.3-21h3.8l5.2 15.1z"/>
				<path d="m787.4 154.4h3.5v7.2c-2 2.2-4.8 3.3-8.5 3.3-3.1 0-5.7-1-7.8-3.1-2.1-2-3.1-4.6-3.1-7.7s1.1-5.7 3.2-7.8c2.1-2.1 4.7-3.1 7.7-3.1s5.5 0.9 7.5 2.6l-1.9 2.7c-0.8-0.7-1.6-1.2-2.5-1.5-0.8-0.3-1.8-0.4-2.9-0.4-2.1 0-3.9 0.7-5.3 2.1s-2.2 3.2-2.2 5.4 0.7 4 2.1 5.4 3.1 2 5.1 2 3.7-0.4 5-1.3v-5.8z"/>
				<path d="m801.9 146.4c-1 0-1.9 0.2-2.5 0.6-0.7 0.4-1 1.1-1 1.9 0 0.9 0.3 1.5 1 2s2.1 0.9 4.2 1.5c2.2 0.5 3.8 1.3 4.9 2.2s1.6 2.3 1.6 4.2-0.7 3.3-2.1 4.5c-1.4 1.1-3.2 1.7-5.4 1.7-3.3 0-6.2-1.1-8.7-3.4l2.2-2.7c2.1 1.8 4.3 2.8 6.6 2.8 1.1 0 2-0.2 2.7-0.7s1-1.1 1-2c0-0.8-0.3-1.4-0.9-1.9s-1.7-0.9-3.3-1.2c-1.5-0.4-2.7-0.7-3.5-1s-1.5-0.7-2.1-1.2c-1.2-0.9-1.9-2.4-1.9-4.3s0.7-3.4 2.1-4.5 3.2-1.6 5.2-1.6c1.3 0 2.7 0.2 4 0.7 1.3 0.4 2.5 1.1 3.4 1.9l-1.9 2.7c-0.6-0.6-1.5-1-2.5-1.4-1.1-0.7-2.1-0.8-3.1-0.8z"/>
			</g>
	</g>
	<g stroke="#fff" stroke-width="4" stroke-miterlimit="10" fill="#566585">
		<path d="m129.5 290.6v71.9c0 13.3 21.8 24.1 48.6 24.1s48.6-10.8 48.6-24.1v-71.9"/>
		<path d="m226.7 340.9c0 13.3-21.8 24.1-48.6 24.1s-48.6-10.8-48.6-24.1"/>
		<path d="m226.7 316.8c0 13.3-21.8 24.1-48.6 24.1s-48.6-10.8-48.6-24.1"/>
		<ellipse rx="48.6" cy="292.7" ry="24.1" cx="178.1"/>
	</g>
	<g stroke="#fff" stroke-width="4" stroke-miterlimit="10" fill="#566585">
			<path d="m63.1 542.1v71.9c0 13.3 21.8 24.1 48.6 24.1s48.6-10.8 48.6-24.1v-71.9"/>
			<path d="m160.4 592.4c0 13.3-21.8 24.1-48.6 24.1s-48.6-10.8-48.6-24.1"/>
			<path d="m160.4 568.3c0 13.3-21.8 24.1-48.6 24.1s-48.6-10.8-48.6-24.1"/>
			<ellipse rx="48.6" cy="544.3" ry="24.1" cx="111.8"/>
			<path d="m174.1 542.1v71.9c0 13.3 21.8 24.1 48.6 24.1s48.6-10.8 48.6-24.1v-71.9"/>
			<path d="m271.4 592.4c0 13.3-21.8 24.1-48.6 24.1s-48.6-10.8-48.6-24.1"/>
			<path d="m271.4 568.3c0 13.3-21.8 24.1-48.6 24.1s-48.6-10.8-48.6-24.1"/>
			<ellipse rx="48.6" cy="544.3" ry="24.1" cx="222.8"/>
			<path d="m120.1 611.1v71.9c0 13.3 21.8 24.1 48.6 24.1s48.6-10.8 48.6-24.1v-71.9"/>
			<path d="m217.4 661.3c0 13.3-21.8 24.1-48.6 24.1s-48.6-10.8-48.6-24.1"/>
			<path d="m217.4 637.3c0 13.3-21.8 24.1-48.6 24.1s-48.6-10.8-48.6-24.1"/>
			<ellipse rx="48.6" cy="613.2" ry="24.1" cx="168.8"/>
			<path d="m9.1 611.1v71.9c0 13.3 21.8 24.1 48.6 24.1s48.6-10.8 48.6-24.1v-71.9"/>
			<path d="m106.4 661.3c0 13.3-21.8 24.1-48.6 24.1s-48.7-10.8-48.7-24.1"/>
			<path d="m106.4 637.3c0 13.3-21.8 24.1-48.6 24.1s-48.7-10.8-48.7-24.1"/>
			<ellipse rx="48.6" cy="613.2" ry="24.1" cx="57.8"/>
			<path d="m231.1 611.1v71.9c0 13.3 21.8 24.1 48.6 24.1s48.6-10.8 48.6-24.1v-71.9"/>
			<path d="m328.4 661.3c0 13.3-21.8 24.1-48.6 24.1s-48.6-10.8-48.6-24.1"/>
			<path d="m328.4 637.3c0 13.3-21.8 24.1-48.6 24.1s-48.6-10.8-48.6-24.1"/>
			<ellipse rx="48.6" cy="613.2" ry="24.1" cx="279.8"/>
	</g>
	<g fill="#566585">
		<path d="m101 413.5v5.8h9.3v3.3h-9.3v8.6h-3.5v-21h14v3.3h-10.5z"/>
		<path d="m122.4 418.4c-1.7 0-2.9 0.5-3.8 1.6s-1.3 2.5-1.3 4.4v6.8h-3.3v-16h3.4v3.2c0.5-1 1.3-1.8 2.2-2.5 0.9-0.6 1.9-1 3-1v3.4c-0.1 0.1-0.2 0.1-0.2 0.1z"/>
		<path d="m140.3 424.7h-12.5c0.1 1.2 0.6 2.1 1.6 2.8s2.1 1.1 3.4 1.1c2 0 3.5-0.6 4.6-1.9l1.9 2.1c-1.7 1.8-4 2.7-6.7 2.7-2.2 0-4.1-0.7-5.7-2.2s-2.4-3.5-2.4-6 0.8-4.5 2.4-6 3.5-2.2 5.7-2.2 4 0.7 5.5 2c1.5 1.3 2.3 3.1 2.3 5.4v2.2zm-12.5-2.7h9.2c0-1.3-0.4-2.4-1.3-3.1s-1.9-1.1-3.1-1.1-2.3 0.4-3.3 1.1-1.5 1.8-1.5 3.1z"/>
		<path d="m155.1 426.4c0 1.5-0.6 2.7-1.7 3.6s-2.5 1.4-4.2 1.4c-1.2 0-2.4-0.2-3.6-0.6-1.3-0.4-2.4-1-3.3-1.8l1.6-2.6c1.9 1.4 3.7 2.1 5.4 2.1 0.8 0 1.4-0.2 1.8-0.5s0.7-0.8 0.7-1.3c0-0.8-1.1-1.5-3.2-2.2-0.2-0.1-0.3-0.1-0.4-0.1-3.3-0.9-5-2.4-5-4.5 0-1.5 0.6-2.7 1.7-3.6 1.2-0.9 2.6-1.3 4.5-1.3s3.6 0.5 5.2 1.6l-1.3 2.5c-1.3-0.9-2.7-1.3-4.2-1.3-0.8 0-1.5 0.1-2 0.4s-0.8 0.7-0.8 1.3c0 0.5 0.3 0.9 0.8 1.1 0.4 0.2 0.9 0.4 1.5 0.5s1.2 0.3 1.7 0.5c0.5 0.2 1 0.3 1.5 0.5s1 0.5 1.5 0.8c1.3 0.9 1.8 2 1.8 3.5z"/>
		<path d="m162.1 422.5v8.6h-3.4v-22.3h3.4v9.2c0.5-1 1.2-1.8 2.2-2.3s2-0.8 3.1-0.8c1.8 0 3.3 0.6 4.4 1.7s1.7 2.7 1.7 4.8v9.8h-3.4v-8.8c0-2.9-1.2-4.4-3.7-4.4-1.2 0-2.2 0.4-3 1.2-0.9 0.7-1.3 1.9-1.3 3.3z"/>
		<path d="m202.7 412.9c2 1.8 3 4.4 3 7.6 0 3.3-1 5.8-2.9 7.7-2 1.9-5 2.9-9 2.9h-7v-21h7.2c3.8 0.1 6.7 1 8.7 2.8zm-0.5 7.8c0-4.8-2.8-7.2-8.3-7.2h-3.5v14.4h3.9c2.5 0 4.5-0.6 5.8-1.8 1.4-1.3 2.1-3.1 2.1-5.4z"/>
		<path d="m222.6 431.2h-3.1v-2.1c-1.3 1.6-3.1 2.4-5.3 2.4-1.7 0-3-0.5-4.1-1.4s-1.6-2.2-1.6-3.8c0-1.6 0.6-2.7 1.7-3.5 1.2-0.8 2.7-1.2 4.7-1.2h4.4v-0.6c0-2.1-1.2-3.2-3.5-3.2-1.5 0-3 0.5-4.6 1.6l-1.5-2.1c1.9-1.5 4.1-2.3 6.6-2.3 1.9 0 3.4 0.5 4.6 1.4 1.2 1 1.8 2.4 1.8 4.5v10.3zm-3.4-6v-1.4h-3.8c-2.4 0-3.6 0.8-3.6 2.3 0 0.8 0.3 1.4 0.9 1.8s1.4 0.6 2.5 0.6 2-0.3 2.8-0.9 1.2-1.3 1.2-2.4z"/>
		<path d="m230.8 417.9v8.1c0 0.8 0.2 1.4 0.6 1.8 0.4 0.5 1 0.7 1.7 0.7s1.4-0.3 2.1-1.1l1.4 2.4c-1.2 1.1-2.5 1.6-3.9 1.6s-2.7-0.5-3.7-1.5-1.5-2.3-1.5-4v-8h-2v-2.7h2v-5h3.4v5h4.2v2.7h-4.3z"/>
		<path d="m252.2 431.2h-3.1v-2.1c-1.3 1.6-3.1 2.4-5.3 2.4-1.7 0-3-0.5-4.1-1.4s-1.6-2.2-1.6-3.8c0-1.6 0.6-2.7 1.7-3.5 1.2-0.8 2.7-1.2 4.7-1.2h4.4v-0.6c0-2.1-1.2-3.2-3.5-3.2-1.5 0-3 0.5-4.6 1.6l-1.5-2.1c1.9-1.5 4.1-2.3 6.6-2.3 1.9 0 3.4 0.5 4.6 1.4 1.2 1 1.8 2.4 1.8 4.5v10.3zm-3.4-6v-1.4h-3.8c-2.4 0-3.6 0.8-3.6 2.3 0 0.8 0.3 1.4 0.9 1.8s1.4 0.6 2.5 0.6 2-0.3 2.8-0.9 1.2-1.3 1.2-2.4z"/>
	</g>
	<g fill="#566585">
		<path d="m75 752.9v-21h3.5v9.1h10.5v-9.1h3.5v21h-3.5v-8.6h-10.5v8.6h-3.5z"/>
		<path d="m97.8 733.8c-0.4-0.4-0.6-0.9-0.6-1.5s0.2-1.1 0.6-1.5c0.4-0.4 0.9-0.6 1.5-0.6s1.1 0.2 1.5 0.6 0.6 0.9 0.6 1.5-0.2 1.1-0.6 1.5c-0.4 0.4-0.9 0.6-1.5 0.6s-1.1-0.2-1.5-0.6zm3.1 19.1h-3.4v-16h3.4v16z"/>
		<path d="m116.9 748.1c0 1.5-0.6 2.7-1.7 3.6s-2.5 1.4-4.2 1.4c-1.2 0-2.4-0.2-3.6-0.6-1.3-0.4-2.4-1-3.3-1.8l1.6-2.6c1.9 1.4 3.7 2.1 5.4 2.1 0.8 0 1.4-0.2 1.8-0.5s0.7-0.8 0.7-1.3c0-0.8-1.1-1.5-3.2-2.2-0.2-0.1-0.3-0.1-0.4-0.1-3.3-0.9-5-2.4-5-4.5 0-1.5 0.6-2.7 1.7-3.6 1.2-0.9 2.6-1.3 4.5-1.3s3.6 0.5 5.2 1.6l-1.3 2.5c-1.3-0.9-2.7-1.3-4.2-1.3-0.8 0-1.5 0.1-2 0.4s-0.8 0.7-0.8 1.3c0 0.5 0.3 0.9 0.8 1.1 0.4 0.2 0.9 0.4 1.5 0.5s1.2 0.3 1.7 0.5c0.5 0.2 1 0.3 1.5 0.5s1 0.5 1.5 0.8c1.3 0.9 1.8 2 1.8 3.5z"/>
		<path d="m124.6 739.6v8.1c0 0.8 0.2 1.4 0.6 1.8 0.4 0.5 1 0.7 1.7 0.7s1.4-0.3 2.1-1.1l1.4 2.4c-1.2 1.1-2.5 1.6-3.9 1.6s-2.7-0.5-3.7-1.5-1.5-2.3-1.5-4v-8h-2v-2.7h2v-5h3.4v5h4.2v2.7h-4.3z"/>
		<path d="m145.7 750.8c-1.6 1.6-3.6 2.4-6 2.4s-4.4-0.8-6-2.4c-1.6-1.6-2.4-3.5-2.4-5.8s0.8-4.2 2.4-5.8 3.6-2.4 6-2.4 4.4 0.8 6 2.4c1.6 1.6 2.4 3.5 2.4 5.8 0 2.2-0.8 4.2-2.4 5.8zm-9.7-2.1c1 1 2.2 1.5 3.6 1.5s2.7-0.5 3.6-1.5c1-1 1.4-2.2 1.4-3.8 0-1.5-0.5-2.8-1.4-3.8-1-1-2.2-1.5-3.6-1.5s-2.7 0.5-3.6 1.5c-1 1-1.4 2.2-1.4 3.8s0.5 2.8 1.4 3.8z"/>
		<path d="m160 740.1c-1.7 0-2.9 0.5-3.8 1.6s-1.3 2.5-1.3 4.4v6.8h-3.4v-16h3.4v3.2c0.5-1 1.3-1.8 2.2-2.5 0.9-0.6 1.9-1 3-1v3.4c0.1 0.1 0 0.1-0.1 0.1z"/>
		<path d="m163.3 733.8c-0.4-0.4-0.6-0.9-0.6-1.5s0.2-1.1 0.6-1.5c0.4-0.4 0.9-0.6 1.5-0.6s1.1 0.2 1.5 0.6 0.6 0.9 0.6 1.5-0.2 1.1-0.6 1.5c-0.4 0.4-0.9 0.6-1.5 0.6s-1.1-0.2-1.5-0.6zm3.2 19.1h-3.4v-16h3.4v16z"/>
		<path d="m178.1 753.2c-2.2 0-4.1-0.8-5.7-2.3s-2.4-3.5-2.4-5.9 0.8-4.4 2.5-6c1.7-1.5 3.7-2.3 6.1-2.3s4.4 0.8 6.1 2.5l-2 2.4c-1.4-1.2-2.8-1.8-4.2-1.8s-2.6 0.5-3.6 1.4-1.5 2.1-1.5 3.6 0.5 2.7 1.5 3.7c1 1 2.3 1.5 3.8 1.5s2.9-0.7 4.2-2l2 2.2c-2 2-4.3 3-6.8 3z"/>
		<path d="m201.2 752.9h-3.1v-2.1c-1.3 1.6-3.1 2.4-5.3 2.4-1.7 0-3-0.5-4.1-1.4s-1.6-2.2-1.6-3.8c0-1.6 0.6-2.7 1.7-3.5 1.2-0.8 2.7-1.2 4.7-1.2h4.4v-0.6c0-2.1-1.2-3.2-3.5-3.2-1.5 0-3 0.5-4.6 1.6l-1.5-2.1c1.9-1.5 4.1-2.3 6.6-2.3 1.9 0 3.4 0.5 4.6 1.4 1.2 1 1.8 2.4 1.8 4.5v10.3zm-3.3-5.9v-1.4h-3.8c-2.4 0-3.6 0.8-3.6 2.3 0 0.8 0.3 1.4 0.9 1.8s1.4 0.6 2.5 0.6 2-0.3 2.8-0.9 1.2-1.4 1.2-2.4z"/>
		<path d="m209 752.9h-3.4v-22.3h3.4v22.3z"/>
		<path d="m238.5 734.7c2 1.8 3 4.4 3 7.6 0 3.3-1 5.8-2.9 7.7-2 1.9-5 2.9-9 2.9h-7v-21h7.2c3.8 0 6.7 0.9 8.7 2.8zm-0.5 7.7c0-4.8-2.8-7.2-8.3-7.2h-3.5v14.4h3.9c2.5 0 4.5-0.6 5.8-1.8 1.4-1.2 2.1-3 2.1-5.4z"/>
		<path d="m258.3 752.9h-3.1v-2.1c-1.3 1.6-3.1 2.4-5.3 2.4-1.7 0-3-0.5-4.1-1.4s-1.6-2.2-1.6-3.8c0-1.6 0.6-2.7 1.7-3.5 1.2-0.8 2.7-1.2 4.7-1.2h4.4v-0.6c0-2.1-1.2-3.2-3.5-3.2-1.5 0-3 0.5-4.6 1.6l-1.5-2.1c1.9-1.5 4.1-2.3 6.6-2.3 1.9 0 3.4 0.5 4.6 1.4 1.2 1 1.8 2.4 1.8 4.5v10.3zm-3.3-5.9v-1.4h-3.8c-2.4 0-3.6 0.8-3.6 2.3 0 0.8 0.3 1.4 0.9 1.8s1.4 0.6 2.5 0.6 2-0.3 2.8-0.9 1.2-1.4 1.2-2.4z"/>
		<path d="m266.5 739.6v8.1c0 0.8 0.2 1.4 0.6 1.8 0.4 0.5 1 0.7 1.7 0.7s1.4-0.3 2.1-1.1l1.4 2.4c-1.2 1.1-2.5 1.6-3.9 1.6s-2.7-0.5-3.7-1.5-1.5-2.3-1.5-4v-8h-2v-2.7h2v-5h3.4v5h4.2v2.7h-4.3z"/>
		<path d="m287.9 752.9h-3.1v-2.1c-1.3 1.6-3.1 2.4-5.3 2.4-1.7 0-3-0.5-4.1-1.4s-1.6-2.2-1.6-3.8c0-1.6 0.6-2.7 1.7-3.5 1.2-0.8 2.7-1.2 4.7-1.2h4.4v-0.6c0-2.1-1.2-3.2-3.5-3.2-1.5 0-3 0.5-4.6 1.6l-1.5-2.1c1.9-1.5 4.1-2.3 6.6-2.3 1.9 0 3.4 0.5 4.6 1.4 1.2 1 1.8 2.4 1.8 4.5v10.3zm-3.3-5.9v-1.4h-3.8c-2.4 0-3.6 0.8-3.6 2.3 0 0.8 0.3 1.4 0.9 1.8s1.4 0.6 2.5 0.6 2-0.3 2.8-0.9 1.2-1.4 1.2-2.4z"/>
	</g>
		<path stroke="#fff" stroke-width="4" stroke-miterlimit="10" d="m759.2 909.6h-122c-5.5 0-10-4.5-10-10v-98.4c0-5.5 4.5-10 10-10h122c5.5 0 10 4.5 10 10v98.4c0 5.5-4.5 10-10 10z" fill="#566585"/>
		<line y2="831" x1="627.2" x2="769.2" stroke="#fff" stroke-miterlimit="10" y1="831" stroke-width="4" fill="none"/>
		<line y2="850.2" x1="648" x2="748.4" stroke="#fff" stroke-miterlimit="10" y1="850.2" stroke-width="4" fill="none"/>
		<line y2="869.3" x1="648" x2="748.4" stroke="#fff" stroke-miterlimit="10" y1="869.3" stroke-width="4" fill="none"/>
		<line y2="888.5" x1="648" x2="748.4" stroke="#fff" stroke-miterlimit="10" y1="888.5" stroke-width="4" fill="none"/>
			<g fill="#fff">
				<path d="m646.4 806.1c-0.7 0-1.3 0.1-1.7 0.4s-0.7 0.7-0.7 1.3 0.2 1 0.7 1.3c0.4 0.3 1.4 0.6 2.9 1s2.6 0.9 3.3 1.5 1.1 1.6 1.1 2.8-0.5 2.3-1.4 3c-0.9 0.8-2.2 1.2-3.7 1.2-2.2 0-4.2-0.8-5.9-2.3l1.5-1.8c1.4 1.3 2.9 1.9 4.5 1.9 0.8 0 1.4-0.2 1.8-0.5 0.5-0.3 0.7-0.8 0.7-1.3s-0.2-1-0.6-1.3c-0.4-0.3-1.2-0.6-2.2-0.8-1-0.3-1.8-0.5-2.4-0.7s-1-0.5-1.4-0.8c-0.8-0.6-1.3-1.6-1.3-2.9s0.5-2.3 1.4-3.1c1-0.7 2.1-1.1 3.6-1.1 0.9 0 1.8 0.2 2.7 0.4 0.9 0.3 1.7 0.7 2.3 1.3l-1.3 1.8c-0.4-0.4-1-0.7-1.7-0.9-0.8-0.3-1.5-0.4-2.2-0.4z"/>
				<path d="m665.5 804.2h2.4v14.3h-2.6l-8.1-10.4v10.4h-2.4v-14.3h2.4l8.3 10.7v-10.7z"/>
				<path d="m673.9 815.2l-1.4 3.2h-2.6l6.3-14.3h2.6l6.3 14.3h-2.6l-1.4-3.2h-7.2zm6.2-2.2l-2.6-5.9-2.6 5.9h5.2z"/>
				<path d="m696.7 805.4c1 0.8 1.5 2.1 1.5 3.8s-0.5 3-1.5 3.8c-1 0.8-2.6 1.2-4.7 1.2h-2.5v4.2h-2.4v-14.3h4.9c2.1 0.1 3.7 0.5 4.7 1.3zm-1.7 5.9c0.5-0.5 0.7-1.3 0.7-2.2 0-1-0.3-1.7-0.9-2.1s-1.6-0.6-2.9-0.6h-2.5v5.7h2.8c1.4 0 2.3-0.3 2.8-0.8z"/>
				<path d="m705.2 806.1c-0.7 0-1.3 0.1-1.7 0.4s-0.7 0.7-0.7 1.3 0.2 1 0.7 1.3c0.4 0.3 1.4 0.6 2.9 1s2.6 0.9 3.3 1.5 1.1 1.6 1.1 2.8-0.5 2.3-1.4 3c-0.9 0.8-2.2 1.2-3.7 1.2-2.2 0-4.2-0.8-5.9-2.3l1.5-1.8c1.4 1.3 2.9 1.9 4.5 1.9 0.8 0 1.4-0.2 1.8-0.5 0.5-0.3 0.7-0.8 0.7-1.3s-0.2-1-0.6-1.3c-0.4-0.3-1.2-0.6-2.2-0.8-1-0.3-1.8-0.5-2.4-0.7s-1-0.5-1.4-0.8c-0.8-0.6-1.3-1.6-1.3-2.9s0.5-2.3 1.4-3.1c1-0.7 2.1-1.1 3.6-1.1 0.9 0 1.8 0.2 2.7 0.4 0.9 0.3 1.7 0.7 2.3 1.3l-1.3 1.8c-0.4-0.4-1-0.7-1.7-0.9-0.8-0.3-1.5-0.4-2.2-0.4z"/>
				<path d="m713.7 818.4v-14.3h2.4v6.2h7.1v-6.2h2.4v14.3h-2.4v-5.8h-7.1v5.8h-2.4z"/>
				<path d="m741.4 816.5c-1.4 1.4-3.2 2.1-5.3 2.1s-3.9-0.7-5.3-2.1c-1.4-1.4-2.2-3.2-2.2-5.3s0.7-3.9 2.2-5.3c1.4-1.4 3.2-2.1 5.3-2.1s3.9 0.7 5.3 2.1c1.4 1.4 2.2 3.2 2.2 5.3s-0.7 3.9-2.2 5.3zm-1.7-9c-1-1-2.2-1.5-3.6-1.5s-2.6 0.5-3.6 1.5c-1 1-1.5 2.2-1.5 3.7s0.5 2.7 1.5 3.7c1 1 2.2 1.5 3.6 1.5s2.6-0.5 3.6-1.5c1-1 1.5-2.2 1.5-3.7s-0.6-2.6-1.5-3.7z"/>
				<path d="m751.4 806.4v12.1h-2.4v-12.1h-4.3v-2.2h11.1v2.2h-4.4z"/>
			</g>
		<g fill="#566585">
			<path d="m1536.4 580.3c1.2 0 2.3-0.2 3.2-0.6s1.8-1.1 2.8-2l2.3 2.3c-2.2 2.5-4.9 3.7-8.1 3.7s-5.8-1-7.9-3.1c-2.1-2-3.1-4.6-3.1-7.7s1.1-5.7 3.2-7.8c2.1-2.1 4.8-3.1 8.1-3.1s6 1.2 8.2 3.6l-2.3 2.5c-1-1-1.9-1.6-2.8-2s-1.9-0.6-3.1-0.6c-2.1 0-3.9 0.7-5.3 2.1s-2.2 3.1-2.2 5.3c0 2.1 0.7 3.9 2.1 5.3 1.3 1.3 3 2.1 4.9 2.1z"/>
			<path d="m1551.3 583.5h-3.4v-22.3h3.4v22.3z"/>
			<path d="m1556.1 564.3c-0.4-0.4-0.6-0.9-0.6-1.5s0.2-1.1 0.6-1.5c0.4-0.4 0.9-0.6 1.5-0.6s1.1 0.2 1.5 0.6 0.6 0.9 0.6 1.5-0.2 1.1-0.6 1.5c-0.4 0.4-0.9 0.6-1.5 0.6-0.5 0-1-0.2-1.5-0.6zm3.2 19.2h-3.4v-16h3.4v16z"/>
			<path d="m1567.3 574.8v8.6h-3.4v-16h3.4v2.9c0.5-1 1.3-1.8 2.2-2.3s2-0.8 3.1-0.8c1.8 0 3.3 0.6 4.4 1.7s1.7 2.7 1.7 4.8v9.8h-3.4v-8.8c0-2.9-1.2-4.4-3.7-4.4-1.2 0-2.2 0.4-3 1.2-0.9 0.7-1.3 1.8-1.3 3.3z"/>
			<path d="m1583.2 564.3c-0.4-0.4-0.6-0.9-0.6-1.5s0.2-1.1 0.6-1.5c0.4-0.4 0.9-0.6 1.5-0.6s1.1 0.2 1.5 0.6 0.6 0.9 0.6 1.5-0.2 1.1-0.6 1.5c-0.4 0.4-0.9 0.6-1.5 0.6s-1.1-0.2-1.5-0.6zm3.2 19.2h-3.4v-16h3.4v16z"/>
			<path d="m1598 583.7c-2.2 0-4.1-0.8-5.7-2.3s-2.4-3.5-2.4-5.9 0.8-4.4 2.5-6c1.7-1.5 3.7-2.3 6.1-2.3s4.4 0.8 6.1 2.5l-2 2.4c-1.4-1.2-2.8-1.8-4.2-1.8s-2.6 0.5-3.6 1.4-1.5 2.1-1.5 3.6 0.5 2.7 1.5 3.7c1 1 2.3 1.5 3.8 1.5s2.9-0.7 4.2-2l2 2.2c-2 2-4.3 3-6.8 3z"/>
			<path d="m1621.1 583.5h-3.1v-2.1c-1.3 1.6-3.1 2.4-5.3 2.4-1.7 0-3-0.5-4.1-1.4s-1.6-2.2-1.6-3.8c0-1.6 0.6-2.7 1.7-3.5 1.2-0.8 2.7-1.2 4.7-1.2h4.4v-0.6c0-2.1-1.2-3.2-3.5-3.2-1.5 0-3 0.5-4.6 1.6l-1.5-2.1c1.9-1.5 4.1-2.3 6.6-2.3 1.9 0 3.4 0.5 4.6 1.4 1.2 1 1.8 2.4 1.8 4.5v10.3zm-3.4-6v-1.4h-3.8c-2.4 0-3.6 0.8-3.6 2.3 0 0.8 0.3 1.4 0.9 1.8s1.4 0.6 2.5 0.6 2-0.3 2.8-0.9 1.2-1.4 1.2-2.4z"/>
			<path d="m1628.9 583.5h-3.4v-22.3h3.4v22.3z"/>
			<path d="m1642.5 562.5h3.5v21h-3.5v-21z"/>
			<path d="m1654.4 574.8v8.6h-3.4v-16h3.4v2.9c0.5-1 1.3-1.8 2.2-2.3s2-0.8 3.1-0.8c1.8 0 3.3 0.6 4.4 1.7s1.7 2.7 1.7 4.8v9.8h-3.4v-8.8c0-2.9-1.2-4.4-3.7-4.4-1.2 0-2.2 0.4-3 1.2-0.8 0.7-1.3 1.8-1.3 3.3z"/>
			<path d="m1674.1 566.2v1.3h4.2v2.7h-4.2v13.3h-3.4v-13.3h-2v-2.7h2v-1.2c0-1.7 0.5-3 1.5-4s2.2-1.5 3.7-1.5 2.7 0.5 3.9 1.6l-1.4 2.4c-0.7-0.7-1.4-1.1-2.1-1.1s-1.3 0.2-1.7 0.7c-0.3 0.4-0.5 1-0.5 1.8z"/>
			<path d="m1695.8 577h-12.5c0.1 1.2 0.6 2.1 1.6 2.8s2.1 1.1 3.4 1.1c2 0 3.5-0.6 4.6-1.9l1.9 2.1c-1.7 1.8-4 2.7-6.7 2.7-2.2 0-4.1-0.7-5.7-2.2s-2.4-3.5-2.4-6 0.8-4.5 2.4-6 3.5-2.2 5.7-2.2 4 0.7 5.5 2 2.3 3.1 2.3 5.4v2.2zm-12.5-2.7h9.2c0-1.3-0.4-2.4-1.3-3.1-0.8-0.7-1.9-1.1-3.1-1.1s-2.3 0.4-3.3 1.1-1.5 1.8-1.5 3.1z"/>
			<path d="m1707.8 570.6c-1.7 0-2.9 0.5-3.8 1.6-0.8 1.1-1.3 2.5-1.3 4.4v6.8h-3.4v-16h3.4v3.2c0.5-1 1.3-1.8 2.2-2.5s1.9-1 3-1v3.4c0 0.1 0 0.1-0.1 0.1z"/>
			<path d="m1725.7 577h-12.5c0.1 1.2 0.6 2.1 1.6 2.8s2.1 1.1 3.4 1.1c2 0 3.5-0.6 4.6-1.9l1.9 2.1c-1.7 1.8-4 2.7-6.7 2.7-2.2 0-4.1-0.7-5.7-2.2s-2.4-3.5-2.4-6 0.8-4.5 2.4-6 3.5-2.2 5.7-2.2 4 0.7 5.5 2c1.5 1.3 2.3 3.1 2.3 5.4v2.2zm-12.5-2.7h9.2c0-1.3-0.4-2.4-1.3-3.1s-1.9-1.1-3.1-1.1c-1.2 0-2.3 0.4-3.3 1.1-1 0.8-1.5 1.8-1.5 3.1z"/>
			<path d="m1732.7 574.8v8.6h-3.4v-16h3.4v2.9c0.5-1 1.3-1.8 2.2-2.3 1-0.6 2-0.8 3.1-0.8 1.8 0 3.3 0.6 4.4 1.7s1.7 2.7 1.7 4.8v9.8h-3.4v-8.8c0-2.9-1.2-4.4-3.7-4.4-1.2 0-2.2 0.4-3 1.2-0.9 0.7-1.3 1.8-1.3 3.3z"/>
			<path d="m1755.6 583.7c-2.2 0-4.1-0.8-5.7-2.3s-2.4-3.5-2.4-5.9 0.8-4.4 2.5-6c1.7-1.5 3.7-2.3 6.1-2.3s4.4 0.8 6.1 2.5l-2 2.4c-1.4-1.2-2.8-1.8-4.2-1.8s-2.6 0.5-3.6 1.4-1.5 2.1-1.5 3.6 0.5 2.7 1.5 3.7c1 1 2.3 1.5 3.8 1.5s2.9-0.7 4.2-2l2 2.2c-2 2-4.2 3-6.8 3z"/>
			<path d="m1780.1 577h-12.5c0.1 1.2 0.6 2.1 1.6 2.8s2.1 1.1 3.4 1.1c2 0 3.5-0.6 4.6-1.9l1.9 2.1c-1.7 1.8-4 2.7-6.7 2.7-2.2 0-4.1-0.7-5.7-2.2s-2.4-3.5-2.4-6 0.8-4.5 2.4-6 3.5-2.2 5.7-2.2 4 0.7 5.5 2c1.5 1.3 2.3 3.1 2.3 5.4v2.2zm-12.6-2.7h9.2c0-1.3-0.4-2.4-1.3-3.1s-1.9-1.1-3.1-1.1c-1.2 0-2.3 0.4-3.3 1.1-1 0.8-1.5 1.8-1.5 3.1z"/>
		</g>
		<path stroke="#566585" stroke-width="4" stroke-miterlimit="10" d="m1803.8 753.4h-352.4c-5.5 0-10-4.5-10-10v-49c0-5.5 4.5-10 10-10h352.4c5.5 0 10 4.5 10 10v49c0 5.5-4.5 10-10 10z" fill="#fff"/>
			<g fill="#566585">
				<path d="m1533.2 711.7c-1 0-1.9 0.2-2.5 0.6-0.7 0.4-1 1.1-1 1.9 0 0.9 0.3 1.5 1 2s2.1 0.9 4.2 1.5c2.2 0.5 3.8 1.3 4.9 2.2s1.6 2.3 1.6 4.2-0.7 3.3-2.1 4.5c-1.4 1.1-3.2 1.7-5.4 1.7-3.3 0-6.2-1.1-8.7-3.4l2.2-2.7c2.1 1.8 4.3 2.8 6.6 2.8 1.1 0 2-0.2 2.7-0.7s1-1.1 1-2c0-0.8-0.3-1.4-0.9-1.9s-1.7-0.9-3.3-1.2c-1.5-0.4-2.7-0.7-3.5-1s-1.5-0.7-2.1-1.2c-1.2-0.9-1.9-2.4-1.9-4.3s0.7-3.4 2.1-4.5 3.2-1.6 5.2-1.6c1.3 0 2.7 0.2 4 0.7 1.3 0.4 2.5 1.1 3.4 1.9l-1.9 2.7c-0.6-0.6-1.5-1-2.5-1.4-1-0.6-2.1-0.8-3.1-0.8z"/>
				<path d="m1561.3 708.9h3.5v21h-3.8l-11.9-15.3v15.3h-3.5v-21h3.5l12.2 15.7v-15.7z"/>
				<path d="m1584.6 710.7c1.5 1.2 2.2 3.1 2.2 5.6s-0.7 4.4-2.2 5.6-3.8 1.8-6.9 1.8h-3.7v6.2h-3.5v-21h7.2c3.1 0 5.4 0.6 6.9 1.8zm-2.5 8.7c0.7-0.8 1.1-1.9 1.1-3.3 0-1.5-0.5-2.5-1.4-3.1s-2.3-0.9-4.2-0.9h-3.6v8.4h4.1c1.9 0 3.3-0.3 4-1.1z"/>
				<path d="m1604.8 730.1c-2 0-3.6-0.5-5-1.6s-2.1-2.6-2.1-4.5c0-2.3 1.6-4.3 4.9-6-0.8-0.9-1.4-1.7-1.7-2.3s-0.5-1.4-0.5-2.3c0-1.6 0.6-2.8 1.8-3.7s2.6-1.3 4.2-1.3 3 0.4 4.1 1.2 1.7 2 1.7 3.5c0 2-1.6 3.9-4.8 5.6 1.6 2 2.9 3.5 3.9 4.5 0.6-0.9 1.1-2 1.4-3.2l2.5 1.7c-0.5 1.4-1.1 2.6-1.8 3.6 0.8 0.8 1.8 1.8 3.1 3l-2.3 2.1-2.8-2.7c-1.7 1.6-3.9 2.4-6.6 2.4zm-2.6-3.7c0.8 0.6 1.8 0.9 3 0.9s2.6-0.6 4-1.7c-2-2.1-3.6-3.9-4.8-5.3-2.3 1.2-3.4 2.6-3.4 4 0.1 0.8 0.4 1.5 1.2 2.1zm4.2-15.3c-0.7 0-1.3 0.2-1.8 0.6s-0.8 0.9-0.8 1.5 0.1 1.1 0.4 1.5c0.3 0.5 0.7 1.1 1.4 1.9 2.3-1.1 3.4-2.2 3.4-3.1 0-0.8-0.3-1.4-0.8-1.8-0.6-0.4-1.2-0.6-1.8-0.6z"/>
				<path d="m1628.2 708.9h3.5v21h-3.5v-21z"/>
				<path d="m1640.2 721.3v8.6h-3.4v-16h3.4v2.9c0.5-1 1.3-1.8 2.2-2.3 1-0.6 2-0.8 3.1-0.8 1.8 0 3.3 0.6 4.4 1.7s1.7 2.7 1.7 4.8v9.8h-3.4v-8.8c0-2.9-1.2-4.4-3.7-4.4-1.2 0-2.2 0.4-3 1.2-0.9 0.6-1.3 1.8-1.3 3.3z"/>
				<path d="m1657.3 727.9c-1.5-1.5-2.3-3.5-2.3-6s0.8-4.5 2.3-5.9c1.5-1.5 3.4-2.2 5.5-2.2s3.8 0.9 5.2 2.7v-8.8h3.4v22.3h-3.4v-2.4c-1.2 1.8-3.1 2.6-5.4 2.6-2.1-0.1-3.8-0.8-5.3-2.3zm1.1-5.9c0 1.5 0.5 2.8 1.5 3.7 1 1 2.1 1.4 3.5 1.4s2.4-0.5 3.4-1.5c0.9-1 1.4-2.2 1.4-3.7s-0.5-2.8-1.4-3.8c-0.9-1-2.1-1.5-3.4-1.5s-2.5 0.5-3.5 1.5c-1 1.1-1.5 2.4-1.5 3.9z"/>
				<path d="m1690.9 723.4h-12.5c0.1 1.2 0.6 2.1 1.6 2.8s2.1 1.1 3.4 1.1c2 0 3.5-0.6 4.6-1.9l1.9 2.1c-1.7 1.8-4 2.7-6.7 2.7-2.2 0-4.1-0.7-5.7-2.2s-2.4-3.5-2.4-6 0.8-4.5 2.4-6 3.5-2.2 5.7-2.2 4 0.7 5.5 2c1.5 1.3 2.3 3.1 2.3 5.4v2.2zm-12.5-2.7h9.2c0-1.3-0.4-2.4-1.3-3.1s-1.9-1.1-3.1-1.1c-1.2 0-2.3 0.4-3.3 1.1-1.1 0.8-1.5 1.9-1.5 3.1z"/>
				<path d="m1697.9 729.9h-3.4v-22.3h3.4v22.3z"/>
			</g>
			<path stroke="#566585" stroke-width="3" stroke-miterlimit="10" d="m1478.7 735.8h-8.4c-4.4 0-7.9-3.6-7.9-7.9v-16c0-4.4 3.6-7.9 7.9-7.9h8.5" fill="none"/>
			<path d="m1485.6 726.9h-5.7-6.1c-1.7 0-2.2-0.6-2.2-2.3v-9.4c0-1.7 0.6-2.3 2.3-2.3h10.3 1.3c0-0.5 0.1-0.9 0.1-1.3 0-2.2-0.1-4.3 0.1-6.5 0-0.6 0.5-1.5 1-1.7 0.6-0.2 1.6 0 2 0.4 4.9 4.8 9.8 9.7 14.6 14.6 0.9 0.9 0.9 1.8 0 2.8-4.9 4.9-9.8 9.8-14.7 14.6-0.4 0.4-1.4 0.6-1.9 0.4s-1-1-1.1-1.6c-0.1-2.1-0.1-4.2-0.1-6.2 0.1-0.4 0.1-0.9 0.1-1.5z" fill="#566585"/>
		<path stroke="#566585" stroke-width="4" stroke-miterlimit="10" d="m1803.8 834.7h-352.4c-5.5 0-10-4.5-10-10v-49c0-5.5 4.5-10 10-10h352.4c5.5 0 10 4.5 10 10v49c0 5.5-4.5 10-10 10z" fill="#fff"/>
			<g fill="#566585">
				<path d="m1536.4 808c1.2 0 2.3-0.2 3.2-0.6s1.8-1.1 2.8-2l2.3 2.3c-2.2 2.5-4.9 3.7-8.1 3.7s-5.8-1-7.9-3.1c-2.1-2-3.1-4.6-3.1-7.7s1.1-5.7 3.2-7.8c2.1-2.1 4.8-3.1 8.1-3.1s6 1.2 8.2 3.6l-2.3 2.5c-1-1-1.9-1.6-2.8-2s-1.9-0.6-3.1-0.6c-2.1 0-3.9 0.7-5.3 2.1s-2.2 3.1-2.2 5.3c0 2.1 0.7 3.9 2.1 5.3 1.3 1.4 3 2.1 4.9 2.1z"/>
				<path d="m1564.1 790.3h3.5v21h-3.8l-11.9-15.3v15.3h-3.5v-21h3.5l12.2 15.7v-15.7z"/>
				<path d="m1582.9 811.2h-4l-8.4-21h4l6.5 15.7 6.5-15.7h4l-8.6 21z"/>
			</g>
			<path stroke="#566585" stroke-width="3" stroke-miterlimit="10" d="m1478.7 817.1h-8.4c-4.4 0-7.9-3.6-7.9-7.9v-16c0-4.4 3.6-7.9 7.9-7.9h8.5" fill="none"/>
			<path d="m1485.6 808.2h-5.7-6.1c-1.7 0-2.2-0.6-2.2-2.3v-9.4c0-1.7 0.6-2.3 2.3-2.3h10.3 1.3c0-0.5 0.1-0.9 0.1-1.3 0-2.2-0.1-4.3 0.1-6.5 0-0.6 0.5-1.5 1-1.7 0.6-0.2 1.6 0 2 0.4 4.9 4.8 9.8 9.7 14.6 14.6 0.9 0.9 0.9 1.8 0 2.8-4.9 4.9-9.8 9.8-14.7 14.6-0.4 0.4-1.4 0.6-1.9 0.4s-1-1-1.1-1.6c-0.1-2.1-0.1-4.2-0.1-6.2 0.1-0.4 0.1-0.8 0.1-1.5z" fill="#566585"/>
		<path stroke="#566585" stroke-width="4" stroke-miterlimit="10" d="m1803.8 916.1h-352.4c-5.5 0-10-4.5-10-10v-49c0-5.5 4.5-10 10-10h352.4c5.5 0 10 4.5 10 10v49c0 5.5-4.5 10-10 10z" fill="#fff"/>
			<g fill="#566585">
				<path d="m1533.2 874.4c-1 0-1.9 0.2-2.5 0.6-0.7 0.4-1 1.1-1 1.9 0 0.9 0.3 1.5 1 2s2.1 0.9 4.2 1.5c2.2 0.5 3.8 1.3 4.9 2.2s1.6 2.3 1.6 4.2-0.7 3.3-2.1 4.5c-1.4 1.1-3.2 1.7-5.4 1.7-3.3 0-6.2-1.1-8.7-3.4l2.2-2.7c2.1 1.8 4.3 2.8 6.6 2.8 1.1 0 2-0.2 2.7-0.7s1-1.1 1-2c0-0.8-0.3-1.4-0.9-1.9s-1.7-0.9-3.3-1.2c-1.5-0.4-2.7-0.7-3.5-1s-1.5-0.7-2.1-1.2c-1.2-0.9-1.9-2.4-1.9-4.3s0.7-3.4 2.1-4.5 3.2-1.6 5.2-1.6c1.3 0 2.7 0.2 4 0.7 1.3 0.4 2.5 1.1 3.4 1.9l-1.9 2.7c-0.6-0.6-1.5-1-2.5-1.4-1-0.7-2.1-0.8-3.1-0.8z"/>
				<path d="m1555.3 892.6h-4l-8.4-21h4l6.5 15.7 6.5-15.7h4l-8.6 21z"/>
			</g>
			<path stroke="#566585" stroke-width="3" stroke-miterlimit="10" d="m1478.7 898.5h-8.4c-4.4 0-7.9-3.6-7.9-7.9v-16c0-4.4 3.6-7.9 7.9-7.9h8.5" fill="none"/>
			<path d="m1485.6 889.6h-5.7-6.1c-1.7 0-2.2-0.6-2.2-2.3v-9.4c0-1.7 0.6-2.3 2.3-2.3h10.3 1.3c0-0.5 0.1-0.9 0.1-1.3 0-2.2-0.1-4.3 0.1-6.5 0-0.6 0.5-1.5 1-1.7 0.6-0.2 1.6 0 2 0.4 4.9 4.8 9.8 9.7 14.6 14.6 0.9 0.9 0.9 1.8 0 2.8-4.9 4.9-9.8 9.8-14.7 14.6-0.4 0.4-1.4 0.6-1.9 0.4s-1-1-1.1-1.6c-0.1-2.1-0.1-4.2-0.1-6.2 0.1-0.5 0.1-0.9 0.1-1.5z" fill="#566585"/>
		<path stroke="#566585" stroke-width="4" stroke-miterlimit="10" d="m1803.8 997.4h-352.4c-5.5 0-10-4.5-10-10v-49c0-5.5 4.5-10 10-10h352.4c5.5 0 10 4.5 10 10v49c0 5.5-4.5 10-10 10z" fill="#fff"/>
			<g fill="#566585">
				<path d="m1533.2 955.7c-1 0-1.9 0.2-2.5 0.6-0.7 0.4-1 1.1-1 1.9 0 0.9 0.3 1.5 1 2s2.1 0.9 4.2 1.5c2.2 0.5 3.8 1.3 4.9 2.2s1.6 2.3 1.6 4.2-0.7 3.3-2.1 4.5c-1.4 1.1-3.2 1.7-5.4 1.7-3.3 0-6.2-1.1-8.7-3.4l2.2-2.7c2.1 1.8 4.3 2.8 6.6 2.8 1.1 0 2-0.2 2.7-0.7s1-1.1 1-2c0-0.8-0.3-1.4-0.9-1.9s-1.7-0.9-3.3-1.2c-1.5-0.4-2.7-0.7-3.5-1s-1.5-0.7-2.1-1.2c-1.2-0.9-1.9-2.4-1.9-4.3s0.7-3.4 2.1-4.5 3.2-1.6 5.2-1.6c1.3 0 2.7 0.2 4 0.7 1.3 0.4 2.5 1.1 3.4 1.9l-1.9 2.7c-0.6-0.6-1.5-1-2.5-1.4-1-0.6-2.1-0.8-3.1-0.8z"/>
				<path d="m1558.5 971.8c-1.6 1.6-3.6 2.4-6 2.4s-4.4-0.8-6-2.4c-1.6-1.6-2.4-3.5-2.4-5.8s0.8-4.2 2.4-5.8 3.6-2.4 6-2.4 4.4 0.8 6 2.4c1.6 1.6 2.4 3.5 2.4 5.8 0 2.2-0.8 4.2-2.4 5.8zm-9.6-2.1c1 1 2.2 1.5 3.6 1.5s2.7-0.5 3.6-1.5c1-1 1.4-2.2 1.4-3.8 0-1.5-0.5-2.8-1.4-3.8-1-1-2.2-1.5-3.6-1.5s-2.7 0.5-3.6 1.5c-1 1-1.4 2.2-1.4 3.8-0.1 1.6 0.4 2.8 1.4 3.8z"/>
				<path d="m1567.9 965.3v8.6h-3.4v-16h3.4v2.9c0.5-1 1.2-1.8 2.2-2.3s2-0.8 3.1-0.8c2.5 0 4.2 1 5.1 3.1 1.6-2.1 3.6-3.1 5.9-3.1 1.8 0 3.3 0.6 4.4 1.7s1.7 2.7 1.7 4.8v9.8h-3.4v-8.8c0-2.9-1.2-4.4-3.7-4.4-1.1 0-2.1 0.4-3 1.1s-1.3 1.8-1.3 3.2v8.9h-3.4v-8.8c0-1.5-0.3-2.6-0.8-3.3s-1.4-1.1-2.6-1.1-2.2 0.4-3 1.2c-0.8 0.7-1.2 1.8-1.2 3.3z"/>
				<path d="m1607.7 973.9h-3.1v-2.1c-1.3 1.6-3.1 2.4-5.3 2.4-1.7 0-3-0.5-4.1-1.4s-1.6-2.2-1.6-3.8c0-1.6 0.6-2.7 1.7-3.5 1.2-0.8 2.7-1.2 4.7-1.2h4.4v-0.6c0-2.1-1.2-3.2-3.5-3.2-1.5 0-3 0.5-4.6 1.6l-1.5-2.1c1.9-1.5 4.1-2.3 6.6-2.3 1.9 0 3.4 0.5 4.6 1.4 1.2 1 1.8 2.4 1.8 4.5v10.3zm-3.4-5.9v-1.4h-3.8c-2.4 0-3.6 0.8-3.6 2.3 0 0.8 0.3 1.4 0.9 1.8s1.4 0.6 2.5 0.6 2-0.3 2.8-0.9 1.2-1.4 1.2-2.4z"/>
				<path d="m1615.9 960.6v8.1c0 0.8 0.2 1.4 0.6 1.8 0.4 0.5 1 0.7 1.7 0.7s1.4-0.3 2.1-1.1l1.4 2.4c-1.2 1.1-2.5 1.6-3.9 1.6s-2.7-0.5-3.7-1.5-1.5-2.3-1.5-4v-8h-2v-2.7h2v-5h3.4v5h4.2v2.7h-4.3z"/>
				<path d="m1624.4 954.8c-0.4-0.4-0.6-0.9-0.6-1.5s0.2-1.1 0.6-1.5c0.4-0.4 0.9-0.6 1.5-0.6s1.1 0.2 1.5 0.6 0.6 0.9 0.6 1.5-0.2 1.1-0.6 1.5c-0.4 0.4-0.9 0.6-1.5 0.6s-1.1-0.2-1.5-0.6zm3.2 19.1h-3.4v-16h3.4v16z"/>
				<path d="m1639.2 974.2c-2.2 0-4.1-0.8-5.7-2.3s-2.4-3.5-2.4-5.9 0.8-4.4 2.5-6c1.7-1.5 3.7-2.3 6.1-2.3s4.4 0.8 6.1 2.5l-2 2.4c-1.4-1.2-2.8-1.8-4.2-1.8s-2.6 0.5-3.6 1.4-1.5 2.1-1.5 3.6 0.5 2.7 1.5 3.7c1 1 2.3 1.5 3.8 1.5s2.9-0.7 4.2-2l2 2.2c-2 2-4.3 3-6.8 3z"/>
				<path d="m1661.7 973.9h-3.5v-21h5.5l6.3 13.2 6.3-13.2h5.5v21h-3.5v-16.4l-7.3 14.6h-2l-7.3-14.6v16.4z"/>
				<path d="m1698.1 966.6v-8.6h3.4v16h-3.4v-3c-0.5 1-1.3 1.8-2.2 2.3s-2 0.8-3.1 0.8c-1.8 0-3.3-0.6-4.4-1.7s-1.7-2.7-1.7-4.8v-9.8h3.4v8.8c0 2.9 1.2 4.4 3.7 4.4 1.2 0 2.2-0.4 3-1.2 0.9-0.6 1.3-1.7 1.3-3.2z"/>
				<path d="m1710 960.6v8.1c0 0.8 0.2 1.4 0.6 1.8 0.4 0.5 1 0.7 1.7 0.7s1.4-0.3 2.1-1.1l1.4 2.4c-1.2 1.1-2.5 1.6-3.9 1.6s-2.7-0.5-3.7-1.5-1.5-2.3-1.5-4v-8h-2v-2.7h2v-5h3.4v5h4.2v2.7h-4.3z"/>
				<path d="m1731.4 973.9h-3.1v-2.1c-1.3 1.6-3.1 2.4-5.3 2.4-1.7 0-3-0.5-4.1-1.4s-1.6-2.2-1.6-3.8 0.6-2.7 1.7-3.5c1.2-0.8 2.7-1.2 4.7-1.2h4.4v-0.6c0-2.1-1.2-3.2-3.5-3.2-1.5 0-3 0.5-4.6 1.6l-1.5-2.1c1.9-1.5 4.1-2.3 6.6-2.3 1.9 0 3.4 0.5 4.6 1.4 1.2 1 1.8 2.4 1.8 4.5v10.3zm-3.4-5.9v-1.4h-3.8c-2.4 0-3.6 0.8-3.6 2.3 0 0.8 0.3 1.4 0.9 1.8s1.4 0.6 2.5 0.6 2-0.3 2.8-0.9 1.2-1.4 1.2-2.4z"/>
				<path d="m1739.6 960.6v8.1c0 0.8 0.2 1.4 0.6 1.8 0.4 0.5 1 0.7 1.7 0.7s1.4-0.3 2.1-1.1l1.4 2.4c-1.2 1.1-2.5 1.6-3.9 1.6s-2.7-0.5-3.7-1.5c-1-1-1.5-2.3-1.5-4v-8h-2v-2.7h2v-5h3.4v5h4.2v2.7h-4.3z"/>
				<path d="m1748.1 954.8c-0.4-0.4-0.6-0.9-0.6-1.5s0.2-1.1 0.6-1.5c0.4-0.4 0.9-0.6 1.5-0.6s1.1 0.2 1.5 0.6c0.4 0.4 0.6 0.9 0.6 1.5s-0.2 1.1-0.6 1.5c-0.4 0.4-0.9 0.6-1.5 0.6s-1.1-0.2-1.5-0.6zm3.1 19.1h-3.4v-16h3.4v16z"/>
				<path d="m1769.2 971.8c-1.6 1.6-3.6 2.4-6 2.4s-4.4-0.8-6-2.4c-1.6-1.6-2.4-3.5-2.4-5.8s0.8-4.2 2.4-5.8 3.6-2.4 6-2.4 4.4 0.8 6 2.4c1.6 1.6 2.4 3.5 2.4 5.8 0 2.2-0.8 4.2-2.4 5.8zm-9.7-2.1c1 1 2.2 1.5 3.6 1.5s2.7-0.5 3.6-1.5c1-1 1.4-2.2 1.4-3.8 0-1.5-0.5-2.8-1.4-3.8-1-1-2.2-1.5-3.6-1.5s-2.7 0.5-3.6 1.5c-1 1-1.4 2.2-1.4 3.8s0.5 2.8 1.4 3.8z"/>
				<path d="m1778.5 965.3v8.6h-3.4v-16h3.4v2.9c0.5-1 1.3-1.8 2.2-2.3s2-0.8 3.1-0.8c1.8 0 3.3 0.6 4.4 1.7s1.7 2.7 1.7 4.8v9.8h-3.4v-8.8c0-2.9-1.2-4.4-3.7-4.4-1.2 0-2.2 0.4-3 1.2-0.8 0.7-1.3 1.8-1.3 3.3z"/>
			</g>
			<path stroke="#566585" stroke-width="3" stroke-miterlimit="10" d="m1478.7 979.8h-8.4c-4.4 0-7.9-3.6-7.9-7.9v-16c0-4.4 3.6-7.9 7.9-7.9h8.5" fill="none"/>
			<path d="m1485.6 970.9h-5.7-6.1c-1.7 0-2.2-0.6-2.2-2.3v-9.4c0-1.7 0.6-2.3 2.3-2.3h10.3 1.3c0-0.5 0.1-0.9 0.1-1.3 0-2.2-0.1-4.3 0.1-6.5 0-0.6 0.5-1.5 1-1.7 0.6-0.2 1.6 0 2 0.4 4.9 4.8 9.8 9.7 14.6 14.6 0.9 0.9 0.9 1.8 0 2.8-4.9 4.9-9.8 9.8-14.7 14.6-0.4 0.4-1.4 0.6-1.9 0.4s-1-1-1.1-1.6c-0.1-2.1-0.1-4.2-0.1-6.2 0.1-0.4 0.1-0.9 0.1-1.5z" fill="#566585"/>
	<g stroke="#566585" stroke-width="3" stroke-miterlimit="10">
		<circle r="16.5" cy="573.6" cx="1478.6" fill="#fff"/>
		<path d="m1462.4 574c4.7 1.8 10.3 2.2 15.9 0.7 6.3-1.7 11.4-5.5 14.6-10.2" fill="none"/>
		<path d="m1482.9 589.7c-5.6-1-10.9-6.4-12.9-13.8s-0.1-14.7 4.2-18.4" fill="none"/>
		<path d="m1482.9 589.7c4.4-3.6 6.3-10.9 4.3-18.4s-7.4-13-13.1-13.8" fill="none"/>
		<path d="m1495.2 572.4c-3.5 4.7-8.7 8.4-15 10.1-5.4 1.4-10.7 1.2-15.5-0.3" fill="none"/>
		<path d="m1486.3 558.9c-2.5 3.4-6.3 6.1-11 7.4-4.1 1.1-8.3 0.9-11.9-0.4" fill="none"/>
		<line y2="589.7" x1="1474.3" x2="1482.9" y1="557.5" fill="none"/>
	</g>
	<path stroke="#566585" stroke-width="4" stroke-miterlimit="10" d="m1803.8 525.7h-352.4c-5.5 0-10-4.5-10-10v-49c0-5.5 4.5-10 10-10h352.4c5.5 0 10 4.5 10 10v49c0 5.5-4.5 10-10 10z" fill="#fff"/>
		<g fill="#566585">
			<path d="m1541.6 480.1v3.3h-11.2v5.6h10.1v3.2h-10.1v5.6h11.6v3.3h-15.1v-21h14.7z"/>
			<path d="m1546.8 499c-1.5-1.5-2.3-3.5-2.3-6s0.8-4.5 2.3-5.9c1.5-1.5 3.4-2.2 5.5-2.2s3.8 0.9 5.2 2.7v-8.8h3.4v22.3h-3.4v-2.4c-1.2 1.8-3.1 2.6-5.4 2.6-2 0-3.8-0.7-5.3-2.3zm1.1-5.8c0 1.5 0.5 2.8 1.5 3.7s2.1 1.4 3.5 1.4 2.4-0.5 3.4-1.5c0.9-1 1.4-2.2 1.4-3.7s-0.5-2.8-1.4-3.8c-0.9-1-2.1-1.5-3.4-1.5s-2.5 0.5-3.5 1.5c-1 1.1-1.5 2.3-1.5 3.9z"/>
			<path d="m1576.7 493.8v-8.6h3.4v16h-3.4v-2.9c-0.5 1-1.3 1.8-2.2 2.3-1 0.6-2 0.8-3.1 0.8-1.8 0-3.3-0.6-4.4-1.7s-1.7-2.7-1.7-4.8v-9.8h3.4v8.8c0 2.9 1.2 4.4 3.7 4.4 1.2 0 2.2-0.4 3-1.2 0.9-0.7 1.3-1.9 1.3-3.3z"/>
			<path d="m1591.8 501.3c-2.2 0-4.1-0.8-5.7-2.3s-2.4-3.5-2.4-5.9 0.8-4.4 2.5-6c1.7-1.5 3.7-2.3 6.1-2.3s4.4 0.8 6.1 2.5l-2 2.4c-1.4-1.2-2.8-1.8-4.2-1.8s-2.6 0.5-3.6 1.4-1.5 2.1-1.5 3.6 0.5 2.7 1.5 3.7c1 1 2.3 1.5 3.8 1.5s2.9-0.7 4.2-2l2 2.2c-2 2-4.2 3-6.8 3z"/>
			<path d="m1614.9 501.1h-3.1v-2.1c-1.3 1.6-3.1 2.4-5.3 2.4-1.7 0-3-0.5-4.1-1.4s-1.6-2.2-1.6-3.8c0-1.6 0.6-2.7 1.7-3.5 1.2-0.8 2.7-1.2 4.7-1.2h4.4v-0.6c0-2.1-1.2-3.2-3.5-3.2-1.5 0-3 0.5-4.6 1.6l-1.5-2.1c1.9-1.5 4.1-2.3 6.6-2.3 1.9 0 3.4 0.5 4.6 1.4 1.2 1 1.8 2.4 1.8 4.5v10.3zm-3.3-6v-1.4h-3.8c-2.4 0-3.6 0.8-3.6 2.3 0 0.8 0.3 1.4 0.9 1.8s1.4 0.6 2.5 0.6 2-0.3 2.8-0.9 1.2-1.3 1.2-2.4z"/>
			<path d="m1623.1 487.8v8.1c0 0.8 0.2 1.4 0.6 1.8 0.4 0.5 1 0.7 1.7 0.7s1.4-0.3 2.1-1.1l1.4 2.4c-1.2 1.1-2.5 1.6-3.9 1.6s-2.7-0.5-3.7-1.5-1.5-2.3-1.5-4v-8h-2v-2.7h2v-5h3.4v5h4.2v2.7h-4.3z"/>
			<path d="m1631.6 481.9c-0.4-0.4-0.6-0.9-0.6-1.5s0.2-1.1 0.6-1.5c0.4-0.4 0.9-0.6 1.5-0.6s1.1 0.2 1.5 0.6 0.6 0.9 0.6 1.5-0.2 1.1-0.6 1.5c-0.4 0.4-0.9 0.6-1.5 0.6-0.5 0.1-1-0.2-1.5-0.6zm3.2 19.2h-3.4v-16h3.4v16z"/>
			<path d="m1652.7 498.9c-1.6 1.6-3.6 2.4-6 2.4s-4.4-0.8-6-2.4c-1.6-1.6-2.4-3.5-2.4-5.8s0.8-4.2 2.4-5.8 3.6-2.4 6-2.4 4.4 0.8 6 2.4c1.6 1.6 2.4 3.5 2.4 5.8s-0.8 4.2-2.4 5.8zm-9.6-2c1 1 2.2 1.5 3.6 1.5s2.7-0.5 3.6-1.5c1-1 1.4-2.2 1.4-3.8 0-1.5-0.5-2.8-1.4-3.8-1-1-2.2-1.5-3.6-1.5s-2.7 0.5-3.6 1.5c-1 1-1.4 2.2-1.4 3.8-0.1 1.5 0.4 2.8 1.4 3.8z"/>
			<path d="m1662.1 492.4v8.6h-3.4v-16h3.4v2.9c0.5-1 1.3-1.8 2.2-2.3s2-0.8 3.1-0.8c1.8 0 3.3 0.6 4.4 1.7s1.7 2.7 1.7 4.8v9.8h-3.4v-8.8c0-2.9-1.2-4.4-3.7-4.4-1.2 0-2.2 0.4-3 1.2-0.9 0.7-1.3 1.9-1.3 3.3z"/>
		</g>
	<g stroke="#566585" stroke-width="3" stroke-miterlimit="10">
		<circle r="16.5" cy="491.2" cx="1478.6" fill="#fff"/>
		<path d="m1462.4 491.7c4.7 1.8 10.3 2.2 15.9 0.7 6.3-1.7 11.4-5.5 14.6-10.2" fill="none"/>
		<path d="m1482.9 507.3c-5.6-1-10.9-6.4-12.9-13.8s-0.1-14.7 4.2-18.4" fill="none"/>
		<path d="m1482.9 507.3c4.4-3.6 6.3-10.9 4.3-18.4s-7.4-13-13.1-13.8" fill="none"/>
		<path d="m1495.2 490c-3.5 4.7-8.7 8.4-15 10.1-5.4 1.4-10.7 1.2-15.5-0.3" fill="none"/>
		<path d="m1486.3 476.5c-2.5 3.4-6.3 6.1-11 7.4-4.1 1.1-8.3 0.9-11.9-0.4" fill="none"/>
		<line y2="507.3" x1="1474.3" x2="1482.9" y1="475.1" fill="none"/>
	</g>
	<path stroke="#566585" stroke-width="4" stroke-miterlimit="10" d="m1803.8 443.1h-352.4c-5.5 0-10-4.5-10-10v-49c0-5.5 4.5-10 10-10h352.4c5.5 0 10 4.5 10 10v49c0 5.5-4.5 10-10 10z" fill="#fff"/>
		<g fill="#566585">
			<path d="m1536.4 418.5h-4l-8.4-21h4l6.5 15.7 6.5-15.7h4l-8.6 21z"/>
			<path d="m1559 418.5h-3.1v-2.1c-1.3 1.6-3.1 2.4-5.3 2.4-1.7 0-3-0.5-4.1-1.4s-1.6-2.2-1.6-3.8c0-1.6 0.6-2.7 1.7-3.5 1.2-0.8 2.7-1.2 4.7-1.2h4.4v-0.6c0-2.1-1.2-3.2-3.5-3.2-1.5 0-3 0.5-4.6 1.6l-1.5-2.1c1.9-1.5 4.1-2.3 6.6-2.3 1.9 0 3.4 0.5 4.6 1.4 1.2 1 1.8 2.4 1.8 4.5v10.3zm-3.3-6v-1.4h-3.8c-2.4 0-3.6 0.8-3.6 2.3 0 0.8 0.3 1.4 0.9 1.8s1.4 0.6 2.5 0.6 2-0.3 2.8-0.9 1.2-1.4 1.2-2.4z"/>
			<path d="m1566.9 418.5h-3.4v-22.3h3.4v22.3z"/>
			<path d="m1571.6 399.3c-0.4-0.4-0.6-0.9-0.6-1.5s0.2-1.1 0.6-1.5c0.4-0.4 0.9-0.6 1.5-0.6s1.1 0.2 1.5 0.6 0.6 0.9 0.6 1.5-0.2 1.1-0.6 1.5c-0.4 0.4-0.9 0.6-1.5 0.6-0.5 0-1-0.2-1.5-0.6zm3.2 19.2h-3.4v-16h3.4v16z"/>
			<path d="m1580.6 416.4c-1.5-1.5-2.3-3.5-2.3-6s0.8-4.5 2.3-5.9c1.5-1.5 3.4-2.2 5.5-2.2s3.8 0.9 5.2 2.7v-8.8h3.4v22.3h-3.4v-2.4c-1.2 1.8-3.1 2.6-5.4 2.6-2 0-3.8-0.8-5.3-2.3zm1.1-5.8c0 1.5 0.5 2.8 1.5 3.7s2.1 1.4 3.5 1.4 2.4-0.5 3.4-1.5c0.9-1 1.4-2.2 1.4-3.7s-0.5-2.8-1.4-3.8c-0.9-1-2.1-1.5-3.4-1.5s-2.5 0.5-3.5 1.5c-1 1-1.5 2.3-1.5 3.9z"/>
			<path d="m1612.3 418.5h-3.1v-2.1c-1.3 1.6-3.1 2.4-5.3 2.4-1.7 0-3-0.5-4.1-1.4s-1.6-2.2-1.6-3.8c0-1.6 0.6-2.7 1.7-3.5 1.2-0.8 2.7-1.2 4.7-1.2h4.4v-0.6c0-2.1-1.2-3.2-3.5-3.2-1.5 0-3 0.5-4.6 1.6l-1.5-2.1c1.9-1.5 4.1-2.3 6.6-2.3 1.9 0 3.4 0.5 4.6 1.4 1.2 1 1.8 2.4 1.8 4.5v10.3zm-3.3-6v-1.4h-3.8c-2.4 0-3.6 0.8-3.6 2.3 0 0.8 0.3 1.4 0.9 1.8s1.4 0.6 2.5 0.6 2-0.3 2.8-0.9 1.2-1.4 1.2-2.4z"/>
			<path d="m1620.5 405.2v8.1c0 0.8 0.2 1.4 0.6 1.8 0.4 0.5 1 0.7 1.7 0.7s1.4-0.3 2.1-1.1l1.4 2.4c-1.2 1.1-2.5 1.6-3.9 1.6s-2.7-0.5-3.7-1.5-1.5-2.3-1.5-4v-8h-2v-2.7h2v-5h3.4v5h4.2v2.7h-4.3z"/>
			<path d="m1629 399.3c-0.4-0.4-0.6-0.9-0.6-1.5s0.2-1.1 0.6-1.5c0.4-0.4 0.9-0.6 1.5-0.6s1.1 0.2 1.5 0.6 0.6 0.9 0.6 1.5-0.2 1.1-0.6 1.5c-0.4 0.4-0.9 0.6-1.5 0.6-0.5 0-1-0.2-1.5-0.6zm3.2 19.2h-3.4v-16h3.4v16z"/>
			<path d="m1650.1 416.3c-1.6 1.6-3.6 2.4-6 2.4s-4.4-0.8-6-2.4-2.4-3.5-2.4-5.8 0.8-4.2 2.4-5.8 3.6-2.4 6-2.4 4.4 0.8 6 2.4 2.4 3.5 2.4 5.8-0.8 4.2-2.4 5.8zm-9.6-2.1c1 1 2.2 1.5 3.6 1.5 1.5 0 2.7-0.5 3.6-1.5 1-1 1.4-2.2 1.4-3.8 0-1.5-0.5-2.8-1.4-3.8-1-1-2.2-1.5-3.6-1.5-1.5 0-2.7 0.5-3.6 1.5-1 1-1.4 2.2-1.4 3.8-0.1 1.6 0.4 2.9 1.4 3.8z"/>
			<path d="m1659.5 409.8v8.6h-3.4v-16h3.4v2.9c0.5-1 1.3-1.8 2.2-2.3 1-0.6 2-0.8 3.1-0.8 1.8 0 3.3 0.6 4.4 1.7s1.7 2.7 1.7 4.8v9.8h-3.4v-8.8c0-2.9-1.2-4.4-3.7-4.4-1.2 0-2.2 0.4-3 1.2-0.9 0.7-1.3 1.8-1.3 3.3z"/>
		</g>
	<g stroke="#566585" stroke-width="3" stroke-miterlimit="10">
		<circle r="16.5" cy="408.6" cx="1478.6" fill="#fff"/>
		<path d="m1462.4 409c4.7 1.8 10.3 2.2 15.9 0.7 6.3-1.7 11.4-5.5 14.6-10.2" fill="none"/>
		<path d="m1482.9 424.7c-5.6-1-10.9-6.4-12.9-13.8s-0.1-14.7 4.2-18.4" fill="none"/>
		<path d="m1482.9 424.7c4.4-3.6 6.3-10.9 4.3-18.4s-7.4-13-13.1-13.8" fill="none"/>
		<path d="m1495.2 407.4c-3.5 4.7-8.7 8.4-15 10.1-5.4 1.4-10.7 1.2-15.5-0.3" fill="none"/>
		<path d="m1486.3 393.9c-2.5 3.4-6.3 6.1-11 7.4-4.1 1.1-8.3 0.9-11.9-0.4" fill="none"/>
		<line y2="424.7" x1="1474.3" x2="1482.9" y1="392.5" fill="none"/>
	</g>
	<path stroke="#566585" stroke-width="4" stroke-miterlimit="10" d="m1803.8 360.7h-352.4c-5.5 0-10-4.5-10-10v-49c0-5.5 4.5-10 10-10h352.4c5.5 0 10 4.5 10 10v49c0 5.5-4.5 10-10 10z" fill="#fff"/>
		<g fill="#566585">
			<path d="m1541 316.9c1.5 1.2 2.2 3.1 2.2 5.6s-0.7 4.4-2.2 5.6-3.8 1.8-6.9 1.8h-3.7v6.2h-3.5v-21h7.2c3.1 0 5.5 0.6 6.9 1.8zm-2.5 8.7c0.7-0.8 1.1-1.9 1.1-3.3 0-1.5-0.5-2.5-1.4-3.1s-2.3-0.9-4.2-0.9h-3.6v8.4h4.1c2 0 3.3-0.4 4-1.1z"/>
			<path d="m1554.9 323.3c-1.7 0-2.9 0.5-3.8 1.6s-1.3 2.5-1.3 4.4v6.8h-3.4v-16h3.4v3.2c0.5-1 1.3-1.8 2.2-2.5 0.9-0.6 1.9-1 3-1v3.4c0 0.1-0.1 0.1-0.1 0.1z"/>
			<path d="m1572.8 329.6h-12.5c0.1 1.2 0.6 2.1 1.6 2.8s2.1 1.1 3.4 1.1c2 0 3.5-0.6 4.6-1.9l1.9 2.1c-1.7 1.8-4 2.7-6.7 2.7-2.2 0-4.1-0.7-5.7-2.2s-2.4-3.5-2.4-6 0.8-4.5 2.4-6 3.5-2.2 5.7-2.2 4 0.7 5.5 2c1.5 1.3 2.3 3.1 2.3 5.4v2.2zm-12.5-2.7h9.2c0-1.3-0.4-2.4-1.3-3.1s-1.9-1.1-3.1-1.1-2.3 0.4-3.3 1.1-1.5 1.8-1.5 3.1z"/>
			<path d="m1577.7 334c-1.5-1.5-2.3-3.5-2.3-6s0.8-4.5 2.3-5.9c1.5-1.5 3.4-2.2 5.5-2.2s3.8 0.9 5.2 2.7v-8.8h3.4v22.3h-3.4v-2.4c-1.2 1.8-3.1 2.6-5.4 2.6-2 0-3.8-0.7-5.3-2.3zm1.1-5.8c0 1.5 0.5 2.8 1.5 3.7s2.1 1.4 3.5 1.4 2.4-0.5 3.4-1.5c0.9-1 1.4-2.2 1.4-3.7s-0.5-2.8-1.4-3.8c-0.9-1-2.1-1.5-3.4-1.5s-2.5 0.5-3.5 1.5c-1 1.1-1.5 2.3-1.5 3.9z"/>
			<path d="m1596.6 316.9c-0.4-0.4-0.6-0.9-0.6-1.5s0.2-1.1 0.6-1.5c0.4-0.4 0.9-0.6 1.5-0.6s1.1 0.2 1.5 0.6 0.6 0.9 0.6 1.5-0.2 1.1-0.6 1.5c-0.4 0.4-0.9 0.6-1.5 0.6-0.6 0.1-1.1-0.2-1.5-0.6zm3.1 19.2h-3.4v-16h3.4v16z"/>
			<path d="m1611.4 336.3c-2.2 0-4.1-0.8-5.7-2.3s-2.4-3.5-2.4-5.9 0.8-4.4 2.5-6c1.7-1.5 3.7-2.3 6.1-2.3s4.4 0.8 6.1 2.5l-2 2.4c-1.4-1.2-2.8-1.8-4.2-1.8s-2.6 0.5-3.6 1.4-1.5 2.1-1.5 3.6 0.5 2.7 1.5 3.7c1 1 2.3 1.5 3.8 1.5s2.9-0.7 4.2-2l2 2.2c-2.1 2-4.3 3-6.8 3z"/>
			<path d="m1625.7 322.8v8.1c0 0.8 0.2 1.4 0.6 1.8 0.4 0.5 1 0.7 1.7 0.7s1.4-0.3 2.1-1.1l1.4 2.4c-1.2 1.1-2.5 1.6-3.9 1.6s-2.7-0.5-3.7-1.5-1.5-2.3-1.5-4v-8h-2v-2.7h2v-5h3.4v5h4.2v2.7h-4.3z"/>
			<path d="m1634.2 316.9c-0.4-0.4-0.6-0.9-0.6-1.5s0.2-1.1 0.6-1.5c0.4-0.4 0.9-0.6 1.5-0.6s1.1 0.2 1.5 0.6 0.6 0.9 0.6 1.5-0.2 1.1-0.6 1.5c-0.4 0.4-0.9 0.6-1.5 0.6-0.6 0.1-1.1-0.2-1.5-0.6zm3.2 19.2h-3.4v-16h3.4v16z"/>
			<path d="m1655.3 333.9c-1.6 1.6-3.6 2.4-6 2.4s-4.4-0.8-6-2.4c-1.6-1.6-2.4-3.5-2.4-5.8s0.8-4.2 2.4-5.8 3.6-2.4 6-2.4 4.4 0.8 6 2.4c1.6 1.6 2.4 3.5 2.4 5.8s-0.8 4.2-2.4 5.8zm-9.7-2c1 1 2.2 1.5 3.6 1.5s2.7-0.5 3.6-1.5c1-1 1.4-2.2 1.4-3.8 0-1.5-0.5-2.8-1.4-3.8-1-1-2.2-1.5-3.6-1.5s-2.7 0.5-3.6 1.5c-1 1-1.4 2.2-1.4 3.8 0 1.5 0.5 2.8 1.4 3.8z"/>
			<path d="m1664.6 327.4v8.6h-3.4v-16h3.4v2.9c0.5-1 1.3-1.8 2.2-2.3 1-0.6 2-0.8 3.1-0.8 1.8 0 3.3 0.6 4.4 1.7s1.7 2.7 1.7 4.8v9.8h-3.4v-8.8c0-2.9-1.2-4.4-3.7-4.4-1.2 0-2.2 0.4-3 1.2-0.8 0.7-1.3 1.9-1.3 3.3z"/>
		</g>
	<g stroke="#566585" stroke-width="3" stroke-miterlimit="10">
		<circle r="16.5" cy="326.2" cx="1478.6" fill="#fff"/>
		<path d="m1462.4 326.7c4.7 1.8 10.3 2.2 15.9 0.7 6.3-1.7 11.4-5.5 14.6-10.2" fill="none"/>
		<path d="m1482.9 342.3c-5.6-1-10.9-6.4-12.9-13.8s-0.1-14.7 4.2-18.4" fill="none"/>
		<path d="m1482.9 342.3c4.4-3.6 6.3-10.9 4.3-18.4s-7.4-13-13.1-13.8" fill="none"/>
		<path d="m1495.2 325c-3.5 4.7-8.7 8.4-15 10.1-5.4 1.4-10.7 1.2-15.5-0.3" fill="none"/>
		<path d="m1486.3 311.5c-2.5 3.4-6.3 6.1-11 7.4-4.1 1.1-8.3 0.9-11.9-0.4" fill="none"/>
		<line y2="342.3" x1="1474.3" x2="1482.9" y1="310.1" fill="none"/>
	</g>
	<path stroke="#566585" stroke-width="4" stroke-miterlimit="10" d="m1803.8 279.1h-352.4c-5.5 0-10-4.5-10-10v-49c0-5.5 4.5-10 10-10h352.4c5.5 0 10 4.5 10 10v49c0 5.5-4.5 10-10 10z" fill="#fff"/>
		<g fill="#566585">
			<path d="m1530.4 254.5h-3.5v-21h5.5l6.3 13.2 6.3-13.2h5.5v21h-3.5v-16.4l-7.3 14.6h-2l-7.3-14.6v16.4z"/>
			<path d="m1569.1 252.3c-1.6 1.6-3.6 2.4-6 2.4s-4.4-0.8-6-2.4c-1.6-1.6-2.4-3.5-2.4-5.8s0.8-4.2 2.4-5.8 3.6-2.4 6-2.4 4.4 0.8 6 2.4c1.6 1.6 2.4 3.5 2.4 5.8s-0.8 4.2-2.4 5.8zm-9.7-2.1c1 1 2.2 1.5 3.6 1.5s2.7-0.5 3.6-1.5c1-1 1.4-2.2 1.4-3.8 0-1.5-0.5-2.8-1.4-3.8-1-1-2.2-1.5-3.6-1.5s-2.7 0.5-3.6 1.5c-1 1-1.4 2.2-1.4 3.8s0.5 2.9 1.4 3.8z"/>
			<path d="m1578.4 245.8v8.6h-3.4v-16h3.4v2.9c0.5-1 1.3-1.8 2.2-2.3s2-0.8 3.1-0.8c1.8 0 3.3 0.6 4.4 1.7s1.7 2.7 1.7 4.8v9.8h-3.4v-8.8c0-2.9-1.2-4.4-3.7-4.4-1.2 0-2.2 0.4-3 1.2-0.8 0.7-1.3 1.8-1.3 3.3z"/>
			<path d="m1594.4 235.3c-0.4-0.4-0.6-0.9-0.6-1.5s0.2-1.1 0.6-1.5c0.4-0.4 0.9-0.6 1.5-0.6s1.1 0.2 1.5 0.6 0.6 0.9 0.6 1.5-0.2 1.1-0.6 1.5c-0.4 0.4-0.9 0.6-1.5 0.6s-1.1-0.2-1.5-0.6zm3.2 19.2h-3.4v-16h3.4v16z"/>
			<path d="m1606 241.2v8.1c0 0.8 0.2 1.4 0.6 1.8 0.4 0.5 1 0.7 1.7 0.7s1.4-0.3 2.1-1.1l1.4 2.4c-1.2 1.1-2.5 1.6-3.9 1.6s-2.7-0.5-3.7-1.5-1.5-2.3-1.5-4v-8h-2v-2.7h2v-5h3.4v5h4.2v2.7h-4.3z"/>
			<path d="m1627.1 252.3c-1.6 1.6-3.6 2.4-6 2.4s-4.4-0.8-6-2.4c-1.6-1.6-2.4-3.5-2.4-5.8s0.8-4.2 2.4-5.8 3.6-2.4 6-2.4 4.4 0.8 6 2.4c1.6 1.6 2.4 3.5 2.4 5.8s-0.8 4.2-2.4 5.8zm-9.6-2.1c1 1 2.2 1.5 3.6 1.5s2.7-0.5 3.6-1.5c1-1 1.4-2.2 1.4-3.8 0-1.5-0.5-2.8-1.4-3.8-1-1-2.2-1.5-3.6-1.5s-2.7 0.5-3.6 1.5c-1 1-1.4 2.2-1.4 3.8s0.4 2.9 1.4 3.8z"/>
			<path d="m1641.5 241.6c-1.7 0-2.9 0.5-3.8 1.6s-1.3 2.5-1.3 4.4v6.8h-3.4v-16h3.4v3.2c0.5-1 1.3-1.8 2.2-2.5 0.9-0.6 1.9-1 3-1v3.4c0 0.1 0 0.1-0.1 0.1z"/>
			<path d="m1644.8 235.3c-0.4-0.4-0.6-0.9-0.6-1.5s0.2-1.1 0.6-1.5c0.4-0.4 0.9-0.6 1.5-0.6s1.1 0.2 1.5 0.6c0.4 0.4 0.6 0.9 0.6 1.5s-0.2 1.1-0.6 1.5c-0.4 0.4-0.9 0.6-1.5 0.6s-1.1-0.2-1.5-0.6zm3.1 19.2h-3.4v-16h3.4v16z"/>
			<path d="m1655.9 245.8v8.6h-3.4v-16h3.4v2.9c0.5-1 1.3-1.8 2.2-2.3s2-0.8 3.1-0.8c1.8 0 3.3 0.6 4.4 1.7s1.7 2.7 1.7 4.8v9.8h-3.4v-8.8c0-2.9-1.2-4.4-3.7-4.4-1.2 0-2.2 0.4-3 1.2-0.9 0.7-1.3 1.8-1.3 3.3z"/>
			<path d="m1686.5 238.5v13.9c0 2.8-0.8 4.9-2.3 6.4-1.5 1.4-3.5 2.1-5.9 2.1s-4.6-0.8-6.5-2.3l1.6-2.6c1.6 1.2 3.1 1.8 4.7 1.8s2.9-0.4 3.8-1.2 1.4-2.1 1.4-3.9v-2c-0.5 0.9-1.2 1.7-2.1 2.3s-2 0.8-3.1 0.8c-2.1 0-3.9-0.7-5.2-2.2-1.4-1.5-2-3.3-2-5.5s0.7-4 2-5.5c1.4-1.5 3.1-2.2 5.2-2.2s3.8 0.9 5.2 2.6v-2.4h3.2zm-12.5 7.4c0 1.3 0.4 2.4 1.2 3.4s1.9 1.4 3.3 1.4 2.5-0.5 3.3-1.4c0.9-0.9 1.3-2.1 1.3-3.4s-0.4-2.5-1.3-3.5c-0.9-1-2-1.4-3.3-1.4s-2.4 0.5-3.3 1.5c-0.8 0.9-1.2 2.1-1.2 3.4z"/>
		</g>
	<g stroke="#566585" stroke-width="3" stroke-miterlimit="10">
		<circle r="16.5" cy="244.6" cx="1478.6" fill="#fff"/>
		<path d="m1462.4 245c4.7 1.8 10.3 2.2 15.9 0.7 6.3-1.7 11.4-5.5 14.6-10.2" fill="none"/>
		<path d="m1482.9 260.7c-5.6-1-10.9-6.4-12.9-13.8s-0.1-14.7 4.2-18.4" fill="none"/>
		<path d="m1482.9 260.7c4.4-3.6 6.3-10.9 4.3-18.4s-7.4-13-13.1-13.8" fill="none"/>
		<path d="m1495.2 243.4c-3.5 4.7-8.7 8.4-15 10.1-5.4 1.4-10.7 1.2-15.5-0.3" fill="none"/>
		<path d="m1486.3 229.9c-2.5 3.4-6.3 6.1-11 7.4-4.1 1.1-8.3 0.9-11.9-0.4" fill="none"/>
		<line y2="260.7" x1="1474.3" x2="1482.9" y1="228.5" fill="none"/>
	</g>
		<path stroke="#566585" stroke-width="4" stroke-miterlimit="10" d="m1803.8 196.7h-352.4c-5.5 0-10-4.5-10-10v-49c0-5.5 4.5-10 10-10h352.4c5.5 0 10 4.5 10 10v49c0 5.5-4.5 10-10 10z" fill="#fff"/>
			<g fill="#566585">
				<path d="m1541 152.9c1.5 1.2 2.2 3.1 2.2 5.6s-0.7 4.4-2.2 5.6-3.8 1.8-6.9 1.8h-3.7v6.2h-3.5v-21h7.2c3.1 0 5.5 0.6 6.9 1.8zm-2.5 8.7c0.7-0.8 1.1-1.9 1.1-3.3 0-1.5-0.5-2.5-1.4-3.1s-2.3-0.9-4.2-0.9h-3.6v8.4h4.1c2 0 3.3-0.4 4-1.1z"/>
				<path d="m1559.9 169.9c-1.6 1.6-3.6 2.4-6 2.4s-4.4-0.8-6-2.4c-1.6-1.6-2.4-3.5-2.4-5.8s0.8-4.2 2.4-5.8 3.6-2.4 6-2.4 4.4 0.8 6 2.4c1.6 1.6 2.4 3.5 2.4 5.8s-0.8 4.2-2.4 5.8zm-9.6-2c1 1 2.2 1.5 3.6 1.5s2.7-0.5 3.6-1.5c1-1 1.4-2.2 1.4-3.8 0-1.5-0.5-2.8-1.4-3.8-1-1-2.2-1.5-3.6-1.5s-2.7 0.5-3.6 1.5c-1 1-1.4 2.2-1.4 3.8 0 1.5 0.4 2.8 1.4 3.8z"/>
				<path d="m1574.5 155.9c2.1 0 4 0.7 5.5 2.2s2.3 3.5 2.3 5.9c0 2.5-0.8 4.5-2.3 6s-3.3 2.3-5.3 2.3-3.8-0.9-5.4-2.6v8.2h-3.4v-21.8h3.4v2.8c1.3-2 3.1-3 5.2-3zm-5.3 8.2c0 1.5 0.5 2.8 1.4 3.7 0.9 1 2 1.5 3.4 1.5s2.5-0.5 3.5-1.4 1.5-2.2 1.5-3.7c0-1.5-0.5-2.8-1.4-3.8-1-1-2.1-1.5-3.5-1.5s-2.5 0.5-3.4 1.5c-1 0.9-1.5 2.2-1.5 3.7z"/>
				<path d="m1597.1 164.8v-8.6h3.4v16h-3.4v-2.9c-0.5 1-1.3 1.8-2.2 2.3-1 0.6-2 0.8-3.1 0.8-1.8 0-3.3-0.6-4.4-1.7s-1.7-2.7-1.7-4.8v-9.8h3.4v8.8c0 2.9 1.2 4.4 3.7 4.4 1.2 0 2.2-0.4 3-1.2 0.9-0.7 1.3-1.9 1.3-3.3z"/>
				<path d="m1608.4 172.1h-3.4v-22.3h3.4v22.3z"/>
				<path d="m1626 172.1h-3.1v-2.1c-1.3 1.6-3.1 2.4-5.3 2.4-1.7 0-3-0.5-4.1-1.4s-1.6-2.2-1.6-3.8c0-1.6 0.6-2.7 1.7-3.5 1.2-0.8 2.7-1.2 4.7-1.2h4.4v-0.6c0-2.1-1.2-3.2-3.5-3.2-1.5 0-3 0.5-4.6 1.6l-1.5-2.1c1.9-1.5 4.1-2.3 6.6-2.3 1.9 0 3.4 0.5 4.6 1.4 1.2 1 1.8 2.4 1.8 4.5v10.3zm-3.4-6v-1.4h-3.8c-2.4 0-3.6 0.8-3.6 2.3 0 0.8 0.3 1.4 0.9 1.8s1.4 0.6 2.5 0.6 2-0.3 2.8-0.9 1.2-1.3 1.2-2.4z"/>
				<path d="m1634.2 158.8v8.1c0 0.8 0.2 1.4 0.6 1.8 0.4 0.5 1 0.7 1.7 0.7s1.4-0.3 2.1-1.1l1.4 2.4c-1.2 1.1-2.5 1.6-3.9 1.6s-2.7-0.5-3.7-1.5-1.5-2.3-1.5-4v-8h-2v-2.7h2v-5h3.4v5h4.2v2.7h-4.3z"/>
				<path d="m1642.7 152.9c-0.4-0.4-0.6-0.9-0.6-1.5s0.2-1.1 0.6-1.5c0.4-0.4 0.9-0.6 1.5-0.6s1.1 0.2 1.5 0.6 0.6 0.9 0.6 1.5-0.2 1.1-0.6 1.5c-0.4 0.4-0.9 0.6-1.5 0.6-0.6 0.1-1.1-0.2-1.5-0.6zm3.2 19.2h-3.4v-16h3.4v16z"/>
				<path d="m1663.8 169.9c-1.6 1.6-3.6 2.4-6 2.4s-4.4-0.8-6-2.4c-1.6-1.6-2.4-3.5-2.4-5.8s0.8-4.2 2.4-5.8 3.6-2.4 6-2.4 4.4 0.8 6 2.4c1.6 1.6 2.4 3.5 2.4 5.8s-0.8 4.2-2.4 5.8zm-9.7-2c1 1 2.2 1.5 3.6 1.5 1.5 0 2.7-0.5 3.6-1.5 1-1 1.4-2.2 1.4-3.8 0-1.5-0.5-2.8-1.4-3.8-1-1-2.2-1.5-3.6-1.5-1.5 0-2.7 0.5-3.6 1.5-1 1-1.4 2.2-1.4 3.8 0 1.5 0.5 2.8 1.4 3.8z"/>
				<path d="m1673.2 163.4v8.6h-3.4v-16h3.4v2.9c0.5-1 1.3-1.8 2.2-2.3 1-0.6 2-0.8 3.1-0.8 1.8 0 3.3 0.6 4.4 1.7s1.7 2.7 1.7 4.8v9.8h-3.4v-8.8c0-2.9-1.2-4.4-3.7-4.4-1.2 0-2.2 0.4-3 1.2-0.9 0.7-1.3 1.9-1.3 3.3z"/>
				<path d="m1704.2 153.9c-1 0-1.9 0.2-2.5 0.6-0.7 0.4-1 1.1-1 1.9 0 0.9 0.3 1.5 1 2s2.1 0.9 4.2 1.5c2.2 0.5 3.8 1.3 4.9 2.2s1.6 2.3 1.6 4.2-0.7 3.3-2.1 4.5c-1.4 1.1-3.2 1.7-5.4 1.7-3.3 0-6.2-1.1-8.7-3.4l2.2-2.7c2.1 1.8 4.3 2.8 6.6 2.8 1.1 0 2-0.2 2.7-0.7s1-1.1 1-2c0-0.8-0.3-1.4-0.9-1.9s-1.7-0.9-3.3-1.2c-1.5-0.4-2.7-0.7-3.5-1s-1.5-0.7-2.1-1.2c-1.2-0.9-1.9-2.4-1.9-4.3s0.7-3.4 2.1-4.5 3.2-1.6 5.2-1.6c1.3 0 2.7 0.2 4 0.7 1.3 0.4 2.5 1.1 3.4 1.9l-1.9 2.7c-0.6-0.6-1.5-1-2.5-1.4-1-0.7-2-0.8-3.1-0.8z"/>
				<path d="m1719.8 158.8v8.1c0 0.8 0.2 1.4 0.6 1.8 0.4 0.5 1 0.7 1.7 0.7s1.4-0.3 2.1-1.1l1.4 2.4c-1.2 1.1-2.5 1.6-3.9 1.6s-2.7-0.5-3.7-1.5c-1-1-1.5-2.3-1.5-4v-8h-2v-2.7h2v-5h3.4v5h4.2v2.7h-4.3z"/>
				<path d="m1738.7 164.8v-8.6h3.4v16h-3.4v-2.9c-0.5 1-1.3 1.8-2.2 2.3s-2 0.8-3.1 0.8c-1.8 0-3.3-0.6-4.4-1.7s-1.7-2.7-1.7-4.8v-9.8h3.4v8.8c0 2.9 1.2 4.4 3.7 4.4 1.2 0 2.2-0.4 3-1.2 0.9-0.7 1.3-1.9 1.3-3.3z"/>
				<path d="m1748 170c-1.5-1.5-2.3-3.5-2.3-6s0.8-4.5 2.3-5.9c1.5-1.5 3.4-2.2 5.5-2.2s3.8 0.9 5.2 2.7v-8.8h3.4v22.3h-3.4v-2.4c-1.2 1.8-3.1 2.6-5.4 2.6-2 0-3.8-0.7-5.3-2.3zm1.1-5.8c0 1.5 0.5 2.8 1.5 3.7s2.1 1.4 3.5 1.4c1.3 0 2.4-0.5 3.4-1.5 0.9-1 1.4-2.2 1.4-3.7s-0.5-2.8-1.4-3.8c-0.9-1-2.1-1.5-3.4-1.5s-2.5 0.5-3.5 1.5c-1 1.1-1.5 2.3-1.5 3.9z"/>
				<path d="m1768.8 178.4c-1.5 0-2.8-0.5-4-1.6l1.5-2.7c0.7 0.7 1.4 1 2.2 1s1.4-0.3 1.8-0.8c0.5-0.5 0.7-1.1 0.7-1.8 0-0.3-2.2-5.8-6.5-16.4h3.6l4.8 11.8 4.8-11.8h3.6l-7.7 19c-0.5 1-1.1 1.9-2 2.5-0.8 0.5-1.7 0.8-2.8 0.8z"/>
			</g>
		<g stroke="#566585" stroke-width="3" stroke-miterlimit="10">
			<circle r="16.5" cy="162.2" cx="1478.6" fill="#fff"/>
			<path d="m1462.4 162.7c4.7 1.8 10.3 2.2 15.9 0.7 6.3-1.7 11.4-5.5 14.6-10.2" fill="none"/>
			<path d="m1482.9 178.3c-5.6-1-10.9-6.4-12.9-13.8s-0.1-14.7 4.2-18.4" fill="none"/>
			<path d="m1482.9 178.3c4.4-3.6 6.3-10.9 4.3-18.4s-7.4-13-13.1-13.8" fill="none"/>
			<path d="m1495.2 161c-3.5 4.7-8.7 8.4-15 10.1-5.4 1.4-10.7 1.2-15.5-0.3" fill="none"/>
			<path d="m1486.3 147.5c-2.5 3.4-6.3 6.1-11 7.4-4.1 1.1-8.3 0.9-11.9-0.4" fill="none"/>
			<line y2="178.3" x1="1474.3" x2="1482.9" y1="146.1" fill="none"/>
		</g>
	<polygon stroke="#fff" stroke-width="4" stroke-miterlimit="10" points="451.3 321.1 403.1 284.7 403.1 303.8 356.8 303.8 356.8 338.4 403.1 338.4 403.1 357.5" fill="#566585"/>
	<polygon stroke="#fff" stroke-width="4" stroke-miterlimit="10" points="451.3 604.4 403.1 568.1 403.1 587.1 356.8 587.1 356.8 621.7 403.1 621.7 403.1 640.8" fill="#566585"/>
	<line y2="804.6" x1="698.2" x2="698.2" stroke="#566585" stroke-miterlimit="10" y1="735.2" stroke-width="4" fill="none"/>
	<line y2="856.8" x1="1083.2" x2="690.1" stroke="#566585" stroke-miterlimit="10" y1="856.8" stroke-width="4" fill="none"/>
	<polyline stroke="#566585" stroke-width="4" stroke-miterlimit="10" points="1231.7 856.9 1313.8 718.9 1441.1 718.9" fill="none"/>
	<g stroke="#566585" stroke-width="4" stroke-miterlimit="10" fill="none">
		<polyline points="1441.1 162.2 1313.8 162.2 1231.7 381.1 1313.8 573.6 1441.1 573.6"/>
		<polyline points="1441.1 326.7 1313.8 326.7 1231.7 381.1 1313.8 409 1441.1 409"/>
		<polyline points="1441.1 491.3 1313.8 491.3 1231.7 381.1 1313.8 244.5 1441.1 244.5"/>
	</g>
	<polyline stroke="#566585" stroke-width="4" stroke-miterlimit="10" points="1231.7 856.9 1313.8 800.6 1441.1 800.6" fill="none"/>
	<polyline stroke="#566585" stroke-width="4" stroke-miterlimit="10" points="1231.7 856.9 1313.8 884.2 1441.1 884.2" fill="none"/>
	<polyline stroke="#566585" stroke-width="4" stroke-miterlimit="10" points="1231.7 851.9 1313.8 965.9 1441.1 965.9" fill="none"/>
		<g id="Settings_10_">
			<path stroke="#566585" stroke-width="4" stroke-miterlimit="10" d="m1224.3 373.7c-0.3 0-0.5 0.1-0.8 0.1v-23.8c0-19.6-16-35.6-35.6-35.6h-62.2c-19.6 0-35.6 16-35.6 35.6v23.8c-3.7 0.4-6.6 3.5-6.6 7.3s2.9 6.9 6.6 7.3v23.8c0 19.6 16 35.6 35.6 35.6h62.2c19.6 0 35.6-16 35.6-35.6v-23.8c0.3 0 0.5 0.1 0.8 0.1 4.1 0 7.4-3.3 7.4-7.4s-3.3-7.4-7.4-7.4z" fill="#fff"/>
				<path stroke="#fff" stroke-width="4" stroke-miterlimit="10" d="m1208.4 375.3c-0.2-1.5-1.9-2.6-3.3-2.6-4.8 0-9-2.8-10.7-7.1-1.8-4.4-0.6-9.6 2.9-12.8 1.1-1 1.3-2.7 0.3-3.9-2.4-3.1-5.2-5.9-8.2-8.3-1.2-0.9-2.9-0.8-3.9 0.3-3.1 3.4-8.6 4.7-12.9 2.9-4.5-1.9-7.3-6.4-7-11.3 0.1-1.5-1-2.9-2.5-3-3.9-0.4-7.8-0.5-11.7 0-1.5 0.2-2.6 1.5-2.6 3 0.2 4.8-2.7 9.3-7.1 11.1-4.2 1.7-9.8 0.5-12.8-2.9-1-1.1-2.7-1.3-3.9-0.3-3.1 2.4-5.9 5.2-8.4 8.3-1 1.2-0.8 2.9 0.3 3.9 3.6 3.3 4.8 8.5 2.9 12.9-1.8 4.3-6.2 7-11.3 7-1.6-0.1-2.8 1.1-3 2.5-0.5 3.9-0.5 7.9 0 11.8 0.2 1.5 1.9 2.6 3.4 2.6 4.5-0.1 8.9 2.7 10.7 7.1s0.6 9.6-2.9 12.8c-1.1 1-1.3 2.7-0.3 3.9 2.4 3.1 5.2 5.9 8.2 8.3 1.2 1 2.9 0.8 3.9-0.3 3.1-3.4 8.7-4.7 12.9-2.9 4.5 1.9 7.3 6.4 7 11.3-0.1 1.5 1 2.9 2.5 3 2 0.2 4 0.3 6 0.3 1.9 0 3.8-0.1 5.7-0.3 1.5-0.2 2.6-1.5 2.6-3-0.2-4.8 2.7-9.3 7.1-11.1 4.3-1.7 9.8-0.5 12.8 2.9 1 1.1 2.7 1.2 3.9 0.3 3.1-2.4 5.9-5.2 8.4-8.3 1-1.2 0.8-2.9-0.3-3.9-3.6-3.3-4.8-8.5-2.9-12.9 1.8-4.2 6-7 10.6-7h0.6c1.5 0.1 2.9-1 3-2.5 0.4-3.9 0.4-7.9 0-11.8zm-51.5 23.2c-9.5 0-17.3-7.8-17.3-17.3s7.8-17.3 17.3-17.3 17.3 7.8 17.3 17.3-7.8 17.3-17.3 17.3z" fill="#566585"/>
		</g>
		<g stroke="#566585" stroke-width="3" stroke-miterlimit="10">
			<circle r="40.6" cy="424.7" cx="1199.4" fill="#fff"/>
			<path d="m1159.6 425.8c11.7 4.5 25.4 5.5 39.2 1.8 15.5-4.2 28.1-13.5 35.9-25.1" fill="none"/>
			<path d="m1210.1 464.3c-13.8-2.4-26.8-15.6-31.7-34-4.9-18.3-0.3-36.3 10.4-45.2" fill="none"/>
			<path d="m1210.1 464.4c10.8-8.9 15.5-26.9 10.5-45.4-5-18.6-18.2-31.9-32.2-34.1" fill="none"/>
			<path d="m1240.3 421.9c-8.5 11.5-21.4 20.6-37 24.8-13.2 3.5-26.4 3.1-38.2-0.6" fill="none"/>
			<path d="m1218.4 388.5c-6.1 8.4-15.5 15.1-27 18.2-10.2 2.7-20.4 2.2-29.2-0.9" fill="none"/>
			<line y2="464.4" x1="1188.8" x2="1210.1" y1="385.1" fill="none"/>
		</g>
	<path stroke="#566585" stroke-width="4" stroke-miterlimit="10" d="m874.5 300.9" fill="none"/>
	<g stroke="#566585" stroke-width="4" stroke-miterlimit="10" fill="none">
		<line y2="489.9" x1="1156.7" x2="1156.9" y1="759.9"/>
		<polyline points="1143.9 505.1 1156.8 487.1 1169.6 505.1"/>
		<polyline points="1169.6 742.5 1156.8 760.4 1143.9 742.5"/>
	</g>
	<rect y="0" x="1.1" height="72.9" width="1817" fill="#566585"/>
	<line y2="380.9" x1="1083.6" x2="861.1" stroke="#566585" stroke-miterlimit="10" y1="381.1" stroke-width="4" fill="none"/>
	<g fill="#fff">
		<path d="m718.1 49h-9.8v-22.4h8.7c1.5 0 2.8 0.2 3.9 0.5 1.1 0.4 1.9 0.9 2.4 1.5 1 1.2 1.5 2.5 1.5 3.9 0 1.7-0.6 3-1.7 3.9-0.4 0.3-0.7 0.5-0.8 0.6s-0.4 0.2-0.8 0.4c1.4 0.3 2.5 0.9 3.3 1.9 0.8 0.9 1.2 2.1 1.2 3.5 0 1.6-0.5 2.9-1.6 4.1-1.1 1.4-3.2 2.1-6.3 2.1zm-6-13.1h4.8c2.7 0 4.1-0.9 4.1-2.8 0-1.1-0.3-1.8-1-2.3s-1.7-0.7-3.1-0.7h-4.8v5.8zm0 9.6h5.9c1.4 0 2.4-0.2 3.2-0.7 0.7-0.4 1.1-1.3 1.1-2.5 0-2-1.6-3-4.8-3h-5.4v6.2z"/>
		<path d="m734.4 43.9l-2.2 5.1h-4l9.8-22.3h4l9.8 22.3h-4l-2.2-5.1h-11.2zm9.6-3.5l-4.1-9.2-4.1 9.2h8.2z"/>
		<path d="m755.5 49v-22.4h3.8v18.8h10.2v3.6h-14z"/>
		<path d="m781.2 29.6c-1.1 0-2 0.2-2.7 0.7s-1.1 1.1-1.1 2c0 0.9 0.4 1.6 1.1 2.1s2.2 1 4.5 1.5 4 1.3 5.2 2.3c1.2 1 1.7 2.5 1.7 4.4s-0.7 3.5-2.2 4.7c-1.5 1.2-3.4 1.8-5.8 1.8-3.5 0-6.6-1.2-9.3-3.6l2.4-2.8c2.3 2 4.6 2.9 7 2.9 1.2 0 2.2-0.3 2.9-0.8s1.1-1.2 1.1-2.1-0.3-1.5-1-2-1.8-0.9-3.5-1.3c-1.6-0.4-2.9-0.8-3.7-1.1-0.9-0.3-1.6-0.8-2.3-1.3-1.3-1-2-2.5-2-4.6s0.8-3.7 2.3-4.8c1.5-1.1 3.4-1.7 5.6-1.7 1.4 0 2.8 0.2 4.2 0.7s2.6 1.1 3.6 2l-2 2.8c-0.7-0.6-1.6-1.1-2.7-1.5s-2.2-0.3-3.3-0.3z"/>
		<path d="m798.1 43.9l-2.2 5.1h-4l9.8-22.3h4l9.8 22.3h-4l-2.2-5.1h-11.2zm9.7-3.5l-4.1-9.2-4.1 9.2h8.2z"/>
		<path d="m840.3 23.1h3.2l-13.8 29.7h-3.2l13.8-29.7z"/>
		<path d="m873.2 26.6v3.5h-11.9v5.9h10.7v3.4h-10.7v6h12.3v3.6h-16.1v-22.4h15.7z"/>
		<path d="m878.9 49v-22.4h3.8v18.8h10.2v3.6h-14z"/>
		<path d="m904.6 29.6c-1.1 0-2 0.2-2.7 0.7s-1.1 1.1-1.1 2c0 0.9 0.4 1.6 1.1 2.1s2.2 1 4.5 1.5 4 1.3 5.2 2.3c1.2 1 1.7 2.5 1.7 4.4s-0.7 3.5-2.2 4.7c-1.5 1.2-3.4 1.8-5.8 1.8-3.5 0-6.6-1.2-9.3-3.6l2.4-2.8c2.3 2 4.6 2.9 7 2.9 1.2 0 2.2-0.3 2.9-0.8s1.1-1.2 1.1-2.1-0.3-1.5-1-2-1.8-0.9-3.5-1.3c-1.6-0.4-2.9-0.8-3.7-1.1-0.9-0.3-1.6-0.8-2.3-1.3-1.3-1-2-2.5-2-4.6s0.8-3.7 2.3-4.8c1.5-1.1 3.4-1.7 5.6-1.7 1.4 0 2.8 0.2 4.2 0.7s2.6 1.1 3.6 2l-2 2.8c-0.7-0.6-1.6-1.1-2.7-1.5s-2.2-0.3-3.3-0.3z"/>
		<path d="m921.5 43.9l-2.2 5.1h-4l9.8-22.3h4l9.9 22.3h-4l-2.2-5.1h-11.3zm9.7-3.5l-4.1-9.2-4.1 9.2h8.2z"/>
		<path d="m969 29.6c2.2 1.9 3.2 4.7 3.2 8.1 0 3.5-1 6.2-3.1 8.2s-5.3 3-9.6 3h-7.4v-22.3h7.7c4 0 7.1 1 9.2 3zm-0.6 8.2c0-5.1-2.9-7.7-8.8-7.7h-3.8v15.3h4.2c2.7 0 4.8-0.6 6.2-1.9 1.5-1.3 2.2-3.2 2.2-5.7z"/>
		<path d="m977.5 26.6h3.8v22.4h-3.8v-22.4z"/>
		<path d="m991.1 43.9l-2.2 5.1h-4l9.8-22.3h4l9.8 22.3h-4l-2.2-5.1h-11.2zm9.7-3.5l-4.1-9.2-4.1 9.2h8.2z"/>
		<path d="m1026.6 38.1h3.8v7.6c-2.1 2.3-5.1 3.5-9 3.5-3.3 0-6.1-1.1-8.3-3.3s-3.3-4.9-3.3-8.2 1.1-6.1 3.4-8.3 5-3.3 8.2-3.3 5.9 0.9 8 2.8l-2 2.9c-0.9-0.7-1.8-1.3-2.6-1.5-0.9-0.3-1.9-0.4-3.1-0.4-2.3 0-4.2 0.7-5.7 2.2s-2.3 3.4-2.3 5.8 0.7 4.3 2.2 5.7c1.5 1.4 3.3 2.2 5.4 2.2s3.9-0.5 5.3-1.4v-6.3z"/>
		<path d="m1053.8 33.9c0 3.7-1.6 6-4.8 7l5.8 8.1h-4.8l-5.3-7.5h-5v7.5h-3.8v-22.4h8.3c3.4 0 5.8 0.6 7.3 1.7s2.3 3.1 2.3 5.6zm-5.1 3.2c0.8-0.7 1.1-1.7 1.1-3.2s-0.4-2.5-1.2-3-2.2-0.8-4.2-0.8h-4.8v8h4.7c2.2-0.1 3.7-0.4 4.4-1z"/>
		<path d="m1063.8 43.9l-2.2 5.1h-4l9.8-22.3h4l9.8 22.3h-4l-2.2-5.1h-11.2zm9.7-3.5l-4.1-9.2-4.1 9.2h8.2z"/>
		<path d="m1088.7 49h-3.8v-22.4h5.9l6.7 14 6.7-14h5.8v22.4h-3.8v-17.5l-7.8 15.5h-2.1l-7.8-15.5v17.5z"/>
	</g>
	<g fill="#fff">
		<path d="m564.8 298.4h-11.9v-27.2h10.6c1.8 0 3.4 0.2 4.8 0.7 1.3 0.4 2.3 1 3 1.8 1.2 1.4 1.9 3 1.9 4.7 0 2.1-0.7 3.7-2 4.7-0.5 0.4-0.8 0.6-1 0.7s-0.5 0.2-1 0.4c1.7 0.4 3 1.1 4 2.3s1.5 2.6 1.5 4.3c0 1.9-0.6 3.6-1.9 5-1.6 1.8-4.3 2.6-8 2.6zm-7.3-15.9h5.8c3.3 0 5-1.1 5-3.4 0-1.3-0.4-2.2-1.2-2.8s-2-0.9-3.7-0.9h-5.9v7.1zm0 11.7h7.2c1.7 0 3-0.3 3.9-0.8s1.3-1.5 1.3-3c0-2.4-1.9-3.6-5.8-3.6h-6.6v7.4z"/>
		<path d="m584.5 292.2l-2.7 6.2h-4.9l12-27.2h4.9l12 27.2h-4.9l-2.7-6.2h-13.7zm11.8-4.2l-4.9-11.2-4.9 11.2h9.8z"/>
		<path d="m610.1 298.4v-27.2h4.6v22.8h12.4v4.4h-17z"/>
		<path d="m641.4 274.8c-1.3 0-2.4 0.3-3.3 0.8s-1.3 1.4-1.3 2.5 0.4 1.9 1.3 2.5c0.9 0.6 2.7 1.2 5.5 1.9s4.9 1.6 6.3 2.8 2.1 3 2.1 5.4-0.9 4.3-2.7 5.8c-1.8 1.5-4.1 2.2-7 2.2-4.3 0-8-1.5-11.3-4.4l2.9-3.5c2.7 2.4 5.6 3.6 8.6 3.6 1.5 0 2.7-0.3 3.5-1 0.9-0.6 1.3-1.5 1.3-2.5 0-1.1-0.4-1.9-1.2-2.5s-2.2-1.1-4.2-1.6-3.5-0.9-4.6-1.3c-1-0.4-2-0.9-2.8-1.6-1.6-1.2-2.4-3.1-2.4-5.6s0.9-4.5 2.7-5.8 4.1-2 6.8-2c1.7 0 3.5 0.3 5.2 0.9s3.2 1.4 4.4 2.4l-2.5 3.5c-0.8-0.7-1.9-1.3-3.3-1.8-1.3-0.5-2.7-0.7-4-0.7z"/>
		<path d="m661.9 292.2l-2.7 6.2h-4.9l12-27.2h4.9l12 27.2h-4.9l-2.7-6.2h-13.7zm11.7-4.2l-4.9-11.2-4.9 11.2h9.8z"/>
		<path d="m713.3 266.9h3.9l-16.9 36.1h-3.9l16.9-36.1z"/>
		<path d="m753.2 271.2v4.3h-14.5v7.2h13v4.1h-13v7.3h15v4.3h-19.6v-27.2h19.1z"/>
		<path d="m760.1 298.4v-27.2h4.6v22.8h12.4v4.4h-17z"/>
		<path d="m791.4 274.8c-1.3 0-2.4 0.3-3.3 0.8s-1.3 1.4-1.3 2.5 0.4 1.9 1.3 2.5c0.9 0.6 2.7 1.2 5.5 1.9s4.9 1.6 6.3 2.8 2.1 3 2.1 5.4-0.9 4.3-2.7 5.8c-1.8 1.5-4.1 2.2-7 2.2-4.3 0-8-1.5-11.3-4.4l2.9-3.5c2.7 2.4 5.6 3.6 8.6 3.6 1.5 0 2.7-0.3 3.5-1 0.9-0.6 1.3-1.5 1.3-2.5 0-1.1-0.4-1.9-1.2-2.5s-2.2-1.1-4.2-1.6-3.5-0.9-4.6-1.3c-1-0.4-2-0.9-2.8-1.6-1.6-1.2-2.4-3.1-2.4-5.6s0.9-4.5 2.7-5.8 4.1-2 6.8-2c1.7 0 3.5 0.3 5.2 0.9s3.2 1.4 4.4 2.4l-2.5 3.5c-0.8-0.7-1.9-1.3-3.3-1.8-1.3-0.5-2.7-0.7-4-0.7z"/>
		<path d="m811.8 292.2l-2.7 6.2h-4.9l12-27.2h4.9l12 27.2h-4.9l-2.7-6.2h-13.7zm11.8-4.2l-4.9-11.2-4.9 11.2h9.8z"/>
	</g>
</g>
</svg>
