<?xml version="1.0" encoding="UTF-8" standalone="no"?>
<!-- Generator: Adobe Illustrator 18.1.1, SVG Export Plug-In . SVG Version: 6.00 Build 0)  -->
<svg xmlns="http://www.w3.org/2000/svg" xml:space="preserve" version="1.1" y="0px" x="0px" xmlns:xlink="http://www.w3.org/1999/xlink" viewBox="0 0 857.1 872.3" enable-background="new 0 0 857.1 872.3">
<g id="Layer_12">
</g>
<g id="Layer_1">
			<line stroke-linejoin="bevel" x1="793.6" y2="635.8" x2="80.2" stroke="#566585" stroke-linecap="square" stroke-miterlimit="10" y1="635.8" stroke-width="5" fill="none"/>
			<g stroke-linejoin="bevel" stroke="#566585" stroke-linecap="square" stroke-miterlimit="10" stroke-width="5" fill="none">
					<line x1="793.6" y2="622.5" x2="793.6" y1="635.8"/>
					<line x1="650.9" y2="622.5" x2="650.9" y1="635.8"/>
					<line x1="508.2" y2="622.5" x2="508.2" y1="635.8"/>
					<line x1="365.5" y2="622.5" x2="365.5" y1="635.8"/>
					<line x1="222.9" y2="622.5" x2="222.9" y1="635.8"/>
					<line x1="80.2" y2="622.5" x2="80.2" y1="635.8"/>
			</g>
	<polygon points="773 166.6 670.3 166.7 671.4 635.9 774.1 635.8" fill="#566585"/>
	<rect y="387" x="528.2" height="248.9" width="102.7" fill="#566585"/>
	<rect y="389.1" x="385.5" height="246.7" width="102.7" fill="#566585"/>
	<rect y="572.3" x="242.8" height="63.6" width="102.7" fill="#566585"/>
	<rect y="612.5" x="100.2" height="23.4" width="102.7" fill="#428BC7"/>
		<g fill="#566585">
			<path d="m229 699.4l2.5-1.7 10.3 14.7-2.5 1.7-10.3-14.7z"/>
			<path d="m241.6 693.4c-0.7 0.5-1.2 1.1-1.5 1.7s-0.2 1.2 0.2 1.8c0.4 0.6 1 0.9 1.6 0.9 0.7 0 1.9-0.4 3.7-1 1.8-0.7 3.2-1 4.5-0.8 1.2 0.1 2.3 0.8 3.2 2.1s1.1 2.7 0.7 4.1c-0.4 1.5-1.4 2.8-3 3.9-2.3 1.6-4.9 2.2-7.8 1.9l0.2-3c2.4 0.2 4.4-0.2 6-1.3 0.8-0.6 1.3-1.2 1.5-1.8 0.2-0.7 0.1-1.3-0.3-1.9s-0.9-0.9-1.6-0.9-1.6 0.2-2.9 0.7-2.2 0.8-3 1c-0.7 0.2-1.4 0.2-2.1 0.2-1.3 0-2.5-0.8-3.4-2.1-1-1.4-1.2-2.7-0.7-4.2 0.5-1.4 1.4-2.6 2.9-3.7 0.9-0.7 2-1.2 3.1-1.5s2.2-0.5 3.3-0.4v2.8c-0.7-0.1-1.5 0-2.4 0.3-0.6 0.4-1.5 0.7-2.2 1.2z"/>
			<path d="m259.3 695l0.9 4.4-2.6 1.9-3.8-19.2 2.6-1.9 16.7 10.1-2.6 1.9-3.8-2.3-7.4 5.1zm4.8-6.7l-6.9-4.2 1.6 7.9 5.3-3.7z"/>
			<path d="m276.3 683.1l0.9 4.4-2.6 1.9-3.8-19.2 2.6-1.9 16.7 10.1-2.6 1.9-3.8-2.3-7.4 5.1zm4.8-6.7l-6.9-4.2 1.6 7.9 5.3-3.7z"/>
			<path d="m297 670.3c0.9-0.6 1.5-1.3 1.9-2s0.7-1.6 1-2.7l2.7 0.5c-0.3 2.8-1.6 5-3.8 6.5-2.2 1.6-4.6 2.1-7 1.7-2.5-0.4-4.5-1.7-6-3.9s-2.1-4.5-1.6-7 1.8-4.5 4.1-6.1 4.8-2.1 7.5-1.5l-0.4 2.8c-1.2-0.2-2.2-0.2-3 0s-1.6 0.5-2.5 1.1c-1.5 1-2.4 2.4-2.7 4.1s0 3.2 1.1 4.7c1 1.5 2.4 2.4 4.1 2.7 1.7 0.4 3.2 0.1 4.6-0.9z"/>
		</g>
		<g fill="#428BC7">
			<path d="m88.8 689.4l2.3 3.2-10.9 7.6 3.8 5.4 9.8-6.8 2.1 3.1-9.8 6.8 3.8 5.5 11.2-7.9 2.3 3.2-14.7 10.3-14.3-20.4 14.4-10z"/>
			<path d="m108.2 706.2l-14.2-20.4 3.4-2.4 12 17.1 9.3-6.5 2.3 3.3-12.8 8.9z"/>
			<path d="m119.3 672.1c-1 0.7-1.7 1.5-2 2.3-0.4 0.9-0.2 1.7 0.3 2.5 0.6 0.8 1.3 1.2 2.3 1.2 0.9 0 2.6-0.5 5.1-1.5 2.4-1 4.5-1.4 6.2-1.2s3.2 1.1 4.4 2.9 1.6 3.7 1 5.7c-0.6 2-1.9 3.8-4.1 5.4-3.2 2.2-6.8 3.1-10.8 2.6l0.3-4.1c3.3 0.3 6.1-0.3 8.3-1.8 1.1-0.8 1.8-1.6 2.1-2.6 0.3-0.9 0.2-1.8-0.4-2.6s-1.3-1.2-2.2-1.2-2.3 0.3-4 1-3.1 1.2-4.1 1.4-2 0.3-2.9 0.3c-1.8-0.1-3.4-1-4.8-2.9-1.3-1.9-1.7-3.8-1-5.8s2-3.7 4-5.1c1.3-0.9 2.7-1.6 4.3-2.1s3.1-0.6 4.6-0.5v3.9c-1-0.1-2.1 0-3.4 0.4-1 0.5-2.2 1.1-3.2 1.8z"/>
			<path d="m143.9 674.4l1.2 6.1-3.7 2.6-5.3-26.7 3.7-2.6 23.3 14.1-3.7 2.6-5.3-3.2-10.2 7.1zm6.6-9.4l-9.6-5.8 2.2 11 7.4-5.2z"/>
		</g>
		<g fill="#fff">
			<path d="m545 535.4v-4.4h3.8v4.4h2.9v3.6h-2.9v6h-3.8v-6h-10.2v-3.5l8.7-14.2h4.4l-8.6 14.1h5.7z"/>
			<path d="m558 522.6c1.5-1.2 3.4-1.8 5.7-1.8s4.2 0.6 5.7 1.8 2.3 2.7 2.3 4.5-0.8 3.4-2.5 4.8c2.3 1.5 3.4 3.5 3.4 6.1 0 2-0.8 3.8-2.4 5.1s-3.8 2.1-6.4 2.1c-2.7 0-4.8-0.7-6.4-2.1s-2.4-3.1-2.4-5.1c0-2.6 1.1-4.7 3.4-6.1-1.7-1.4-2.5-3-2.5-4.8-0.2-1.8 0.5-3.3 2.1-4.5zm2.3 18.2c1 0.7 2.2 1 3.3 1s2.3-0.3 3.3-1c1-0.7 1.6-1.6 1.6-2.9 0-1.2-0.5-2.2-1.5-2.9s-2.1-1-3.4-1-2.4 0.3-3.4 1c-1 0.7-1.5 1.6-1.5 2.9 0.1 1.3 0.6 2.3 1.6 2.9zm0.4-10.8c0.9 0.7 1.9 1 3 1 1.2 0 2.2-0.3 3-1s1.3-1.5 1.3-2.5-0.4-1.9-1.3-2.5c-0.9-0.7-1.9-1-3-1-1.2 0-2.2 0.3-3 1s-1.3 1.5-1.3 2.5 0.4 1.8 1.3 2.5z"/>
			<path d="m577.2 544.5c-0.5-0.5-0.7-1.1-0.7-1.8s0.2-1.3 0.7-1.8 1.1-0.7 1.8-0.7 1.3 0.2 1.8 0.7c0.5 0.5 0.7 1.1 0.7 1.8s-0.2 1.3-0.7 1.8-1.1 0.7-1.8 0.7-1.3-0.2-1.8-0.7z"/>
			<path d="m595.1 524.4c-2.1 0-3.7 0.7-4.7 2.1s-1.5 3.4-1.5 5.8c0.6-0.6 1.4-1.2 2.4-1.8s2.2-0.8 3.5-0.8c2.1 0 3.9 0.7 5.4 2.1s2.2 3.3 2.2 5.6c0 2.3-0.8 4.2-2.3 5.7s-3.5 2.1-5.9 2.1c-3.8 0-6.4-1.7-7.9-5.1-0.8-1.9-1.2-4.1-1.2-6.6s0.3-4.5 0.8-6.1c0.5-1.6 1.2-2.9 2.1-3.9 1.8-1.9 3.9-2.8 6.5-2.8s4.9 0.8 7 2.4l-2 3c-0.5-0.5-1.2-0.9-2.1-1.2s-1.7-0.5-2.3-0.5zm-0.8 8.9c-1.4 0-2.5 0.4-3.4 1.1-0.9 0.8-1.4 1.7-1.4 3 0 1.2 0.4 2.3 1.3 3.1 0.9 0.9 2 1.3 3.3 1.3s2.4-0.4 3.3-1.2 1.3-1.8 1.3-3-0.4-2.2-1.2-3.1c-0.7-0.8-1.8-1.2-3.2-1.2z"/>
			<path d="m609 522.6c1.5-1.2 3.4-1.8 5.7-1.8s4.2 0.6 5.7 1.8 2.3 2.7 2.3 4.5-0.8 3.4-2.5 4.8c2.3 1.5 3.4 3.5 3.4 6.1 0 2-0.8 3.8-2.4 5.1s-3.8 2.1-6.4 2.1c-2.7 0-4.8-0.7-6.4-2.1s-2.4-3.1-2.4-5.1c0-2.6 1.1-4.7 3.4-6.1-1.7-1.4-2.5-3-2.5-4.8-0.1-1.8 0.6-3.3 2.1-4.5zm2.4 18.2c1 0.7 2.2 1 3.3 1s2.3-0.3 3.3-1c1-0.7 1.6-1.6 1.6-2.9 0-1.2-0.5-2.2-1.5-2.9s-2.1-1-3.4-1-2.4 0.3-3.4 1c-1 0.7-1.5 1.6-1.5 2.9 0.1 1.3 0.6 2.3 1.6 2.9zm0.3-10.8c0.9 0.7 1.9 1 3 1 1.2 0 2.2-0.3 3-1s1.3-1.5 1.3-2.5-0.4-1.9-1.3-2.5c-0.9-0.7-1.9-1-3-1-1.2 0-2.2 0.3-3 1s-1.3 1.5-1.3 2.5 0.5 1.8 1.3 2.5z"/>
		</g>
		<g fill="#fff">
			<path d="m403.9 535.4v-4.4h3.8v4.4h2.9v3.6h-2.9v6h-3.8v-6h-10.2v-3.5l8.7-14.2h4.4l-8.6 14.1h5.7z"/>
			<path d="m423.7 524.4c-2.1 0-3.7 0.7-4.7 2.1s-1.5 3.4-1.5 5.8c0.6-0.6 1.4-1.2 2.4-1.8s2.2-0.8 3.5-0.8c2.1 0 3.9 0.7 5.4 2.1s2.2 3.3 2.2 5.6c0 2.3-0.8 4.2-2.3 5.7s-3.5 2.1-5.9 2.1c-3.8 0-6.4-1.7-7.9-5.1-0.8-1.9-1.2-4.1-1.2-6.6s0.3-4.5 0.8-6.1c0.5-1.6 1.2-2.9 2.1-3.9 1.8-1.9 3.9-2.8 6.5-2.8s4.9 0.8 7 2.4l-2 3c-0.5-0.5-1.2-0.9-2.1-1.2-0.8-0.3-1.6-0.5-2.3-0.5zm-0.7 8.9c-1.4 0-2.5 0.4-3.4 1.1-0.9 0.8-1.4 1.7-1.4 3 0 1.2 0.4 2.3 1.3 3.1 0.9 0.9 2 1.3 3.3 1.3s2.4-0.4 3.3-1.2 1.3-1.8 1.3-3-0.4-2.2-1.2-3.1c-0.7-0.8-1.8-1.2-3.2-1.2z"/>
			<path d="m435.6 544.5c-0.5-0.5-0.7-1.1-0.7-1.8s0.2-1.3 0.7-1.8 1.1-0.7 1.8-0.7 1.3 0.2 1.8 0.7c0.5 0.5 0.7 1.1 0.7 1.8s-0.2 1.3-0.7 1.8-1.1 0.7-1.8 0.7-1.3-0.2-1.8-0.7z"/>
			<path d="m455.2 530.5c0.7-0.9 1-1.9 1-2.8s-0.4-1.8-1.1-2.4c-0.7-0.7-1.6-1-2.8-1-1.9 0-3.6 1-4.9 3l-3.2-1.9c1-1.6 2.2-2.7 3.5-3.5s2.9-1.2 4.9-1.2 3.7 0.6 5.2 1.9c1.5 1.3 2.2 3 2.2 5.2 0 1.2-0.3 2.4-1 3.5-0.6 1.1-1.8 2.5-3.5 4.3l-5.6 5.7h10.8v3.8h-16.3v-3.4l7.2-7.2c1.8-1.8 2.9-3 3.6-4z"/>
			<path d="m463.6 528.1v-6.8h16.7v3.6l-10 20.1h-4.4l9.8-20.1h-8.4v3.2h-3.7z"/>
		</g>
		<g fill="#566585">
			<path d="m258.7 521.3h8.6v23.7h-3.8v-20.2h-4.8v-3.5z"/>
			<path d="m271 521.3h8.6v23.7h-3.8v-20.2h-4.8v-3.5z"/>
			<path d="m285.8 544.5c-0.5-0.5-0.7-1.1-0.7-1.8s0.2-1.3 0.7-1.8 1.1-0.7 1.8-0.7 1.3 0.2 1.8 0.7c0.5 0.5 0.7 1.1 0.7 1.8s-0.2 1.3-0.7 1.8-1.1 0.7-1.8 0.7-1.3-0.2-1.8-0.7z"/>
			<path d="m301.2 541.7c2.1 0 3.7-0.7 4.7-2.1s1.5-3.4 1.5-5.8c-0.6 0.6-1.4 1.2-2.4 1.8s-2.2 0.8-3.5 0.8c-2.1 0-3.9-0.7-5.4-2.1s-2.2-3.3-2.2-5.6c0-2.3 0.8-4.2 2.3-5.7 1.6-1.4 3.5-2.1 5.9-2.1 3.8 0 6.4 1.7 7.9 5.1 0.8 2 1.2 4.1 1.2 6.6 0 2.4-0.3 4.5-0.8 6.1s-1.2 2.9-2.1 3.9c-1.8 1.9-3.9 2.8-6.5 2.8s-4.9-0.8-7-2.4l2-3c0.5 0.5 1.2 0.9 2.1 1.2 0.8 0.3 1.6 0.5 2.3 0.5zm0.7-8.9c1.4 0 2.5-0.4 3.4-1.1 0.9-0.8 1.4-1.7 1.4-3 0-1.2-0.4-2.3-1.3-3.1-0.9-0.9-2-1.3-3.3-1.3s-2.4 0.4-3.3 1.2-1.3 1.8-1.3 3c0 1.2 0.4 2.3 1.2 3.1s1.8 1.2 3.2 1.2z"/>
			<path d="m324.9 530.5c0.7-0.9 1-1.9 1-2.8s-0.4-1.8-1.1-2.4c-0.7-0.7-1.6-1-2.8-1-1.9 0-3.6 1-4.9 3l-3.2-1.9c1-1.6 2.2-2.7 3.5-3.5s2.9-1.2 4.9-1.2 3.7 0.6 5.2 1.9c1.5 1.3 2.2 3 2.2 5.2 0 1.2-0.3 2.4-1 3.5-0.6 1.1-1.8 2.5-3.5 4.3l-5.6 5.7h10.8v3.8h-16.3v-3.4l7.2-7.2c1.7-1.8 2.9-3 3.6-4z"/>
		</g>
		<g fill="#428BC7">
			<path d="m129.9 535.4v-4.4h3.8v4.4h2.9v3.6h-2.9v6h-3.8v-6h-10.2v-3.5l8.7-14.2h4.4l-8.6 14.1h5.7z"/>
			<path d="m140.6 544.5c-0.5-0.5-0.7-1.1-0.7-1.8s0.2-1.3 0.7-1.8 1.1-0.7 1.8-0.7 1.3 0.2 1.8 0.7c0.5 0.5 0.7 1.1 0.7 1.8s-0.2 1.3-0.7 1.8-1.1 0.7-1.8 0.7-1.3-0.2-1.8-0.7z"/>
			<path d="m150.4 524.8v-3.6h13.9v3.1l-5.7 6.4c2.2 0.1 3.9 0.8 5.1 2.1s1.8 2.9 1.8 4.7c0 2.4-0.8 4.3-2.5 5.7s-3.8 2.1-6.3 2.1-5.1-0.8-7.6-2.5l1.7-3.2c1.9 1.4 4 2 6.1 2 1.4 0 2.5-0.3 3.4-1 0.9-0.6 1.3-1.6 1.3-2.8s-0.5-2.2-1.5-2.9-2.4-1.1-4.1-1.1c-0.9 0-1.7 0.1-2.5 0.4v-3.1l5.5-6.4h-8.6z"/>
			<path d="m171.4 541.9c-1.6-2.2-2.4-5.2-2.4-9s0.8-6.7 2.4-9c1.6-2.2 4-3.3 7.3-3.3 3.2 0 5.7 1.1 7.3 3.3s2.4 5.2 2.4 9-0.8 6.7-2.4 9c-1.6 2.2-4 3.3-7.3 3.3-3.2 0.1-5.7-1-7.3-3.3zm2.9-15.3c-0.9 1.6-1.4 3.8-1.4 6.4s0.5 4.8 1.4 6.4c0.9 1.6 2.4 2.4 4.4 2.4s3.5-0.8 4.4-2.4 1.4-3.8 1.4-6.4c0-2.7-0.5-4.8-1.4-6.4s-2.4-2.4-4.4-2.4c-2-0.1-3.5 0.7-4.4 2.4z"/>
		</g>
	<g fill="#566585">
		<path d="m85.7 9v22.1h-4.4v-22.1h-7.9v-4h20.3v4h-8z"/>
		<path d="m98.5 7.2c-0.5-0.5-0.8-1.1-0.8-1.9 0-0.7 0.3-1.3 0.8-1.9 0.5-0.5 1.1-0.8 1.9-0.8 0.7 0 1.3 0.3 1.9 0.8 0.5 0.5 0.8 1.1 0.8 1.9 0 0.7-0.3 1.3-0.8 1.9-0.5 0.5-1.1 0.8-1.9 0.8-0.7 0-1.4-0.2-1.9-0.8zm3.9 23.9h-4.2v-19.9h4.2v19.9z"/>
		<path d="m113 20.3v10.8h-4.2v-19.9h4.2v3.6c0.6-1.2 1.5-2.2 2.7-2.9s2.5-1 3.9-1c3.1 0 5.3 1.3 6.4 3.9 2-2.6 4.4-3.9 7.4-3.9 2.2 0 4.1 0.7 5.4 2.1 1.4 1.4 2.1 3.4 2.1 5.9v12.2h-4.2v-10.9c0-3.7-1.5-5.5-4.6-5.5-1.4 0-2.7 0.5-3.7 1.4-1.1 0.9-1.6 2.2-1.7 4v11.1h-4.2v-11c0-1.9-0.3-3.3-1-4.2s-1.7-1.3-3.2-1.3c-1.4 0-2.7 0.5-3.8 1.4s-1.5 2.4-1.5 4.2z"/>
		<path d="m165.6 23h-15.6c0.1 1.4 0.8 2.6 2 3.5s2.6 1.3 4.2 1.3c2.5 0 4.4-0.8 5.7-2.4l2.4 2.6c-2.1 2.2-4.9 3.3-8.4 3.3-2.8 0-5.2-0.9-7.1-2.8-2-1.9-2.9-4.3-2.9-7.5s1-5.6 3-7.5c2-1.8 4.3-2.8 7-2.8s5 0.8 6.9 2.4 2.8 3.9 2.8 6.7v3.2zm-15.5-3.3h11.4c0-1.7-0.5-3-1.6-3.8-1-0.9-2.3-1.3-3.9-1.3-1.5 0-2.9 0.5-4.1 1.4-1.2 0.8-1.8 2.1-1.8 3.7z"/>
		<path d="m194.5 27.1c1.5 0 2.8-0.3 3.9-0.8s2.2-1.3 3.4-2.4l2.8 2.9c-2.8 3.1-6.1 4.6-10.1 4.6-3.9 0-7.2-1.3-9.8-3.8s-3.9-5.8-3.9-9.6 1.3-7.1 4-9.7c2.7-2.6 6-3.9 10.1-3.9s7.4 1.5 10.1 4.5l-2.8 3.1c-1.2-1.2-2.4-2-3.5-2.5s-2.4-0.7-3.9-0.7c-2.6 0-4.9 0.9-6.7 2.6s-2.7 3.9-2.7 6.5c0 2.7 0.9 4.9 2.7 6.7 1.8 1.6 3.9 2.5 6.4 2.5z"/>
		<path d="m226 28.4c-2 2-4.5 3-7.5 3s-5.5-1-7.5-3-3-4.4-3-7.3 1-5.3 3-7.3c2-2 4.5-3 7.5-3s5.5 1 7.5 3 3 4.4 3 7.3-1 5.3-3 7.3zm-12-2.6c1.2 1.2 2.7 1.8 4.5 1.8s3.3-0.6 4.5-1.8 1.8-2.8 1.8-4.7-0.6-3.5-1.8-4.7c-1.2-1.2-2.7-1.8-4.5-1.8s-3.3 0.6-4.5 1.8-1.8 2.8-1.8 4.7 0.6 3.5 1.8 4.7z"/>
		<path d="m238.3 20.3v10.8h-4.2v-19.9h4.2v3.6c0.7-1.2 1.6-2.2 2.8-2.9s2.5-1 3.8-1c2.2 0 4.1 0.7 5.4 2.1 1.4 1.4 2.1 3.4 2.1 5.9v12.2h-4.2v-10.9c0-3.7-1.5-5.5-4.6-5.5-1.4 0-2.7 0.5-3.8 1.4s-1.5 2.4-1.5 4.2z"/>
		<path d="m272.7 25.1c0 1.9-0.7 3.4-2.1 4.5s-3.1 1.7-5.3 1.7c-1.4 0-2.9-0.3-4.5-0.8s-2.9-1.3-4.1-2.2l2-3.2c2.3 1.7 4.6 2.6 6.7 2.6 0.9 0 1.7-0.2 2.2-0.7 0.5-0.4 0.8-1 0.8-1.7 0-1-1.3-1.9-4-2.7-0.2-0.1-0.3-0.1-0.4-0.1-4.1-1.1-6.2-3-6.2-5.6 0-1.8 0.7-3.3 2.1-4.4s3.3-1.7 5.6-1.7 4.5 0.7 6.5 2l-1.6 3.1c-1.6-1.1-3.4-1.6-5.3-1.6-1 0-1.8 0.2-2.4 0.5-0.6 0.4-0.9 0.9-0.9 1.6 0 0.6 0.3 1.1 1 1.4 0.4 0.2 1.1 0.4 1.9 0.6s1.5 0.4 2.1 0.6 1.2 0.4 1.8 0.7c0.6 0.2 1.2 0.6 1.9 1 1.6 1.2 2.2 2.6 2.2 4.4z"/>
		<path d="m291.7 22v-10.8h4.2v19.9h-4.2v-3.6c-0.7 1.2-1.6 2.2-2.8 2.9s-2.5 1-3.8 1c-2.2 0-4.1-0.7-5.4-2.1s-2.1-3.3-2.1-5.9v-12.2h4.2v10.9c0 3.7 1.5 5.5 4.6 5.5 1.4 0 2.7-0.5 3.8-1.4 0.9-1 1.5-2.4 1.5-4.2z"/>
		<path d="m306.4 20.3v10.8h-4.2v-19.9h4.2v3.6c0.6-1.2 1.5-2.2 2.7-2.9s2.5-1 3.9-1c3.1 0 5.3 1.3 6.4 3.9 2-2.6 4.4-3.9 7.4-3.9 2.2 0 4.1 0.7 5.4 2.1 1.4 1.4 2.1 3.4 2.1 5.9v12.2h-4.2v-10.9c0-3.7-1.5-5.5-4.6-5.5-1.4 0-2.7 0.5-3.7 1.4-1.1 0.9-1.6 2.2-1.7 4v11.1h-4.1v-11c0-1.9-0.3-3.3-1-4.2s-1.7-1.3-3.2-1.3c-1.4 0-2.7 0.5-3.8 1.4s-1.6 2.4-1.6 4.2z"/>
		<path d="m351.1 10.9c2.7 0 4.9 0.9 6.8 2.8 1.9 1.8 2.8 4.3 2.8 7.4s-0.9 5.6-2.8 7.5c-1.9 1.9-4.1 2.9-6.6 2.9s-4.8-1.1-6.7-3.3v10.2h-4.2v-27.2h4.2v3.5c1.7-2.5 3.8-3.8 6.5-3.8zm-6.5 10.3c0 1.9 0.6 3.4 1.7 4.7 1.1 1.2 2.5 1.8 4.2 1.8 1.6 0 3.1-0.6 4.3-1.8s1.8-2.7 1.8-4.7c0-1.9-0.6-3.5-1.8-4.7-1.2-1.3-2.6-1.9-4.3-1.9s-3.1 0.6-4.2 1.9c-1.2 1.2-1.7 2.8-1.7 4.7z"/>
		<path d="m370.6 14.6v10.1c0 0.9 0.2 1.7 0.7 2.3s1.2 0.8 2.1 0.8c0.9 0 1.8-0.4 2.6-1.3l1.7 3c-1.5 1.3-3.1 2-4.9 2s-3.3-0.6-4.6-1.8-1.9-2.9-1.9-5v-10h-2.5v-3.4h2.5v-6.3h4.2v6.2h5.2v3.4h-5.1z"/>
		<path d="m381.8 7.2c-0.5-0.5-0.8-1.1-0.8-1.9 0-0.7 0.3-1.3 0.8-1.9 0.5-0.5 1.1-0.8 1.9-0.8 0.7 0 1.3 0.3 1.9 0.8 0.5 0.5 0.8 1.1 0.8 1.9 0 0.7-0.3 1.3-0.8 1.9-0.5 0.5-1.1 0.8-1.9 0.8-0.7 0-1.3-0.2-1.9-0.8zm4 23.9h-4.2v-19.9h4.2v19.9z"/>
		<path d="m408.7 28.4c-2 2-4.5 3-7.5 3s-5.5-1-7.5-3-3-4.4-3-7.3 1-5.3 3-7.3c2-2 4.5-3 7.5-3s5.5 1 7.5 3 3 4.4 3 7.3-1 5.3-3 7.3zm-12-2.6c1.2 1.2 2.7 1.8 4.5 1.8s3.3-0.6 4.5-1.8 1.8-2.8 1.8-4.7-0.6-3.5-1.8-4.7c-1.2-1.2-2.7-1.8-4.5-1.8s-3.3 0.6-4.5 1.8-1.8 2.8-1.8 4.7 0.6 3.5 1.8 4.7z"/>
		<path d="m421 20.3v10.8h-4.2v-19.9h4.2v3.6c0.7-1.2 1.6-2.2 2.8-2.9s2.5-1 3.8-1c2.2 0 4.1 0.7 5.4 2.1 1.4 1.4 2.1 3.4 2.1 5.9v12.2h-4.1v-10.9c0-3.7-1.5-5.5-4.6-5.5-1.4 0-2.7 0.5-3.8 1.4s-1.6 2.4-1.6 4.2z"/>
		<path d="m465.2 27.1c1.5 0 2.8-0.3 3.9-0.8s2.2-1.3 3.4-2.4l2.8 2.9c-2.8 3.1-6.1 4.6-10.1 4.6-3.9 0-7.2-1.3-9.8-3.8s-3.9-5.8-3.9-9.6 1.3-7.1 4-9.7c2.7-2.6 6-3.9 10.1-3.9s7.4 1.5 10.1 4.5l-2.8 3.1c-1.2-1.2-2.4-2-3.5-2.5s-2.4-0.7-3.9-0.7c-2.6 0-4.9 0.9-6.7 2.6s-2.7 3.9-2.7 6.5c0 2.7 0.9 4.9 2.7 6.7 1.9 1.6 4 2.5 6.4 2.5z"/>
		<path d="m496.7 28.4c-2 2-4.5 3-7.5 3s-5.5-1-7.5-3-3-4.4-3-7.3 1-5.3 3-7.3c2-2 4.5-3 7.5-3s5.5 1 7.5 3 3 4.4 3 7.3-1 5.3-3 7.3zm-12-2.6c1.2 1.2 2.7 1.8 4.5 1.8s3.3-0.6 4.5-1.8 1.8-2.8 1.8-4.7-0.6-3.5-1.8-4.7c-1.2-1.2-2.7-1.8-4.5-1.8s-3.3 0.6-4.5 1.8-1.8 2.8-1.8 4.7 0.6 3.5 1.8 4.7z"/>
		<path d="m509 20.3v10.8h-4.2v-19.9h4.2v3.6c0.6-1.2 1.5-2.2 2.7-2.9s2.5-1 3.9-1c3.1 0 5.3 1.3 6.4 3.9 2-2.6 4.4-3.9 7.4-3.9 2.2 0 4.1 0.7 5.4 2.1 1.4 1.4 2.1 3.4 2.1 5.9v12.2h-4.2v-10.9c0-3.7-1.5-5.5-4.6-5.5-1.4 0-2.7 0.5-3.7 1.4-1.1 0.9-1.6 2.2-1.7 4v11.1h-4.2v-11c0-1.9-0.3-3.3-1-4.2s-1.7-1.3-3.2-1.3c-1.4 0-2.7 0.5-3.8 1.4s-1.5 2.4-1.5 4.2z"/>
		<path d="m553.7 10.9c2.7 0 4.9 0.9 6.8 2.8 1.9 1.8 2.8 4.3 2.8 7.4s-0.9 5.6-2.8 7.5c-1.9 1.9-4.1 2.9-6.6 2.9s-4.8-1.1-6.7-3.3v10.2h-4.2v-27.2h4.2v3.5c1.7-2.5 3.9-3.8 6.5-3.8zm-6.5 10.3c0 1.9 0.6 3.4 1.7 4.7 1.1 1.2 2.5 1.8 4.2 1.8 1.6 0 3.1-0.6 4.3-1.8s1.8-2.7 1.8-4.7c0-1.9-0.6-3.5-1.8-4.7-1.2-1.3-2.6-1.9-4.3-1.9s-3.1 0.6-4.2 1.9c-1.1 1.2-1.7 2.8-1.7 4.7z"/>
		<path d="m584.7 31.1h-3.8v-2.7c-1.6 2-3.8 3-6.6 3-2.1 0-3.8-0.6-5.1-1.8-1.4-1.2-2-2.7-2-4.7s0.7-3.4 2.2-4.4c1.4-1 3.4-1.5 5.9-1.5h5.4v-0.7c0-2.6-1.5-4-4.4-4-1.8 0-3.8 0.7-5.8 2l-1.9-2.6c2.4-1.9 5.2-2.9 8.2-2.9 2.3 0 4.3 0.6 5.7 1.8 1.5 1.2 2.2 3 2.2 5.6v12.9zm-4.2-7.4v-1.7h-4.7c-3 0-4.5 0.9-4.5 2.8 0 1 0.4 1.7 1.1 2.2s1.8 0.8 3.1 0.8 2.5-0.4 3.5-1.1 1.5-1.7 1.5-3z"/>
		<path d="m601.4 15.1c-2.1 0-3.6 0.7-4.7 2s-1.6 3.2-1.6 5.4v8.5h-4.2v-19.8h4.2v4c0.7-1.2 1.6-2.3 2.7-3.1 1.2-0.8 2.4-1.2 3.7-1.2v4.2h-0.1z"/>
		<path d="m606.1 7.2c-0.5-0.5-0.8-1.1-0.8-1.9 0-0.7 0.3-1.3 0.8-1.9 0.5-0.5 1.1-0.8 1.9-0.8 0.7 0 1.3 0.3 1.9 0.8 0.5 0.5 0.8 1.1 0.8 1.9 0 0.7-0.3 1.3-0.8 1.9-0.6 0.6-1.2 0.8-1.9 0.8-0.8 0-1.4-0.2-1.9-0.8zm3.9 23.9h-4.2v-19.9h4.2v19.9z"/>
		<path d="m630.5 25.1c0 1.9-0.7 3.4-2.1 4.5s-3.1 1.7-5.3 1.7c-1.4 0-2.9-0.3-4.5-0.8s-2.9-1.3-4.1-2.2l2-3.2c2.3 1.7 4.6 2.6 6.7 2.6 0.9 0 1.7-0.2 2.2-0.7 0.5-0.4 0.8-1 0.8-1.7 0-1-1.3-1.9-4-2.7-0.2-0.1-0.3-0.1-0.4-0.1-4.1-1.1-6.2-3-6.2-5.6 0-1.8 0.7-3.3 2.1-4.4s3.3-1.7 5.6-1.7 4.5 0.7 6.5 2l-1.6 3.1c-1.6-1.1-3.4-1.6-5.3-1.6-1 0-1.8 0.2-2.4 0.5-0.6 0.4-0.9 0.9-0.9 1.6 0 0.6 0.3 1.1 1 1.4 0.4 0.2 1.1 0.4 1.9 0.6s1.5 0.4 2.1 0.6 1.2 0.4 1.8 0.7c0.6 0.2 1.2 0.6 1.9 1 1.6 1.2 2.2 2.6 2.2 4.4z"/>
		<path d="m652.2 28.4c-2 2-4.5 3-7.5 3s-5.5-1-7.5-3-3-4.4-3-7.3 1-5.3 3-7.3c2-2 4.5-3 7.5-3s5.5 1 7.5 3 3 4.4 3 7.3-1 5.3-3 7.3zm-12-2.6c1.2 1.2 2.7 1.8 4.5 1.8s3.3-0.6 4.5-1.8 1.8-2.8 1.8-4.7-0.6-3.5-1.8-4.7c-1.2-1.2-2.7-1.8-4.5-1.8s-3.3 0.6-4.5 1.8-1.8 2.8-1.8 4.7 0.6 3.5 1.8 4.7z"/>
		<path d="m664.5 20.3v10.8h-4.2v-19.9h4.2v3.6c0.7-1.2 1.6-2.2 2.8-2.9s2.5-1 3.8-1c2.2 0 4.1 0.7 5.4 2.1 1.4 1.4 2.1 3.4 2.1 5.9v12.2h-4.2v-10.9c0-3.7-1.5-5.5-4.6-5.5-1.4 0-2.7 0.5-3.8 1.4s-1.5 2.4-1.5 4.2z"/>
		<path d="m700.7 10.5c-1 3.1-1.5 6.1-1.5 8.9s0.5 5.8 1.5 8.9c1 3.1 2.2 5.7 3.7 7.7h-4.4c-1.2-1.7-2.3-4.1-3.3-7.2s-1.5-6.3-1.5-9.4 0.5-6.2 1.5-9.4c1-3.1 2.1-5.6 3.3-7.2h4.4c-1.5 2-2.7 4.6-3.7 7.7z"/>
		<path d="m712.8 20.3v10.8h-4.2v-27.7h4.2v11.4c0.6-1.2 1.5-2.2 2.7-2.9s2.5-1 3.9-1c2.2 0 4.1 0.7 5.4 2.1 1.4 1.4 2.1 3.4 2.1 5.9v12.2h-4.2v-10.9c0-3.7-1.5-5.5-4.6-5.5-1.4 0-2.7 0.5-3.8 1.4s-1.5 2.4-1.5 4.2z"/>
		<path d="m743.6 15.1c-2.1 0-3.6 0.7-4.7 2s-1.6 3.2-1.6 5.4v8.5h-4.2v-19.8h4.2v4c0.7-1.2 1.6-2.3 2.7-3.1 1.2-0.8 2.4-1.2 3.7-1.2v4.2h-0.1z"/>
		<path d="m762.5 25.1c0 1.9-0.7 3.4-2.1 4.5s-3.1 1.7-5.3 1.7c-1.4 0-2.9-0.3-4.5-0.8s-2.9-1.3-4.1-2.2l2-3.2c2.3 1.7 4.6 2.6 6.7 2.6 0.9 0 1.7-0.2 2.2-0.7 0.5-0.4 0.8-1 0.8-1.7 0-1-1.3-1.9-4-2.7-0.2-0.1-0.3-0.1-0.4-0.1-4.1-1.1-6.2-3-6.2-5.6 0-1.8 0.7-3.3 2.1-4.4s3.3-1.7 5.6-1.7 4.5 0.7 6.5 2l-1.6 3.1c-1.6-1.1-3.4-1.6-5.3-1.6-1 0-1.8 0.2-2.4 0.5-0.6 0.4-0.9 0.9-0.9 1.6 0 0.6 0.3 1.1 1 1.4 0.4 0.2 1.1 0.4 1.9 0.6s1.5 0.4 2.1 0.6 1.2 0.4 1.8 0.7c0.6 0.2 1.2 0.6 1.9 1 1.5 1.2 2.2 2.6 2.2 4.4z"/>
		<path d="m768.1 28.4c1-3.1 1.5-6.1 1.5-8.9s-0.5-5.8-1.5-8.9c-1-3.1-2.2-5.7-3.7-7.7h4.4c1.2 1.7 2.3 4.1 3.3 7.2s1.5 6.3 1.5 9.4c0 3.1-0.5 6.2-1.5 9.4s-2.1 5.6-3.3 7.2h-4.4c1.5-2.1 2.7-4.6 3.7-7.7z"/>
		<path d="m246.3 51.4c1.8 0 3.4 0.6 4.7 1.9s1.9 2.9 1.9 5-0.6 3.8-1.9 5.1c-1.3 1.3-2.8 2-4.5 2s-3.3-0.8-4.6-2.3v2h-2.9v-19h2.9v7.9c1.1-1.7 2.6-2.6 4.4-2.6zm-4.5 7.1c0 1.3 0.4 2.4 1.2 3.2s1.7 1.2 2.9 1.2c1.1 0 2.1-0.4 2.9-1.2s1.3-1.9 1.3-3.2-0.4-2.4-1.2-3.3c-0.8-0.9-1.8-1.3-2.9-1.3s-2.1 0.4-2.9 1.3-1.3 2-1.3 3.3z"/>
		<path d="m269.3 59.7h-10.7c0.1 1 0.5 1.8 1.4 2.4 0.8 0.6 1.8 0.9 2.9 0.9 1.7 0 3-0.5 3.9-1.6l1.6 1.8c-1.5 1.5-3.4 2.3-5.7 2.3-1.9 0-3.5-0.6-4.9-1.9s-2-3-2-5.1 0.7-3.8 2-5.1c1.4-1.3 3-1.9 4.8-1.9 1.9 0 3.4 0.6 4.7 1.7s1.9 2.7 1.9 4.6v1.9zm-10.7-2.3h7.8c0-1.1-0.4-2-1.1-2.6s-1.6-0.9-2.7-0.9c-1 0-2 0.3-2.8 1s-1.2 1.4-1.2 2.5z"/>
		<path d="m276.1 53.9v6.9c0 0.6 0.2 1.2 0.5 1.5 0.3 0.4 0.8 0.6 1.4 0.6s1.2-0.3 1.8-0.9l1.2 2c-1 0.9-2.1 1.4-3.3 1.4s-2.3-0.4-3.1-1.3c-0.9-0.8-1.3-2-1.3-3.4v-6.8h-1.7v-2.3h1.7v-4.3h2.9v4.3h3.6v2.3h-3.7z"/>
		<path d="m290.3 65.2h-3.3l-4.7-13.6h3l3.4 10.3 3.4-10.3h3l3.4 10.3 3.4-10.3h3l-4.9 13.6h-3.3l-3.2-9.3-3.2 9.3z"/>
		<path d="m319.9 59.7h-10.7c0.1 1 0.5 1.8 1.4 2.4 0.8 0.6 1.8 0.9 2.9 0.9 1.7 0 3-0.5 3.9-1.6l1.6 1.8c-1.5 1.5-3.4 2.3-5.7 2.3-1.9 0-3.5-0.6-4.9-1.9s-2-3-2-5.1 0.7-3.8 2-5.1c1.4-1.3 3-1.9 4.8-1.9 1.9 0 3.4 0.6 4.7 1.7s1.9 2.7 1.9 4.6v1.9zm-10.7-2.3h7.8c0-1.1-0.4-2-1.1-2.6s-1.6-0.9-2.7-0.9c-1 0-2 0.3-2.8 1s-1.2 1.4-1.2 2.5z"/>
		<path d="m336.3 59.7h-10.7c0.1 1 0.5 1.8 1.4 2.4 0.8 0.6 1.8 0.9 2.9 0.9 1.7 0 3-0.5 3.9-1.6l1.6 1.8c-1.5 1.5-3.4 2.3-5.7 2.3-1.9 0-3.5-0.6-4.9-1.9s-2-3-2-5.1 0.7-3.8 2-5.1c1.4-1.3 3-1.9 4.8-1.9 1.9 0 3.4 0.6 4.7 1.7s1.9 2.7 1.9 4.6v1.9zm-10.7-2.3h7.8c0-1.1-0.4-2-1.1-2.6s-1.6-0.9-2.7-0.9c-1 0-2 0.3-2.8 1s-1.2 1.4-1.2 2.5z"/>
		<path d="m342.8 57.9v7.4h-2.9v-13.7h2.9v2.5c0.5-0.8 1.1-1.5 1.9-2s1.7-0.7 2.6-0.7c1.5 0 2.8 0.5 3.7 1.4s1.4 2.3 1.4 4.1v8.4h-2.9v-7.5c0-2.5-1-3.8-3.1-3.8-1 0-1.9 0.3-2.6 1s-1 1.6-1 2.9z"/>
		<path d="m371.8 51.4c1.8 0 3.4 0.6 4.7 1.9s1.9 2.9 1.9 5-0.6 3.8-1.9 5.1c-1.3 1.3-2.8 2-4.5 2s-3.3-0.8-4.6-2.3v7h-2.9v-18.5h2.9v2.4c1.1-1.7 2.6-2.6 4.4-2.6zm-4.5 7.1c0 1.3 0.4 2.4 1.2 3.2s1.7 1.2 2.9 1.2c1.1 0 2.1-0.4 2.9-1.2s1.3-1.9 1.3-3.2-0.4-2.4-1.2-3.3c-0.8-0.9-1.8-1.3-2.9-1.3s-2.1 0.4-2.9 1.3-1.3 2-1.3 3.3z"/>
		<path d="m382.2 48.9c-0.4-0.4-0.5-0.8-0.5-1.3s0.2-0.9 0.5-1.3c0.4-0.4 0.8-0.5 1.3-0.5s0.9 0.2 1.3 0.5 0.5 0.8 0.5 1.3-0.2 0.9-0.5 1.3c-0.4 0.4-0.8 0.5-1.3 0.5s-1-0.1-1.3-0.5zm2.7 16.3h-2.9v-13.6h2.9v13.6z"/>
		<path d="m396.6 51.4c1.8 0 3.4 0.6 4.7 1.9s1.9 2.9 1.9 5-0.6 3.8-1.9 5.1c-1.3 1.3-2.8 2-4.5 2s-3.3-0.8-4.6-2.3v7h-2.9v-18.5h2.9v2.4c1.1-1.7 2.6-2.6 4.4-2.6zm-4.4 7.1c0 1.3 0.4 2.4 1.2 3.2s1.7 1.2 2.9 1.2c1.1 0 2.1-0.4 2.9-1.2s1.3-1.9 1.3-3.2-0.4-2.4-1.2-3.3c-0.8-0.9-1.8-1.3-2.9-1.3s-2.1 0.4-2.9 1.3-1.3 2-1.3 3.3z"/>
		<path d="m419.7 59.7h-10.7c0.1 1 0.5 1.8 1.4 2.4 0.8 0.6 1.8 0.9 2.9 0.9 1.7 0 3-0.5 3.9-1.6l1.6 1.8c-1.5 1.5-3.4 2.3-5.7 2.3-1.9 0-3.5-0.6-4.9-1.9s-2-3-2-5.1 0.7-3.8 2-5.1c1.4-1.3 3-1.9 4.8-1.9 1.9 0 3.4 0.6 4.7 1.7s1.9 2.7 1.9 4.6v1.9zm-10.7-2.3h7.8c0-1.1-0.4-2-1.1-2.6s-1.6-0.9-2.7-0.9c-1 0-2 0.3-2.8 1s-1.2 1.4-1.2 2.5z"/>
		<path d="m426.2 65.2h-2.9v-19h2.9v19z"/>
		<path d="m430.8 48.9c-0.4-0.4-0.5-0.8-0.5-1.3s0.2-0.9 0.5-1.3c0.4-0.4 0.8-0.5 1.3-0.5s0.9 0.2 1.3 0.5 0.5 0.8 0.5 1.3-0.2 0.9-0.5 1.3c-0.4 0.4-0.8 0.5-1.3 0.5s-0.9-0.1-1.3-0.5zm2.7 16.3h-2.9v-13.6h2.9v13.6z"/>
		<path d="m440.9 57.9v7.4h-2.9v-13.7h2.9v2.5c0.5-0.8 1.1-1.5 1.9-2s1.7-0.7 2.6-0.7c1.5 0 2.8 0.5 3.7 1.4s1.4 2.3 1.4 4.1v8.4h-2.9v-7.5c0-2.5-1-3.8-3.1-3.8-1 0-1.9 0.3-2.6 1s-1 1.6-1 2.9z"/>
		<path d="m467.7 59.7h-10.7c0.1 1 0.5 1.8 1.4 2.4 0.8 0.6 1.8 0.9 2.9 0.9 1.7 0 3-0.5 3.9-1.6l1.6 1.8c-1.5 1.5-3.4 2.3-5.7 2.3-1.9 0-3.5-0.6-4.9-1.9s-2-3-2-5.1 0.7-3.8 2-5.1c1.4-1.3 3-1.9 4.8-1.9 1.9 0 3.4 0.6 4.7 1.7s1.9 2.7 1.9 4.6v1.9zm-10.7-2.3h7.8c0-1.1-0.4-2-1.1-2.6s-1.6-0.9-2.7-0.9c-1 0-2 0.3-2.8 1s-1.2 1.4-1.2 2.5z"/>
		<path d="m480.9 61.2c0 1.3-0.5 2.3-1.4 3.1s-2.1 1.2-3.6 1.2c-1 0-2-0.2-3.1-0.5s-2-0.9-2.8-1.5l1.4-2.2c1.6 1.2 3.1 1.8 4.6 1.8 0.6 0 1.2-0.1 1.5-0.4s0.6-0.7 0.6-1.1c0-0.7-0.9-1.3-2.7-1.8-0.1-0.1-0.2-0.1-0.3-0.1-2.8-0.8-4.3-2-4.3-3.8 0-1.3 0.5-2.3 1.5-3 1-0.8 2.3-1.1 3.8-1.1s3.1 0.5 4.5 1.4l-1.1 2.1c-1.1-0.7-2.3-1.1-3.6-1.1-0.7 0-1.2 0.1-1.7 0.4-0.4 0.2-0.6 0.6-0.6 1.1 0 0.4 0.2 0.8 0.7 1 0.3 0.2 0.7 0.3 1.3 0.4s1 0.3 1.5 0.4c0.4 0.1 0.8 0.3 1.2 0.5s0.8 0.4 1.3 0.7c0.8 0.2 1.3 1.2 1.3 2.5z"/>
		<path d="m503.2 65.2h-2.6v-1.8c-1.1 1.3-2.6 2-4.5 2-1.4 0-2.6-0.4-3.5-1.2s-1.4-1.9-1.4-3.2 0.5-2.3 1.5-3 2.3-1 4-1h3.7v-0.5c0-1.8-1-2.7-3-2.7-1.3 0-2.6 0.5-3.9 1.4l-1.3-1.8c1.7-1.3 3.5-2 5.6-2 1.6 0 2.9 0.4 3.9 1.2s1.5 2.1 1.5 3.8v8.8zm-2.9-5v-1.2h-3.2c-2.1 0-3.1 0.6-3.1 1.9 0 0.7 0.3 1.2 0.8 1.5 0.5 0.4 1.2 0.5 2.1 0.5s1.7-0.3 2.4-0.8c0.7-0.4 1-1.1 1-1.9z"/>
		<path d="m510.4 57.9v7.4h-2.9v-13.7h2.9v2.5c0.5-0.8 1.1-1.5 1.9-2s1.7-0.7 2.6-0.7c1.5 0 2.8 0.5 3.7 1.4s1.4 2.3 1.4 4.1v8.4h-2.9v-7.5c0-2.5-1-3.8-3.1-3.8-1 0-1.9 0.3-2.6 1s-1 1.6-1 2.9z"/>
		<path d="m535.5 65.2h-2.6v-1.8c-1.1 1.3-2.6 2-4.5 2-1.4 0-2.6-0.4-3.5-1.2s-1.4-1.9-1.4-3.2 0.5-2.3 1.5-3 2.3-1 4-1h3.7v-0.5c0-1.8-1-2.7-3-2.7-1.3 0-2.6 0.5-3.9 1.4l-1.3-1.8c1.7-1.3 3.5-2 5.6-2 1.6 0 2.9 0.4 3.9 1.2s1.5 2.1 1.5 3.8v8.8zm-2.8-5v-1.2h-3.2c-2.1 0-3.1 0.6-3.1 1.9 0 0.7 0.3 1.2 0.8 1.5 0.5 0.4 1.2 0.5 2.1 0.5s1.7-0.3 2.4-0.8c0.6-0.4 1-1.1 1-1.9z"/>
		<path d="m542.8 65.2h-2.9v-19h2.9v19z"/>
		<path d="m549.1 70.7c-1.2 0-2.4-0.5-3.4-1.4l1.3-2.3c0.6 0.6 1.2 0.8 1.9 0.8 0.6 0 1.2-0.2 1.6-0.7s0.6-1 0.6-1.5c0-0.2-1.8-4.9-5.5-14h3.1l4.1 10 4.1-10h3.1l-6.6 16.2c-0.4 0.9-1 1.6-1.7 2.1-1 0.5-1.8 0.8-2.6 0.8z"/>
		<path d="m571.9 61.2c0 1.3-0.5 2.3-1.4 3.1s-2.1 1.2-3.6 1.2c-1 0-2-0.2-3.1-0.5s-2-0.9-2.8-1.5l1.4-2.2c1.6 1.2 3.1 1.8 4.6 1.8 0.6 0 1.2-0.1 1.5-0.4s0.6-0.7 0.6-1.1c0-0.7-0.9-1.3-2.7-1.8-0.1-0.1-0.2-0.1-0.3-0.1-2.8-0.8-4.3-2-4.3-3.8 0-1.3 0.5-2.3 1.5-3 1-0.8 2.3-1.1 3.8-1.1s3.1 0.5 4.5 1.4l-1.1 2.1c-1.1-0.7-2.3-1.1-3.6-1.1-0.7 0-1.2 0.1-1.7 0.4-0.4 0.2-0.6 0.6-0.6 1.1 0 0.4 0.2 0.8 0.7 1 0.3 0.2 0.7 0.3 1.3 0.4s1 0.3 1.5 0.4c0.4 0.1 0.8 0.3 1.2 0.5s0.8 0.4 1.3 0.7c0.8 0.2 1.3 1.2 1.3 2.5z"/>
		<path d="m575.7 48.9c-0.4-0.4-0.5-0.8-0.5-1.3s0.2-0.9 0.5-1.3c0.4-0.4 0.8-0.5 1.3-0.5s0.9 0.2 1.3 0.5 0.5 0.8 0.5 1.3-0.2 0.9-0.5 1.3c-0.4 0.4-0.8 0.5-1.3 0.5s-1-0.1-1.3-0.5zm2.7 16.3h-2.9v-13.6h2.9v13.6z"/>
		<path d="m585.7 57.9v7.4h-2.9v-13.7h2.9v2.5c0.5-0.8 1.1-1.5 1.9-2s1.7-0.7 2.6-0.7c1.5 0 2.8 0.5 3.7 1.4s1.4 2.3 1.4 4.1v8.4h-2.9v-7.5c0-2.5-1-3.8-3.1-3.8-1 0-1.9 0.3-2.6 1s-1 1.6-1 2.9z"/>
		<path d="m612.3 51.6v11.9c0 2.4-0.7 4.2-2 5.4s-3 1.8-5 1.8-3.9-0.6-5.6-1.9l1.4-2.2c1.3 1 2.7 1.5 4 1.5 1.4 0 2.4-0.3 3.2-1s1.2-1.8 1.2-3.4v-1.7c-0.4 0.8-1 1.4-1.8 1.9s-1.7 0.7-2.7 0.7c-1.8 0-3.3-0.6-4.5-1.9s-1.7-2.8-1.7-4.7 0.6-3.4 1.7-4.7c1.2-1.3 2.6-1.9 4.4-1.9s3.3 0.7 4.4 2.2v-2h3zm-10.6 6.3c0 1.1 0.3 2.1 1 2.9s1.6 1.2 2.8 1.2 2.1-0.4 2.8-1.2 1.1-1.8 1.1-2.9c0-1.2-0.4-2.2-1.1-3s-1.7-1.2-2.8-1.2c-1.2 0-2.1 0.4-2.8 1.3-0.7 0.8-1 1.8-1 2.9z"/>
		<path d="m172.7 99.4h-3.1v-7.1l-6.6-10.8h3.3l4.9 8.1 4.9-8.1h3.3l-6.7 10.8v7.1z"/>
		<path d="m182.3 99.4v-17.9h3v7.8h8.9v-7.8h3v17.9h-3v-7.3h-8.9v7.3h-3z"/>
		<path d="m220.2 81.5v2.7h-7.6v4.4c0.8-0.4 1.6-0.6 2.6-0.6 1.7 0 3.1 0.5 4.3 1.5s1.8 2.4 1.8 4.1c0 1.7-0.6 3.2-1.9 4.3s-2.8 1.7-4.7 1.7c-2.4 0-4.3-0.8-5.8-2.4l1.6-2.2c0.1 0.1 0.3 0.3 0.6 0.5 0.2 0.2 0.7 0.4 1.4 0.8 0.7 0.3 1.5 0.5 2.4 0.5s1.6-0.3 2.3-0.8 1-1.3 1-2.2c0-1-0.4-1.7-1.1-2.3-0.7-0.5-1.7-0.8-2.8-0.8s-2.2 0.3-3.2 0.8l-1.3-1.4v-8.6h10.4z"/>
		<path d="m226.2 97.1c-1.2-1.7-1.8-3.9-1.8-6.8 0-2.8 0.6-5.1 1.8-6.8s3-2.5 5.5-2.5 4.3 0.8 5.5 2.5c1.2 1.7 1.8 3.9 1.8 6.8 0 2.8-0.6 5.1-1.8 6.8s-3 2.5-5.5 2.5-4.3-0.8-5.5-2.5zm2.2-11.6c-0.7 1.2-1.1 2.8-1.1 4.8s0.4 3.6 1.1 4.8 1.8 1.8 3.3 1.8 2.6-0.6 3.3-1.8c0.7-1.2 1-2.8 1-4.9 0-2-0.3-3.6-1-4.9-0.7-1.2-1.8-1.8-3.3-1.8s-2.6 0.8-3.3 2z"/>
		<path d="m243.2 93.1v-2.7h8.5v2.7h-8.5z"/>
		<path d="m259 84.6v1.1h3.6v2.3h-3.6v11.3h-2.9v-11.2h-1.7v-2.3h1.7v-1.1c0-1.4 0.4-2.6 1.3-3.4s1.9-1.3 3.1-1.3 2.3 0.5 3.3 1.4l-1.2 2c-0.6-0.6-1.2-0.9-1.8-0.9s-1.1 0.2-1.4 0.6c-0.2 0.4-0.4 0.9-0.4 1.5z"/>
		<path d="m276.7 97.6c-1.4 1.4-3.1 2-5.1 2s-3.8-0.7-5.1-2c-1.4-1.4-2-3-2-5s0.7-3.6 2-5c1.4-1.4 3.1-2 5.1-2s3.8 0.7 5.1 2c1.4 1.4 2 3 2 5s-0.6 3.6-2 5zm-8.2-1.8c0.8 0.8 1.8 1.2 3.1 1.2 1.2 0 2.3-0.4 3.1-1.2s1.2-1.9 1.2-3.2-0.4-2.4-1.2-3.2-1.8-1.2-3.1-1.2c-1.2 0-2.3 0.4-3.1 1.2s-1.2 1.9-1.2 3.2 0.4 2.4 1.2 3.2z"/>
		<path d="m285.3 99.4h-2.9v-19h2.9v19z"/>
		<path d="m290.9 97.7c-1.3-1.3-1.9-3-1.9-5.1s0.7-3.8 2-5.1 2.9-1.9 4.7-1.9 3.3 0.8 4.4 2.3v-7.5h2.9v19h-3v-2c-1.1 1.5-2.6 2.3-4.6 2.3-1.7-0.1-3.2-0.7-4.5-2zm0.9-5.1c0 1.3 0.4 2.4 1.3 3.2 0.8 0.8 1.8 1.2 2.9 1.2s2.1-0.4 2.9-1.2 1.2-1.9 1.2-3.2-0.4-2.4-1.2-3.3-1.8-1.3-2.9-1.3-2.1 0.4-2.9 1.3c-0.9 1-1.3 2-1.3 3.3z"/>
		<path d="m313.8 81.5h6.5v17.9h-2.9v-15.2h-3.6v-2.7z"/>
		<path d="m326.6 97.1c-1.2-1.7-1.8-3.9-1.8-6.8 0-2.8 0.6-5.1 1.8-6.8s3-2.5 5.5-2.5 4.3 0.8 5.5 2.5c1.2 1.7 1.8 3.9 1.8 6.8 0 2.8-0.6 5.1-1.8 6.8s-3 2.5-5.5 2.5-4.3-0.8-5.5-2.5zm2.1-11.6c-0.7 1.2-1.1 2.8-1.1 4.8s0.4 3.6 1.1 4.8 1.8 1.8 3.3 1.8 2.6-0.6 3.3-1.8c0.7-1.2 1-2.8 1-4.9 0-2-0.3-3.6-1-4.9-0.7-1.2-1.8-1.8-3.3-1.8s-2.6 0.8-3.3 2z"/>
		<path d="m344.8 97.1c-1.2-1.7-1.8-3.9-1.8-6.8 0-2.8 0.6-5.1 1.8-6.8s3-2.5 5.5-2.5 4.3 0.8 5.5 2.5c1.2 1.7 1.8 3.9 1.8 6.8 0 2.8-0.6 5.1-1.8 6.8s-3 2.5-5.5 2.5-4.3-0.8-5.5-2.5zm2.2-11.6c-0.7 1.2-1.1 2.8-1.1 4.8s0.4 3.6 1.1 4.8 1.8 1.8 3.3 1.8 2.6-0.6 3.3-1.8c0.7-1.2 1-2.8 1-4.9 0-2-0.3-3.6-1-4.9-0.7-1.2-1.8-1.8-3.3-1.8s-2.6 0.8-3.3 2z"/>
		<path d="m376.5 85.6c1.8 0 3.4 0.6 4.7 1.9s1.9 2.9 1.9 5-0.6 3.8-1.9 5.1c-1.3 1.3-2.8 2-4.5 2s-3.3-0.8-4.6-2.3v2h-2.9v-19h2.9v7.8c1.1-1.7 2.6-2.5 4.4-2.5zm-4.5 7c0 1.3 0.4 2.4 1.2 3.2s1.7 1.2 2.9 1.2c1.1 0 2.1-0.4 2.9-1.2s1.3-1.9 1.3-3.2-0.4-2.4-1.2-3.3c-0.8-0.9-1.8-1.3-2.9-1.3s-2.1 0.4-2.9 1.3-1.3 2-1.3 3.3z"/>
		<path d="m394.1 85.6c1.8 0 3.4 0.6 4.7 1.9s1.9 2.9 1.9 5-0.6 3.8-1.9 5.1c-1.3 1.3-2.8 2-4.5 2s-3.3-0.8-4.6-2.3v7h-2.9v-18.5h2.9v2.4c1.1-1.8 2.6-2.6 4.4-2.6zm-4.5 7c0 1.3 0.4 2.4 1.2 3.2s1.7 1.2 2.9 1.2c1.1 0 2.1-0.4 2.9-1.2s1.3-1.9 1.3-3.2-0.4-2.4-1.2-3.3c-0.8-0.9-1.8-1.3-2.9-1.3s-2.1 0.4-2.9 1.3-1.3 2-1.3 3.3z"/>
		<path d="m419.4 85.6c1.8 0 3.4 0.6 4.7 1.9s1.9 2.9 1.9 5-0.6 3.8-1.9 5.1c-1.3 1.3-2.8 2-4.5 2s-3.3-0.8-4.6-2.3v7h-2.9v-18.5h2.9v2.4c1.1-1.8 2.6-2.6 4.4-2.6zm-4.5 7c0 1.3 0.4 2.4 1.2 3.2s1.7 1.2 2.9 1.2c1.1 0 2.1-0.4 2.9-1.2s1.3-1.9 1.3-3.2-0.4-2.4-1.2-3.3c-0.8-0.9-1.8-1.3-2.9-1.3s-2.1 0.4-2.9 1.3-1.3 2-1.3 3.3z"/>
		<path d="m440.7 99.4h-2.6v-1.8c-1.1 1.3-2.6 2-4.5 2-1.4 0-2.6-0.4-3.5-1.2s-1.4-1.9-1.4-3.2 0.5-2.3 1.5-3 2.3-1 4-1h3.7v-0.5c0-1.8-1-2.7-3-2.7-1.3 0-2.6 0.5-3.9 1.4l-1.3-1.8c1.7-1.3 3.5-2 5.6-2 1.6 0 2.9 0.4 3.9 1.2s1.5 2.1 1.5 3.8v8.8zm-2.8-5.1v-1.2h-3.2c-2.1 0-3.1 0.6-3.1 1.9 0 0.7 0.3 1.2 0.8 1.5 0.5 0.4 1.2 0.5 2.1 0.5s1.7-0.3 2.4-0.8c0.6-0.3 1-1 1-1.9z"/>
		<path d="m445.2 83.1c-0.4-0.4-0.5-0.8-0.5-1.3s0.2-0.9 0.5-1.3c0.4-0.4 0.8-0.5 1.3-0.5s0.9 0.2 1.3 0.5 0.5 0.8 0.5 1.3-0.2 0.9-0.5 1.3c-0.4 0.4-0.8 0.5-1.3 0.5s-0.9-0.2-1.3-0.5zm2.7 16.3h-2.9v-13.6h2.9v13.6z"/>
		<path d="m459.5 88.5c-1.4 0-2.5 0.5-3.2 1.4s-1.1 2.2-1.1 3.7v5.8h-2.9v-13.6h2.9v2.7c0.5-0.9 1.1-1.6 1.9-2.1s1.6-0.8 2.5-0.8v2.9h-0.1z"/>
		<path d="m475.4 93.8h-10.7c0.1 1 0.5 1.8 1.4 2.4 0.8 0.6 1.8 0.9 2.9 0.9 1.7 0 3-0.5 3.9-1.6l1.6 1.8c-1.5 1.5-3.4 2.3-5.7 2.3-1.9 0-3.5-0.6-4.9-1.9s-2-3-2-5.1 0.7-3.8 2-5.1c1.4-1.3 3-1.9 4.8-1.9 1.9 0 3.4 0.6 4.7 1.7s1.9 2.7 1.9 4.6v1.9zm-10.7-2.2h7.8c0-1.1-0.4-2-1.1-2.6s-1.6-0.9-2.7-0.9c-1 0-2 0.3-2.8 1s-1.2 1.4-1.2 2.5z"/>
		<path d="m480.1 97.7c-1.3-1.3-1.9-3-1.9-5.1s0.7-3.8 2-5.1 2.9-1.9 4.7-1.9 3.3 0.8 4.4 2.3v-7.5h2.9v19h-2.9v-2c-1.1 1.5-2.6 2.3-4.6 2.3-1.8-0.1-3.3-0.7-4.6-2zm0.9-5.1c0 1.3 0.4 2.4 1.3 3.2 0.8 0.8 1.8 1.2 2.9 1.2s2.1-0.4 2.9-1.2 1.2-1.9 1.2-3.2-0.4-2.4-1.2-3.3-1.8-1.3-2.9-1.3-2.1 0.4-2.9 1.3c-0.9 1-1.3 2-1.3 3.3z"/>
		<path d="m496.4 93.1v-2.7h8.5v2.7h-8.5z"/>
		<path d="m522.2 93.8h-10.7c0.1 1 0.5 1.8 1.4 2.4 0.8 0.6 1.8 0.9 2.9 0.9 1.7 0 3-0.5 3.9-1.6l1.6 1.8c-1.5 1.5-3.4 2.3-5.7 2.3-1.9 0-3.5-0.6-4.9-1.9s-2-3-2-5.1 0.7-3.8 2-5.1c1.4-1.3 3-1.9 4.8-1.9 1.9 0 3.4 0.6 4.7 1.7s1.9 2.7 1.9 4.6v1.9zm-10.7-2.2h7.8c0-1.1-0.4-2-1.1-2.6s-1.6-0.9-2.7-0.9c-1 0-2 0.3-2.8 1s-1.2 1.4-1.2 2.5z"/>
		<path d="m528.7 92v7.4h-2.9v-13.6h2.9v2.5c0.5-0.8 1.1-1.5 1.9-2s1.7-0.7 2.6-0.7c1.5 0 2.8 0.5 3.7 1.4s1.4 2.3 1.4 4.1v8.4h-2.9v-7.5c0-2.5-1-3.8-3.1-3.8-1 0-1.9 0.3-2.6 1s-1 1.6-1 2.8z"/>
		<path d="m543.8 97.7c-1.3-1.3-1.9-3-1.9-5.1s0.7-3.8 2-5.1 2.9-1.9 4.7-1.9 3.3 0.8 4.4 2.3v-7.5h2.9v19h-2.9v-2c-1.1 1.5-2.6 2.3-4.6 2.3-1.8-0.1-3.3-0.7-4.6-2zm1-5.1c0 1.3 0.4 2.4 1.3 3.2 0.8 0.8 1.8 1.2 2.9 1.2s2.1-0.4 2.9-1.2 1.2-1.9 1.2-3.2-0.4-2.4-1.2-3.3-1.8-1.3-2.9-1.3-2.1 0.4-2.9 1.3c-0.9 1-1.3 2-1.3 3.3z"/>
		<path d="m574 94.4l4-12.9h2.7l4 12.9 4.5-12.9h3.3l-6.2 17.9h-3l-3.8-12.3h-0.2l-3.8 12.3h-3l-6.3-17.9h3.3l4.5 12.9z"/>
		<path d="m607.5 90.7h3v6.1c-1.7 1.9-4.1 2.8-7.2 2.8-2.6 0-4.9-0.9-6.6-2.6-1.8-1.7-2.7-3.9-2.7-6.6s0.9-4.9 2.7-6.7c1.8-1.8 4-2.7 6.6-2.7s4.7 0.8 6.4 2.3l-1.6 2.3c-0.7-0.6-1.4-1-2.1-1.2s-1.5-0.3-2.5-0.3c-1.8 0-3.3 0.6-4.6 1.8-1.2 1.2-1.8 2.7-1.8 4.6s0.6 3.4 1.8 4.6c1.2 1.2 2.6 1.7 4.3 1.7s3.1-0.4 4.3-1.1v-5z"/>
		<path d="m620.3 83.8c-0.9 0-1.6 0.2-2.2 0.5-0.6 0.4-0.8 0.9-0.8 1.6s0.3 1.3 0.8 1.7c0.6 0.4 1.8 0.8 3.6 1.2s3.2 1.1 4.2 1.9c0.9 0.8 1.4 2 1.4 3.5s-0.6 2.8-1.8 3.8c-1.2 1-2.7 1.5-4.6 1.5-2.8 0-5.3-1-7.5-2.9l1.9-2.3c1.8 1.6 3.7 2.4 5.6 2.4 1 0 1.7-0.2 2.3-0.6s0.9-1 0.9-1.7-0.3-1.2-0.8-1.6-1.5-0.7-2.8-1.1c-1.3-0.3-2.3-0.6-3-0.9s-1.3-0.6-1.8-1c-1.1-0.8-1.6-2-1.6-3.7s0.6-2.9 1.8-3.8 2.7-1.3 4.5-1.3c1.1 0 2.3 0.2 3.4 0.6s2.1 0.9 2.9 1.6l-1.6 2.3c-0.5-0.5-1.2-0.9-2.2-1.2s-1.7-0.5-2.6-0.5z"/>
		<path d="m639.8 97.7c-1.3-1.3-1.9-3-1.9-5.1s0.7-3.8 2-5.1 2.9-1.9 4.7-1.9 3.3 0.8 4.4 2.3v-7.5h2.9v19h-2.9v-2c-1.1 1.5-2.6 2.3-4.6 2.3-1.9-0.1-3.4-0.7-4.6-2zm0.9-5.1c0 1.3 0.4 2.4 1.3 3.2 0.8 0.8 1.8 1.2 2.9 1.2s2.1-0.4 2.9-1.2 1.2-1.9 1.2-3.2-0.4-2.4-1.2-3.3-1.8-1.3-2.9-1.3-2.1 0.4-2.9 1.3c-0.9 1-1.3 2-1.3 3.3z"/>
		<path d="m667.4 99.4h-2.6v-1.8c-1.1 1.3-2.6 2-4.5 2-1.4 0-2.6-0.4-3.5-1.2s-1.4-1.9-1.4-3.2 0.5-2.3 1.5-3 2.3-1 4-1h3.7v-0.5c0-1.8-1-2.7-3-2.7-1.3 0-2.6 0.5-3.9 1.4l-1.3-1.8c1.7-1.3 3.5-2 5.6-2 1.6 0 2.9 0.4 3.9 1.2s1.5 2.1 1.5 3.8v8.8zm-2.9-5.1v-1.2h-3.2c-2.1 0-3.1 0.6-3.1 1.9 0 0.7 0.3 1.2 0.8 1.5 0.5 0.4 1.2 0.5 2.1 0.5s1.7-0.3 2.4-0.8c0.6-0.3 1-1 1-1.9z"/>
		<path d="m674.9 88.1v6.9c0 0.6 0.2 1.2 0.5 1.5 0.3 0.4 0.8 0.6 1.4 0.6s1.2-0.3 1.8-0.9l1.2 2c-1 0.9-2.1 1.4-3.3 1.4s-2.3-0.4-3.1-1.3c-0.9-0.8-1.3-2-1.3-3.4v-6.8h-1.7v-2.3h1.7v-4.3h2.9v4.3h3.6v2.3h-3.7z"/>
		<path d="m693.7 99.4h-2.6v-1.8c-1.1 1.3-2.6 2-4.5 2-1.4 0-2.6-0.4-3.5-1.2s-1.4-1.9-1.4-3.2 0.5-2.3 1.5-3 2.3-1 4-1h3.7v-0.5c0-1.8-1-2.7-3-2.7-1.3 0-2.6 0.5-3.9 1.4l-1.3-1.8c1.7-1.3 3.5-2 5.6-2 1.6 0 2.9 0.4 3.9 1.2s1.5 2.1 1.5 3.8v8.8zm-2.8-5.1v-1.2h-3.2c-2.1 0-3.1 0.6-3.1 1.9 0 0.7 0.3 1.2 0.8 1.5 0.5 0.4 1.2 0.5 2.1 0.5s1.7-0.3 2.4-0.8c0.6-0.3 1-1 1-1.9z"/>
	</g>
		<g fill="#566585">
			<path d="m504.4 831.5l-6.4 4.5-10.3-14.7 5.7-4c1-0.7 1.9-1.2 2.8-1.4 0.9-0.3 1.6-0.3 2.3-0.2 1.2 0.3 2.1 0.9 2.8 1.9 0.8 1.1 1 2.3 0.7 3.3-0.1 0.4-0.2 0.6-0.3 0.7s-0.2 0.3-0.4 0.6c1-0.4 2.1-0.5 3-0.3 1 0.2 1.8 0.8 2.4 1.8 0.7 1 1 2.2 0.8 3.4 0 1.5-1.1 3-3.1 4.4zm-9.9-5.8l3.1-2.2c1.8-1.3 2.3-2.5 1.4-3.7-0.5-0.7-1.1-1.1-1.7-1.1-0.7 0-1.4 0.3-2.3 0.9l-3.2 2.2 2.7 3.9zm4.4 6.3l3.9-2.7c0.9-0.6 1.5-1.3 1.8-1.9s0.1-1.3-0.4-2.1c-0.9-1.3-2.4-1.2-4.5 0.2l-3.6 2.5 2.8 4z"/>
			<path d="m514.4 818.3l-4.1-12.8 2.2-1.6 10.7 8.3-3.7-13.1 2.7-1.9 5.2 18.3-2.5 1.7-10.1-7.9-0.2 0.1 4 12.2-2.5 1.7-15.4-11.1 2.7-1.9 11 8z"/>
			<path d="m533.8 806l0.9 4.4-2.6 1.9-3.8-19.2 2.6-1.9 16.7 10.1-2.6 1.9-3.8-2.3-7.4 5.1zm4.7-6.8l-6.9-4.2 1.6 7.9 5.3-3.7z"/>
			<path d="m558.8 793.4l-2.1 1.5-1-1.5c-0.2 1.8-1 3.2-2.6 4.3-1.2 0.8-2.4 1.2-3.6 1s-2.2-0.7-3-1.8c-0.8-1.1-0.9-2.2-0.5-3.3s1.3-2.2 2.7-3.1l3-2.1-0.3-0.4c-1-1.5-2.4-1.6-4-0.5-1 0.7-1.8 1.9-2.4 3.4l-2.1-0.7c0.6-2 1.8-3.6 3.5-4.8 1.3-0.9 2.6-1.3 3.9-1.3 1.3 0.1 2.4 0.8 3.4 2.3l5.1 7zm-5.3-2.5l-0.7-0.9-2.6 1.9c-1.7 1.2-2.2 2.3-1.4 3.4 0.4 0.5 0.9 0.8 1.5 0.8s1.3-0.3 2.1-0.8c0.7-0.5 1.3-1.2 1.5-2 0.2-0.9 0.1-1.7-0.4-2.4z"/>
			<path d="m564.7 789.3l-2.3 1.6-10.9-15.6 2.3-1.6 10.9 15.6z"/>
			<path d="m566.4 779.1l4.2 6-2.4 1.6-7.8-11.2 2.3-1.6 1.4 2c-0.1-0.9 0-1.9 0.4-2.7 0.4-0.9 1-1.6 1.7-2.1 1.3-0.9 2.5-1.2 3.9-1 1.3 0.2 2.5 1.1 3.5 2.5l4.8 6.8-2.3 1.6-4.3-6.1c-1.4-2.1-3-2.5-4.7-1.3-0.8 0.6-1.3 1.3-1.6 2.3 0 1.1 0.2 2.1 0.9 3.2z"/>
			<path d="m594 758.2l2.5-1.7 3.5 5c-0.3 2.5-1.8 4.6-4.3 6.4-2.2 1.5-4.5 2.1-6.9 1.7-2.5-0.4-4.5-1.7-6-3.9s-2.1-4.5-1.6-7 1.8-4.5 3.9-6 4.3-2.1 6.6-1.8v2.8c-0.9-0.1-1.7 0-2.4 0.2s-1.5 0.6-2.2 1.1c-1.5 1-2.4 2.4-2.7 4.1s0 3.3 1.1 4.8c1.1 1.6 2.5 2.5 4.1 2.7 1.6 0.3 3.2-0.1 4.5-1.1s2.3-2.1 2.9-3.3l-3-4z"/>
			<path d="m604.9 756.2l0.9 4.4-2.6 1.9-3.8-19.2 2.6-1.9 16.7 10.1-2.6 1.9-3.8-2.3-7.4 5.1zm4.7-6.7l-6.9-4.2 1.6 7.9 5.3-3.7z"/>
			<path d="m616.4 734.6l8.6 12.4-2.5 1.7-8.7-12.4-4.4 3.1-1.6-2.3 11.4-8 1.6 2.3-4.4 3.2z"/>
			<path d="m622 727.3l2.5-1.7 5 7.2 1.7-11.9 3.1-2.2-1.4 10.5 11.8 4.1-2.9 2.1-9.4-3-0.5 3.8 2.9 4.1-2.5 1.7-10.3-14.7z"/>
			<path d="m654.4 721.8l-2.8-4-4 2.8-1.4-2 4-2.8-2.8-3.9 1.9-1.3 2.8 3.9 4-2.8 1.4 2-4 2.8 2.8 4-1.9 1.3z"/>
			<path d="m672.6 693.8c1.6 0.1 3.1 1.1 4.3 2.9s1.6 3.4 1.2 5c-0.5 1.6-1.8 3.1-3.9 4.6l-2.6 1.8 3 4.3-2.5 1.7-10.3-14.7 5-3.5c2.3-1.6 4.2-2.3 5.8-2.1zm2.5 7.2c0.1-0.9-0.2-1.8-0.9-2.8s-1.5-1.5-2.4-1.5-2.1 0.5-3.4 1.4l-2.5 1.8 4.1 5.9 2.9-2c1.3-1 2.1-1.9 2.2-2.8z"/>
			<path d="m676.9 690.7c-0.5-0.1-0.9-0.3-1.2-0.7s-0.4-0.9-0.3-1.4 0.3-0.9 0.7-1.2c0.4-0.3 0.9-0.4 1.4-0.3s0.9 0.3 1.2 0.7 0.4 0.9 0.3 1.4-0.3 0.9-0.7 1.2-0.9 0.4-1.4 0.3zm11.6 11.9l-2.3 1.6-7.8-11.2 2.3-1.6 7.8 11.2z"/>
			<path d="m697.2 696.7c-1.6 1.1-3.3 1.5-5.1 1.2-1.9-0.3-3.4-1.3-4.6-3s-1.6-3.5-1.2-5.4c0.4-1.9 1.5-3.4 3.1-4.6 1.7-1.2 3.5-1.6 5.5-1.2l-0.2 2.7c-1.6-0.2-2.8 0.1-3.8 0.8s-1.6 1.6-1.9 2.8 0 2.2 0.7 3.3c0.7 1 1.7 1.6 2.9 1.9 1.2 0.2 2.3 0 3.4-0.8 1-0.7 1.7-1.9 1.9-3.5l2.4 0.5c-0.2 2.3-1.3 4.1-3.1 5.3z"/>
			<path d="m713.7 685l-2.1 1.5-1-1.5c-0.1 1.8-1 3.2-2.6 4.3-1.2 0.8-2.4 1.2-3.6 1s-2.2-0.7-3-1.8c-0.8-1.1-0.9-2.2-0.5-3.3s1.3-2.2 2.7-3.1l3-2.1-0.3-0.4c-1-1.5-2.4-1.6-4-0.5-1 0.7-1.8 1.9-2.4 3.4l-2.1-0.7c0.6-2 1.8-3.6 3.5-4.8 1.3-0.9 2.6-1.3 3.9-1.3 1.3 0.1 2.4 0.8 3.4 2.3l5.1 7zm-5.3-2.6l-0.7-0.9-2.6 1.9c-1.7 1.2-2.2 2.3-1.4 3.4 0.4 0.5 0.9 0.8 1.5 0.8s1.3-0.3 2.1-0.8 1.3-1.2 1.5-2 0.1-1.6-0.4-2.4z"/>
			<path d="m716.8 669.4c-1.2 0.8-1.8 1.8-1.8 3s0.4 2.4 1.2 3.7l3.3 4.8-2.3 1.6-7.8-11.2 2.3-1.6 1.6 2.2c-0.1-1 0-1.9 0.3-2.8s0.9-1.6 1.6-2.1l1.7 2.4c0-0.1 0 0-0.1 0z"/>
			<path d="m725.6 674.5c-1.8-0.3-3.3-1.4-4.5-3.1s-1.6-3.5-1.3-5.3c0.4-1.8 1.3-3.2 2.8-4.2s3.1-1.3 4.9-0.6l-4.3-6.1 2.3-1.6 10.9 15.6-2.4 1.6-1.2-1.7c0 1.8-0.8 3.3-2.5 4.5-1.3 0.9-2.9 1.2-4.7 0.9zm-2.1-4.6c0.7 1.1 1.7 1.7 2.9 1.9s2.2 0 3.1-0.7c0.9-0.6 1.5-1.5 1.6-2.7 0.2-1.1-0.1-2.2-0.9-3.3-0.7-1.1-1.7-1.7-2.8-2s-2.2-0.1-3.1 0.6c-0.9 0.7-1.5 1.6-1.7 2.8s0.1 2.3 0.9 3.4z"/>
			<path d="m558 825.6c1.2 0.3 2.4 0.1 3.6-0.7 1.1-0.8 1.8-1.8 1.9-3.1s-0.3-2.6-1.2-3.9l-5.7-8.1 2.5-1.7 5.8 8.2c1.5 2.1 2 4.1 1.7 6.1-0.4 2-1.5 3.6-3.3 4.8s-3.7 1.7-5.7 1.4c-2-0.3-3.7-1.5-5.2-3.7l-5.8-8.2 2.5-1.7 5.7 8.1c0.9 1.4 2 2.2 3.2 2.5z"/>
			<path d="m571.2 812.4l4.2 6-2.4 1.6-7.8-11.2 2.3-1.6 1.4 2c-0.1-1 0-1.9 0.4-2.7s1-1.6 1.7-2.1c1.3-0.9 2.5-1.2 3.9-1 1.3 0.2 2.5 1.1 3.5 2.5l4.8 6.8-2.3 1.6-4.3-6.1c-1.4-2.1-3-2.5-4.7-1.3-0.8 0.6-1.3 1.3-1.6 2.3-0.1 1.1 0.1 2.1 0.9 3.2z"/>
			<path d="m577.6 796.9c-0.5-0.1-0.9-0.3-1.2-0.7s-0.4-0.9-0.3-1.4 0.3-0.9 0.7-1.2c0.4-0.3 0.9-0.4 1.4-0.3s0.9 0.3 1.2 0.7 0.4 0.9 0.3 1.4-0.3 0.9-0.7 1.2c-0.4 0.3-0.9 0.4-1.4 0.3zm11.6 11.8l-2.4 1.6-7.8-11.2 2.3-1.6 7.9 11.2z"/>
			<path d="m587.2 792.2l0.6 0.9 2.9-2.1 1.3 1.9-2.9 2.1 6.5 9.3-2.3 1.6-6.5-9.3-1.4 1-1.3-1.9 1.4-1-0.6-0.9c-0.8-1.2-1.1-2.4-0.9-3.5 0.2-1.2 0.8-2.1 1.8-2.8s2.2-1 3.5-0.8l0.2 2.3c-0.8-0.2-1.5-0.1-2 0.3s-0.8 0.8-0.8 1.3c-0.1 0.5 0.1 1 0.5 1.6z"/>
			<path d="m592.5 786.5c-0.5-0.1-0.9-0.3-1.2-0.7s-0.4-0.9-0.3-1.4 0.3-0.9 0.7-1.2 0.9-0.4 1.4-0.3 0.9 0.3 1.2 0.7 0.4 0.9 0.3 1.4-0.3 0.9-0.7 1.2c-0.5 0.3-0.9 0.4-1.4 0.3zm11.6 11.8l-2.4 1.6-7.8-11.2 2.3-1.6 7.9 11.2z"/>
			<path d="m614.9 784l-8.8 6.1c0.6 0.8 1.5 1.2 2.5 1.2s2-0.3 2.9-0.9c1.4-1 2.2-2.2 2.3-3.6l2.4 0.5c-0.3 2.1-1.5 3.8-3.4 5.2-1.6 1.1-3.3 1.5-5.1 1.2s-3.4-1.3-4.6-3c-1.2-1.8-1.6-3.5-1.3-5.4 0.4-1.8 1.3-3.3 2.9-4.3 1.5-1.1 3.1-1.5 4.8-1.3s3.1 1.1 4.2 2.7l1.2 1.6zm-10 4.2l6.4-4.5c-0.7-0.9-1.5-1.5-2.4-1.5-0.9-0.1-1.8 0.2-2.7 0.8s-1.4 1.4-1.8 2.4c-0.3 1-0.2 1.9 0.5 2.8z"/>
			<path d="m621 784.4c-1.8-0.3-3.3-1.4-4.5-3.1s-1.6-3.5-1.3-5.3 1.3-3.2 2.8-4.2c1.5-1 3.1-1.3 4.9-0.6l-4.3-6.1 2.3-1.6 10.9 15.6-2.4 1.6-1.2-1.7c0 1.8-0.8 3.3-2.5 4.5-1.3 0.9-2.9 1.2-4.7 0.9zm-2.1-4.7c0.7 1.1 1.7 1.7 2.9 1.9s2.2 0 3.1-0.7c0.9-0.6 1.5-1.5 1.6-2.7 0.2-1.1-0.1-2.2-0.9-3.3-0.7-1.1-1.7-1.7-2.8-2s-2.2-0.1-3.1 0.6-1.5 1.6-1.7 2.8c-0.2 1.2 0.1 2.4 0.9 3.4z"/>
			<path d="m647.3 757.4l2.5-1.7 3.5 5c-0.3 2.5-1.8 4.6-4.3 6.4-2.2 1.5-4.5 2.1-6.9 1.7-2.5-0.4-4.5-1.7-6-3.9s-2.1-4.5-1.6-7 1.8-4.5 3.9-6 4.3-2.1 6.6-1.8v2.8c-0.9-0.1-1.7 0-2.4 0.2s-1.5 0.6-2.2 1.1c-1.5 1-2.4 2.4-2.7 4.1s0 3.3 1.1 4.8c1.1 1.6 2.5 2.5 4.1 2.7 1.6 0.3 3.2-0.1 4.5-1.1 1.4-1 2.3-2.1 2.9-3.3l-3-4z"/>
			<path d="m665.4 748.6l-8.8 6.1c0.6 0.8 1.5 1.2 2.5 1.2s2-0.3 2.9-0.9c1.4-1 2.2-2.2 2.3-3.6l2.4 0.5c-0.3 2.1-1.5 3.8-3.4 5.2-1.6 1.1-3.3 1.5-5.1 1.2s-3.4-1.3-4.6-3c-1.2-1.8-1.6-3.5-1.3-5.4s1.3-3.3 2.9-4.3c1.5-1.1 3.1-1.5 4.8-1.3s3.1 1.1 4.2 2.7l1.2 1.6zm-10 4.3l6.4-4.5c-0.7-0.9-1.5-1.5-2.4-1.5-0.9-0.1-1.8 0.2-2.7 0.8s-1.5 1.4-1.8 2.4c-0.3 0.9-0.2 1.9 0.5 2.8z"/>
			<path d="m669.7 743.4l4.2 6-2.3 1.6-7.8-11.2 2.3-1.6 1.4 2c-0.1-1 0-1.9 0.4-2.7 0.4-0.9 1-1.6 1.7-2.1 1.3-0.9 2.5-1.2 3.9-1 1.3 0.2 2.5 1.1 3.5 2.5l4.8 6.8-2.3 1.6-4.3-6.1c-1.4-2.1-3-2.5-4.7-1.3-0.8 0.6-1.3 1.3-1.6 2.3-0.2 1.1 0.1 2.1 0.8 3.2z"/>
			<path d="m693.7 733.3c-0.3 1.9-1.3 3.4-3 4.6s-3.5 1.6-5.4 1.3-3.4-1.3-4.5-2.9-1.5-3.4-1.2-5.3 1.3-3.4 3-4.6c1.7-1.2 3.5-1.6 5.4-1.3s3.4 1.3 4.5 2.9c1.2 1.7 1.6 3.4 1.2 5.3zm-7.7 3.3c1.1 0.2 2.2 0 3.2-0.8 1-0.7 1.6-1.6 1.8-2.8 0.2-1.1-0.1-2.3-0.8-3.3-0.8-1.1-1.7-1.7-2.8-1.9s-2.2 0-3.2 0.8c-1 0.7-1.6 1.6-1.8 2.8-0.2 1.1 0.1 2.3 0.8 3.3s1.6 1.7 2.8 1.9z"/>
			<path d="m695.5 720.5l4 5.7c0.4 0.5 0.8 0.9 1.3 1s1 0 1.5-0.4 0.8-0.9 0.9-1.7l2.1 1c-0.3 1.3-1 2.3-2 3s-2.1 1-3.3 0.8c-1.2-0.2-2.2-0.9-3-2.1l-3.9-5.6-1.4 1-1.3-1.9 1.4-1-2.5-3.5 2.3-1.6 2.5 3.5 2.9-2.1 1.3 1.9-2.8 2z"/>
			<path d="m713 728.7c-1 0.7-2.2 1-3.5 0.8l-0.3-2.7c0.8 0.1 1.5 0 2-0.4s0.8-0.9 0.9-1.5-0.1-1.1-0.4-1.6c-0.1-0.2-4.3-3-12.5-8.3l2.5-1.8 9.1 5.9-2.4-10.6 2.5-1.8 3.9 17.1c0.2 1 0.1 1.9-0.2 2.7-0.4 1-0.9 1.7-1.6 2.2z"/>
			<path d="m718.9 701c1.5-1 3.1-1.4 4.9-1.1s3.3 1.3 4.5 3 1.7 3.5 1.4 5.3c-0.3 1.8-1.2 3.2-2.6 4.2s-3.1 1.3-5.1 0.8l4 5.8-2.3 1.6-10.7-15.2 2.3-1.6 1.4 2c0-2.2 0.7-3.7 2.2-4.8zm0.4 8.4c0.7 1.1 1.7 1.7 2.8 1.9s2.1 0 3.1-0.6c0.9-0.6 1.5-1.5 1.7-2.7s-0.1-2.3-0.8-3.3c-0.7-1.1-1.7-1.7-2.9-2-1.2-0.2-2.2 0-3.2 0.6-0.9 0.7-1.5 1.6-1.6 2.7s0.1 2.3 0.9 3.4z"/>
			<path d="m742.5 694.6l-8.8 6.1c0.6 0.8 1.5 1.2 2.5 1.2s2-0.3 2.9-0.9c1.4-1 2.2-2.2 2.3-3.6l2.4 0.5c-0.3 2.1-1.5 3.8-3.4 5.2-1.6 1.1-3.3 1.5-5.1 1.2s-3.4-1.3-4.6-3c-1.2-1.8-1.6-3.5-1.3-5.4 0.4-1.8 1.3-3.3 2.9-4.3 1.5-1.1 3.1-1.5 4.8-1.3s3.1 1.1 4.2 2.7l1.2 1.6zm-10 4.3l6.4-4.5c-0.7-0.9-1.5-1.5-2.4-1.5-0.9-0.1-1.8 0.2-2.7 0.8s-1.5 1.4-1.8 2.4c-0.3 0.9-0.1 1.9 0.5 2.8z"/>
			<path d="m748.3 684c-1.2 0.8-1.8 1.8-1.8 3-0.1 1.2 0.4 2.4 1.2 3.7l3.3 4.8-2.3 1.6-7.8-11.2 2.4-1.6 1.6 2.2c-0.1-1 0-1.9 0.3-2.8s0.9-1.6 1.6-2.1l1.7 2.4c-0.1-0.1-0.2 0-0.2 0z"/>
		</g>
		<g fill="#566585">
			<path d="m329.8 848.4l-6.4 4.5-10.3-14.7 5.7-4c1-0.7 1.9-1.2 2.8-1.4 0.9-0.3 1.6-0.3 2.3-0.2 1.2 0.3 2.1 0.9 2.8 1.9 0.8 1.1 1 2.3 0.7 3.3-0.1 0.4-0.2 0.6-0.3 0.7s-0.2 0.3-0.4 0.6c1-0.4 2.1-0.5 3-0.3 1 0.2 1.8 0.8 2.4 1.8 0.7 1 1 2.2 0.8 3.4 0 1.6-1.1 3-3.1 4.4zm-9.9-5.8l3.1-2.2c1.8-1.3 2.3-2.5 1.4-3.7-0.5-0.7-1.1-1.1-1.7-1.1s-1.4 0.3-2.3 0.9l-3.2 2.2 2.7 3.9zm4.4 6.3l3.9-2.7c0.9-0.6 1.5-1.3 1.8-1.9s0.1-1.3-0.4-2.1c-0.9-1.3-2.4-1.2-4.5 0.2l-3.6 2.5 2.8 4z"/>
			<path d="m339.9 835.3l-4.1-12.8 2.2-1.6 10.7 8.3-3.7-13.1 2.7-1.9 5.2 18.3-2.5 1.7-10.1-7.9-0.2 0.1 4 12.2-2.5 1.7-15.4-11.1 2.7-1.9 11 8z"/>
			<path d="m359.2 822.9l0.9 4.4-2.6 1.9-3.8-19.2 2.6-1.9 16.7 10.1-2.6 1.9-3.8-2.3-7.4 5.1zm4.7-6.7l-6.9-4.2 1.6 7.9 5.3-3.7z"/>
			<path d="m373.3 809l4.2 6-2.4 1.6-7.8-11.2 2.4-1.6 1.4 2c-0.1-0.9 0-1.8 0.4-2.7s1-1.6 1.8-2.1c1.8-1.2 3.5-1.3 5.1-0.3 0.1-2.2 1-3.9 2.6-5.1 1.3-0.9 2.5-1.2 3.9-1 1.3 0.2 2.5 1.1 3.5 2.5l4.8 6.8-2.3 1.6-4.3-6.1c-1.4-2.1-3-2.5-4.7-1.3-0.8 0.6-1.3 1.3-1.6 2.2-0.2 0.9 0 1.9 0.6 2.9l4.3 6.2-2.4 1.6-4.3-6.1c-0.7-1.1-1.5-1.7-2.2-1.9s-1.5-0.1-2.3 0.5-1.3 1.3-1.6 2.3 0.2 2.1 0.9 3.2z"/>
			<path d="m404 789.7l-8.8 6.1c0.6 0.8 1.5 1.2 2.5 1.2s2-0.3 2.9-0.9c1.4-1 2.2-2.2 2.3-3.6l2.4 0.5c-0.3 2.1-1.5 3.8-3.4 5.2-1.6 1.1-3.3 1.5-5.1 1.2s-3.4-1.3-4.6-3c-1.2-1.8-1.6-3.5-1.3-5.4 0.4-1.8 1.4-3.3 2.9-4.3 1.5-1.1 3.1-1.5 4.8-1.3s3.1 1.1 4.2 2.7l1.2 1.6zm-10 4.3l6.4-4.5c-0.7-0.9-1.5-1.5-2.4-1.5-0.9-0.1-1.8 0.2-2.7 0.8s-1.5 1.4-1.8 2.4c-0.3 0.9-0.2 1.9 0.5 2.8z"/>
			<path d="m408.3 784.5l4.2 6-2.4 1.6-7.8-11.2 2.3-1.6 1.4 2c-0.1-0.9 0-1.8 0.4-2.7s1-1.6 1.8-2.1c1.8-1.2 3.5-1.3 5.1-0.3 0.1-2.2 1-3.9 2.6-5.1 1.3-0.9 2.5-1.2 3.9-1 1.3 0.2 2.5 1.1 3.5 2.5l4.8 6.8-2.3 1.6-4.3-6.1c-1.4-2.1-3-2.5-4.7-1.3-0.8 0.6-1.3 1.3-1.6 2.2-0.2 0.9 0 1.9 0.6 2.9l4.3 6.2-2.4 1.6-4.3-6.1c-0.7-1.1-1.5-1.7-2.2-1.9s-1.5-0.1-2.3 0.5-1.3 1.3-1.6 2.3 0.3 2.1 1 3.2z"/>
			<path d="m443.5 758.2l2.5-1.7 3.5 5c-0.3 2.5-1.8 4.6-4.3 6.4-2.2 1.5-4.5 2.1-6.9 1.7-2.5-0.4-4.5-1.7-6-3.9s-2.1-4.5-1.6-7 1.8-4.5 3.9-6 4.3-2.1 6.6-1.8v2.8c-0.9-0.1-1.7 0-2.4 0.2s-1.5 0.6-2.2 1.1c-1.5 1-2.4 2.4-2.7 4.1s0 3.3 1.1 4.8 2.5 2.5 4.1 2.7c1.6 0.3 3.2-0.1 4.5-1.1 1.4-1 2.3-2.1 2.9-3.3l-3-4z"/>
			<path d="m454.4 756.2l0.9 4.4-2.6 1.9-3.8-19.2 2.6-1.9 16.7 10.1-2.6 1.9-3.8-2.3-7.4 5.1zm4.8-6.7l-6.9-4.2 1.6 7.9 5.3-3.7z"/>
			<path d="m465.9 734.6l8.7 12.4-2.5 1.7-8.7-12.4-4.5 3.1-1.6-2.3 11.4-8 1.6 2.3-4.4 3.2z"/>
			<path d="m471.5 727.3l2.5-1.7 5 7.2 1.7-11.9 3.1-2.2-1.4 10.6 11.8 4.1-2.9 2.1-9.4-3-0.5 3.8 2.9 4.1-2.5 1.7-10.3-14.8z"/>
			<path d="m503.9 721.8l-2.8-4-4 2.8-1.4-2 4-2.8-2.8-3.9 1.9-1.3 2.8 3.9 4-2.8 1.4 2-4 2.8 2.8 4-1.9 1.3z"/>
			<path d="m522.2 693.8c1.6 0.1 3.1 1.1 4.3 2.9s1.6 3.4 1.2 5c-0.5 1.6-1.8 3.1-3.9 4.6l-2.6 1.8 3 4.3-2.5 1.7-10.3-14.7 5-3.5c2.3-1.6 4.2-2.3 5.8-2.1zm2.5 7.2c0.1-0.9-0.2-1.8-0.9-2.8s-1.5-1.5-2.5-1.5c-0.9 0-2.1 0.5-3.4 1.4l-2.5 1.8 4.1 5.9 2.9-2c1.4-1 2.2-1.9 2.3-2.8z"/>
			<path d="m526.5 690.7c-0.5-0.1-0.9-0.3-1.2-0.7s-0.4-0.9-0.3-1.4 0.3-0.9 0.7-1.2 0.9-0.4 1.4-0.3 0.9 0.3 1.2 0.7 0.4 0.9 0.3 1.4-0.3 0.9-0.7 1.2-0.9 0.4-1.4 0.3zm11.6 11.9l-2.4 1.6-7.8-11.2 2.3-1.6 7.9 11.2z"/>
			<path d="m546.8 696.7c-1.6 1.1-3.3 1.5-5.1 1.2-1.9-0.3-3.4-1.3-4.6-3s-1.6-3.5-1.2-5.4 1.5-3.4 3.1-4.6c1.7-1.2 3.5-1.6 5.5-1.2l-0.2 2.7c-1.6-0.2-2.8 0.1-3.8 0.8s-1.6 1.6-1.9 2.8 0 2.2 0.7 3.3c0.7 1 1.7 1.6 2.9 1.9 1.2 0.2 2.3 0 3.4-0.8s1.7-1.9 1.9-3.5l2.4 0.5c-0.2 2.3-1.3 4.1-3.1 5.3z"/>
			<path d="m563.3 685l-2.1 1.5-1-1.5c-0.1 1.8-1 3.2-2.6 4.3-1.2 0.8-2.4 1.2-3.6 1-1.2-0.1-2.2-0.7-3-1.8s-0.9-2.2-0.5-3.3 1.3-2.2 2.7-3.1l3-2.1-0.3-0.4c-1-1.5-2.4-1.6-4-0.5-1 0.7-1.8 1.9-2.4 3.4l-2.1-0.7c0.6-2 1.8-3.6 3.5-4.8 1.3-0.9 2.6-1.3 3.9-1.3 1.3 0.1 2.4 0.8 3.4 2.3l5.1 7zm-5.3-2.6l-0.7-0.9-2.6 1.9c-1.7 1.2-2.2 2.3-1.4 3.4 0.4 0.5 0.9 0.8 1.5 0.8s1.3-0.3 2.1-0.8c0.7-0.5 1.3-1.2 1.5-2 0.2-0.9 0.1-1.6-0.4-2.4z"/>
			<path d="m566.4 669.4c-1.2 0.8-1.8 1.8-1.8 3-0.1 1.2 0.4 2.4 1.2 3.7l3.3 4.8-2.3 1.6-7.8-11.2 2.4-1.6 1.6 2.2c-0.1-1 0-1.9 0.3-2.8s0.9-1.6 1.6-2.1l1.7 2.4c-0.1-0.1-0.1 0-0.2 0z"/>
			<path d="m575.2 674.5c-1.8-0.3-3.3-1.4-4.5-3.1s-1.6-3.5-1.3-5.3c0.4-1.8 1.3-3.2 2.8-4.2s3.1-1.3 4.9-0.6l-4.3-6.1 2.3-1.6 10.9 15.4-2.4 1.6-1.2-1.7c0 1.8-0.8 3.3-2.5 4.5-1.3 1.1-2.9 1.4-4.7 1.1zm-2.1-4.6c0.7 1.1 1.7 1.7 2.9 1.9s2.2 0 3.1-0.7c0.9-0.6 1.5-1.5 1.6-2.7 0.2-1.1-0.1-2.2-0.9-3.3-0.7-1.1-1.7-1.7-2.8-2s-2.2-0.1-3.1 0.6-1.5 1.6-1.7 2.8 0.1 2.3 0.9 3.4z"/>
			<path d="m407.6 825.6c1.2 0.3 2.4 0.1 3.6-0.7 1.1-0.8 1.8-1.8 1.9-3.1s-0.3-2.6-1.2-3.9l-5.7-8.1 2.5-1.7 5.8 8.2c1.5 2.1 2 4.1 1.7 6.1-0.4 2-1.5 3.6-3.3 4.8s-3.7 1.7-5.7 1.4c-2-0.3-3.7-1.5-5.2-3.7l-5.8-8.2 2.5-1.7 5.7 8.1c0.9 1.4 1.9 2.2 3.2 2.5z"/>
			<path d="m420.7 812.4l4.2 6-2.4 1.6-7.8-11.2 2.4-1.6 1.4 2c-0.1-0.9 0-1.9 0.4-2.7 0.4-0.9 1-1.6 1.7-2.1 1.3-0.9 2.5-1.2 3.9-1 1.3 0.2 2.5 1.1 3.5 2.5l4.8 6.8-2.3 1.6-4.3-6.1c-1.4-2.1-3-2.5-4.7-1.3-0.8 0.6-1.3 1.3-1.6 2.3-0.1 1.1 0.1 2.1 0.8 3.2z"/>
			<path d="m427.2 796.9c-0.5-0.1-0.9-0.3-1.2-0.7s-0.4-0.9-0.3-1.4 0.3-0.9 0.7-1.2 0.9-0.4 1.4-0.3c0.5 0.1 0.9 0.3 1.2 0.7s0.4 0.9 0.3 1.4-0.3 0.9-0.7 1.2-0.9 0.4-1.4 0.3zm11.6 11.8l-2.4 1.6-7.8-11.2 2.4-1.6 7.8 11.2z"/>
			<path d="m436.8 792.2l0.6 0.9 2.9-2.1 1.3 1.9-2.9 2.1 6.5 9.3-2.4 1.6-6.5-9.3-1.4 1-1.3-1.9 1.4-1-0.6-0.9c-0.8-1.2-1.1-2.4-0.9-3.5 0.2-1.2 0.8-2.1 1.8-2.8s2.2-1 3.5-0.8l0.2 2.3c-0.8-0.2-1.5-0.1-2 0.3s-0.8 0.8-0.8 1.3 0.2 1 0.6 1.6z"/>
			<path d="m442.1 786.5c-0.5-0.1-0.9-0.3-1.2-0.7s-0.4-0.9-0.3-1.4 0.3-0.9 0.7-1.2 0.9-0.4 1.4-0.3 0.9 0.3 1.2 0.7c0.3 0.4 0.4 0.9 0.3 1.4s-0.3 0.9-0.7 1.2c-0.5 0.3-0.9 0.4-1.4 0.3zm11.5 11.8l-2.4 1.6-7.8-11.2 2.4-1.6 7.8 11.2z"/>
			<path d="m464.5 784l-8.8 6.1c0.6 0.8 1.5 1.2 2.5 1.2s2-0.3 2.9-0.9c1.4-1 2.2-2.2 2.3-3.6l2.4 0.5c-0.3 2.1-1.5 3.8-3.4 5.2-1.6 1.1-3.3 1.5-5.1 1.2s-3.4-1.3-4.6-3-1.6-3.5-1.3-5.4c0.4-1.8 1.4-3.3 2.9-4.3s3.1-1.5 4.8-1.3c1.7 0.2 3.1 1.1 4.2 2.7l1.2 1.6zm-10 4.2l6.4-4.5c-0.7-0.9-1.5-1.5-2.4-1.5-0.9-0.1-1.8 0.2-2.7 0.8s-1.4 1.4-1.8 2.4-0.2 1.9 0.5 2.8z"/>
			<path d="m470.5 784.4c-1.8-0.3-3.3-1.4-4.5-3.1s-1.6-3.5-1.3-5.3c0.4-1.8 1.3-3.2 2.8-4.2s3.1-1.3 4.9-0.6l-4.3-6.1 2.4-1.6 10.9 15.6-2.4 1.6-1.2-1.7c0 1.8-0.8 3.3-2.5 4.5-1.4 0.9-3 1.2-4.8 0.9zm-2-4.7c0.7 1.1 1.7 1.7 2.9 1.9s2.2 0 3.1-0.7c0.9-0.6 1.5-1.5 1.6-2.7 0.2-1.1-0.1-2.2-0.9-3.3-0.7-1.1-1.7-1.7-2.8-2s-2.2-0.1-3.1 0.6-1.5 1.6-1.7 2.8c-0.2 1.2 0.1 2.4 0.9 3.4z"/>
			<path d="m496.9 757.4l2.5-1.7 3.5 5c-0.3 2.5-1.8 4.6-4.3 6.4-2.2 1.5-4.5 2.1-6.9 1.7-2.5-0.4-4.5-1.7-6-3.9s-2.1-4.5-1.6-7 1.8-4.5 3.9-6 4.3-2.1 6.6-1.8v2.8c-0.9-0.1-1.7 0-2.4 0.2s-1.5 0.6-2.2 1.1c-1.5 1-2.4 2.4-2.7 4.1s0 3.3 1.1 4.8c1.1 1.6 2.5 2.5 4.1 2.7s3.2-0.1 4.5-1.1c1.4-1 2.3-2.1 2.9-3.3l-3-4z"/>
			<path d="m515 748.6l-8.8 6.1c0.6 0.8 1.5 1.2 2.5 1.2s2-0.3 2.9-0.9c1.4-1 2.2-2.2 2.3-3.6l2.4 0.5c-0.3 2.1-1.5 3.8-3.4 5.2-1.6 1.1-3.3 1.5-5.1 1.2s-3.4-1.3-4.6-3c-1.2-1.8-1.6-3.5-1.3-5.4 0.4-1.8 1.3-3.3 2.9-4.3 1.5-1.1 3.1-1.5 4.8-1.3s3.1 1.1 4.2 2.7l1.2 1.6zm-10.1 4.3l6.4-4.5c-0.7-0.9-1.5-1.5-2.4-1.5-0.9-0.1-1.8 0.2-2.7 0.8s-1.5 1.4-1.8 2.4c-0.2 0.9-0.1 1.9 0.5 2.8z"/>
			<path d="m519.3 743.4l4.2 6-2.3 1.6-7.8-11.2 2.4-1.6 1.4 2c-0.1-1 0-1.9 0.4-2.7 0.4-0.9 1-1.6 1.7-2.1 1.3-0.9 2.5-1.2 3.9-1 1.3 0.2 2.5 1.1 3.5 2.5l4.8 6.8-2.3 1.6-4.3-6.1c-1.4-2.1-3-2.5-4.7-1.3-0.8 0.6-1.3 1.3-1.6 2.3-0.3 1.1-0.1 2.1 0.7 3.2z"/>
			<path d="m543.3 733.3c-0.3 1.9-1.3 3.4-3 4.6s-3.5 1.6-5.4 1.3-3.4-1.3-4.5-2.9-1.5-3.4-1.2-5.3 1.3-3.4 3-4.6 3.5-1.6 5.4-1.3 3.4 1.3 4.5 2.9c1.1 1.7 1.5 3.4 1.2 5.3zm-7.7 3.3c1.1 0.2 2.2 0 3.2-0.8 1-0.7 1.6-1.6 1.8-2.8 0.2-1.1-0.1-2.3-0.8-3.3-0.8-1.1-1.7-1.7-2.8-1.9s-2.2 0-3.2 0.8c-1 0.7-1.6 1.6-1.8 2.8-0.2 1.1 0.1 2.3 0.8 3.3s1.6 1.7 2.8 1.9z"/>
			<path d="m545.1 720.5l4 5.7c0.4 0.5 0.8 0.9 1.3 1s1 0 1.5-0.4c0.5-0.4 0.8-0.9 0.9-1.7l2.1 1c-0.3 1.3-1 2.3-2 3s-2.1 1-3.3 0.8-2.2-0.9-3-2.1l-3.9-5.6-1.4 1-1.3-1.9 1.4-1-2.5-3.5 2.3-1.6 2.5 3.5 2.9-2.1 1.3 1.9-2.8 2z"/>
			<path d="m562.5 728.7c-1 0.7-2.2 1-3.5 0.8l-0.3-2.7c0.8 0.1 1.5 0 2-0.4s0.8-0.9 0.9-1.5-0.1-1.1-0.4-1.6c-0.1-0.2-4.3-3-12.5-8.3l2.5-1.8 9.1 5.9-2.4-10.6 2.5-1.8 3.9 17.1c0.2 1 0.1 1.9-0.2 2.7-0.3 1-0.8 1.7-1.6 2.2z"/>
			<path d="m568.5 701c1.5-1 3.1-1.4 4.9-1.1s3.3 1.3 4.5 3 1.7 3.5 1.4 5.3c-0.3 1.8-1.2 3.2-2.6 4.2s-3.1 1.3-5.1 0.8l4 5.8-2.4 1.6-10.7-15.2 2.4-1.6 1.4 2c0-2.2 0.7-3.7 2.2-4.8zm0.4 8.4c0.7 1.1 1.7 1.7 2.8 1.9s2.1 0 3.1-0.6c0.9-0.6 1.5-1.5 1.7-2.7s-0.1-2.3-0.8-3.3c-0.7-1.1-1.7-1.7-2.9-2-1.2-0.2-2.2 0-3.2 0.6-0.9 0.7-1.5 1.6-1.6 2.7s0.1 2.3 0.9 3.4z"/>
			<path d="m592.1 694.6l-8.8 6.1c0.6 0.8 1.5 1.2 2.5 1.2s2-0.3 2.9-0.9c1.4-1 2.2-2.2 2.3-3.6l2.4 0.5c-0.3 2.1-1.5 3.8-3.4 5.2-1.6 1.1-3.3 1.5-5.1 1.2s-3.4-1.3-4.6-3c-1.2-1.8-1.6-3.5-1.3-5.4 0.4-1.8 1.4-3.3 2.9-4.3 1.5-1.1 3.1-1.5 4.8-1.3s3.1 1.1 4.2 2.7l1.2 1.6zm-10 4.3l6.4-4.5c-0.7-0.9-1.5-1.5-2.4-1.5-0.9-0.1-1.8 0.2-2.7 0.8s-1.4 1.4-1.8 2.4-0.2 1.9 0.5 2.8z"/>
			<path d="m597.9 684c-1.2 0.8-1.8 1.8-1.8 3-0.1 1.2 0.4 2.4 1.2 3.7l3.3 4.8-2.3 1.6-7.8-11.2 2.3-1.6 1.6 2.2c-0.1-1 0-1.9 0.3-2.8s0.9-1.6 1.6-2.1l1.7 2.4c-0.1-0.1-0.1 0-0.1 0z"/>
		</g>
		<g fill="#566585">
			<path d="m163.1 840c-0.7 0.5-1.2 1.1-1.5 1.7s-0.2 1.2 0.2 1.8 1 0.9 1.6 0.9c0.7 0 1.9-0.4 3.7-1 1.8-0.7 3.2-1 4.5-0.8 1.2 0.1 2.3 0.8 3.2 2.1s1.1 2.7 0.7 4.1c-0.4 1.5-1.4 2.8-3 3.9-2.3 1.6-4.9 2.2-7.8 1.9l0.2-3c2.4 0.2 4.4-0.2 6-1.3 0.8-0.6 1.3-1.2 1.5-1.8 0.2-0.7 0.1-1.3-0.3-1.9s-0.9-0.9-1.6-0.9-1.6 0.2-2.9 0.7-2.2 0.8-3 1c-0.7 0.2-1.4 0.2-2.1 0.2-1.3 0-2.5-0.8-3.4-2.1-1-1.4-1.2-2.7-0.7-4.2 0.5-1.4 1.4-2.6 2.9-3.7 0.9-0.7 2-1.2 3.1-1.5s2.2-0.5 3.3-0.4v2.8c-0.7-0.1-1.5 0-2.4 0.3s-1.5 0.7-2.2 1.2z"/>
			<path d="m191.8 835.8c-0.5 2.5-1.8 4.5-4 6s-4.5 2.1-7 1.7-4.5-1.7-6-3.9-2-4.5-1.6-7c0.5-2.5 1.8-4.5 4-6s4.5-2.1 7-1.7 4.5 1.7 6 3.9c1.6 2.2 2.1 4.6 1.6 7zm-8.2-7.9c-1.7-0.3-3.3 0-4.8 1s-2.3 2.4-2.6 4.1 0.1 3.3 1.1 4.8 2.4 2.4 4.1 2.7 3.3 0 4.8-1 2.3-2.4 2.6-4.1-0.1-3.3-1.1-4.8-2.4-2.3-4.1-2.7z"/>
			<path d="m198 829.5l0.9 4.4-2.6 1.9-3.8-19.2 2.6-1.9 16.7 10.1-2.6 1.9-3.8-2.3-7.4 5.1zm4.8-6.7l-6.9-4.2 1.6 7.9 5.3-3.7z"/>
			<path d="m214.8 802.8c1.6 0.1 3.1 1.1 4.3 2.9s1.6 3.4 1.2 5c-0.5 1.6-1.8 3.1-3.9 4.6l-2.6 1.8 3 4.3-2.5 1.7-10.3-14.6 5-3.5c2.2-1.6 4.2-2.3 5.8-2.2zm2.5 7.3c0.1-0.9-0.2-1.8-0.9-2.8s-1.5-1.5-2.4-1.5-2.1 0.5-3.4 1.4l-2.6 1.8 4.1 5.9 2.9-2c1.4-1 2.1-1.9 2.3-2.8z"/>
			<path d="m219.3 801l-1.5-2.2 8.6-6 1.4 1.9-0.8 6.5c1.4-0.9 2.7-1.2 4-0.9s2.4 1 3.2 2.1c1 1.5 1.4 3 0.9 4.6-0.4 1.6-1.4 2.9-3 4s-3.5 1.7-5.8 1.7l-0.3-2.7c1.8 0 3.3-0.5 4.7-1.4 0.9-0.6 1.4-1.3 1.7-2.1s0.1-1.6-0.4-2.3-1.3-1.1-2.2-1.1c-0.9 0-1.9 0.4-3 1.1-0.5 0.4-1 0.8-1.4 1.3l-1.3-1.9 0.6-6.3-5.4 3.7z"/>
			<path d="m237 799.5l-1.5-2.2 7-4.9 1.5 2.2-7 4.9z"/>
			<path d="m251.2 795.1c-1.8-0.3-3.3-1.4-4.5-3.1s-1.6-3.5-1.3-5.3c0.4-1.8 1.3-3.2 2.8-4.2s3.1-1.3 4.9-0.6l-4.3-6.1 2.4-1.6 10.9 15.6-2.3 1.6-1.2-1.7c0 1.8-0.8 3.3-2.5 4.5-1.5 0.9-3.1 1.3-4.9 0.9zm-2.1-4.6c0.8 1.1 1.7 1.7 2.9 1.9s2.2 0 3.1-0.7 1.5-1.5 1.6-2.7c0.2-1.1-0.1-2.2-0.9-3.3-0.7-1.1-1.7-1.7-2.8-2s-2.2-0.1-3.1 0.6-1.5 1.6-1.7 2.8c-0.1 1.2 0.2 2.3 0.9 3.4z"/>
			<path d="m263.8 771.6c1.5-1 3.1-1.4 4.9-1.1s3.3 1.3 4.5 3 1.7 3.5 1.4 5.3-1.2 3.2-2.6 4.2c-1.4 1-3.1 1.3-5.1 0.8l4 5.8-2.3 1.6-10.7-15.2 2.3-1.6 1.4 2c-0.1-2.2 0.7-3.7 2.2-4.8zm0.3 8.3c0.7 1.1 1.7 1.7 2.8 1.9s2.1 0 3.1-0.6 1.5-1.5 1.7-2.7c0.2-1.2-0.1-2.3-0.8-3.3-0.7-1.1-1.7-1.7-2.9-2-1.2-0.2-2.2 0-3.2 0.6-0.9 0.7-1.5 1.6-1.6 2.7s0.2 2.4 0.9 3.4z"/>
			<path d="m291.9 758.2l2.5-1.7 3.5 5c-0.3 2.5-1.8 4.6-4.3 6.4-2.2 1.5-4.5 2.1-6.9 1.7-2.5-0.4-4.5-1.7-6-3.9s-2.1-4.5-1.6-7 1.8-4.5 3.9-6 4.3-2.1 6.6-1.8v2.8c-0.9-0.1-1.7 0-2.4 0.2s-1.5 0.6-2.2 1.1c-1.5 1-2.4 2.4-2.7 4.1s0 3.3 1.1 4.8 2.5 2.5 4.1 2.7 3.2-0.1 4.5-1.1 2.3-2.1 2.9-3.3l-3-4z"/>
			<path d="m302.8 756.2l0.9 4.4-2.6 1.9-3.8-19.2 2.6-1.9 16.7 10.1-2.6 1.9-3.8-2.3-7.4 5.1zm4.7-6.7l-6.9-4.2 1.6 7.9 5.3-3.7z"/>
			<path d="m314.3 734.6l8.7 12.4-2.5 1.7-8.7-12.4-4.4 3.1-1.6-2.3 11.4-8 1.6 2.3-4.5 3.2z"/>
			<path d="m319.9 727.3l2.5-1.7 5 7.2 1.7-11.9 3.1-2.2-1.4 10.6 11.8 4.1-2.9 2.1-9.4-3-0.5 3.8 2.9 4.1-2.5 1.7-10.3-14.8z"/>
			<path d="m352.3 721.8l-2.8-4-4 2.8-1.4-2 4-2.8-2.8-3.9 1.9-1.3 2.8 3.9 4-2.8 1.4 2-4 2.8 2.8 4-1.9 1.3z"/>
			<path d="m370.6 693.8c1.6 0.1 3.1 1.1 4.3 2.9s1.6 3.4 1.2 5c-0.5 1.6-1.8 3.1-3.9 4.6l-2.6 1.8 3 4.3-2.5 1.7-10.3-14.7 5-3.5c2.2-1.6 4.1-2.3 5.8-2.1zm2.5 7.2c0.1-0.9-0.2-1.8-0.9-2.8s-1.5-1.5-2.4-1.5-2.1 0.5-3.4 1.4l-2.5 1.8 4.1 5.9 2.9-2c1.3-1 2-1.9 2.2-2.8z"/>
			<path d="m374.9 690.7c-0.5-0.1-0.9-0.3-1.2-0.7s-0.4-0.9-0.3-1.4 0.3-0.9 0.7-1.2c0.4-0.3 0.9-0.4 1.4-0.3s0.9 0.3 1.2 0.7 0.4 0.9 0.3 1.4-0.3 0.9-0.7 1.2c-0.5 0.3-0.9 0.4-1.4 0.3zm11.6 11.9l-2.3 1.6-7.8-11.2 2.4-1.6 7.7 11.2z"/>
			<path d="m395.1 696.7c-1.6 1.1-3.3 1.5-5.1 1.2-1.9-0.3-3.4-1.3-4.6-3s-1.6-3.5-1.2-5.4 1.5-3.4 3.1-4.6c1.7-1.2 3.5-1.6 5.5-1.2l-0.2 2.7c-1.6-0.2-2.8 0.1-3.8 0.8s-1.6 1.6-1.9 2.8c-0.3 1.2 0 2.2 0.7 3.3 0.7 1 1.7 1.7 2.9 1.9s2.3 0 3.4-0.8c1-0.7 1.7-1.9 1.9-3.5l2.4 0.5c-0.2 2.3-1.3 4.1-3.1 5.3z"/>
			<path d="m411.6 685l-2.1 1.5-1-1.5c-0.1 1.8-1 3.2-2.6 4.3-1.2 0.8-2.4 1.2-3.6 1s-2.2-0.7-3-1.8c-0.8-1.1-0.9-2.2-0.5-3.3s1.3-2.2 2.7-3.1l3-2.1-0.3-0.4c-1-1.5-2.4-1.6-4-0.5-1 0.7-1.8 1.9-2.4 3.4l-2.1-0.7c0.6-2 1.8-3.6 3.5-4.8 1.3-0.9 2.6-1.3 3.9-1.3 1.3 0.1 2.4 0.8 3.4 2.3l5.1 7zm-5.2-2.6l-0.7-0.9-2.6 1.9c-1.7 1.2-2.2 2.3-1.4 3.4 0.4 0.5 0.9 0.8 1.5 0.8s1.3-0.3 2.1-0.8c0.7-0.5 1.3-1.2 1.5-2s0.1-1.6-0.4-2.4z"/>
			<path d="m414.8 669.4c-1.2 0.8-1.8 1.8-1.8 3-0.1 1.2 0.4 2.4 1.2 3.7l3.4 4.8-2.4 1.6-7.8-11.2 2.3-1.6 1.6 2.2c-0.1-1 0-1.9 0.3-2.8s0.9-1.6 1.6-2.1l1.7 2.4c0-0.1-0.1 0-0.1 0z"/>
			<path d="m423.5 674.5c-1.8-0.3-3.3-1.4-4.5-3.1s-1.6-3.5-1.3-5.3c0.4-1.8 1.3-3.2 2.8-4.2s3.1-1.3 4.9-0.6l-4.3-6.1 2.4-1.6 10.9 15.6-2.3 1.6-1.2-1.7c0 1.8-0.8 3.3-2.5 4.5-1.5 0.9-3.1 1.2-4.9 0.9zm-2.1-4.6c0.8 1.1 1.7 1.7 2.9 1.9s2.2 0 3.1-0.7 1.5-1.5 1.6-2.7c0.2-1.1-0.1-2.2-0.9-3.3-0.7-1.1-1.7-1.7-2.8-2s-2.2-0.1-3.1 0.6-1.5 1.6-1.7 2.8c-0.1 1.2 0.2 2.3 0.9 3.4z"/>
			<path d="m255.9 825.6c1.2 0.3 2.4 0.1 3.6-0.7 1.1-0.8 1.8-1.8 1.9-3.1s-0.3-2.6-1.2-3.9l-5.7-8.1 2.5-1.7 5.8 8.2c1.5 2.1 2 4.1 1.7 6.1s-1.5 3.6-3.3 4.8c-1.8 1.3-3.7 1.7-5.7 1.4s-3.7-1.5-5.2-3.7l-5.8-8.2 2.5-1.7 5.7 8.1c0.9 1.4 2 2.2 3.2 2.5z"/>
			<path d="m269.1 812.4l4.2 6-2.4 1.6-7.8-11.2 2.3-1.6 1.4 2c-0.1-1 0-1.9 0.4-2.7 0.4-0.9 1-1.6 1.7-2.1 1.3-0.9 2.5-1.2 3.9-1 1.3 0.2 2.5 1.1 3.5 2.5l4.8 6.8-2.3 1.6-4.3-6.1c-1.4-2.1-3-2.5-4.7-1.3-0.8 0.6-1.3 1.3-1.6 2.3s0.2 2.1 0.9 3.2z"/>
			<path d="m275.6 796.9c-0.5-0.1-0.9-0.3-1.2-0.7s-0.4-0.9-0.3-1.4 0.3-0.9 0.7-1.2 0.9-0.4 1.4-0.3 0.9 0.3 1.2 0.7 0.4 0.9 0.3 1.4-0.3 0.9-0.7 1.2c-0.5 0.3-0.9 0.4-1.4 0.3zm11.6 11.8l-2.4 1.6-7.8-11.2 2.4-1.6 7.8 11.2z"/>
			<path d="m285.1 792.2l0.6 0.9 2.9-2.1 1.3 1.9-2.9 2.1 6.5 9.3-2.3 1.6-6.5-9.3-1.4 1-1.3-1.9 1.4-1-0.6-0.9c-0.8-1.2-1.1-2.4-0.9-3.5 0.2-1.2 0.8-2.1 1.8-2.8s2.2-1 3.5-0.8l0.2 2.3c-0.8-0.2-1.5-0.1-2 0.3s-0.8 0.8-0.8 1.3 0.1 1 0.5 1.6z"/>
			<path d="m290.4 786.5c-0.5-0.1-0.9-0.3-1.2-0.7s-0.4-0.9-0.3-1.4c0.1-0.5 0.3-0.9 0.7-1.2s0.9-0.4 1.4-0.3c0.5 0.1 0.9 0.3 1.2 0.7s0.4 0.9 0.3 1.4-0.3 0.9-0.7 1.2-0.9 0.4-1.4 0.3zm11.6 11.8l-2.4 1.6-7.8-11.2 2.3-1.6 7.9 11.2z"/>
			<path d="m312.9 784l-8.8 6.1c0.6 0.8 1.5 1.2 2.5 1.2s2-0.3 2.9-0.9c1.4-1 2.2-2.2 2.3-3.6l2.4 0.5c-0.3 2.1-1.5 3.8-3.4 5.2-1.6 1.1-3.3 1.5-5.1 1.2s-3.4-1.3-4.6-3-1.6-3.5-1.3-5.4c0.4-1.8 1.3-3.3 2.9-4.3 1.5-1.1 3.1-1.5 4.8-1.3s3.1 1.1 4.2 2.7l1.2 1.6zm-10.1 4.2l6.4-4.5c-0.7-0.9-1.5-1.5-2.4-1.5-0.9-0.1-1.8 0.2-2.7 0.8s-1.5 1.4-1.8 2.4-0.1 1.9 0.5 2.8z"/>
			<path d="m318.9 784.4c-1.8-0.3-3.3-1.4-4.5-3.1s-1.6-3.5-1.3-5.3c0.4-1.8 1.3-3.2 2.8-4.2s3.1-1.3 4.9-0.6l-4.3-6.1 2.3-1.6 10.9 15.6-2.4 1.6-1.2-1.7c0 1.8-0.8 3.3-2.5 4.5-1.3 0.9-2.9 1.2-4.7 0.9zm-2.1-4.7c0.7 1.1 1.7 1.7 2.9 1.9s2.2 0 3.1-0.7c0.9-0.6 1.5-1.5 1.6-2.7 0.2-1.1-0.1-2.2-0.9-3.3-0.7-1.1-1.7-1.7-2.8-2s-2.2-0.1-3.1 0.6-1.5 1.6-1.7 2.8c-0.1 1.2 0.2 2.4 0.9 3.4z"/>
			<path d="m345.2 757.4l2.5-1.7 3.5 5c-0.3 2.5-1.8 4.6-4.3 6.4-2.2 1.5-4.5 2.1-6.9 1.7-2.5-0.4-4.5-1.7-6-3.9s-2.1-4.5-1.6-7 1.8-4.5 3.9-6 4.3-2.1 6.6-1.8v2.8c-0.9-0.1-1.7 0-2.4 0.2s-1.5 0.6-2.2 1.1c-1.5 1-2.4 2.4-2.7 4.1s0 3.3 1.1 4.8 2.5 2.5 4.1 2.7c1.6 0.3 3.2-0.1 4.5-1.1s2.3-2.1 2.9-3.3l-3-4z"/>
			<path d="m363.3 748.6l-8.8 6.1c0.6 0.8 1.5 1.2 2.5 1.2s2-0.3 2.9-0.9c1.4-1 2.2-2.2 2.3-3.6l2.4 0.5c-0.3 2.1-1.5 3.8-3.4 5.2-1.6 1.1-3.3 1.5-5.1 1.2s-3.4-1.3-4.6-3c-1.2-1.8-1.6-3.5-1.3-5.4 0.4-1.8 1.4-3.3 2.9-4.3s3.1-1.5 4.8-1.3c1.7 0.2 3.1 1.1 4.2 2.7l1.2 1.6zm-10 4.3l6.4-4.5c-0.7-0.9-1.5-1.5-2.4-1.5-0.9-0.1-1.8 0.2-2.7 0.8s-1.5 1.4-1.8 2.4-0.1 1.9 0.5 2.8z"/>
			<path d="m367.6 743.4l4.2 6-2.4 1.6-7.8-11.2 2.3-1.6 1.4 2c-0.1-1 0-1.9 0.4-2.7 0.4-0.9 1-1.6 1.7-2.1 1.3-0.9 2.5-1.2 3.9-1 1.3 0.2 2.5 1.1 3.5 2.5l4.8 6.8-2.3 1.6-4.3-6.1c-1.4-2.1-3-2.5-4.7-1.3-0.8 0.6-1.3 1.3-1.6 2.3s0.2 2.1 0.9 3.2z"/>
			<path d="m391.7 733.3c-0.3 1.9-1.3 3.4-3 4.6s-3.5 1.6-5.4 1.3-3.4-1.3-4.5-2.9-1.5-3.4-1.2-5.3c0.3-1.9 1.3-3.4 3-4.6s3.5-1.6 5.4-1.3 3.4 1.3 4.5 2.9c1.1 1.7 1.5 3.4 1.2 5.3zm-7.8 3.3c1.1 0.2 2.2 0 3.2-0.8 1-0.7 1.6-1.6 1.8-2.8 0.2-1.1-0.1-2.3-0.8-3.3-0.8-1.1-1.7-1.7-2.8-1.9s-2.2 0-3.2 0.8c-1 0.7-1.6 1.6-1.8 2.8-0.2 1.1 0.1 2.3 0.8 3.3s1.7 1.7 2.8 1.9z"/>
			<path d="m393.4 720.5l4 5.7c0.4 0.5 0.8 0.9 1.3 1s1 0 1.5-0.4c0.5-0.4 0.8-0.9 0.9-1.7l2.1 1c-0.3 1.3-1 2.3-2 3s-2.1 1-3.3 0.8c-1.2-0.2-2.2-0.9-3-2.1l-3.9-5.6-1.4 1-1.3-1.9 1.4-1-2.5-3.5 2.4-1.6 2.5 3.5 2.9-2.1 1.3 1.9-2.9 2z"/>
			<path d="m410.9 728.7c-1 0.7-2.2 1-3.5 0.8l-0.3-2.7c0.8 0.1 1.5 0 2-0.4s0.8-0.9 0.9-1.5-0.1-1.1-0.4-1.6c-0.1-0.2-4.3-3-12.5-8.3l2.5-1.8 9.1 5.9-2.4-10.6 2.5-1.8 3.9 17.1c0.2 1 0.1 1.8-0.2 2.7-0.4 1-0.9 1.7-1.6 2.2z"/>
			<path d="m416.9 701c1.5-1 3.1-1.4 4.9-1.1s3.3 1.3 4.5 3 1.7 3.5 1.4 5.3-1.2 3.2-2.6 4.2-3.1 1.3-5.1 0.8l4 5.8-2.3 1.6-10.7-15.2 2.3-1.6 1.4 2c-0.1-2.2 0.7-3.7 2.2-4.8zm0.3 8.4c0.7 1.1 1.7 1.7 2.8 1.9s2.1 0 3.1-0.6 1.5-1.5 1.7-2.7c0.2-1.2-0.1-2.3-0.8-3.3-0.7-1.1-1.7-1.7-2.9-2s-2.2 0-3.2 0.6c-0.9 0.7-1.5 1.6-1.6 2.7-0.1 1.2 0.2 2.3 0.9 3.4z"/>
			<path d="m440.5 694.6l-8.8 6.1c0.6 0.8 1.5 1.2 2.5 1.2s2-0.3 2.9-0.9c1.4-1 2.2-2.2 2.3-3.6l2.4 0.5c-0.3 2.1-1.5 3.8-3.4 5.2-1.6 1.1-3.3 1.5-5.1 1.2s-3.4-1.3-4.6-3c-1.2-1.8-1.6-3.5-1.3-5.4 0.4-1.8 1.3-3.3 2.9-4.3 1.5-1.1 3.1-1.5 4.8-1.3s3.1 1.1 4.2 2.7l1.2 1.6zm-10.1 4.3l6.4-4.5c-0.7-0.9-1.5-1.5-2.4-1.5-0.9-0.1-1.8 0.2-2.7 0.8s-1.5 1.4-1.8 2.4c-0.3 0.9-0.1 1.9 0.5 2.8z"/>
			<path d="m446.2 684c-1.2 0.8-1.8 1.8-1.8 3s0.4 2.4 1.2 3.7l3.3 4.8-2.3 1.6-7.8-11.2 2.4-1.6 1.6 2.2c-0.1-1 0-1.9 0.3-2.8s0.9-1.6 1.6-2.1l1.7 2.4c-0.1-0.1-0.1 0-0.2 0z"/>
		</g>
	<g fill="#fff">
		<path d="m678.1 522.6c1.5-1.2 3.4-1.8 5.7-1.8s4.2 0.6 5.7 1.8 2.3 2.7 2.3 4.5-0.8 3.4-2.5 4.8c2.3 1.5 3.4 3.5 3.4 6.1 0 2-0.8 3.8-2.4 5.1s-3.8 2.1-6.4 2.1c-2.7 0-4.8-0.7-6.4-2.1s-2.4-3.1-2.4-5.1c0-2.6 1.1-4.7 3.4-6.1-1.7-1.4-2.5-3-2.5-4.8-0.1-1.8 0.6-3.3 2.1-4.5zm2.4 18.2c1 0.7 2.2 1 3.3 1s2.3-0.3 3.3-1c1-0.7 1.6-1.6 1.6-2.9 0-1.2-0.5-2.2-1.5-2.9s-2.1-1-3.4-1-2.4 0.3-3.4 1c-1 0.7-1.5 1.6-1.5 2.9 0.1 1.3 0.6 2.3 1.6 2.9zm0.4-10.8c0.9 0.7 1.9 1 3 1 1.2 0 2.2-0.3 3-1s1.3-1.5 1.3-2.5-0.4-1.9-1.3-2.5c-0.9-0.7-1.9-1-3-1-1.2 0-2.2 0.3-3 1s-1.3 1.5-1.3 2.5 0.4 1.8 1.3 2.5z"/>
		<path d="m699.6 522.6c1.5-1.2 3.4-1.8 5.7-1.8s4.2 0.6 5.7 1.8 2.3 2.7 2.3 4.5-0.8 3.4-2.5 4.8c2.3 1.5 3.4 3.5 3.4 6.1 0 2-0.8 3.8-2.4 5.1s-3.8 2.1-6.4 2.1c-2.7 0-4.8-0.7-6.4-2.1s-2.4-3.1-2.4-5.1c0-2.6 1.1-4.7 3.4-6.1-1.7-1.4-2.5-3-2.5-4.8-0.2-1.8 0.6-3.3 2.1-4.5zm2.4 18.2c1 0.7 2.2 1 3.3 1s2.3-0.3 3.3-1c1-0.7 1.6-1.6 1.6-2.9 0-1.2-0.5-2.2-1.5-2.9s-2.1-1-3.4-1-2.4 0.3-3.4 1c-1 0.7-1.5 1.6-1.5 2.9s0.6 2.3 1.6 2.9zm0.3-10.8c0.9 0.7 1.9 1 3 1 1.2 0 2.2-0.3 3-1s1.3-1.5 1.3-2.5-0.4-1.9-1.3-2.5c-0.9-0.7-1.9-1-3-1-1.2 0-2.2 0.3-3 1s-1.3 1.5-1.3 2.5 0.5 1.8 1.3 2.5z"/>
		<path d="m718.9 544.5c-0.5-0.5-0.7-1.1-0.7-1.8s0.2-1.3 0.7-1.8 1.1-0.7 1.8-0.7 1.3 0.2 1.8 0.7c0.5 0.5 0.7 1.1 0.7 1.8s-0.2 1.3-0.7 1.8-1.1 0.7-1.8 0.7-1.3-0.2-1.8-0.7z"/>
		<path d="m729 541.9c-1.6-2.2-2.4-5.2-2.4-9s0.8-6.7 2.4-9c1.6-2.2 4-3.3 7.3-3.3 3.2 0 5.7 1.1 7.3 3.3s2.4 5.2 2.4 9-0.8 6.7-2.4 9c-1.6 2.2-4 3.3-7.3 3.3-3.3 0.1-5.7-1-7.3-3.3zm2.9-15.3c-0.9 1.6-1.4 3.8-1.4 6.4s0.5 4.8 1.4 6.4c0.9 1.6 2.4 2.4 4.4 2.4s3.5-0.8 4.4-2.4 1.4-3.8 1.4-6.4c0-2.7-0.5-4.8-1.4-6.4s-2.4-2.4-4.4-2.4c-2-0.1-3.5 0.7-4.4 2.4z"/>
		<path d="m752.4 541.9c-1.6-2.2-2.4-5.2-2.4-9s0.8-6.7 2.4-9c1.6-2.2 4-3.3 7.3-3.3 3.2 0 5.7 1.1 7.3 3.3s2.4 5.2 2.4 9-0.8 6.7-2.4 9c-1.6 2.2-4 3.3-7.3 3.3-3.2 0.1-5.7-1-7.3-3.3zm2.9-15.3c-0.9 1.6-1.4 3.8-1.4 6.4s0.5 4.8 1.4 6.4c0.9 1.6 2.4 2.4 4.4 2.4s3.5-0.8 4.4-2.4 1.4-3.8 1.4-6.4c0-2.7-0.5-4.8-1.4-6.4s-2.4-2.4-4.4-2.4c-2-0.1-3.5 0.7-4.4 2.4z"/>
	</g>
</g>
</svg>
