<?xml version="1.0" encoding="UTF-8" standalone="no"?>
<!-- Generator: Adobe Illustrator 18.1.1, SVG Export Plug-In . SVG Version: 6.00 Build 0)  -->
<svg xmlns="http://www.w3.org/2000/svg" xml:space="preserve" version="1.1" y="0px" x="0px" xmlns:xlink="http://www.w3.org/1999/xlink" viewBox="0 0 891.7 375.6" enable-background="new 0 0 891.7 375.6">
<g id="Layer_12">
</g>
<g id="Layer_1">
		<path d="m43.1 193.4v3.3h-11.2v5.6h10.1v3.2h-10.1v5.6h11.6v3.3h-15.1v-21h14.7z" fill="#428BC7"/>
		<path d="m59.5 193.4v3.2h-8.9v5.2c0.9-0.5 1.9-0.7 3-0.7 2 0 3.7 0.6 5.1 1.8s2.1 2.8 2.1 4.8-0.7 3.7-2.2 5-3.3 2-5.5 2c-2.8 0-5.1-0.9-6.8-2.8l1.9-2.6 0.6 0.6c0.3 0.2 0.8 0.5 1.7 0.9 0.8 0.4 1.8 0.6 2.8 0.6s1.9-0.3 2.7-0.9 1.2-1.5 1.2-2.6-0.4-2-1.3-2.7c-0.9-0.6-2-0.9-3.3-0.9s-2.6 0.3-3.8 1l-1.5-1.6v-10.1h12.2z" fill="#428BC7"/>
		<path d="m64.7 207v-3.2h10v3.2h-10z" fill="#428BC7"/>
		<path d="m86.1 201.6c0.6-0.8 0.9-1.7 0.9-2.5s-0.3-1.6-1-2.1c-0.6-0.6-1.5-0.9-2.4-0.9-1.7 0-3.2 0.9-4.3 2.6l-2.9-1.7c0.9-1.4 1.9-2.4 3-3.1s2.5-1.1 4.3-1.1 3.3 0.6 4.6 1.7c1.3 1.1 2 2.6 2 4.5 0 1.1-0.3 2.1-0.8 3.1-0.6 1-1.6 2.2-3.1 3.8l-4.9 5h9.5v3.4h-14.3v-3l6.4-6.4c1.4-1.4 2.4-2.5 3-3.3z" fill="#428BC7"/>
		<path d="m102.9 196.2c-1.9 0-3.2 0.6-4.1 1.9s-1.3 3-1.4 5.1c0.5-0.6 1.2-1.1 2.2-1.6 0.9-0.5 2-0.7 3.1-0.7 1.9 0 3.5 0.6 4.7 1.9 1.3 1.3 1.9 2.9 1.9 5s-0.7 3.7-2.1 5c-1.4 1.3-3.1 1.9-5.2 1.9-3.4 0-5.7-1.5-7-4.5-0.7-1.7-1.1-3.7-1.1-5.8s0.2-4 0.7-5.4 1.1-2.6 1.9-3.4c1.6-1.6 3.5-2.5 5.8-2.5s4.3 0.7 6.2 2.1l-1.8 2.6c-0.5-0.4-1.1-0.8-1.8-1.1-0.7-0.4-1.4-0.5-2-0.5zm-0.6 7.8c-1.2 0-2.2 0.3-3 1s-1.2 1.5-1.2 2.6 0.4 2 1.2 2.8c0.8 0.8 1.8 1.2 2.9 1.2 1.2 0 2.2-0.3 2.9-1 0.8-0.7 1.2-1.6 1.2-2.6s-0.4-2-1.1-2.7c-0.8-0.9-1.7-1.3-2.9-1.3z" fill="#428BC7"/>
		<path d="m121.4 201.6c0.6-0.8 0.9-1.7 0.9-2.5s-0.3-1.6-1-2.1c-0.6-0.6-1.5-0.9-2.4-0.9-1.7 0-3.2 0.9-4.3 2.6l-2.9-1.7c0.9-1.4 1.9-2.4 3-3.1s2.5-1.1 4.3-1.1 3.3 0.6 4.6 1.7c1.3 1.1 2 2.6 2 4.5 0 1.1-0.3 2.1-0.8 3.1-0.6 1-1.6 2.2-3.1 3.8l-4.9 5h9.5v3.4h-14.3v-3l6.4-6.4c1.4-1.4 2.4-2.5 3-3.3z" fill="#428BC7"/>
		<path d="m131.6 211.7c-1.4-2-2.1-4.6-2.1-7.9s0.7-5.9 2.1-7.9 3.6-3 6.4-3c2.9 0 5 1 6.4 3s2.1 4.6 2.1 7.9-0.7 5.9-2.1 7.9-3.6 3-6.4 3c-2.9-0.1-5-1.1-6.4-3zm2.5-13.6c-0.8 1.4-1.2 3.3-1.2 5.7 0 2.3 0.4 4.2 1.2 5.7 0.8 1.4 2.1 2.2 3.9 2.2s3-0.7 3.9-2.1c0.8-1.4 1.2-3.3 1.2-5.7s-0.4-4.3-1.2-5.7-2.1-2.1-3.9-2.1-3.1 0.5-3.9 2z" fill="#428BC7"/>
		<path d="m166.7 201.5l-2.9-1.9 0.2 3.4h-2l0.2-3.5-2.9 1.9-1-1.7 3.1-1.5-3.1-1.5 1-1.8 2.8 1.9-0.2-3.4h2l-0.2 3.4 2.8-1.9 1 1.7-3.1 1.5 3.1 1.5-0.8 1.9z" fill="#428BC7"/>
		<path d="m188.9 201.6c0.6-0.8 0.9-1.7 0.9-2.5s-0.3-1.6-1-2.1c-0.6-0.6-1.5-0.9-2.4-0.9-1.7 0-3.2 0.9-4.3 2.6l-2.9-1.7c0.9-1.4 1.9-2.4 3-3.1s2.5-1.1 4.3-1.1 3.3 0.6 4.6 1.7c1.3 1.1 2 2.6 2 4.5 0 1.1-0.3 2.1-0.8 3.1-0.6 1-1.6 2.2-3.1 3.8l-4.9 5h9.5v3.4h-14.4v-3l6.4-6.4c1.5-1.4 2.5-2.5 3.1-3.3z" fill="#428BC7"/>
		<path d="m209.7 197.8c-0.8 2.5-1.2 4.9-1.2 7.2s0.4 4.7 1.2 7.2 1.8 4.5 2.9 6.2h-3.6c-1-1.4-1.9-3.3-2.7-5.8s-1.2-5-1.2-7.5c0-2.5 0.4-5 1.2-7.5s1.7-4.5 2.7-5.8h3.6c-1.1 1.5-2.1 3.5-2.9 6z" fill="#428BC7"/>
		<path d="m214.4 193.4h7.6v21h-3.4v-17.8h-4.3v-3.2z" fill="#428BC7"/>
		<path d="m235.6 201.6c0.6-0.8 0.9-1.7 0.9-2.5s-0.3-1.6-1-2.1c-0.6-0.6-1.5-0.9-2.4-0.9-1.7 0-3.2 0.9-4.3 2.6l-2.9-1.7c0.9-1.4 1.9-2.4 3-3.1s2.5-1.1 4.3-1.1 3.3 0.6 4.6 1.7c1.3 1.1 2 2.6 2 4.5 0 1.1-0.3 2.1-0.8 3.1-0.6 1-1.6 2.2-3.1 3.8l-4.9 5h9.5v3.4h-14.4v-3l6.4-6.4c1.5-1.4 2.5-2.5 3.1-3.3z" fill="#428BC7"/>
		<path d="m259.9 214.6c-2.2 0-4.1-0.8-5.7-2.3s-2.4-3.5-2.4-5.9 0.8-4.4 2.5-6 3.7-2.3 6.1-2.3 4.4 0.8 6.1 2.5l-2 2.4c-1.4-1.2-2.8-1.8-4.2-1.8s-2.6 0.5-3.6 1.4c-1 0.9-1.5 2.1-1.5 3.6s0.5 2.7 1.5 3.7c1 1 2.3 1.5 3.8 1.5s2.9-0.7 4.2-2l2 2.2c-2 2-4.3 3-6.8 3z" fill="#428BC7"/>
		<path d="m282.8 212.2c-1.6 1.6-3.6 2.4-6 2.4s-4.4-0.8-6-2.4c-1.6-1.6-2.4-3.5-2.4-5.8s0.8-4.2 2.4-5.8 3.6-2.4 6-2.4 4.4 0.8 6 2.4c1.6 1.6 2.4 3.5 2.4 5.8s-0.8 4.2-2.4 5.8zm-9.6-2c1 1 2.2 1.5 3.6 1.5 1.5 0 2.7-0.5 3.6-1.5 1-1 1.4-2.2 1.4-3.8 0-1.5-0.5-2.8-1.4-3.8-1-1-2.2-1.5-3.6-1.5-1.5 0-2.7 0.5-3.6 1.5-1 1-1.4 2.2-1.4 3.8 0 1.5 0.4 2.8 1.4 3.8z" fill="#428BC7"/>
		<path d="m297.2 201.6c-1.7 0-2.9 0.5-3.8 1.6s-1.3 2.5-1.3 4.4v6.8h-3.4v-16h3.4v3.2c0.5-1 1.3-1.8 2.2-2.5s1.9-1 3-1v3.4c0 0.1 0 0.1-0.1 0.1z" fill="#428BC7"/>
		<path d="m315.1 207.9h-12.5c0.1 1.2 0.6 2.1 1.6 2.8s2.1 1.1 3.4 1.1c2 0 3.5-0.6 4.6-1.9l1.9 2.1c-1.7 1.8-4 2.7-6.7 2.7-2.2 0-4.1-0.7-5.7-2.2s-2.4-3.5-2.4-6 0.8-4.5 2.4-6 3.5-2.2 5.7-2.2 4 0.7 5.5 2 2.3 3.1 2.3 5.4v2.2zm-12.5-2.7h9.2c0-1.3-0.4-2.4-1.3-3.1s-1.9-1.1-3.1-1.1-2.3 0.4-3.3 1.1c-1 0.8-1.5 1.8-1.5 3.1z" fill="#428BC7"/>
		<path d="m330 209.6c0 1.5-0.6 2.7-1.7 3.6s-2.5 1.4-4.2 1.4c-1.2 0-2.4-0.2-3.6-0.6-1.3-0.4-2.4-1-3.3-1.8l1.6-2.6c1.9 1.4 3.7 2.1 5.4 2.1 0.8 0 1.4-0.2 1.8-0.5s0.7-0.8 0.7-1.3c0-0.8-1.1-1.5-3.2-2.2-0.2-0.1-0.3-0.1-0.4-0.1-3.3-0.9-5-2.4-5-4.5 0-1.5 0.6-2.7 1.7-3.6 1.2-0.9 2.6-1.3 4.5-1.3s3.6 0.5 5.2 1.6l-1.3 2.5c-1.3-0.9-2.7-1.3-4.2-1.3-0.8 0-1.5 0.1-2 0.4s-0.8 0.7-0.8 1.3c0 0.5 0.3 0.9 0.8 1.1 0.4 0.2 0.9 0.4 1.5 0.5s1.2 0.3 1.7 0.5c0.5 0.2 1 0.3 1.5 0.5s1 0.5 1.5 0.8c1.2 0.9 1.8 2 1.8 3.5z" fill="#428BC7"/>
		<path d="m334 212.2c0.8-2.5 1.2-4.9 1.2-7.2s-0.4-4.7-1.2-7.2-1.8-4.5-2.9-6.2h3.6c1 1.4 1.9 3.3 2.7 5.8s1.2 5 1.2 7.5c0 2.5-0.4 5-1.2 7.5s-1.7 4.5-2.7 5.8h-3.6c1.1-1.4 2.1-3.5 2.9-6z" fill="#428BC7"/>
		<path d="m43.1 253.4v3.3h-11.2v5.6h10.1v3.2h-10.1v5.6h11.6v3.3h-15.1v-21h14.7z" fill="#566585"/>
		<path d="m59.5 253.4v3.2h-8.9v5.2c0.9-0.5 1.9-0.7 3-0.7 2 0 3.7 0.6 5.1 1.8s2.1 2.8 2.1 4.8-0.7 3.7-2.2 5-3.3 2-5.5 2c-2.8 0-5.1-0.9-6.8-2.8l1.9-2.6 0.6 0.6c0.3 0.2 0.8 0.5 1.7 0.9 0.8 0.4 1.8 0.6 2.8 0.6s1.9-0.3 2.7-0.9 1.2-1.5 1.2-2.6-0.4-2-1.3-2.7c-0.9-0.6-2-0.9-3.3-0.9s-2.6 0.3-3.8 1l-1.5-1.6v-10.1h12.2z" fill="#566585"/>
		<path d="m64.7 267v-3.2h10v3.2h-10z" fill="#566585"/>
		<path d="m86.1 261.6c0.6-0.8 0.9-1.7 0.9-2.5s-0.3-1.6-1-2.1c-0.6-0.6-1.5-0.9-2.4-0.9-1.7 0-3.2 0.9-4.3 2.6l-2.9-1.7c0.9-1.4 1.9-2.4 3-3.1s2.5-1.1 4.3-1.1 3.3 0.6 4.6 1.7c1.3 1.1 2 2.6 2 4.5 0 1.1-0.3 2.1-0.8 3.1-0.6 1-1.6 2.2-3.1 3.8l-4.9 5h9.5v3.4h-14.3v-3l6.4-6.4c1.4-1.4 2.4-2.5 3-3.3z" fill="#566585"/>
		<path d="m102.9 256.2c-1.9 0-3.2 0.6-4.1 1.9s-1.3 3-1.4 5.1c0.5-0.6 1.2-1.1 2.2-1.6 0.9-0.5 2-0.7 3.1-0.7 1.9 0 3.5 0.6 4.7 1.9 1.3 1.3 1.9 2.9 1.9 5s-0.7 3.7-2.1 5c-1.4 1.3-3.1 1.9-5.2 1.9-3.4 0-5.7-1.5-7-4.5-0.7-1.7-1.1-3.7-1.1-5.8s0.2-4 0.7-5.4 1.1-2.6 1.9-3.4c1.6-1.6 3.5-2.5 5.8-2.5s4.3 0.7 6.2 2.1l-1.8 2.6c-0.5-0.4-1.1-0.8-1.8-1.1-0.7-0.4-1.4-0.5-2-0.5zm-0.6 7.8c-1.2 0-2.2 0.3-3 1s-1.2 1.5-1.2 2.6 0.4 2 1.2 2.8c0.8 0.8 1.8 1.2 2.9 1.2 1.2 0 2.2-0.3 2.9-1 0.8-0.7 1.2-1.6 1.2-2.6s-0.4-2-1.1-2.7c-0.8-0.9-1.7-1.3-2.9-1.3z" fill="#566585"/>
		<path d="m112.6 256.5v-3.2h12.3v2.8l-5.1 5.7c1.9 0.1 3.4 0.7 4.5 1.8s1.6 2.5 1.6 4.1c0 2.1-0.7 3.8-2.2 5s-3.3 1.8-5.6 1.8-4.5-0.7-6.7-2.2l1.5-2.9c1.7 1.2 3.5 1.8 5.4 1.8 1.2 0 2.2-0.3 3-0.9s1.2-1.4 1.2-2.5-0.4-1.9-1.3-2.6-2.1-1-3.7-1c-0.8 0-1.5 0.1-2.3 0.3v-2.7l4.9-5.6h-7.5z" fill="#566585"/>
		<path d="m128.3 259.4v-6h14.8v3.2l-8.9 17.8h-3.9l8.7-17.8h-7.4v2.8h-3.3z" fill="#566585"/>
		<path d="m151 274.4l-6.4-16h3.5l4.9 12.1 4.9-12.1h3.5l-6.4 16h-4z" fill="#566585"/>
		<path d="m172.5 261.6c0.6-0.8 0.9-1.7 0.9-2.5s-0.3-1.6-1-2.1c-0.6-0.6-1.5-0.9-2.4-0.9-1.7 0-3.2 0.9-4.3 2.6l-2.9-1.7c0.9-1.4 1.9-2.4 3-3.1s2.5-1.1 4.3-1.1 3.3 0.6 4.6 1.7c1.3 1.1 2 2.6 2 4.5 0 1.1-0.3 2.1-0.8 3.1-0.6 1-1.6 2.2-3.1 3.8l-4.9 5h9.5v3.4h-14.4v-3l6.4-6.4c1.5-1.4 2.5-2.5 3.1-3.3z" fill="#566585"/>
		<path d="m197.4 261.5l-2.9-1.9 0.2 3.4h-2l0.2-3.5-2.9 1.9-1-1.7 3.1-1.5-3.1-1.5 1-1.8 2.8 1.9-0.2-3.4h2l-0.2 3.4 2.8-1.9 1 1.7-3.1 1.5 3.1 1.5-0.8 1.9z" fill="#566585"/>
		<path d="m219.6 261.6c0.6-0.8 0.9-1.7 0.9-2.5s-0.3-1.6-1-2.1c-0.6-0.6-1.5-0.9-2.4-0.9-1.7 0-3.2 0.9-4.3 2.6l-2.9-1.7c0.9-1.4 1.9-2.4 3-3.1s2.5-1.1 4.3-1.1 3.3 0.6 4.6 1.7c1.3 1.1 2 2.6 2 4.5 0 1.1-0.3 2.1-0.8 3.1-0.6 1-1.6 2.2-3.1 3.8l-4.9 5h9.5v3.4h-14.4v-3l6.4-6.4c1.5-1.4 2.5-2.5 3.1-3.3z" fill="#566585"/>
		<path d="m240.4 257.8c-0.8 2.5-1.2 4.9-1.2 7.2s0.4 4.7 1.2 7.2 1.8 4.5 2.9 6.2h-3.6c-1-1.4-1.9-3.3-2.7-5.8s-1.2-5-1.2-7.5c0-2.5 0.4-5 1.2-7.5s1.7-4.5 2.7-5.8h3.6c-1.1 1.5-2.1 3.5-2.9 6z" fill="#566585"/>
		<path d="m247.9 254.6c1.3-1.1 3-1.6 5-1.6s3.7 0.5 5 1.6 2 2.4 2 4-0.8 3-2.3 4.3c2 1.3 3 3.1 3 5.4 0 1.8-0.7 3.3-2.2 4.5-1.4 1.2-3.3 1.8-5.7 1.8-2.3 0-4.2-0.6-5.7-1.8-1.4-1.2-2.2-2.7-2.2-4.5 0-2.3 1-4.1 3-5.4-1.5-1.2-2.3-2.7-2.3-4.3s1.1-3 2.4-4zm2.1 16.1c0.9 0.6 1.9 0.9 2.9 0.9s2-0.3 2.9-0.9 1.4-1.4 1.4-2.5-0.4-2-1.3-2.6-1.9-0.9-3-0.9-2.1 0.3-3 0.9-1.3 1.5-1.3 2.6c0.1 1 0.5 1.9 1.4 2.5zm0.3-9.6c0.8 0.6 1.6 0.9 2.7 0.9 1 0 1.9-0.3 2.7-0.9s1.1-1.4 1.1-2.3c0-0.9-0.4-1.6-1.1-2.2s-1.6-0.9-2.7-0.9c-1 0-1.9 0.3-2.7 0.9s-1.1 1.3-1.1 2.2c0 1 0.4 1.7 1.1 2.3z" fill="#566585"/>
		<path d="m280.3 274.6c-2.2 0-4.1-0.8-5.7-2.3s-2.4-3.5-2.4-5.9 0.8-4.4 2.5-6 3.7-2.3 6.1-2.3 4.4 0.8 6.1 2.5l-2 2.4c-1.4-1.2-2.8-1.8-4.2-1.8s-2.6 0.5-3.6 1.4c-1 0.9-1.5 2.1-1.5 3.6s0.5 2.7 1.5 3.7c1 1 2.3 1.5 3.8 1.5s2.9-0.7 4.2-2l2 2.2c-2 2-4.3 3-6.8 3z" fill="#566585"/>
		<path d="m303.2 272.2c-1.6 1.6-3.6 2.4-6 2.4s-4.4-0.8-6-2.4c-1.6-1.6-2.4-3.5-2.4-5.8s0.8-4.2 2.4-5.8 3.6-2.4 6-2.4 4.4 0.8 6 2.4c1.6 1.6 2.4 3.5 2.4 5.8s-0.8 4.2-2.4 5.8zm-9.6-2c1 1 2.2 1.5 3.6 1.5 1.5 0 2.7-0.5 3.6-1.5 1-1 1.4-2.2 1.4-3.8 0-1.5-0.5-2.8-1.4-3.8-1-1-2.2-1.5-3.6-1.5-1.5 0-2.7 0.5-3.6 1.5-1 1-1.4 2.2-1.4 3.8 0 1.5 0.5 2.8 1.4 3.8z" fill="#566585"/>
		<path d="m317.6 261.6c-1.7 0-2.9 0.5-3.8 1.6s-1.3 2.5-1.3 4.4v6.8h-3.4v-16h3.4v3.2c0.5-1 1.3-1.8 2.2-2.5s1.9-1 3-1v3.4c0 0.1 0 0.1-0.1 0.1z" fill="#566585"/>
		<path d="m335.6 267.9h-12.6c0.1 1.2 0.6 2.1 1.6 2.8s2.1 1.1 3.4 1.1c2 0 3.5-0.6 4.6-1.9l1.9 2.1c-1.7 1.8-4 2.7-6.7 2.7-2.2 0-4.1-0.7-5.7-2.2s-2.4-3.5-2.4-6 0.8-4.5 2.4-6 3.5-2.2 5.7-2.2 4 0.7 5.5 2 2.3 3.1 2.3 5.4v2.2zm-12.6-2.7h9.2c0-1.3-0.4-2.4-1.3-3.1s-1.9-1.1-3.1-1.1-2.3 0.4-3.3 1.1c-1 0.8-1.5 1.8-1.5 3.1z" fill="#566585"/>
		<path d="m350.4 269.6c0 1.5-0.6 2.7-1.7 3.6s-2.5 1.4-4.2 1.4c-1.2 0-2.4-0.2-3.6-0.6-1.3-0.4-2.4-1-3.3-1.8l1.6-2.6c1.9 1.4 3.7 2.1 5.4 2.1 0.8 0 1.4-0.2 1.8-0.5s0.7-0.8 0.7-1.3c0-0.8-1.1-1.5-3.2-2.2-0.2-0.1-0.3-0.1-0.4-0.1-3.3-0.9-5-2.4-5-4.5 0-1.5 0.6-2.7 1.7-3.6 1.2-0.9 2.6-1.3 4.5-1.3s3.6 0.5 5.2 1.6l-1.3 2.5c-1.3-0.9-2.7-1.3-4.2-1.3-0.8 0-1.5 0.1-2 0.4s-0.8 0.7-0.8 1.3c0 0.5 0.3 0.9 0.8 1.1 0.4 0.2 0.9 0.4 1.5 0.5s1.2 0.3 1.7 0.5c0.5 0.2 1 0.3 1.5 0.5s1 0.5 1.5 0.8c1.3 0.9 1.8 2 1.8 3.5z" fill="#566585"/>
		<path d="m354.4 272.2c0.8-2.5 1.2-4.9 1.2-7.2s-0.4-4.7-1.2-7.2-1.8-4.5-2.9-6.2h3.6c1 1.4 1.9 3.3 2.7 5.8s1.2 5 1.2 7.5-0.4 5-1.2 7.5-1.7 4.5-2.7 5.8h-3.6c1.1-1.4 2.1-3.5 2.9-6z" fill="#566585"/>
		<path d="m28.4 313.4h3.5v21h-3.5v-21z" fill="#428BC7"/>
		<path d="m46.6 334.4h-9.2v-21h8.2c1.4 0 2.6 0.2 3.7 0.5 1 0.3 1.8 0.8 2.3 1.4 1 1.1 1.4 2.3 1.4 3.7 0 1.6-0.5 2.9-1.6 3.7-0.4 0.3-0.6 0.5-0.8 0.5-0.1 0.1-0.4 0.2-0.8 0.3 1.3 0.3 2.3 0.9 3.1 1.8s1.2 2 1.2 3.3c0 1.5-0.5 2.8-1.5 3.9-1.1 1.2-3.1 1.9-6 1.9zm-5.6-12.3h4.5c2.6 0 3.8-0.9 3.8-2.6 0-1-0.3-1.7-0.9-2.2-0.6-0.4-1.6-0.7-2.9-0.7h-4.5v5.5zm0 9h5.6c1.3 0 2.3-0.2 3-0.6s1-1.2 1-2.3c0-1.9-1.5-2.8-4.5-2.8h-5.1v5.7z" fill="#428BC7"/>
		<path d="m62 334.4h-3.5v-21h5.5l6.3 13.2 6.3-13.2h5.5v21h-3.5v-16.4l-7.3 14.6h-2l-7.3-14.6v16.4z" fill="#428BC7"/>
		<path d="m110.3 315.2c1.5 1.2 2.2 3.1 2.2 5.6s-0.7 4.4-2.2 5.6-3.8 1.8-6.9 1.8h-3.7v6.2h-3.5v-21h7.2c3.2 0 5.5 0.6 6.9 1.8zm-2.5 8.7c0.7-0.8 1.1-1.9 1.1-3.3 0-1.5-0.5-2.5-1.4-3.1s-2.3-0.9-4.2-0.9h-3.6v8.4h4.1c2 0 3.3-0.4 4-1.1z" fill="#428BC7"/>
		<path d="m129.2 332.2c-1.6 1.6-3.6 2.4-6 2.4s-4.4-0.8-6-2.4c-1.6-1.6-2.4-3.5-2.4-5.8s0.8-4.2 2.4-5.8 3.6-2.4 6-2.4 4.4 0.8 6 2.4c1.6 1.6 2.4 3.5 2.4 5.8s-0.8 4.2-2.4 5.8zm-9.6-2c1 1 2.2 1.5 3.6 1.5 1.5 0 2.7-0.5 3.6-1.5 1-1 1.4-2.2 1.4-3.8 0-1.5-0.5-2.8-1.4-3.8-1-1-2.2-1.5-3.6-1.5-1.5 0-2.7 0.5-3.6 1.5-1 1-1.4 2.2-1.4 3.8 0 1.5 0.5 2.8 1.4 3.8z" fill="#428BC7"/>
		<path d="m142.1 334.4h-3.8l-5.5-16h3.5l4 12.1 4-12.1h3.5l4 12.1 4-12.1h3.5l-5.5 16h-3.8l-3.8-10.9-4.1 10.9z" fill="#428BC7"/>
		<path d="m176.2 327.9h-12.5c0.1 1.2 0.6 2.1 1.6 2.8s2.1 1.1 3.4 1.1c2 0 3.5-0.6 4.6-1.9l1.9 2.1c-1.7 1.8-4 2.7-6.7 2.7-2.2 0-4.1-0.7-5.7-2.2s-2.4-3.5-2.4-6 0.8-4.5 2.4-6 3.5-2.2 5.7-2.2 4 0.7 5.5 2 2.3 3.1 2.3 5.4v2.2zm-12.5-2.7h9.2c0-1.3-0.4-2.4-1.3-3.1s-1.9-1.1-3.1-1.1-2.3 0.4-3.3 1.1c-1 0.8-1.5 1.8-1.5 3.1z" fill="#428BC7"/>
		<path d="m188.2 321.6c-1.7 0-2.9 0.5-3.8 1.6s-1.3 2.5-1.3 4.4v6.8h-3.4v-16h3.4v3.2c0.5-1 1.3-1.8 2.2-2.5s1.9-1 3-1v3.4c0.1 0.1 0 0.1-0.1 0.1z" fill="#428BC7"/>
		<path d="m193.4 314.6c1.3-1.1 3-1.6 5-1.6s3.7 0.5 5 1.6 2 2.4 2 4-0.8 3-2.3 4.3c2 1.3 3 3.1 3 5.4 0 1.8-0.7 3.3-2.2 4.5-1.4 1.2-3.3 1.8-5.7 1.8-2.3 0-4.2-0.6-5.7-1.8-1.4-1.2-2.2-2.7-2.2-4.5 0-2.3 1-4.1 3-5.4-1.5-1.2-2.3-2.7-2.3-4.3s1.1-3 2.4-4zm2.1 16.1c0.9 0.6 1.9 0.9 2.9 0.9s2-0.3 2.9-0.9 1.4-1.4 1.4-2.5-0.4-2-1.3-2.6-1.9-0.9-3-0.9-2.1 0.3-3 0.9-1.3 1.5-1.3 2.6c0 1 0.5 1.9 1.4 2.5zm0.3-9.6c0.8 0.6 1.6 0.9 2.7 0.9 1 0 1.9-0.3 2.7-0.9s1.1-1.4 1.1-2.3c0-0.9-0.4-1.6-1.1-2.2s-1.6-0.9-2.7-0.9c-1 0-1.9 0.3-2.7 0.9s-1.1 1.3-1.1 2.2c0 1 0.4 1.7 1.1 2.3z" fill="#428BC7"/>
		<path d="m222.3 317.8c-0.8 2.5-1.2 4.9-1.2 7.2s0.4 4.7 1.2 7.2 1.8 4.5 2.9 6.2h-3.6c-1-1.4-1.9-3.3-2.7-5.8s-1.2-5-1.2-7.5c0-2.5 0.4-5 1.2-7.5s1.7-4.5 2.7-5.8h3.6c-1.1 1.5-2.1 3.5-2.9 6z" fill="#428BC7"/>
		<path d="m242.6 324.2h3.5v7.2c-2 2.2-4.8 3.3-8.5 3.3-3.1 0-5.7-1-7.8-3.1s-3.1-4.6-3.1-7.7 1.1-5.7 3.2-7.8 4.7-3.1 7.7-3.1c3 0 5.5 0.9 7.5 2.6l-1.9 2.7c-0.8-0.7-1.6-1.2-2.5-1.5s-1.8-0.4-2.9-0.4c-2.1 0-3.9 0.7-5.3 2.1s-2.2 3.2-2.2 5.4 0.7 4 2.1 5.4 3.1 2 5.1 2 3.7-0.4 5-1.3v-5.8z" fill="#428BC7"/>
		<path d="m264.9 315.2c1.5 1.2 2.2 3.1 2.2 5.6s-0.7 4.4-2.2 5.6-3.8 1.8-6.9 1.8h-3.7v6.2h-3.5v-21h7.2c3.1 0 5.5 0.6 6.9 1.8zm-2.5 8.7c0.7-0.8 1.1-1.9 1.1-3.3 0-1.5-0.5-2.5-1.4-3.1s-2.3-0.9-4.2-0.9h-3.6v8.4h4.1c2 0 3.3-0.4 4-1.1z" fill="#428BC7"/>
		<path d="m275.6 329.6c1 1.1 2.3 1.7 3.9 1.7s2.9-0.6 3.9-1.7 1.4-2.6 1.4-4.6v-11.6h3.5v11.8c0 3-0.8 5.3-2.5 7-1.7 1.6-3.8 2.4-6.4 2.4s-4.7-0.8-6.4-2.4-2.5-4-2.5-7v-11.8h3.5v11.6c0.2 1.9 0.7 3.5 1.6 4.6z" fill="#428BC7"/>
		<path d="m294 332.2c0.8-2.5 1.2-4.9 1.2-7.2s-0.4-4.7-1.2-7.2-1.8-4.5-2.9-6.2h3.6c1 1.4 1.9 3.3 2.7 5.8s1.2 5 1.2 7.5c0 2.5-0.4 5-1.2 7.5s-1.7 4.5-2.7 5.8h-3.6c1.1-1.4 2.1-3.5 2.9-6z" fill="#428BC7"/>
	<rect y="0" x="1.9" height="72.9" width="887.9" fill="#566585"/>
	<rect height="372.6" width="887.9" stroke="#566585" stroke-miterlimit="10" y="0" x="1.9" stroke-width="3" fill="none"/>
		<g fill="#566585">
			<path d="m31.3 115.1l-2.1 4.8h-3.8l9.2-21h3.8l9.2 21h-3.8l-2.1-4.8h-10.4zm9.1-3.3l-3.8-8.6-3.8 8.6h7.6z"/>
			<path d="m55.5 114l4.7-15.1h3.2l4.7 15.1 5.3-15.1h3.8l-7.3 21h-3.5l-4.4-14.4h-0.2l-4.4 14.4h-3.5l-7.3-21h3.8l5.1 15.1z"/>
			<path d="m86.3 101.7c-1 0-1.9 0.2-2.5 0.6-0.7 0.4-1 1.1-1 1.9 0 0.9 0.3 1.5 1 2s2.1 0.9 4.2 1.5c2.2 0.5 3.8 1.3 4.9 2.2s1.6 2.3 1.6 4.2-0.7 3.3-2.1 4.5c-1.4 1.1-3.2 1.7-5.4 1.7-3.3 0-6.2-1.1-8.7-3.4l2.2-2.7c2.1 1.8 4.3 2.8 6.6 2.8 1.1 0 2-0.2 2.7-0.7s1-1.1 1-2c0-0.8-0.3-1.4-0.9-1.9s-1.7-0.9-3.3-1.2c-1.5-0.4-2.7-0.7-3.5-1s-1.5-0.7-2.1-1.2c-1.2-0.9-1.9-2.4-1.9-4.3s0.7-3.4 2.1-4.5 3.2-1.6 5.2-1.6c1.3 0 2.7 0.2 4 0.7 1.3 0.4 2.5 1.1 3.4 1.9l-1.9 2.7c-0.6-0.6-1.5-1-2.5-1.4-1-0.7-2.1-0.8-3.1-0.8z"/>
			<path d="m113.7 120.1c-2.2 0-4.1-0.8-5.7-2.3s-2.4-3.5-2.4-5.9 0.8-4.4 2.5-6 3.7-2.3 6.1-2.3 4.4 0.8 6.1 2.5l-2 2.4c-1.4-1.2-2.8-1.8-4.2-1.8s-2.6 0.5-3.6 1.4c-1 0.9-1.5 2.1-1.5 3.6s0.5 2.7 1.5 3.7c1 1 2.3 1.5 3.8 1.5s2.9-0.7 4.2-2l2 2.2c-2 2.1-4.3 3-6.8 3z"/>
			<path d="m123.9 102.1v-3.2h12.3v2.8l-5.1 5.7c1.9 0.1 3.4 0.7 4.5 1.8s1.6 2.5 1.6 4.1c0 2.1-0.7 3.8-2.2 5s-3.3 1.8-5.6 1.8-4.5-0.7-6.7-2.2l1.5-2.9c1.7 1.2 3.5 1.8 5.4 1.8 1.2 0 2.2-0.3 3-0.9s1.2-1.4 1.2-2.5-0.4-1.9-1.3-2.6-2.1-1-3.7-1c-0.8 0-1.5 0.1-2.3 0.3v-2.7l4.9-5.6h-7.5z"/>
			<path d="m141.4 119.5c-0.4-0.4-0.6-1-0.6-1.6s0.2-1.1 0.6-1.6c0.4-0.4 1-0.6 1.6-0.6s1.2 0.2 1.6 0.6 0.7 1 0.7 1.6-0.2 1.2-0.7 1.6c-0.4 0.4-1 0.7-1.6 0.7-0.6-0.1-1.1-0.3-1.6-0.7z"/>
			<path d="m151.6 100.1c1.3-1.1 3-1.6 5-1.6s3.7 0.5 5 1.6 2 2.4 2 4-0.8 3-2.3 4.3c2 1.3 3 3.1 3 5.4 0 1.8-0.7 3.3-2.2 4.5-1.4 1.2-3.3 1.8-5.7 1.8-2.3 0-4.2-0.6-5.7-1.8-1.4-1.2-2.2-2.7-2.2-4.5 0-2.3 1-4.1 3-5.4-1.5-1.2-2.3-2.7-2.3-4.3s1-3 2.4-4zm2.1 16.1c0.9 0.6 1.9 0.9 2.9 0.9s2-0.3 2.9-0.9 1.4-1.4 1.4-2.5-0.4-2-1.3-2.6-1.9-0.9-3-0.9-2.1 0.3-3 0.9-1.3 1.5-1.3 2.6 0.4 1.9 1.4 2.5zm0.2-9.6c0.8 0.6 1.6 0.9 2.7 0.9 1 0 1.9-0.3 2.7-0.9s1.1-1.4 1.1-2.3c0-0.9-0.4-1.6-1.1-2.2s-1.6-0.9-2.7-0.9c-1 0-1.9 0.3-2.7 0.9s-1.1 1.3-1.1 2.2c0 1 0.4 1.7 1.1 2.3z"/>
			<path d="m170.7 103.9l3.4 5.3 3.5-5.3h4l-5.6 7.8 5.8 8.2h-4.1l-3.8-5.3-3.7 5.3h-3.9l5.7-8.1-5.4-7.8h4.1z"/>
			<path d="m188 119.9h-3.4v-22.3h3.4v22.3z"/>
			<path d="m205.6 119.9h-3.1v-2.1c-1.3 1.6-3.1 2.4-5.3 2.4-1.7 0-3-0.5-4.1-1.4s-1.6-2.2-1.6-3.8 0.6-2.7 1.7-3.5c1.2-0.8 2.7-1.2 4.7-1.2h4.4v-0.6c0-2.1-1.2-3.2-3.5-3.2-1.5 0-3 0.5-4.6 1.6l-1.5-2.1c1.9-1.5 4.1-2.3 6.6-2.3 1.9 0 3.4 0.5 4.6 1.4 1.2 1 1.8 2.4 1.8 4.5v10.3zm-3.4-6v-1.4h-3.8c-2.4 0-3.6 0.8-3.6 2.3 0 0.8 0.3 1.4 0.9 1.8s1.4 0.6 2.5 0.6 2-0.3 2.8-0.9 1.2-1.3 1.2-2.4z"/>
			<path d="m218.4 107.1c-1.7 0-2.9 0.5-3.8 1.6s-1.3 2.5-1.3 4.4v6.8h-3.4v-16h3.4v3.2c0.5-1 1.3-1.8 2.2-2.5s1.9-1 3-1v3.4c0.1 0.1 0 0.1-0.1 0.1z"/>
			<path d="m236.4 103.9v13.9c0 2.8-0.8 4.9-2.3 6.4-1.5 1.4-3.5 2.1-5.9 2.1s-4.6-0.8-6.5-2.3l1.6-2.6c1.6 1.2 3.1 1.8 4.7 1.8s2.9-0.4 3.8-1.2c0.9-0.8 1.4-2.1 1.4-3.9v-2c-0.5 0.9-1.2 1.7-2.1 2.3s-2 0.8-3.1 0.8c-2.1 0-3.9-0.7-5.2-2.2-1.4-1.5-2-3.3-2-5.5s0.7-4 2-5.5c1.4-1.5 3.1-2.2 5.2-2.2s3.8 0.9 5.2 2.6v-2.4h3.2zm-12.5 7.4c0 1.3 0.4 2.4 1.2 3.4s1.9 1.4 3.3 1.4c1.4 0 2.5-0.5 3.3-1.4 0.9-0.9 1.3-2.1 1.3-3.4s-0.4-2.5-1.3-3.5c-0.9-1-2-1.4-3.3-1.4s-2.4 0.5-3.3 1.5c-0.8 0.9-1.2 2.1-1.2 3.4z"/>
			<path d="m255.9 113.4h-12.5c0.1 1.2 0.6 2.1 1.6 2.8s2.1 1.1 3.4 1.1c2 0 3.5-0.6 4.6-1.9l1.9 2.1c-1.7 1.8-4 2.7-6.7 2.7-2.2 0-4.1-0.7-5.7-2.2s-2.4-3.5-2.4-6 0.8-4.5 2.4-6 3.5-2.2 5.7-2.2 4 0.7 5.5 2 2.3 3.1 2.3 5.4v2.2zm-12.5-2.7h9.2c0-1.3-0.4-2.4-1.3-3.1s-1.9-1.1-3.1-1.1-2.3 0.4-3.3 1.1c-1.1 0.8-1.5 1.9-1.5 3.1z"/>
			<path d="m31.5 133.3c-0.8 2.5-1.2 4.9-1.2 7.2s0.4 4.7 1.2 7.2 1.8 4.5 2.9 6.2h-3.6c-1-1.4-1.9-3.3-2.7-5.8s-1.2-5-1.2-7.5c0-2.5 0.4-5 1.2-7.5s1.7-4.5 2.7-5.8h3.6c-1.1 1.5-2.1 3.5-2.9 6z"/>
			<path d="m36.9 132.1v-3.2h12.3v2.8l-5.1 5.7c1.9 0.1 3.4 0.7 4.5 1.8s1.6 2.5 1.6 4.1c0 2.1-0.7 3.8-2.2 5s-3.3 1.8-5.6 1.8-4.5-0.7-6.7-2.2l1.5-2.9c1.7 1.2 3.5 1.8 5.4 1.8 1.2 0 2.2-0.3 3-0.9s1.2-1.4 1.2-2.5-0.4-1.9-1.3-2.6-2.1-1-3.7-1c-0.8 0-1.5 0.1-2.3 0.3v-2.7l4.9-5.6h-7.5z"/>
			<path d="m62.4 137.1c0.6-0.8 0.9-1.7 0.9-2.5s-0.3-1.6-1-2.1c-0.6-0.6-1.5-0.9-2.4-0.9-1.7 0-3.2 0.9-4.3 2.6l-2.9-1.7c0.9-1.4 1.9-2.4 3-3.1s2.5-1.1 4.3-1.1 3.3 0.6 4.6 1.7c1.3 1.1 2 2.6 2 4.5 0 1.1-0.3 2.1-0.8 3.1-0.6 1-1.6 2.2-3.1 3.8l-4.9 5h9.5v3.4h-14.3v-3l6.4-6.4c1.4-1.3 2.4-2.5 3-3.3z"/>
			<path d="m83.8 149.9l-6.4-16h3.5l4.9 12.1 4.9-12.1h3.5l-6.4 16h-4z"/>
			<path d="m106.7 146.7c1.2 0 2.3-0.2 3.2-0.6s1.8-1.1 2.8-2l2.3 2.3c-2.2 2.5-4.9 3.7-8.1 3.7s-5.8-1-7.9-3.1-3.1-4.6-3.1-7.7 1.1-5.7 3.2-7.8 4.8-3.1 8.1-3.1c3.3 0 6 1.2 8.2 3.6l-2.3 2.5c-1-1-1.9-1.6-2.8-2s-1.9-0.6-3.1-0.6c-2.1 0-3.9 0.7-5.3 2.1s-2.2 3.1-2.2 5.3c0 2.1 0.7 3.9 2.1 5.3 1.3 1.4 3 2.1 4.9 2.1z"/>
			<path d="m132.8 130.7c1.5 1.2 2.2 3.1 2.2 5.6s-0.7 4.4-2.2 5.6-3.8 1.8-6.9 1.8h-3.7v6.2h-3.5v-21h7.2c3.2 0 5.5 0.6 6.9 1.8zm-2.5 8.7c0.7-0.8 1.1-1.9 1.1-3.3 0-1.5-0.5-2.5-1.4-3.1s-2.3-0.9-4.2-0.9h-3.6v8.4h4.1c2 0 3.3-0.3 4-1.1z"/>
			<path d="m143.6 145.1c1 1.1 2.3 1.7 3.9 1.7s2.9-0.6 3.9-1.7 1.4-2.6 1.4-4.6v-11.6h3.5v11.8c0 3-0.8 5.3-2.5 7-1.7 1.6-3.8 2.4-6.4 2.4s-4.7-0.8-6.4-2.4-2.5-4-2.5-7v-11.8h3.5v11.6c0.1 1.9 0.6 3.5 1.6 4.6z"/>
			<path d="m172.3 145.1c0 1.5-0.6 2.7-1.7 3.6s-2.5 1.4-4.2 1.4c-1.2 0-2.4-0.2-3.6-0.6-1.3-0.4-2.4-1-3.3-1.8l1.6-2.6c1.9 1.4 3.7 2.1 5.4 2.1 0.8 0 1.4-0.2 1.8-0.5s0.7-0.8 0.7-1.3c0-0.8-1.1-1.5-3.2-2.2-0.2-0.1-0.3-0.1-0.4-0.1-3.3-0.9-5-2.4-5-4.5 0-1.5 0.6-2.7 1.7-3.6 1.2-0.9 2.6-1.3 4.5-1.3s3.6 0.5 5.2 1.6l-1.3 2.5c-1.3-0.9-2.7-1.3-4.2-1.3-0.8 0-1.5 0.1-2 0.4s-0.8 0.7-0.8 1.3c0 0.5 0.3 0.9 0.8 1.1 0.4 0.2 0.9 0.4 1.5 0.5s1.2 0.3 1.7 0.5c0.5 0.2 1 0.3 1.5 0.5s1 0.5 1.5 0.8c1.2 0.9 1.8 2 1.8 3.5z"/>
			<path d="m187.4 138.8c-0.8 0-1.3 0.7-1.4 2l-2.6-0.8c0.1-1.4 0.5-2.5 1.3-3.2 0.7-0.7 1.7-1.1 2.8-1.1 0.9 0 2.1 0.4 3.6 1.2 1 0.5 1.7 0.8 2.2 0.8 0.8 0 1.3-0.7 1.4-2l2.6 0.8c-0.1 1.4-0.5 2.5-1.3 3.2-0.7 0.7-1.7 1.1-2.8 1.1-0.9 0-2.1-0.4-3.6-1.3-1-0.5-1.7-0.7-2.2-0.7z"/>
			<path d="m200.6 134h15.1v2.8h-15.1v-2.8zm0 5.7h15.1v2.8h-15.1v-2.8z"/>
			<path d="m217.3 128.9h7.6v21h-3.4v-17.8h-4.3v-3.2z"/>
			<path d="m238.4 131.7c-1.9 0-3.2 0.6-4.1 1.9s-1.3 3-1.4 5.1c0.5-0.6 1.2-1.1 2.2-1.6 0.9-0.5 2-0.7 3.1-0.7 1.9 0 3.5 0.6 4.7 1.9 1.3 1.3 1.9 2.9 1.9 5s-0.7 3.7-2.1 5c-1.4 1.3-3.1 1.9-5.2 1.9-3.4 0-5.7-1.5-7-4.5-0.7-1.7-1.1-3.7-1.1-5.8s0.2-4 0.7-5.4 1.1-2.6 1.9-3.4c1.6-1.6 3.5-2.5 5.8-2.5s4.3 0.7 6.2 2.1l-1.8 2.6c-0.5-0.4-1.1-0.8-1.8-1.1s-1.4-0.5-2-0.5zm-0.6 7.8c-1.2 0-2.2 0.3-3 1s-1.2 1.5-1.2 2.6 0.4 2 1.2 2.8c0.8 0.8 1.8 1.2 2.9 1.2 1.2 0 2.2-0.3 2.9-1 0.8-0.7 1.2-1.6 1.2-2.6s-0.4-2-1.1-2.7c-0.8-0.9-1.7-1.3-2.9-1.3z"/>
			<path d="m264.1 150.1c-2.2 0-4.1-0.8-5.7-2.3s-2.4-3.5-2.4-5.9 0.8-4.4 2.5-6 3.7-2.3 6.1-2.3 4.4 0.8 6.1 2.5l-2 2.4c-1.4-1.2-2.8-1.8-4.2-1.8s-2.6 0.5-3.6 1.4c-1 0.9-1.5 2.1-1.5 3.6s0.5 2.7 1.5 3.7c1 1 2.3 1.5 3.8 1.5s2.9-0.7 4.2-2l2 2.2c-2 2.1-4.2 3-6.8 3z"/>
			<path d="m287.1 147.7c-1.6 1.6-3.6 2.4-6 2.4s-4.4-0.8-6-2.4c-1.6-1.6-2.4-3.5-2.4-5.8s0.8-4.2 2.4-5.8 3.6-2.4 6-2.4 4.4 0.8 6 2.4c1.6 1.6 2.4 3.5 2.4 5.8s-0.8 4.3-2.4 5.8zm-9.6-2c1 1 2.2 1.5 3.6 1.5 1.5 0 2.7-0.5 3.6-1.5 1-1 1.4-2.2 1.4-3.8 0-1.5-0.5-2.8-1.4-3.8-1-1-2.2-1.5-3.6-1.5-1.5 0-2.7 0.5-3.6 1.5-1 1-1.4 2.2-1.4 3.8-0.1 1.5 0.4 2.8 1.4 3.8z"/>
			<path d="m301.5 137.1c-1.7 0-2.9 0.5-3.8 1.6s-1.3 2.5-1.3 4.4v6.8h-3.4v-16h3.4v3.2c0.5-1 1.3-1.8 2.2-2.5s1.9-1 3-1v3.4c0 0.1-0.1 0.1-0.1 0.1z"/>
			<path d="m319.4 143.4h-12.5c0.1 1.2 0.6 2.1 1.6 2.8s2.1 1.1 3.4 1.1c2 0 3.5-0.6 4.6-1.9l1.9 2.1c-1.7 1.8-4 2.7-6.7 2.7-2.2 0-4.1-0.7-5.7-2.2s-2.4-3.5-2.4-6 0.8-4.5 2.4-6 3.5-2.2 5.7-2.2 4 0.7 5.5 2 2.3 3.1 2.3 5.4v2.2zm-12.5-2.7h9.2c0-1.3-0.4-2.4-1.3-3.1s-1.9-1.1-3.1-1.1-2.3 0.4-3.3 1.1c-1 0.8-1.5 1.9-1.5 3.1z"/>
			<path d="m334.2 145.1c0 1.5-0.6 2.7-1.7 3.6s-2.5 1.4-4.2 1.4c-1.2 0-2.4-0.2-3.6-0.6-1.3-0.4-2.4-1-3.3-1.8l1.6-2.6c1.9 1.4 3.7 2.1 5.4 2.1 0.8 0 1.4-0.2 1.8-0.5s0.7-0.8 0.7-1.3c0-0.8-1.1-1.5-3.2-2.2-0.2-0.1-0.3-0.1-0.4-0.1-3.3-0.9-5-2.4-5-4.5 0-1.5 0.6-2.7 1.7-3.6 1.2-0.9 2.6-1.3 4.5-1.3s3.6 0.5 5.2 1.6l-1.3 2.5c-1.3-0.9-2.7-1.3-4.2-1.3-0.8 0-1.5 0.1-2 0.4s-0.8 0.7-0.8 1.3c0 0.5 0.3 0.9 0.8 1.1 0.4 0.2 0.9 0.4 1.5 0.5s1.2 0.3 1.7 0.5c0.5 0.2 1 0.3 1.5 0.5s1 0.5 1.5 0.8c1.3 0.9 1.8 2 1.8 3.5z"/>
			<path d="m338.3 147.7c0.8-2.5 1.2-4.9 1.2-7.2s-0.4-4.7-1.2-7.2-1.8-4.5-2.9-6.2h3.6c1 1.4 1.9 3.3 2.7 5.8s1.2 5 1.2 7.5c0 2.5-0.4 5-1.2 7.5s-1.7 4.5-2.7 5.8h-3.6c1.1-1.4 2.1-3.5 2.9-6z"/>
		</g>
		<g fill="#566585">
			<path d="m482.9 111.4v-3.8h3.4v3.8h2.5v3.2h-2.5v5.3h-3.4v-5.3h-9v-3.1l7.7-12.6h3.9l-7.6 12.5h5z"/>
			<path d="m492.5 119.5c-0.4-0.4-0.6-1-0.6-1.6s0.2-1.1 0.6-1.6c0.4-0.4 1-0.6 1.6-0.6s1.2 0.2 1.6 0.6 0.7 1 0.7 1.6-0.2 1.2-0.7 1.6c-0.4 0.4-1 0.7-1.6 0.7-0.7-0.1-1.2-0.3-1.6-0.7z"/>
			<path d="m501.5 117.2c-1.4-2-2.1-4.6-2.1-7.9s0.7-5.9 2.1-7.9 3.6-3 6.4-3c2.9 0 5 1 6.4 3s2.1 4.6 2.1 7.9-0.7 5.9-2.1 7.9-3.6 3-6.4 3c-2.9-0.1-5-1.1-6.4-3zm2.5-13.6c-0.8 1.4-1.2 3.3-1.2 5.7 0 2.3 0.4 4.2 1.2 5.7 0.8 1.4 2.1 2.2 3.9 2.2s3-0.7 3.9-2.1c0.8-1.4 1.2-3.3 1.2-5.7s-0.4-4.3-1.2-5.7-2.1-2.1-3.9-2.1-3.1 0.5-3.9 2z"/>
			<path d="m522.6 100.1c1.3-1.1 3-1.6 5-1.6s3.7 0.5 5 1.6 2 2.4 2 4-0.8 3-2.3 4.3c2 1.3 3 3.1 3 5.4 0 1.8-0.7 3.3-2.2 4.5-1.4 1.2-3.3 1.8-5.7 1.8-2.3 0-4.2-0.6-5.7-1.8-1.4-1.2-2.2-2.7-2.2-4.5 0-2.3 1-4.1 3-5.4-1.5-1.2-2.3-2.7-2.3-4.3s1-3 2.4-4zm2.1 16.1c0.9 0.6 1.9 0.9 2.9 0.9s2-0.3 2.9-0.9 1.4-1.4 1.4-2.5-0.4-2-1.3-2.6-1.9-0.9-3-0.9-2.1 0.3-3 0.9-1.3 1.5-1.3 2.6c0 1 0.5 1.9 1.4 2.5zm0.3-9.6c0.8 0.6 1.6 0.9 2.7 0.9 1 0 1.9-0.3 2.7-0.9s1.1-1.4 1.1-2.3c0-0.9-0.4-1.6-1.1-2.2s-1.6-0.9-2.7-0.9c-1 0-1.9 0.3-2.7 0.9s-1.1 1.3-1.1 2.2c-0.1 1 0.3 1.7 1.1 2.3z"/>
		</g>
		<g fill="#fff">
			<path d="m423 27.4v4.1h-8.3v3.5c0.6-0.2 1.3-0.3 2.1-0.3 2 0 3.8 0.6 5.2 1.8 1.5 1.2 2.2 2.9 2.2 4.9s-0.8 3.8-2.3 5.1c-1.5 1.4-3.4 2-5.6 2-2.8 0-5.2-1.1-7.1-3.2l2.5-3.4 0.7 0.7c0.3 0.3 0.9 0.6 1.7 1s1.6 0.6 2.4 0.6 1.5-0.2 2.1-0.7 0.9-1.2 0.9-2.1-0.3-1.7-1-2.2-1.5-0.8-2.6-0.8-2.3 0.4-3.7 1.1l-2-2.1v-10h12.8z"/>
			<path d="m435.9 48.6c-2.9 0-5.1-1-6.5-3s-2.2-4.6-2.2-7.9 0.7-5.9 2.2-7.9c1.4-2 3.6-3 6.5-3s5.1 1 6.5 3 2.2 4.6 2.2 7.9-0.7 5.9-2.2 7.9c-1.5 2.1-3.6 3-6.5 3zm-3.1-15.9c-0.7 1.3-1 3-1 5.1s0.3 3.8 1 5.1 1.7 1.9 3.1 1.9 2.4-0.6 3.1-1.9c0.7-1.3 1-3 1-5.1s-0.3-3.8-1-5.1-1.7-1.9-3.1-1.9-2.5 0.6-3.1 1.9z"/>
			<path d="m451.8 32.2l2.8 4.3 2.9-4.3h5.3l-5.6 7.9 5.8 8.3h-5.4l-3.2-4.4-3.1 4.4h-5.2l5.6-8.2-5.3-7.9h5.4z"/>
			<path d="m480.4 39.5l3.7-12.1h4.9l3.7 12.1 4.2-12.1h5.1l-7.3 21h-3.5l-4.6-14.6-4.6 14.6h-3.5l-7.3-21h5.1l4.1 12.1z"/>
			<path d="m517.3 37.7h4.7v7.4c-2.1 2.3-5 3.5-8.6 3.5-3.1 0-5.7-1-7.8-3.1-2.1-2-3.1-4.6-3.1-7.7s1.1-5.7 3.2-7.8 4.7-3.1 7.7-3.1 5.6 1 7.9 3l-2.4 3.5c-0.9-0.8-1.8-1.4-2.6-1.7s-1.6-0.5-2.6-0.5c-1.8 0-3.3 0.6-4.5 1.8s-1.8 2.8-1.8 4.8 0.6 3.6 1.8 4.8 2.6 1.8 4.2 1.8 3-0.3 4.1-0.9v-5.8z"/>
			<path d="m531 31.6c-0.5 0.4-0.7 0.9-0.7 1.5s0.3 1.1 0.8 1.5 1.8 0.8 3.8 1.3c2 0.5 3.5 1.2 4.6 2.2s1.7 2.4 1.7 4.3-0.7 3.4-2.1 4.6c-1.4 1.2-3.3 1.8-5.6 1.8-3.3 0-6.3-1.2-9-3.7l2.8-3.4c2.3 2 4.4 3 6.3 3 0.9 0 1.5-0.2 2-0.6s0.7-0.9 0.7-1.5-0.3-1.1-0.8-1.5c-0.5-0.4-1.6-0.7-3.1-1.1-2.4-0.6-4.2-1.3-5.4-2.3-1.1-0.9-1.7-2.4-1.7-4.4s0.7-3.5 2.1-4.6 3.2-1.6 5.4-1.6c1.4 0 2.8 0.2 4.2 0.7s2.6 1.2 3.7 2l-2.4 3.4c-1.8-1.4-3.7-2.1-5.6-2.1-0.6-0.1-1.3 0.1-1.7 0.5z"/>
			<path d="m557.7 32c-0.8 2.5-1.2 4.8-1.2 6.9s0.4 4.5 1.2 7c0.8 2.5 1.8 4.6 3 6.3h-4.9c-1-1.4-1.9-3.3-2.7-5.8s-1.2-5-1.2-7.4 0.4-4.9 1.2-7.4 1.7-4.5 2.7-5.9h4.9c-1.2 1.8-2.2 3.9-3 6.3z"/>
			<path d="m567.7 39.7v8.7h-4.5v-22.3h4.5v7.9c1.4-1.4 2.9-2.1 4.6-2.1s3.1 0.6 4.3 1.8 1.7 2.8 1.7 4.8v9.8h-4.5v-8.8c0-2.5-0.9-3.7-2.7-3.7-0.9 0-1.7 0.3-2.4 1s-1 1.6-1 2.9z"/>
			<path d="m590.8 36.2c-1.3 0-2.3 0.5-3 1.4-0.7 1-1 2.2-1 3.8v7h-4.5v-16.2h4.5v2.1c0.6-0.7 1.3-1.2 2.2-1.7s1.8-0.7 2.7-0.7v4.2h-0.9z"/>
			<path d="m595.1 45.9c0.8-2.5 1.2-4.8 1.2-7s-0.4-4.5-1.2-6.9c-0.8-2.5-1.8-4.6-3-6.3h4.9c1 1.4 1.9 3.3 2.7 5.9 0.8 2.5 1.2 5 1.2 7.4s-0.4 4.9-1.2 7.4c-0.8 2.5-1.7 4.5-2.7 5.8h-4.9c1.2-1.7 2.2-3.8 3-6.3z"/>
		</g>
		<g fill="#fff">
			<path d="m645.8 35.6c0.5-0.8 0.8-1.5 0.8-2.2s-0.2-1.3-0.7-1.8-1.1-0.7-1.8-0.7c-1.3 0-2.6 0.9-3.8 2.8l-3.8-2.2c1-1.5 2.1-2.7 3.2-3.5 1.2-0.8 2.7-1.2 4.5-1.2s3.4 0.6 4.8 1.7 2.1 2.7 2.1 4.7c0 1.1-0.3 2.1-0.8 3.1-0.6 1-1.6 2.3-3 3.8l-3.8 3.9h8.3v4.2h-14.8v-3.5l6.2-6.3c1.2-1.1 2.1-2.1 2.6-2.8z"/>
			<path d="m653.9 27.4h8.5v21h-4.5v-17h-4v-4z"/>
			<path d="m675.3 48.6c-2.9 0-5.1-1-6.5-3s-2.2-4.6-2.2-7.9 0.7-5.9 2.2-7.9c1.4-2 3.6-3 6.5-3s5.1 1 6.5 3 2.2 4.6 2.2 7.9-0.7 5.9-2.2 7.9c-1.4 2.1-3.6 3-6.5 3zm-3.1-15.9c-0.7 1.3-1 3-1 5.1s0.3 3.8 1 5.1 1.7 1.9 3.1 1.9 2.4-0.6 3.1-1.9c0.7-1.3 1-3 1-5.1s-0.3-3.8-1-5.1-1.7-1.9-3.1-1.9-2.4 0.6-3.1 1.9z"/>
			<path d="m691.3 32.2l2.8 4.3 2.9-4.3h5.3l-5.6 7.9 5.8 8.3h-5.5l-3.2-4.4-3.1 4.4h-5.2l5.6-8.2-5.3-7.9h5.5z"/>
			<path d="m719.8 39.5l3.7-12.1h4.9l3.7 12.1 4.2-12.1h5.1l-7.3 21h-3.5l-4.6-14.6-4.6 14.6h-3.4l-7.3-21h5.1l4 12.1z"/>
			<path d="m759 27.4v4.2h-10.5v4.3h9.4v4h-9.4v4.4h10.8v4.1h-15.5v-21h15.2z"/>
			<path d="m768.3 31.6c-0.5 0.4-0.7 0.9-0.7 1.5s0.3 1.1 0.8 1.5 1.8 0.8 3.8 1.3c2 0.5 3.5 1.2 4.6 2.2s1.7 2.4 1.7 4.3-0.7 3.4-2.1 4.6c-1.4 1.2-3.3 1.8-5.6 1.8-3.3 0-6.3-1.2-9-3.7l2.8-3.4c2.3 2 4.4 3 6.3 3 0.9 0 1.5-0.2 2-0.6s0.7-0.9 0.7-1.5-0.3-1.1-0.8-1.5c-0.5-0.4-1.6-0.7-3.1-1.1-2.4-0.6-4.2-1.3-5.4-2.3-1.1-0.9-1.7-2.4-1.7-4.4s0.7-3.5 2.1-4.6 3.2-1.6 5.4-1.6c1.4 0 2.8 0.2 4.2 0.7s2.6 1.2 3.7 2l-2.4 3.4c-1.8-1.4-3.7-2.1-5.6-2.1-0.7-0.1-1.3 0.1-1.7 0.5z"/>
			<path d="m794.9 32c-0.8 2.5-1.2 4.8-1.2 6.9s0.4 4.5 1.2 7c0.8 2.5 1.8 4.6 3 6.3h-4.9c-1-1.4-1.9-3.3-2.7-5.8s-1.2-5-1.2-7.4 0.4-4.9 1.2-7.4 1.7-4.5 2.7-5.9h4.9c-1.1 1.8-2.2 3.9-3 6.3z"/>
			<path d="m814.5 39.7v8.7h-4.5v-8.8c0-1.3-0.2-2.2-0.6-2.8s-1-0.9-1.9-0.9-1.6 0.3-2.3 1-1 1.6-1 2.9v8.7h-4.5v-16.3h4.5v1.8c1.2-1.4 2.7-2.1 4.3-2.1 1 0 1.9 0.3 2.8 0.9 0.8 0.6 1.5 1.3 1.9 2.2 0.6-1 1.5-1.7 2.5-2.3 1.1-0.5 2.1-0.8 3.2-0.8 1.9 0 3.4 0.6 4.6 1.7s1.7 2.8 1.7 4.9v9.8h-4.5v-8.8c0-2.5-0.9-3.7-2.7-3.7-0.9 0-1.7 0.3-2.3 1-0.8 0.7-1.2 1.6-1.2 2.9z"/>
			<path d="m829.4 30.2c-0.5-0.5-0.8-1.1-0.8-1.9 0-0.7 0.3-1.4 0.8-1.9s1.1-0.8 1.9-0.8c0.7 0 1.4 0.3 1.9 0.8s0.8 1.1 0.8 1.9c0 0.7-0.3 1.4-0.8 1.9s-1.1 0.8-1.9 0.8c-0.7 0-1.4-0.3-1.9-0.8zm4.2 18.2h-4.6v-16.2h4.5v16.2z"/>
			<path d="m842.2 39.4v9h-4.5v-16.2h4.5v1.8c1.4-1.4 2.9-2.1 4.6-2.1s3.1 0.6 4.3 1.8 1.7 2.8 1.7 4.8v9.8h-4.5v-9.1c0-2.5-0.9-3.7-2.7-3.7-0.9 0-1.7 0.3-2.4 1s-1 1.6-1 2.9z"/>
			<path d="m857.3 45.9c0.8-2.5 1.2-4.8 1.2-7s-0.4-4.5-1.2-6.9c-0.8-2.5-1.8-4.6-3-6.3h4.9c1 1.4 1.9 3.3 2.7 5.9 0.8 2.5 1.2 5 1.2 7.4s-0.4 4.9-1.2 7.4c-0.8 2.5-1.7 4.5-2.7 5.8h-4.9c1.1-1.7 2.1-3.8 3-6.3z"/>
		</g>
		<g fill="#566585">
			<path d="m715.6 98.9h7.6v21h-3.4v-17.8h-4.3v-3.2z"/>
			<path d="m736.8 107.1c0.6-0.8 0.9-1.7 0.9-2.5s-0.3-1.6-1-2.1c-0.6-0.6-1.5-0.9-2.4-0.9-1.7 0-3.2 0.9-4.3 2.6l-2.9-1.7c0.9-1.4 1.9-2.4 3-3.1s2.5-1.1 4.3-1.1 3.3 0.6 4.6 1.7c1.3 1.1 2 2.6 2 4.5 0 1.1-0.3 2.1-0.8 3.1-0.6 1-1.6 2.2-3.1 3.8l-4.9 5h9.5v3.4h-14.4v-3l6.4-6.4c1.5-1.3 2.5-2.5 3.1-3.3z"/>
			<path d="m746.5 119.5c-0.4-0.4-0.6-1-0.6-1.6s0.2-1.1 0.6-1.6c0.4-0.4 1-0.6 1.6-0.6s1.2 0.2 1.6 0.6 0.7 1 0.7 1.6-0.2 1.2-0.7 1.6c-0.4 0.4-1 0.7-1.6 0.7-0.6-0.1-1.1-0.3-1.6-0.7z"/>
			<path d="m752.8 104.9v-6h14.8v3.2l-8.9 17.8h-3.9l8.7-17.8h-7.5v2.8h-3.2z"/>
			<path d="m782.7 98.9v3.2h-8.9v5.2c0.9-0.5 1.9-0.7 3-0.7 2 0 3.7 0.6 5.1 1.8s2.1 2.8 2.1 4.8-0.7 3.7-2.2 5-3.3 2-5.5 2c-2.8 0-5.1-0.9-6.8-2.8l1.9-2.6 0.6 0.6c0.3 0.2 0.8 0.5 1.7 0.9 0.8 0.4 1.8 0.6 2.8 0.6s1.9-0.3 2.7-0.9 1.2-1.5 1.2-2.6-0.4-2-1.3-2.7c-0.9-0.6-2-0.9-3.3-0.9s-2.6 0.3-3.8 1l-1.5-1.6v-10.3h12.2z"/>
		</g>
		<path d="m474.2 199.4v-6h14.8v3.2l-8.9 17.8h-3.9l8.7-17.8h-7.4v2.8h-3.3z" fill="#428BC7"/>
		<path d="m489.5 214c-0.4-0.4-0.6-1-0.6-1.6s0.2-1.1 0.6-1.6c0.4-0.4 1-0.6 1.6-0.6s1.2 0.2 1.6 0.6 0.7 1 0.7 1.6-0.2 1.2-0.7 1.6c-0.4 0.4-1 0.7-1.6 0.7-0.6-0.1-1.2-0.3-1.6-0.7z" fill="#428BC7"/>
		<path d="m494.9 193.4h7.6v21h-3.4v-17.8h-4.3v-3.2z" fill="#428BC7"/>
		<path d="m513.3 211.4c1.9 0 3.2-0.6 4.1-1.9s1.3-3 1.4-5.1c-0.5 0.6-1.2 1.1-2.2 1.6-0.9 0.5-2 0.7-3.1 0.7-1.9 0-3.5-0.6-4.7-1.9s-1.9-2.9-1.9-5 0.7-3.7 2.1-5c1.4-1.3 3.1-1.9 5.2-1.9 3.4 0 5.7 1.5 7 4.5 0.7 1.7 1.1 3.7 1.1 5.8s-0.2 4-0.7 5.4c-0.5 1.4-1.1 2.6-1.9 3.4-1.6 1.6-3.5 2.5-5.8 2.5s-4.3-0.7-6.2-2.1l1.8-2.6c0.5 0.4 1.1 0.8 1.8 1.1 0.7 0.4 1.4 0.5 2 0.5zm0.7-7.8c1.2 0 2.2-0.3 3-1s1.2-1.5 1.2-2.6-0.4-2-1.2-2.8-1.8-1.2-2.9-1.2c-1.2 0-2.1 0.3-2.9 1s-1.1 1.6-1.1 2.7 0.3 2 1 2.7c0.7 0.9 1.7 1.2 2.9 1.2z" fill="#428BC7"/>
		<path d="m477.3 254.6c1.3-1.1 3-1.6 5-1.6s3.7 0.5 5 1.6 2 2.4 2 4-0.8 3-2.3 4.3c2 1.3 3 3.1 3 5.4 0 1.8-0.7 3.3-2.2 4.5-1.4 1.2-3.3 1.8-5.7 1.8-2.3 0-4.2-0.6-5.7-1.8-1.4-1.2-2.2-2.7-2.2-4.5 0-2.3 1-4.1 3-5.4-1.5-1.2-2.3-2.7-2.3-4.3s1.1-3 2.4-4zm2.1 16.1c0.9 0.6 1.9 0.9 2.9 0.9s2-0.3 2.9-0.9 1.4-1.4 1.4-2.5-0.4-2-1.3-2.6-1.9-0.9-3-0.9-2.1 0.3-3 0.9-1.3 1.5-1.3 2.6c0 1 0.5 1.9 1.4 2.5zm0.3-9.6c0.8 0.6 1.6 0.9 2.7 0.9 1 0 1.9-0.3 2.7-0.9s1.1-1.4 1.1-2.3c0-0.9-0.4-1.6-1.1-2.2s-1.6-0.9-2.7-0.9c-1 0-1.9 0.3-2.7 0.9s-1.1 1.3-1.1 2.2c0 1 0.3 1.7 1.1 2.3z" fill="#566585"/>
		<path d="m494.4 274c-0.4-0.4-0.6-1-0.6-1.6s0.2-1.1 0.6-1.6c0.4-0.4 1-0.6 1.6-0.6s1.2 0.2 1.6 0.6 0.7 1 0.7 1.6-0.2 1.2-0.7 1.6c-0.4 0.4-1 0.7-1.6 0.7-0.7-0.1-1.2-0.3-1.6-0.7z" fill="#566585"/>
		<path d="m509.9 265.9v-3.9h3.4v3.8h2.5v3.2h-2.5v5.3h-3.4v-5.3h-9v-3l7.7-12.6h3.9l-7.6 12.5h5z" fill="#566585"/>
		<path d="m527.2 261.6c0.6-0.8 0.9-1.7 0.9-2.5s-0.3-1.6-1-2.1c-0.6-0.6-1.5-0.9-2.4-0.9-1.7 0-3.2 0.9-4.3 2.6l-2.9-1.7c0.9-1.4 1.9-2.4 3-3.1s2.5-1.1 4.3-1.1 3.3 0.6 4.6 1.7c1.3 1.1 2 2.6 2 4.5 0 1.1-0.3 2.1-0.8 3.1-0.6 1-1.6 2.2-3.1 3.8l-4.9 5h9.5v3.4h-14.4v-3l6.4-6.4c1.5-1.4 2.5-2.5 3.1-3.3z" fill="#566585"/>
		<path d="m482.9 325.9v-3.9h3.4v3.8h2.5v3.2h-2.5v5.3h-3.4v-5.3h-9v-3l7.7-12.6h3.9l-7.6 12.5h5z" fill="#428BC7"/>
		<path d="m492.5 334c-0.4-0.4-0.6-1-0.6-1.6s0.2-1.1 0.6-1.6c0.4-0.4 1-0.6 1.6-0.6s1.2 0.2 1.6 0.6 0.7 1 0.7 1.6-0.2 1.2-0.7 1.6c-0.4 0.4-1 0.7-1.6 0.7-0.7-0.1-1.2-0.3-1.6-0.7z" fill="#428BC7"/>
		<path d="m508.3 316.2c-1.9 0-3.2 0.6-4.1 1.9s-1.3 3-1.4 5.1c0.5-0.6 1.2-1.1 2.2-1.6 0.9-0.5 2-0.7 3.1-0.7 1.9 0 3.5 0.6 4.7 1.9 1.3 1.3 1.9 2.9 1.9 5s-0.7 3.7-2.1 5c-1.4 1.3-3.1 1.9-5.2 1.9-3.4 0-5.7-1.5-7-4.5-0.7-1.7-1.1-3.7-1.1-5.8s0.2-4 0.7-5.4 1.1-2.6 1.9-3.4c1.6-1.6 3.5-2.5 5.8-2.5s4.3 0.7 6.2 2.1l-1.8 2.6c-0.5-0.4-1.1-0.8-1.8-1.1-0.7-0.4-1.4-0.5-2-0.5zm-0.7 7.8c-1.2 0-2.2 0.3-3 1s-1.2 1.5-1.2 2.6 0.4 2 1.2 2.8c0.8 0.8 1.8 1.2 2.9 1.2 1.2 0 2.2-0.3 2.9-1 0.8-0.7 1.2-1.6 1.2-2.6s-0.4-2-1.1-2.7c-0.7-0.9-1.7-1.3-2.9-1.3z" fill="#428BC7"/>
		<path d="m517.1 319.4v-6h14.8v3.2l-8.9 17.8h-3.9l8.7-17.8h-7.4v2.8h-3.3z" fill="#428BC7"/>
		<path d="m715.6 193.4h7.6v21h-3.4v-17.8h-4.3v-3.2z" fill="#428BC7"/>
		<path d="m736.7 196.2c-1.9 0-3.2 0.6-4.1 1.9s-1.3 3-1.4 5.1c0.5-0.6 1.2-1.1 2.2-1.6 0.9-0.5 2-0.7 3.1-0.7 1.9 0 3.5 0.6 4.7 1.9 1.3 1.3 1.9 2.9 1.9 5s-0.7 3.7-2.1 5c-1.4 1.3-3.1 1.9-5.2 1.9-3.4 0-5.7-1.5-7-4.5-0.7-1.7-1.1-3.7-1.1-5.8s0.2-4 0.7-5.4 1.1-2.6 1.9-3.4c1.6-1.6 3.5-2.5 5.8-2.5s4.3 0.7 6.2 2.1l-1.8 2.6c-0.5-0.4-1.1-0.8-1.8-1.1-0.7-0.4-1.4-0.5-2-0.5zm-0.6 7.8c-1.2 0-2.2 0.3-3 1s-1.2 1.5-1.2 2.6 0.4 2 1.2 2.8c0.8 0.8 1.8 1.2 2.9 1.2 1.2 0 2.2-0.3 2.9-1 0.8-0.7 1.2-1.6 1.2-2.6s-0.4-2-1.1-2.7c-0.7-0.9-1.7-1.3-2.9-1.3z" fill="#428BC7"/>
		<path d="m747.3 214c-0.4-0.4-0.6-1-0.6-1.6s0.2-1.1 0.6-1.6c0.4-0.4 1-0.6 1.6-0.6s1.2 0.2 1.6 0.6 0.7 1 0.7 1.6-0.2 1.2-0.7 1.6c-0.4 0.4-1 0.7-1.6 0.7-0.7-0.1-1.2-0.3-1.6-0.7z" fill="#428BC7"/>
		<path d="m752.7 193.4h7.6v21h-3.4v-17.8h-4.3v-3.2z" fill="#428BC7"/>
		<path d="m773.9 201.6c0.6-0.8 0.9-1.7 0.9-2.5s-0.3-1.6-1-2.1c-0.6-0.6-1.5-0.9-2.4-0.9-1.7 0-3.2 0.9-4.3 2.6l-2.9-1.7c0.9-1.4 1.9-2.4 3-3.1s2.5-1.1 4.3-1.1 3.3 0.6 4.6 1.7c1.3 1.1 2 2.6 2 4.5 0 1.1-0.3 2.1-0.8 3.1-0.6 1-1.6 2.2-3.1 3.8l-4.9 5h9.5v3.4h-14.4v-3l6.4-6.4c1.4-1.4 2.5-2.5 3.1-3.3z" fill="#428BC7"/>
		<path d="m725.9 261.6c0.6-0.8 0.9-1.7 0.9-2.5s-0.3-1.6-1-2.1c-0.6-0.6-1.5-0.9-2.4-0.9-1.7 0-3.2 0.9-4.3 2.6l-2.9-1.7c0.9-1.4 1.9-2.4 3-3.1s2.5-1.1 4.3-1.1 3.3 0.6 4.6 1.7c1.3 1.1 2 2.6 2 4.5 0 1.1-0.3 2.1-0.8 3.1-0.6 1-1.6 2.2-3.1 3.8l-4.9 5h9.5v3.4h-14.4v-3l6.4-6.4c1.5-1.4 2.5-2.5 3.1-3.3z" fill="#566585"/>
		<path d="m743.3 261.6c0.6-0.8 0.9-1.7 0.9-2.5s-0.3-1.6-1-2.1c-0.6-0.6-1.5-0.9-2.4-0.9-1.7 0-3.2 0.9-4.3 2.6l-2.9-1.7c0.9-1.4 1.9-2.4 3-3.1s2.5-1.1 4.3-1.1 3.3 0.6 4.6 1.7c1.3 1.1 2 2.6 2 4.5 0 1.1-0.3 2.1-0.8 3.1-0.6 1-1.6 2.2-3.1 3.8l-4.9 5h9.5v3.4h-14.4v-3l6.4-6.4c1.5-1.4 2.5-2.5 3.1-3.3z" fill="#566585"/>
		<path d="m753 274c-0.4-0.4-0.6-1-0.6-1.6s0.2-1.1 0.6-1.6c0.4-0.4 1-0.6 1.6-0.6s1.2 0.2 1.6 0.6 0.7 1 0.7 1.6-0.2 1.2-0.7 1.6c-0.4 0.4-1 0.7-1.6 0.7-0.6-0.1-1.2-0.3-1.6-0.7z" fill="#566585"/>
		<path d="m762 271.7c-1.4-2-2.1-4.6-2.1-7.9s0.7-5.9 2.1-7.9 3.6-3 6.4-3c2.9 0 5 1 6.4 3s2.1 4.6 2.1 7.9-0.7 5.9-2.1 7.9-3.6 3-6.4 3c-2.8-0.1-5-1.1-6.4-3zm2.5-13.6c-0.8 1.4-1.2 3.3-1.2 5.7 0 2.3 0.4 4.2 1.2 5.7 0.8 1.4 2.1 2.2 3.9 2.2s3-0.7 3.9-2.1c0.8-1.4 1.2-3.3 1.2-5.7s-0.4-4.3-1.2-5.7-2.1-2.1-3.9-2.1-3 0.5-3.9 2z" fill="#566585"/>
		<path d="m789.1 261.6c0.6-0.8 0.9-1.7 0.9-2.5s-0.3-1.6-1-2.1c-0.6-0.6-1.5-0.9-2.4-0.9-1.7 0-3.2 0.9-4.3 2.6l-2.9-1.7c0.9-1.4 1.9-2.4 3-3.1s2.5-1.1 4.3-1.1 3.3 0.6 4.6 1.7c1.3 1.1 2 2.6 2 4.5 0 1.1-0.3 2.1-0.8 3.1-0.6 1-1.6 2.2-3.1 3.8l-4.9 5h9.5v3.4h-14.4v-3l6.4-6.4c1.5-1.4 2.5-2.5 3.1-3.3z" fill="#566585"/>
		<path d="m715.6 313.4h7.6v21h-3.4v-17.8h-4.3v-3.2z" fill="#428BC7"/>
		<path d="m735.9 325.9v-3.9h3.4v3.8h2.5v3.2h-2.5v5.3h-3.4v-5.3h-9v-3l7.7-12.6h3.9l-7.6 12.5h5z" fill="#428BC7"/>
		<path d="m745.5 334c-0.4-0.4-0.6-1-0.6-1.6s0.2-1.1 0.6-1.6c0.4-0.4 1-0.6 1.6-0.6s1.2 0.2 1.6 0.6 0.7 1 0.7 1.6-0.2 1.2-0.7 1.6c-0.4 0.4-1 0.7-1.6 0.7-0.7-0.1-1.2-0.3-1.6-0.7z" fill="#428BC7"/>
		<path d="m754.5 331.7c-1.4-2-2.1-4.6-2.1-7.9s0.7-5.9 2.1-7.9 3.6-3 6.4-3c2.9 0 5 1 6.4 3s2.1 4.6 2.1 7.9-0.7 5.9-2.1 7.9-3.6 3-6.4 3c-2.9-0.1-5-1.1-6.4-3zm2.5-13.6c-0.8 1.4-1.2 3.3-1.2 5.7 0 2.3 0.4 4.2 1.2 5.7 0.8 1.4 2.1 2.2 3.9 2.2s3-0.7 3.9-2.1c0.8-1.4 1.2-3.3 1.2-5.7s-0.4-4.3-1.2-5.7-2.1-2.1-3.9-2.1-3.1 0.5-3.9 2z" fill="#428BC7"/>
		<path d="m785.6 313.4v3.2h-8.9v5.2c0.9-0.5 1.9-0.7 3-0.7 2 0 3.7 0.6 5.1 1.8s2.1 2.8 2.1 4.8-0.7 3.7-2.2 5-3.3 2-5.5 2c-2.8 0-5.1-0.9-6.8-2.8l1.9-2.6 0.6 0.6c0.3 0.2 0.8 0.5 1.7 0.9 0.8 0.4 1.8 0.6 2.8 0.6s1.9-0.3 2.7-0.9 1.2-1.5 1.2-2.6-0.4-2-1.3-2.7c-0.9-0.6-2-0.9-3.3-0.9s-2.6 0.3-3.8 1l-1.5-1.6v-10.1h12.2z" fill="#428BC7"/>
</g>
</svg>
